M48
; DRILL file {KiCad 9.0.3} date 2025-12-02T23:18:34-0800
; FORMAT={-:-/ absolute / inch / decimal}
; #@! TF.CreationDate,2025-12-02T23:18:34-08:00
; #@! TF.GenerationSoftware,Kicad,Pcbnew,9.0.3
; #@! TF.FileFunction,Plated,1,4,PTH
FMAT,2
INCH
; #@! TA.AperFunction,Plated,PTH,ViaDrill
T1C0.0118
; #@! TA.AperFunction,Plated,PTH,ComponentDrill
T2C0.0118
; #@! TA.AperFunction,Plated,PTH,ComponentDrill
T3C0.0197
; #@! TA.AperFunction,Plated,PTH,ComponentDrill
T4C0.0236
; #@! TA.AperFunction,Plated,PTH,ComponentDrill
T5C0.1260
%
G90
G05
T1
X2.0402Y-2.8508
X2.1427Y-3.2461
X2.1429Y-3.3531
X2.1447Y-3.4528
X2.1467Y-3.6614
X2.1476Y-3.5581
X2.15Y-3.7811
X2.1535Y-2.5266
X2.2126Y-3.8868
X2.2126Y-4.0969
X2.2736Y-2.8376
X2.2756Y-2.2884
X2.2856Y-3.7457
X2.339Y-2.0283
X2.339Y-2.211
X2.3555Y-3.7024
X2.3898Y-3.5571
X2.3937Y-3.4528
X2.3947Y-3.3524
X2.3967Y-2.6437
X2.3976Y-3.2461
X2.4146Y-2.213
X2.4331Y-2.4823
X2.4459Y-3.8199
X2.4461Y-2.1685
X2.4476Y-2.0799
X2.4567Y-4.4724
X2.4754Y-3.0906
X2.4846Y-2.8083
X2.4846Y-2.8846
X2.487Y-2.0799
X2.4878Y-2.1559
X2.4882Y-2.1189
X2.4902Y-2.976
X2.4902Y-3.3358
X2.4976Y-2.4839
X2.5185Y-2.9866
X2.5256Y-3.5819
X2.5261Y-3.0615
X2.5343Y-2.8508
X2.5382Y-3.3921
X2.5409Y-2.5256
X2.5492Y-4.4734
X2.5561Y-3.1594
X2.5659Y-2.8858
X2.5709Y-3.1939
X2.5719Y-3.2785
X2.5719Y-3.3652
X2.5906Y-3.5551
X2.6014Y-3.4331
X2.6035Y-2.4681
X2.6063Y-2.6585
X2.6196Y-3.1097
X2.6388Y-3.4439
X2.6417Y-3.7215
X2.6433Y-2.9957
X2.6457Y-2.8317
X2.6457Y-3.2783
X2.6467Y-3.1921
X2.6467Y-3.3652
X2.6555Y-3.5148
X2.6575Y-3.937
X2.6575Y-4.0354
X2.6575Y-4.1339
X2.6575Y-4.2323
X2.6575Y-4.3307
X2.6575Y-4.4291
X2.6831Y-3.7244
X2.6998Y-3.124
X2.7185Y-3.2677
X2.7283Y-2.8425
X2.7406Y-3.0764
X2.749Y-3.1575
X2.7559Y-3.937
X2.7559Y-4.0354
X2.7559Y-4.1339
X2.7559Y-4.2323
X2.7559Y-4.3307
X2.7559Y-4.4291
X2.7648Y-3.3898
X2.7667Y-3.4567
X2.7689Y-3.5193
X2.7953Y-3.2717
X2.8091Y-2.8238
X2.8201Y-3.3681
X2.8423Y-3.1587
X2.8435Y-3.0856
X2.8543Y-3.937
X2.8543Y-4.0354
X2.8543Y-4.3307
X2.8543Y-4.4291
X2.8555Y-3.3882
X2.8563Y-2.2402
X2.8888Y-2.4154
X2.8898Y-2.5148
X2.9528Y-3.937
X2.9528Y-4.0354
X2.9528Y-4.3307
X2.9528Y-4.4291
X2.9951Y-2.4154
X3.0055Y-2.3118
X3.0472Y-2.4272
X3.0472Y-2.4793
X3.0482Y-2.4518
X3.0512Y-3.937
X3.0512Y-4.0354
X3.0512Y-4.1339
X3.0512Y-4.2323
X3.0512Y-4.3307
X3.0512Y-4.4291
X3.0758Y-2.4514
X3.0776Y-2.3114
X3.0856Y-2.1181
X3.1132Y-2.4514
X3.1146Y-3.6953
X3.1358Y-2.1181
X3.1366Y-3.3846
X3.1402Y-3.4913
X3.1427Y-2.437
X3.1496Y-4.4734
X3.1504Y-2.311
X3.1638Y-2.4469
X3.1762Y-2.3425
X3.2122Y-2.5051
X3.213Y-2.4445
X3.2315Y-2.0957
X3.2382Y-4.4724
X3.2392Y-4.4215
X3.248Y-2.4587
X3.2492Y-2.4902
X3.2528Y-2.0421
X3.2551Y-2.4295
X3.2657Y-4.4852
X3.2929Y-4.4138
X3.2953Y-2.2874
X3.2992Y-3.3307
X3.2992Y-3.4402
X3.3091Y-3.7746
X3.31Y-3.9203
X3.315Y-4.2587
X3.3213Y-4.4827
X3.3276Y-2.0758
X3.3276Y-2.1457
X3.3278Y-2.0138
X3.3319Y-3.6803
X3.335Y-2.3868
X3.3354Y-2.3376
X3.338Y-2.4878
X3.3539Y-4.389
X3.3547Y-4.3555
X3.3573Y-2.315
X3.3598Y-4.0752
X3.3675Y-3.7315
X3.3691Y-3.9244
X3.3789Y-2.1181
X3.3799Y-2.2878
X3.389Y-4.4835
X3.4183Y-2.6496
X3.4593Y-4.0634
X3.4636Y-3.5915
X3.552Y-2.8081
X3.5524Y-3.1244
X3.5528Y-2.7
X3.5531Y-2.3839
T2
X2.6624Y-3.0463
X2.6624Y-3.0778
X2.69Y-3.0463
X2.69Y-3.0778
X2.8533Y-4.1398
X2.8533Y-4.1949
X2.8809Y-4.1122
X2.8809Y-4.1673
X2.8809Y-4.2224
X2.9085Y-4.1398
X2.9085Y-4.1949
X2.936Y-4.1122
X2.936Y-4.1673
X2.936Y-4.2224
X2.9636Y-4.1398
X2.9636Y-4.1949
T3
X2.2126Y-3.9409
X2.2126Y-3.9803
X2.2126Y-4.0197
X2.2126Y-4.0591
T5
X2.1654Y-2.1654
X2.1654Y-4.3307
X3.5433Y-2.1654
X3.5433Y-4.3307
T4
G00X3.4303Y-3.6579
M15
G01X3.4736Y-3.6579
M16
G05
G00X3.4303Y-3.998
M15
G01X3.4736Y-3.998
M16
G05
G00X3.6047Y-3.6579
M15
G01X3.6283Y-3.6579
M16
G05
G00X3.6047Y-3.998
M15
G01X3.6283Y-3.998
M16
G05
M30
