%TF.GenerationSoftware,KiCad,Pcbnew,9.0.3*%
%TF.CreationDate,2025-12-03T23:50:38-08:00*%
%TF.ProjectId,AS 3,41532033-2e6b-4696-9361-645f70636258,V3*%
%TF.SameCoordinates,Original*%
%TF.FileFunction,Copper,L3,Inr*%
%TF.FilePolarity,Positive*%
%FSLAX46Y46*%
G04 Gerber Fmt 4.6, Leading zero omitted, Abs format (unit mm)*
G04 Created by KiCad (PCBNEW 9.0.3) date 2025-12-03 23:50:38*
%MOMM*%
%LPD*%
G01*
G04 APERTURE LIST*
%TA.AperFunction,HeatsinkPad*%
%ADD10C,0.450000*%
%TD*%
%TA.AperFunction,ComponentPad*%
%ADD11R,0.830000X0.830000*%
%TD*%
%TA.AperFunction,ComponentPad*%
%ADD12C,0.830000*%
%TD*%
%TA.AperFunction,HeatsinkPad*%
%ADD13O,1.600000X1.000000*%
%TD*%
%TA.AperFunction,HeatsinkPad*%
%ADD14O,2.100000X1.000000*%
%TD*%
%TA.AperFunction,ComponentPad*%
%ADD15C,3.600000*%
%TD*%
%TA.AperFunction,ComponentPad*%
%ADD16C,0.500000*%
%TD*%
%TA.AperFunction,ComponentPad*%
%ADD17R,0.840000X0.840000*%
%TD*%
%TA.AperFunction,ComponentPad*%
%ADD18C,0.840000*%
%TD*%
%TA.AperFunction,ViaPad*%
%ADD19C,0.500000*%
%TD*%
%TA.AperFunction,ViaPad*%
%ADD20C,0.600000*%
%TD*%
G04 APERTURE END LIST*
D10*
%TO.N,GND*%
%TO.C,U1*%
X75275000Y-106550000D03*
X75275000Y-105150000D03*
X74575000Y-107250000D03*
X74575000Y-105850000D03*
X74575000Y-104450000D03*
X73875000Y-106550000D03*
X73875000Y-105150000D03*
X73175000Y-107250000D03*
X73175000Y-105850000D03*
X73175000Y-104450000D03*
X72475000Y-106550000D03*
X72475000Y-105150000D03*
%TD*%
D11*
%TO.N,GND*%
%TO.C,J5*%
X52880000Y-76930000D03*
D12*
%TO.N,/PX3_Signal*%
X52880000Y-77930000D03*
%TO.N,+5VMUX*%
X52880000Y-78930000D03*
%TD*%
D13*
%TO.N,GND*%
%TO.C,J3*%
X91860000Y-92910000D03*
D14*
X87680000Y-92910000D03*
D13*
X91860000Y-101550000D03*
D14*
X87680000Y-101550000D03*
%TD*%
D12*
%TO.N,+12V*%
%TO.C,J4*%
X52210000Y-59040000D03*
D11*
%TO.N,GND*%
X52210000Y-60040000D03*
%TD*%
D15*
%TO.N,GND*%
%TO.C,H3*%
X90000000Y-110000000D03*
%TD*%
D16*
%TO.N,+5VMUX*%
%TO.C,U6*%
X67625000Y-78175000D03*
%TO.N,+5VBus*%
X68325000Y-78175000D03*
%TO.N,+5V*%
X68325000Y-77375000D03*
%TO.N,+5VMUX*%
X67625000Y-77375000D03*
%TD*%
D17*
%TO.N,GND*%
%TO.C,J2*%
X56200000Y-103100000D03*
D18*
%TO.N,/TXD0*%
X56200000Y-102100000D03*
%TO.N,/RXD0*%
X56200000Y-101100000D03*
%TO.N,+3.3V*%
X56200000Y-100100000D03*
%TD*%
D15*
%TO.N,GND*%
%TO.C,H2*%
X90000000Y-55000000D03*
%TD*%
%TO.N,GND*%
%TO.C,H4*%
X55000000Y-110000000D03*
%TD*%
%TO.N,GND*%
%TO.C,H1*%
X55000000Y-55000000D03*
%TD*%
D19*
%TO.N,GND*%
X52900000Y-76060000D03*
D20*
%TO.N,+5VMUX*%
X52900000Y-79830000D03*
%TO.N,+12V*%
X52220000Y-58020000D03*
%TO.N,GND*%
X52210000Y-60960000D03*
%TO.N,+12VA*%
X60800000Y-82450000D03*
%TO.N,GND*%
X54466250Y-82450000D03*
X54466250Y-85160000D03*
%TO.N,+5V*%
X60800000Y-85160000D03*
%TO.N,GND*%
X54466250Y-87700000D03*
%TO.N,+5VBus*%
X60800000Y-87700000D03*
%TO.N,GND*%
X54466250Y-90350000D03*
%TO.N,+5VMUX*%
X60800000Y-90350000D03*
%TO.N,GND*%
X54466250Y-92980000D03*
%TO.N,+3.3V*%
X59735000Y-93946250D03*
X57820000Y-95140000D03*
%TO.N,GND*%
X54610000Y-96040000D03*
X64162500Y-77762500D03*
X90230000Y-79360000D03*
X77500000Y-100000000D03*
X75000000Y-102500000D03*
X77500000Y-102500000D03*
X67500000Y-110000000D03*
X71000000Y-83100000D03*
X67500000Y-105000000D03*
X65300000Y-81125000D03*
X83800000Y-84600000D03*
X69050000Y-83000000D03*
D19*
X80360000Y-62150000D03*
D20*
X78125000Y-62264999D03*
X77400000Y-61650000D03*
X70000000Y-107500000D03*
X79650000Y-53800000D03*
X69610000Y-78140000D03*
X72500000Y-110000000D03*
X64470000Y-86160000D03*
X77500000Y-112500000D03*
X77500000Y-105000000D03*
X84360000Y-113860000D03*
X83800000Y-87380000D03*
X62875000Y-78500000D03*
X60875000Y-67150000D03*
X70000000Y-112500000D03*
X70330000Y-89390000D03*
X67500000Y-102500000D03*
X70000000Y-102500000D03*
X51820000Y-72410000D03*
X70000000Y-110000000D03*
X72225000Y-78375000D03*
X67500000Y-107500000D03*
X84630000Y-93480000D03*
X70000000Y-100000000D03*
X62400000Y-113600000D03*
X75000000Y-110000000D03*
X77500000Y-107500000D03*
X77400000Y-62975000D03*
X82680000Y-61710000D03*
X67500000Y-100000000D03*
X64370000Y-72410000D03*
X65175000Y-73300000D03*
X80020000Y-58700000D03*
X65325000Y-83275000D03*
X75000000Y-100000000D03*
X59410000Y-51520000D03*
X57800000Y-58125000D03*
X87865000Y-103210000D03*
X90250000Y-60550000D03*
X71350000Y-71725000D03*
X85825000Y-53800000D03*
X66537500Y-78987500D03*
X85340000Y-103510000D03*
X66200000Y-67525000D03*
X73375000Y-61350000D03*
X67200000Y-71925000D03*
X72500000Y-112500000D03*
X90220000Y-71325000D03*
X70000000Y-105000000D03*
X79110000Y-93860000D03*
X79075001Y-62264999D03*
X64150000Y-90980000D03*
X59410000Y-56160000D03*
X67500000Y-112500000D03*
X72500000Y-102500000D03*
X82530000Y-63250000D03*
X84050000Y-95875000D03*
X75000000Y-112500000D03*
X80000000Y-113625000D03*
X84525000Y-51150000D03*
X84075000Y-99575000D03*
X87975000Y-91225000D03*
X82950000Y-113925000D03*
X73400000Y-63875000D03*
X78375000Y-53800000D03*
X56200000Y-104060000D03*
D19*
X79825000Y-61900000D03*
D20*
X82620000Y-51870000D03*
X86080000Y-113880000D03*
X84200000Y-108170000D03*
X72500000Y-100000000D03*
X81610000Y-62090000D03*
X80675000Y-59500000D03*
X67025000Y-87475000D03*
X54700000Y-64175000D03*
X82250000Y-113600000D03*
X82500000Y-62450000D03*
X65325000Y-85475000D03*
X63250000Y-84730000D03*
X77425000Y-62275000D03*
X69300000Y-72200000D03*
X57750000Y-72075000D03*
X81590000Y-63630000D03*
X64750000Y-113625000D03*
X64925000Y-80250000D03*
X90240000Y-68580000D03*
X77500000Y-110000000D03*
%TO.N,+12V*%
X62130000Y-55080000D03*
X61330000Y-56210000D03*
X61800000Y-63050000D03*
X62170000Y-52830000D03*
X64540000Y-64150000D03*
X63200000Y-53820000D03*
X63170000Y-52830000D03*
X66130000Y-62690000D03*
X63440000Y-63090000D03*
X63190000Y-54760000D03*
%TO.N,+3.3V*%
X71630000Y-85550000D03*
X70225000Y-86100000D03*
X70275000Y-87800000D03*
X84520000Y-54500000D03*
X82275000Y-112305000D03*
X84520000Y-52725000D03*
X85190000Y-111480000D03*
X83640000Y-112110000D03*
X85850000Y-58110000D03*
X85275000Y-58800000D03*
X56200000Y-98725000D03*
X84710000Y-60625000D03*
X84720000Y-59375000D03*
X85210000Y-110630000D03*
X67450000Y-89275000D03*
X72530000Y-86060000D03*
%TO.N,/BOOT*%
X62125000Y-97025000D03*
X86825000Y-67300000D03*
%TO.N,/SDA*%
X82080000Y-53230000D03*
X67100000Y-94525000D03*
%TO.N,/SCL*%
X83700000Y-58100000D03*
X68150000Y-94600000D03*
%TO.N,+12VA*%
X76075000Y-61350000D03*
X78170000Y-58710000D03*
X76340000Y-58720000D03*
X72550000Y-56900000D03*
%TO.N,/PG*%
X84785000Y-63190000D03*
X65800000Y-90300000D03*
%TO.N,+5VBus*%
X72195000Y-80230000D03*
X85575000Y-99680000D03*
X69825000Y-80200000D03*
X68575000Y-79350000D03*
X85535000Y-94780000D03*
X79670000Y-85970000D03*
X79760000Y-88680000D03*
%TO.N,+5VMUX*%
X63110000Y-71330000D03*
X67200000Y-83270000D03*
X67139999Y-76090001D03*
X63250000Y-75590000D03*
X66075000Y-87200000D03*
X67225000Y-81080000D03*
X63970000Y-75860000D03*
X67225000Y-85475000D03*
X63110000Y-73270000D03*
%TD*%
%TA.AperFunction,Conductor*%
%TO.N,+12VA*%
G36*
X81450466Y-50001081D02*
G01*
X81556632Y-50015195D01*
X81588172Y-50023732D01*
X81679325Y-50061896D01*
X81707540Y-50078377D01*
X81781510Y-50135885D01*
X81785554Y-50139029D01*
X81808483Y-50162309D01*
X81867942Y-50241238D01*
X81883994Y-50269703D01*
X81920765Y-50361421D01*
X81928823Y-50393095D01*
X81941319Y-50499453D01*
X81942152Y-50515808D01*
X81928263Y-51428645D01*
X81911043Y-51484148D01*
X81913477Y-51485449D01*
X81910606Y-51490820D01*
X81850264Y-51636498D01*
X81850261Y-51636510D01*
X81819500Y-51791153D01*
X81819500Y-51948846D01*
X81850261Y-52103489D01*
X81850264Y-52103501D01*
X81905781Y-52237533D01*
X81907543Y-52246760D01*
X81910715Y-52251864D01*
X81915206Y-52286871D01*
X81914227Y-52351236D01*
X81893525Y-52417968D01*
X81840031Y-52462915D01*
X81837694Y-52463911D01*
X81700824Y-52520604D01*
X81700814Y-52520609D01*
X81569711Y-52608210D01*
X81569707Y-52608213D01*
X81458213Y-52719707D01*
X81458210Y-52719711D01*
X81370609Y-52850814D01*
X81370602Y-52850827D01*
X81310264Y-52996498D01*
X81310261Y-52996510D01*
X81279500Y-53151153D01*
X81279500Y-53308846D01*
X81310261Y-53463489D01*
X81310264Y-53463501D01*
X81370602Y-53609172D01*
X81370609Y-53609185D01*
X81458210Y-53740288D01*
X81458213Y-53740292D01*
X81569707Y-53851786D01*
X81569711Y-53851789D01*
X81700814Y-53939390D01*
X81700827Y-53939397D01*
X81811064Y-53985058D01*
X81865468Y-54028898D01*
X81887533Y-54095192D01*
X81887598Y-54101505D01*
X81805876Y-59473040D01*
X81786780Y-60728213D01*
X81780098Y-61167386D01*
X81759396Y-61234119D01*
X81705902Y-61279065D01*
X81656112Y-61289500D01*
X81531155Y-61289500D01*
X81376510Y-61320261D01*
X81376498Y-61320264D01*
X81230827Y-61380602D01*
X81230814Y-61380609D01*
X81099711Y-61468210D01*
X81007114Y-61560807D01*
X80945790Y-61594291D01*
X80876099Y-61589307D01*
X80840775Y-61568984D01*
X80838418Y-61567050D01*
X80715501Y-61484919D01*
X80715488Y-61484912D01*
X80578917Y-61428343D01*
X80578907Y-61428340D01*
X80433920Y-61399499D01*
X80427858Y-61398903D01*
X80428064Y-61396808D01*
X80370190Y-61379815D01*
X80349547Y-61363180D01*
X80303419Y-61317051D01*
X80303415Y-61317048D01*
X80180501Y-61234919D01*
X80180488Y-61234912D01*
X80043917Y-61178343D01*
X80043907Y-61178340D01*
X79898920Y-61149500D01*
X79898918Y-61149500D01*
X79751082Y-61149500D01*
X79751080Y-61149500D01*
X79606092Y-61178340D01*
X79606082Y-61178343D01*
X79469511Y-61234912D01*
X79469498Y-61234919D01*
X79346584Y-61317048D01*
X79346580Y-61317051D01*
X79237741Y-61425891D01*
X79236286Y-61424436D01*
X79186306Y-61458493D01*
X79148182Y-61464499D01*
X78996156Y-61464499D01*
X78841511Y-61495260D01*
X78841499Y-61495263D01*
X78695829Y-61555601D01*
X78695817Y-61555608D01*
X78668887Y-61573601D01*
X78602209Y-61594476D01*
X78534829Y-61575989D01*
X78531112Y-61573600D01*
X78504185Y-61555609D01*
X78504184Y-61555608D01*
X78504179Y-61555605D01*
X78504175Y-61555603D01*
X78504171Y-61555601D01*
X78358501Y-61495263D01*
X78358491Y-61495260D01*
X78253344Y-61474345D01*
X78191433Y-61441960D01*
X78162977Y-61400184D01*
X78109394Y-61270821D01*
X78109390Y-61270814D01*
X78021789Y-61139711D01*
X78021786Y-61139707D01*
X77910292Y-61028213D01*
X77910288Y-61028210D01*
X77779185Y-60940609D01*
X77779172Y-60940602D01*
X77633501Y-60880264D01*
X77633489Y-60880261D01*
X77478845Y-60849500D01*
X77478842Y-60849500D01*
X77321158Y-60849500D01*
X77321155Y-60849500D01*
X77166510Y-60880261D01*
X77166498Y-60880264D01*
X77020827Y-60940602D01*
X77020814Y-60940609D01*
X76889711Y-61028210D01*
X76889707Y-61028213D01*
X76778213Y-61139707D01*
X76778210Y-61139711D01*
X76690609Y-61270814D01*
X76690602Y-61270827D01*
X76630264Y-61416498D01*
X76630261Y-61416510D01*
X76599500Y-61571153D01*
X76599500Y-61728846D01*
X76630260Y-61883488D01*
X76630261Y-61883489D01*
X76630263Y-61883497D01*
X76655832Y-61945227D01*
X76663300Y-62014695D01*
X76655835Y-62040119D01*
X76655266Y-62041492D01*
X76655262Y-62041505D01*
X76624500Y-62196155D01*
X76624500Y-62353846D01*
X76655261Y-62508494D01*
X76655263Y-62508498D01*
X76671364Y-62547369D01*
X76678833Y-62616838D01*
X76671364Y-62642274D01*
X76630264Y-62741498D01*
X76630261Y-62741510D01*
X76599500Y-62896153D01*
X76599500Y-63053846D01*
X76630261Y-63208489D01*
X76630264Y-63208501D01*
X76690602Y-63354172D01*
X76690609Y-63354185D01*
X76761938Y-63460935D01*
X76782816Y-63527612D01*
X76764332Y-63594992D01*
X76712353Y-63641683D01*
X76659624Y-63653823D01*
X74264787Y-63669040D01*
X74197624Y-63649782D01*
X74151534Y-63597270D01*
X74149438Y-63592495D01*
X74109397Y-63495827D01*
X74109390Y-63495814D01*
X74021789Y-63364711D01*
X74021786Y-63364707D01*
X73910292Y-63253213D01*
X73910288Y-63253210D01*
X73779185Y-63165609D01*
X73779172Y-63165602D01*
X73633501Y-63105264D01*
X73633489Y-63105261D01*
X73478845Y-63074500D01*
X73478842Y-63074500D01*
X73321158Y-63074500D01*
X73321155Y-63074500D01*
X73166510Y-63105261D01*
X73166498Y-63105264D01*
X73020827Y-63165602D01*
X73020814Y-63165609D01*
X72889711Y-63253210D01*
X72889707Y-63253213D01*
X72778213Y-63364707D01*
X72778210Y-63364711D01*
X72690609Y-63495814D01*
X72690602Y-63495827D01*
X72666329Y-63554430D01*
X72652158Y-63572015D01*
X72641900Y-63592138D01*
X72630655Y-63598698D01*
X72622488Y-63608834D01*
X72601060Y-63615965D01*
X72581552Y-63627348D01*
X72568545Y-63626787D01*
X72556194Y-63630899D01*
X72534310Y-63625313D01*
X72511747Y-63624342D01*
X72492939Y-63614754D01*
X72488495Y-63613620D01*
X72480302Y-63608312D01*
X72401871Y-63552999D01*
X72389875Y-63543372D01*
X69987269Y-61356773D01*
X69893191Y-61271153D01*
X72574500Y-61271153D01*
X72574500Y-61428846D01*
X72605261Y-61583489D01*
X72605264Y-61583501D01*
X72665602Y-61729172D01*
X72665609Y-61729185D01*
X72753210Y-61860288D01*
X72753213Y-61860292D01*
X72864707Y-61971786D01*
X72864711Y-61971789D01*
X72995814Y-62059390D01*
X72995827Y-62059397D01*
X73141498Y-62119735D01*
X73141503Y-62119737D01*
X73296153Y-62150499D01*
X73296156Y-62150500D01*
X73296158Y-62150500D01*
X73453844Y-62150500D01*
X73453845Y-62150499D01*
X73608497Y-62119737D01*
X73754179Y-62059394D01*
X73885289Y-61971789D01*
X73996789Y-61860289D01*
X74084394Y-61729179D01*
X74144737Y-61583497D01*
X74175500Y-61428842D01*
X74175500Y-61271158D01*
X74175500Y-61271155D01*
X74175499Y-61271153D01*
X74170031Y-61243662D01*
X74144737Y-61116503D01*
X74115554Y-61046048D01*
X74084397Y-60970827D01*
X74084390Y-60970814D01*
X73996789Y-60839711D01*
X73996786Y-60839707D01*
X73885292Y-60728213D01*
X73885288Y-60728210D01*
X73754185Y-60640609D01*
X73754172Y-60640602D01*
X73608501Y-60580264D01*
X73608489Y-60580261D01*
X73453845Y-60549500D01*
X73453842Y-60549500D01*
X73296158Y-60549500D01*
X73296155Y-60549500D01*
X73141510Y-60580261D01*
X73141498Y-60580264D01*
X72995827Y-60640602D01*
X72995814Y-60640609D01*
X72864711Y-60728210D01*
X72864707Y-60728213D01*
X72753213Y-60839707D01*
X72753210Y-60839711D01*
X72665609Y-60970814D01*
X72665602Y-60970827D01*
X72605264Y-61116498D01*
X72605261Y-61116510D01*
X72574500Y-61271153D01*
X69893191Y-61271153D01*
X67123129Y-58750135D01*
X67120685Y-58747849D01*
X67062456Y-58691859D01*
X66988922Y-58621153D01*
X79219500Y-58621153D01*
X79219500Y-58778846D01*
X79250261Y-58933489D01*
X79250264Y-58933501D01*
X79310602Y-59079172D01*
X79310609Y-59079185D01*
X79398210Y-59210288D01*
X79398213Y-59210292D01*
X79509707Y-59321786D01*
X79509711Y-59321789D01*
X79640814Y-59409390D01*
X79640827Y-59409397D01*
X79762695Y-59459875D01*
X79786503Y-59469737D01*
X79786511Y-59469738D01*
X79786842Y-59469839D01*
X79787000Y-59469943D01*
X79792131Y-59472068D01*
X79791728Y-59473040D01*
X79845282Y-59508134D01*
X79873741Y-59571945D01*
X79874254Y-59576345D01*
X79874500Y-59578848D01*
X79905261Y-59733489D01*
X79905264Y-59733501D01*
X79965602Y-59879172D01*
X79965609Y-59879185D01*
X80053210Y-60010288D01*
X80053213Y-60010292D01*
X80164707Y-60121786D01*
X80164711Y-60121789D01*
X80295814Y-60209390D01*
X80295827Y-60209397D01*
X80432710Y-60266095D01*
X80441503Y-60269737D01*
X80596153Y-60300499D01*
X80596156Y-60300500D01*
X80596158Y-60300500D01*
X80753844Y-60300500D01*
X80753845Y-60300499D01*
X80908497Y-60269737D01*
X81054179Y-60209394D01*
X81185289Y-60121789D01*
X81296789Y-60010289D01*
X81384394Y-59879179D01*
X81444737Y-59733497D01*
X81475500Y-59578842D01*
X81475500Y-59421158D01*
X81475500Y-59421155D01*
X81475499Y-59421153D01*
X81455734Y-59321789D01*
X81444737Y-59266503D01*
X81421452Y-59210288D01*
X81384397Y-59120827D01*
X81384390Y-59120814D01*
X81296789Y-58989711D01*
X81296786Y-58989707D01*
X81185292Y-58878213D01*
X81185288Y-58878210D01*
X81054185Y-58790609D01*
X81054172Y-58790602D01*
X80908501Y-58730264D01*
X80908150Y-58730158D01*
X80907988Y-58730052D01*
X80902870Y-58727932D01*
X80903272Y-58726961D01*
X80849712Y-58691859D01*
X80821257Y-58628046D01*
X80820744Y-58623641D01*
X80820500Y-58621167D01*
X80820500Y-58621158D01*
X80789737Y-58466503D01*
X80756568Y-58386425D01*
X80729397Y-58320827D01*
X80729390Y-58320814D01*
X80641789Y-58189711D01*
X80641786Y-58189707D01*
X80530292Y-58078213D01*
X80530288Y-58078210D01*
X80399185Y-57990609D01*
X80399172Y-57990602D01*
X80253501Y-57930264D01*
X80253489Y-57930261D01*
X80098845Y-57899500D01*
X80098842Y-57899500D01*
X79941158Y-57899500D01*
X79941155Y-57899500D01*
X79786510Y-57930261D01*
X79786498Y-57930264D01*
X79640827Y-57990602D01*
X79640814Y-57990609D01*
X79509711Y-58078210D01*
X79509707Y-58078213D01*
X79398213Y-58189707D01*
X79398210Y-58189711D01*
X79310609Y-58320814D01*
X79310602Y-58320827D01*
X79250264Y-58466498D01*
X79250261Y-58466510D01*
X79219500Y-58621153D01*
X66988922Y-58621153D01*
X66279935Y-57939435D01*
X66252374Y-57899974D01*
X66226619Y-57841411D01*
X66217268Y-57808258D01*
X66202011Y-57696410D01*
X66200875Y-57679203D01*
X66215887Y-53721153D01*
X77574500Y-53721153D01*
X77574500Y-53878846D01*
X77605261Y-54033489D01*
X77605264Y-54033501D01*
X77665602Y-54179172D01*
X77665609Y-54179185D01*
X77753210Y-54310288D01*
X77753213Y-54310292D01*
X77864707Y-54421786D01*
X77864711Y-54421789D01*
X77995814Y-54509390D01*
X77995827Y-54509397D01*
X78076922Y-54542987D01*
X78141503Y-54569737D01*
X78296153Y-54600499D01*
X78296156Y-54600500D01*
X78296158Y-54600500D01*
X78453844Y-54600500D01*
X78453845Y-54600499D01*
X78608497Y-54569737D01*
X78754179Y-54509394D01*
X78885289Y-54421789D01*
X78924818Y-54382260D01*
X78986141Y-54348774D01*
X79055832Y-54353758D01*
X79100182Y-54382260D01*
X79139707Y-54421786D01*
X79139711Y-54421789D01*
X79270814Y-54509390D01*
X79270827Y-54509397D01*
X79351922Y-54542987D01*
X79416503Y-54569737D01*
X79571153Y-54600499D01*
X79571156Y-54600500D01*
X79571158Y-54600500D01*
X79728844Y-54600500D01*
X79728845Y-54600499D01*
X79883497Y-54569737D01*
X80029179Y-54509394D01*
X80160289Y-54421789D01*
X80271789Y-54310289D01*
X80359394Y-54179179D01*
X80419737Y-54033497D01*
X80450500Y-53878842D01*
X80450500Y-53721158D01*
X80450500Y-53721155D01*
X80450499Y-53721153D01*
X80419738Y-53566510D01*
X80419737Y-53566503D01*
X80377068Y-53463489D01*
X80359397Y-53420827D01*
X80359390Y-53420814D01*
X80271789Y-53289711D01*
X80271786Y-53289707D01*
X80160292Y-53178213D01*
X80160288Y-53178210D01*
X80029185Y-53090609D01*
X80029172Y-53090602D01*
X79883501Y-53030264D01*
X79883489Y-53030261D01*
X79728845Y-52999500D01*
X79728842Y-52999500D01*
X79571158Y-52999500D01*
X79571155Y-52999500D01*
X79416510Y-53030261D01*
X79416498Y-53030264D01*
X79270827Y-53090602D01*
X79270814Y-53090609D01*
X79139711Y-53178210D01*
X79139707Y-53178213D01*
X79100181Y-53217740D01*
X79038858Y-53251225D01*
X78969166Y-53246241D01*
X78924819Y-53217740D01*
X78885292Y-53178213D01*
X78885288Y-53178210D01*
X78754185Y-53090609D01*
X78754172Y-53090602D01*
X78608501Y-53030264D01*
X78608489Y-53030261D01*
X78453845Y-52999500D01*
X78453842Y-52999500D01*
X78296158Y-52999500D01*
X78296155Y-52999500D01*
X78141510Y-53030261D01*
X78141498Y-53030264D01*
X77995827Y-53090602D01*
X77995814Y-53090609D01*
X77864711Y-53178210D01*
X77864707Y-53178213D01*
X77753213Y-53289707D01*
X77753210Y-53289711D01*
X77665609Y-53420814D01*
X77665602Y-53420827D01*
X77605264Y-53566498D01*
X77605261Y-53566510D01*
X77574500Y-53721153D01*
X66215887Y-53721153D01*
X66228080Y-50506208D01*
X66229197Y-50490069D01*
X66243374Y-50385203D01*
X66251830Y-50354038D01*
X66289456Y-50263926D01*
X66305668Y-50236011D01*
X66365284Y-50158672D01*
X66388155Y-50135887D01*
X66465725Y-50076560D01*
X66493700Y-50060456D01*
X66583954Y-50023172D01*
X66615150Y-50014834D01*
X66720066Y-50001055D01*
X66736212Y-50000000D01*
X81434125Y-50000000D01*
X81450466Y-50001081D01*
G37*
%TD.AperFunction*%
%TD*%
%TA.AperFunction,Conductor*%
%TO.N,+3.3V*%
G36*
X89767165Y-50019685D02*
G01*
X89812920Y-50072489D01*
X89814687Y-50076547D01*
X89830024Y-50113574D01*
X89886426Y-50169976D01*
X89960118Y-50200500D01*
X89997294Y-50200500D01*
X90002702Y-50200617D01*
X90412917Y-50218528D01*
X90423654Y-50219468D01*
X90828057Y-50272708D01*
X90838695Y-50274583D01*
X91236925Y-50362869D01*
X91247365Y-50365667D01*
X91636363Y-50488317D01*
X91646524Y-50492015D01*
X92023363Y-50648108D01*
X92033155Y-50652674D01*
X92394965Y-50841020D01*
X92404305Y-50846413D01*
X92689636Y-51028189D01*
X92748309Y-51065568D01*
X92757170Y-51071772D01*
X93080766Y-51320076D01*
X93089053Y-51327030D01*
X93389767Y-51602583D01*
X93397416Y-51610232D01*
X93672969Y-51910946D01*
X93679923Y-51919233D01*
X93928227Y-52242829D01*
X93934431Y-52251690D01*
X94153578Y-52595680D01*
X94158983Y-52605042D01*
X94250392Y-52780636D01*
X94347322Y-52966838D01*
X94351894Y-52976642D01*
X94507983Y-53353473D01*
X94511683Y-53363639D01*
X94634331Y-53752630D01*
X94637131Y-53763078D01*
X94725414Y-54161296D01*
X94727292Y-54171950D01*
X94780529Y-54576326D01*
X94781472Y-54587102D01*
X94799382Y-54997297D01*
X94799500Y-55002706D01*
X94799500Y-55039882D01*
X94830024Y-55113574D01*
X94886426Y-55169976D01*
X94923453Y-55185313D01*
X94977855Y-55229152D01*
X94999921Y-55295446D01*
X95000000Y-55299873D01*
X95000000Y-109700126D01*
X94980315Y-109767165D01*
X94927511Y-109812920D01*
X94923453Y-109814687D01*
X94886425Y-109830024D01*
X94830024Y-109886425D01*
X94799500Y-109960116D01*
X94799500Y-109997293D01*
X94799382Y-110002702D01*
X94781472Y-110412897D01*
X94780529Y-110423673D01*
X94727292Y-110828049D01*
X94725414Y-110838703D01*
X94637131Y-111236921D01*
X94634331Y-111247369D01*
X94511683Y-111636360D01*
X94507983Y-111646526D01*
X94351894Y-112023357D01*
X94347322Y-112033161D01*
X94158987Y-112394951D01*
X94153578Y-112404319D01*
X93934431Y-112748309D01*
X93928227Y-112757170D01*
X93679923Y-113080766D01*
X93672969Y-113089053D01*
X93397416Y-113389767D01*
X93389767Y-113397416D01*
X93089053Y-113672969D01*
X93080766Y-113679923D01*
X92757170Y-113928227D01*
X92748309Y-113934431D01*
X92404319Y-114153578D01*
X92394951Y-114158987D01*
X92033161Y-114347322D01*
X92023357Y-114351894D01*
X91646526Y-114507983D01*
X91636360Y-114511683D01*
X91247369Y-114634331D01*
X91236921Y-114637131D01*
X90838703Y-114725414D01*
X90828049Y-114727292D01*
X90423673Y-114780529D01*
X90412897Y-114781472D01*
X90107714Y-114794797D01*
X90011315Y-114799006D01*
X90002703Y-114799382D01*
X89997294Y-114799500D01*
X86306998Y-114799500D01*
X86239959Y-114779815D01*
X86194204Y-114727011D01*
X86184260Y-114657853D01*
X86213285Y-114594297D01*
X86272063Y-114556523D01*
X86282800Y-114553883D01*
X86284328Y-114553580D01*
X86411811Y-114500775D01*
X86526542Y-114424114D01*
X86624114Y-114326542D01*
X86700775Y-114211811D01*
X86753580Y-114084328D01*
X86775961Y-113971811D01*
X86780500Y-113948995D01*
X86780500Y-113811004D01*
X86753581Y-113675677D01*
X86753580Y-113675676D01*
X86753580Y-113675672D01*
X86750814Y-113668995D01*
X86700778Y-113548195D01*
X86700771Y-113548182D01*
X86624114Y-113433458D01*
X86624111Y-113433454D01*
X86526545Y-113335888D01*
X86526541Y-113335885D01*
X86411817Y-113259228D01*
X86411804Y-113259221D01*
X86284332Y-113206421D01*
X86284322Y-113206418D01*
X86148995Y-113179500D01*
X86148993Y-113179500D01*
X86011007Y-113179500D01*
X86011005Y-113179500D01*
X85875677Y-113206418D01*
X85875667Y-113206421D01*
X85748195Y-113259221D01*
X85748182Y-113259228D01*
X85633458Y-113335885D01*
X85633454Y-113335888D01*
X85535888Y-113433454D01*
X85535885Y-113433458D01*
X85459228Y-113548182D01*
X85459221Y-113548195D01*
X85406421Y-113675667D01*
X85406418Y-113675677D01*
X85379500Y-113811004D01*
X85379500Y-113811007D01*
X85379500Y-113948993D01*
X85379500Y-113948995D01*
X85379499Y-113948995D01*
X85406418Y-114084322D01*
X85406421Y-114084332D01*
X85459221Y-114211804D01*
X85459228Y-114211817D01*
X85535885Y-114326541D01*
X85535888Y-114326545D01*
X85633454Y-114424111D01*
X85633458Y-114424114D01*
X85748182Y-114500771D01*
X85748195Y-114500778D01*
X85856819Y-114545771D01*
X85875672Y-114553580D01*
X85877193Y-114553882D01*
X85877915Y-114554260D01*
X85881504Y-114555349D01*
X85881297Y-114556029D01*
X85939104Y-114586267D01*
X85973678Y-114646983D01*
X85969939Y-114716752D01*
X85929073Y-114773424D01*
X85864055Y-114799006D01*
X85853002Y-114799500D01*
X84486453Y-114799500D01*
X84419414Y-114779815D01*
X84373659Y-114727011D01*
X84363715Y-114657853D01*
X84392740Y-114594297D01*
X84451518Y-114556523D01*
X84462261Y-114553883D01*
X84534311Y-114539550D01*
X84564328Y-114533580D01*
X84691811Y-114480775D01*
X84806542Y-114404114D01*
X84904114Y-114306542D01*
X84980775Y-114191811D01*
X85033580Y-114064328D01*
X85051983Y-113971810D01*
X85060500Y-113928995D01*
X85060500Y-113791004D01*
X85033581Y-113655677D01*
X85033580Y-113655676D01*
X85033580Y-113655672D01*
X85033578Y-113655667D01*
X84980778Y-113528195D01*
X84980771Y-113528182D01*
X84904114Y-113413458D01*
X84904111Y-113413454D01*
X84806545Y-113315888D01*
X84806541Y-113315885D01*
X84691817Y-113239228D01*
X84691804Y-113239221D01*
X84564332Y-113186421D01*
X84564322Y-113186418D01*
X84428995Y-113159500D01*
X84428993Y-113159500D01*
X84291007Y-113159500D01*
X84291005Y-113159500D01*
X84155677Y-113186418D01*
X84155667Y-113186421D01*
X84028195Y-113239221D01*
X84028182Y-113239228D01*
X83913458Y-113315885D01*
X83913454Y-113315888D01*
X83815888Y-113413454D01*
X83815885Y-113413458D01*
X83736386Y-113532436D01*
X83682773Y-113577241D01*
X83613448Y-113585948D01*
X83550421Y-113555793D01*
X83530182Y-113532437D01*
X83494111Y-113478454D01*
X83396545Y-113380888D01*
X83396541Y-113380885D01*
X83281817Y-113304228D01*
X83281804Y-113304221D01*
X83154332Y-113251421D01*
X83154322Y-113251418D01*
X83018995Y-113224500D01*
X83018993Y-113224500D01*
X82907862Y-113224500D01*
X82840823Y-113204815D01*
X82804762Y-113169394D01*
X82794114Y-113153458D01*
X82794112Y-113153456D01*
X82794110Y-113153453D01*
X82696545Y-113055888D01*
X82696541Y-113055885D01*
X82581817Y-112979228D01*
X82581804Y-112979221D01*
X82454332Y-112926421D01*
X82454322Y-112926418D01*
X82318995Y-112899500D01*
X82318993Y-112899500D01*
X82181007Y-112899500D01*
X82181005Y-112899500D01*
X82045677Y-112926418D01*
X82045667Y-112926421D01*
X81918195Y-112979221D01*
X81918182Y-112979228D01*
X81803458Y-113055885D01*
X81803454Y-113055888D01*
X81705888Y-113153454D01*
X81705885Y-113153458D01*
X81629228Y-113268182D01*
X81629221Y-113268195D01*
X81576421Y-113395667D01*
X81576418Y-113395677D01*
X81549500Y-113531004D01*
X81549500Y-113531007D01*
X81549500Y-113668993D01*
X81549500Y-113668995D01*
X81549499Y-113668995D01*
X81576418Y-113804322D01*
X81576421Y-113804332D01*
X81629221Y-113931804D01*
X81629228Y-113931817D01*
X81705885Y-114046541D01*
X81705888Y-114046545D01*
X81803454Y-114144111D01*
X81803458Y-114144114D01*
X81918182Y-114220771D01*
X81918195Y-114220778D01*
X82045667Y-114273578D01*
X82045672Y-114273580D01*
X82045676Y-114273580D01*
X82045677Y-114273581D01*
X82181004Y-114300500D01*
X82292137Y-114300500D01*
X82359176Y-114320185D01*
X82395237Y-114355606D01*
X82405885Y-114371540D01*
X82405890Y-114371547D01*
X82503454Y-114469111D01*
X82503458Y-114469114D01*
X82618182Y-114545771D01*
X82618195Y-114545778D01*
X82654797Y-114560939D01*
X82709201Y-114604780D01*
X82731266Y-114671074D01*
X82713987Y-114738773D01*
X82662850Y-114786384D01*
X82607345Y-114799500D01*
X55002706Y-114799500D01*
X54997297Y-114799382D01*
X54988685Y-114799006D01*
X54699602Y-114786384D01*
X54587102Y-114781472D01*
X54576326Y-114780529D01*
X54171950Y-114727292D01*
X54161296Y-114725414D01*
X53763078Y-114637131D01*
X53752630Y-114634331D01*
X53363639Y-114511683D01*
X53353473Y-114507983D01*
X52976642Y-114351894D01*
X52966838Y-114347322D01*
X52771767Y-114245775D01*
X52605042Y-114158983D01*
X52595686Y-114153582D01*
X52345183Y-113993993D01*
X52251690Y-113934431D01*
X52242829Y-113928227D01*
X51919233Y-113679923D01*
X51910946Y-113672969D01*
X51906609Y-113668995D01*
X61699499Y-113668995D01*
X61726418Y-113804322D01*
X61726421Y-113804332D01*
X61779221Y-113931804D01*
X61779228Y-113931817D01*
X61855885Y-114046541D01*
X61855888Y-114046545D01*
X61953454Y-114144111D01*
X61953458Y-114144114D01*
X62068182Y-114220771D01*
X62068195Y-114220778D01*
X62195667Y-114273578D01*
X62195672Y-114273580D01*
X62195676Y-114273580D01*
X62195677Y-114273581D01*
X62331004Y-114300500D01*
X62331007Y-114300500D01*
X62468995Y-114300500D01*
X62560041Y-114282389D01*
X62604328Y-114273580D01*
X62731811Y-114220775D01*
X62846542Y-114144114D01*
X62944114Y-114046542D01*
X63020775Y-113931811D01*
X63021942Y-113928995D01*
X63063223Y-113829332D01*
X63073580Y-113804328D01*
X63082389Y-113760041D01*
X63095527Y-113693995D01*
X64049499Y-113693995D01*
X64076418Y-113829322D01*
X64076421Y-113829332D01*
X64129221Y-113956804D01*
X64129228Y-113956817D01*
X64205885Y-114071541D01*
X64205888Y-114071545D01*
X64303454Y-114169111D01*
X64303458Y-114169114D01*
X64418182Y-114245771D01*
X64418195Y-114245778D01*
X64533596Y-114293578D01*
X64545672Y-114298580D01*
X64545676Y-114298580D01*
X64545677Y-114298581D01*
X64681004Y-114325500D01*
X64681007Y-114325500D01*
X64818995Y-114325500D01*
X64910041Y-114307389D01*
X64954328Y-114298580D01*
X65081811Y-114245775D01*
X65196542Y-114169114D01*
X65294114Y-114071542D01*
X65370775Y-113956811D01*
X65374013Y-113948995D01*
X65423578Y-113829332D01*
X65423580Y-113829328D01*
X65450500Y-113693995D01*
X79299499Y-113693995D01*
X79326418Y-113829322D01*
X79326421Y-113829332D01*
X79379221Y-113956804D01*
X79379228Y-113956817D01*
X79455885Y-114071541D01*
X79455888Y-114071545D01*
X79553454Y-114169111D01*
X79553458Y-114169114D01*
X79668182Y-114245771D01*
X79668195Y-114245778D01*
X79783596Y-114293578D01*
X79795672Y-114298580D01*
X79795676Y-114298580D01*
X79795677Y-114298581D01*
X79931004Y-114325500D01*
X79931007Y-114325500D01*
X80068995Y-114325500D01*
X80160041Y-114307389D01*
X80204328Y-114298580D01*
X80331811Y-114245775D01*
X80446542Y-114169114D01*
X80544114Y-114071542D01*
X80620775Y-113956811D01*
X80624013Y-113948995D01*
X80673578Y-113829332D01*
X80673580Y-113829328D01*
X80700500Y-113693993D01*
X80700500Y-113556007D01*
X80700500Y-113556004D01*
X80673581Y-113420677D01*
X80673580Y-113420676D01*
X80673580Y-113420672D01*
X80670590Y-113413454D01*
X80620778Y-113293195D01*
X80620771Y-113293182D01*
X80544114Y-113178458D01*
X80544111Y-113178454D01*
X80446545Y-113080888D01*
X80446541Y-113080885D01*
X80331817Y-113004228D01*
X80331804Y-113004221D01*
X80204332Y-112951421D01*
X80204322Y-112951418D01*
X80068995Y-112924500D01*
X80068993Y-112924500D01*
X79931007Y-112924500D01*
X79931005Y-112924500D01*
X79795677Y-112951418D01*
X79795667Y-112951421D01*
X79668195Y-113004221D01*
X79668182Y-113004228D01*
X79553458Y-113080885D01*
X79553454Y-113080888D01*
X79455888Y-113178454D01*
X79455885Y-113178458D01*
X79379228Y-113293182D01*
X79379221Y-113293195D01*
X79326421Y-113420667D01*
X79326418Y-113420677D01*
X79299500Y-113556004D01*
X79299500Y-113556007D01*
X79299500Y-113693993D01*
X79299500Y-113693995D01*
X79299499Y-113693995D01*
X65450500Y-113693995D01*
X65450500Y-113693993D01*
X65450500Y-113556007D01*
X65450500Y-113556004D01*
X65423581Y-113420677D01*
X65423580Y-113420676D01*
X65423580Y-113420672D01*
X65420590Y-113413454D01*
X65370778Y-113293195D01*
X65370771Y-113293182D01*
X65294114Y-113178458D01*
X65294111Y-113178454D01*
X65196545Y-113080888D01*
X65196541Y-113080885D01*
X65081817Y-113004228D01*
X65081804Y-113004221D01*
X64954332Y-112951421D01*
X64954322Y-112951418D01*
X64818995Y-112924500D01*
X64818993Y-112924500D01*
X64681007Y-112924500D01*
X64681005Y-112924500D01*
X64545677Y-112951418D01*
X64545667Y-112951421D01*
X64418195Y-113004221D01*
X64418182Y-113004228D01*
X64303458Y-113080885D01*
X64303454Y-113080888D01*
X64205888Y-113178454D01*
X64205885Y-113178458D01*
X64129228Y-113293182D01*
X64129221Y-113293195D01*
X64076421Y-113420667D01*
X64076418Y-113420677D01*
X64049500Y-113556004D01*
X64049500Y-113556007D01*
X64049500Y-113693993D01*
X64049500Y-113693995D01*
X64049499Y-113693995D01*
X63095527Y-113693995D01*
X63100500Y-113668995D01*
X63100500Y-113531004D01*
X63073581Y-113395677D01*
X63073580Y-113395676D01*
X63073580Y-113395672D01*
X63067456Y-113380888D01*
X63020778Y-113268195D01*
X63020771Y-113268182D01*
X62944114Y-113153458D01*
X62944111Y-113153454D01*
X62846545Y-113055888D01*
X62846541Y-113055885D01*
X62731817Y-112979228D01*
X62731804Y-112979221D01*
X62604332Y-112926421D01*
X62604322Y-112926418D01*
X62468995Y-112899500D01*
X62468993Y-112899500D01*
X62331007Y-112899500D01*
X62331005Y-112899500D01*
X62195677Y-112926418D01*
X62195667Y-112926421D01*
X62068195Y-112979221D01*
X62068182Y-112979228D01*
X61953458Y-113055885D01*
X61953454Y-113055888D01*
X61855888Y-113153454D01*
X61855885Y-113153458D01*
X61779228Y-113268182D01*
X61779221Y-113268195D01*
X61726421Y-113395667D01*
X61726418Y-113395677D01*
X61699500Y-113531004D01*
X61699500Y-113531007D01*
X61699500Y-113668993D01*
X61699500Y-113668995D01*
X61699499Y-113668995D01*
X51906609Y-113668995D01*
X51849149Y-113616343D01*
X51610220Y-113397405D01*
X51602583Y-113389767D01*
X51327030Y-113089053D01*
X51320076Y-113080766D01*
X51071772Y-112757170D01*
X51065568Y-112748309D01*
X51037545Y-112704322D01*
X50951332Y-112568995D01*
X66799499Y-112568995D01*
X66826418Y-112704322D01*
X66826421Y-112704332D01*
X66879221Y-112831804D01*
X66879228Y-112831817D01*
X66955885Y-112946541D01*
X66955888Y-112946545D01*
X67053454Y-113044111D01*
X67053458Y-113044114D01*
X67168182Y-113120771D01*
X67168195Y-113120778D01*
X67295667Y-113173578D01*
X67295672Y-113173580D01*
X67295676Y-113173580D01*
X67295677Y-113173581D01*
X67431004Y-113200500D01*
X67431007Y-113200500D01*
X67568995Y-113200500D01*
X67674566Y-113179500D01*
X67704328Y-113173580D01*
X67831811Y-113120775D01*
X67946542Y-113044114D01*
X68044114Y-112946542D01*
X68120775Y-112831811D01*
X68173580Y-112704328D01*
X68200500Y-112568995D01*
X69299499Y-112568995D01*
X69326418Y-112704322D01*
X69326421Y-112704332D01*
X69379221Y-112831804D01*
X69379228Y-112831817D01*
X69455885Y-112946541D01*
X69455888Y-112946545D01*
X69553454Y-113044111D01*
X69553458Y-113044114D01*
X69668182Y-113120771D01*
X69668195Y-113120778D01*
X69795667Y-113173578D01*
X69795672Y-113173580D01*
X69795676Y-113173580D01*
X69795677Y-113173581D01*
X69931004Y-113200500D01*
X69931007Y-113200500D01*
X70068995Y-113200500D01*
X70174566Y-113179500D01*
X70204328Y-113173580D01*
X70331811Y-113120775D01*
X70446542Y-113044114D01*
X70544114Y-112946542D01*
X70620775Y-112831811D01*
X70673580Y-112704328D01*
X70700500Y-112568995D01*
X71799499Y-112568995D01*
X71826418Y-112704322D01*
X71826421Y-112704332D01*
X71879221Y-112831804D01*
X71879228Y-112831817D01*
X71955885Y-112946541D01*
X71955888Y-112946545D01*
X72053454Y-113044111D01*
X72053458Y-113044114D01*
X72168182Y-113120771D01*
X72168195Y-113120778D01*
X72295667Y-113173578D01*
X72295672Y-113173580D01*
X72295676Y-113173580D01*
X72295677Y-113173581D01*
X72431004Y-113200500D01*
X72431007Y-113200500D01*
X72568995Y-113200500D01*
X72674566Y-113179500D01*
X72704328Y-113173580D01*
X72831811Y-113120775D01*
X72946542Y-113044114D01*
X73044114Y-112946542D01*
X73120775Y-112831811D01*
X73173580Y-112704328D01*
X73200500Y-112568995D01*
X74299499Y-112568995D01*
X74326418Y-112704322D01*
X74326421Y-112704332D01*
X74379221Y-112831804D01*
X74379228Y-112831817D01*
X74455885Y-112946541D01*
X74455888Y-112946545D01*
X74553454Y-113044111D01*
X74553458Y-113044114D01*
X74668182Y-113120771D01*
X74668195Y-113120778D01*
X74795667Y-113173578D01*
X74795672Y-113173580D01*
X74795676Y-113173580D01*
X74795677Y-113173581D01*
X74931004Y-113200500D01*
X74931007Y-113200500D01*
X75068995Y-113200500D01*
X75174566Y-113179500D01*
X75204328Y-113173580D01*
X75331811Y-113120775D01*
X75446542Y-113044114D01*
X75544114Y-112946542D01*
X75620775Y-112831811D01*
X75673580Y-112704328D01*
X75700500Y-112568995D01*
X76799499Y-112568995D01*
X76826418Y-112704322D01*
X76826421Y-112704332D01*
X76879221Y-112831804D01*
X76879228Y-112831817D01*
X76955885Y-112946541D01*
X76955888Y-112946545D01*
X77053454Y-113044111D01*
X77053458Y-113044114D01*
X77168182Y-113120771D01*
X77168195Y-113120778D01*
X77295667Y-113173578D01*
X77295672Y-113173580D01*
X77295676Y-113173580D01*
X77295677Y-113173581D01*
X77431004Y-113200500D01*
X77431007Y-113200500D01*
X77568995Y-113200500D01*
X77674566Y-113179500D01*
X77704328Y-113173580D01*
X77831811Y-113120775D01*
X77946542Y-113044114D01*
X78044114Y-112946542D01*
X78120775Y-112831811D01*
X78173580Y-112704328D01*
X78200500Y-112568993D01*
X78200500Y-112431007D01*
X78200500Y-112431004D01*
X78173581Y-112295677D01*
X78173580Y-112295676D01*
X78173580Y-112295672D01*
X78169572Y-112285995D01*
X78120778Y-112168195D01*
X78120771Y-112168182D01*
X78044114Y-112053458D01*
X78044111Y-112053454D01*
X77946545Y-111955888D01*
X77946541Y-111955885D01*
X77831817Y-111879228D01*
X77831804Y-111879221D01*
X77704332Y-111826421D01*
X77704322Y-111826418D01*
X77568995Y-111799500D01*
X77568993Y-111799500D01*
X77431007Y-111799500D01*
X77431005Y-111799500D01*
X77295677Y-111826418D01*
X77295667Y-111826421D01*
X77168195Y-111879221D01*
X77168182Y-111879228D01*
X77053458Y-111955885D01*
X77053454Y-111955888D01*
X76955888Y-112053454D01*
X76955885Y-112053458D01*
X76879228Y-112168182D01*
X76879221Y-112168195D01*
X76826421Y-112295667D01*
X76826418Y-112295677D01*
X76799500Y-112431004D01*
X76799500Y-112431007D01*
X76799500Y-112568993D01*
X76799500Y-112568995D01*
X76799499Y-112568995D01*
X75700500Y-112568995D01*
X75700500Y-112568993D01*
X75700500Y-112431007D01*
X75700500Y-112431004D01*
X75673581Y-112295677D01*
X75673580Y-112295676D01*
X75673580Y-112295672D01*
X75669572Y-112285995D01*
X75620778Y-112168195D01*
X75620771Y-112168182D01*
X75544114Y-112053458D01*
X75544111Y-112053454D01*
X75446545Y-111955888D01*
X75446541Y-111955885D01*
X75331817Y-111879228D01*
X75331804Y-111879221D01*
X75204332Y-111826421D01*
X75204322Y-111826418D01*
X75068995Y-111799500D01*
X75068993Y-111799500D01*
X74931007Y-111799500D01*
X74931005Y-111799500D01*
X74795677Y-111826418D01*
X74795667Y-111826421D01*
X74668195Y-111879221D01*
X74668182Y-111879228D01*
X74553458Y-111955885D01*
X74553454Y-111955888D01*
X74455888Y-112053454D01*
X74455885Y-112053458D01*
X74379228Y-112168182D01*
X74379221Y-112168195D01*
X74326421Y-112295667D01*
X74326418Y-112295677D01*
X74299500Y-112431004D01*
X74299500Y-112431007D01*
X74299500Y-112568993D01*
X74299500Y-112568995D01*
X74299499Y-112568995D01*
X73200500Y-112568995D01*
X73200500Y-112568993D01*
X73200500Y-112431007D01*
X73200500Y-112431004D01*
X73173581Y-112295677D01*
X73173580Y-112295676D01*
X73173580Y-112295672D01*
X73169572Y-112285995D01*
X73120778Y-112168195D01*
X73120771Y-112168182D01*
X73044114Y-112053458D01*
X73044111Y-112053454D01*
X72946545Y-111955888D01*
X72946541Y-111955885D01*
X72831817Y-111879228D01*
X72831804Y-111879221D01*
X72704332Y-111826421D01*
X72704322Y-111826418D01*
X72568995Y-111799500D01*
X72568993Y-111799500D01*
X72431007Y-111799500D01*
X72431005Y-111799500D01*
X72295677Y-111826418D01*
X72295667Y-111826421D01*
X72168195Y-111879221D01*
X72168182Y-111879228D01*
X72053458Y-111955885D01*
X72053454Y-111955888D01*
X71955888Y-112053454D01*
X71955885Y-112053458D01*
X71879228Y-112168182D01*
X71879221Y-112168195D01*
X71826421Y-112295667D01*
X71826418Y-112295677D01*
X71799500Y-112431004D01*
X71799500Y-112431007D01*
X71799500Y-112568993D01*
X71799500Y-112568995D01*
X71799499Y-112568995D01*
X70700500Y-112568995D01*
X70700500Y-112568993D01*
X70700500Y-112431007D01*
X70700500Y-112431004D01*
X70673581Y-112295677D01*
X70673580Y-112295676D01*
X70673580Y-112295672D01*
X70669572Y-112285995D01*
X70620778Y-112168195D01*
X70620771Y-112168182D01*
X70544114Y-112053458D01*
X70544111Y-112053454D01*
X70446545Y-111955888D01*
X70446541Y-111955885D01*
X70331817Y-111879228D01*
X70331804Y-111879221D01*
X70204332Y-111826421D01*
X70204322Y-111826418D01*
X70068995Y-111799500D01*
X70068993Y-111799500D01*
X69931007Y-111799500D01*
X69931005Y-111799500D01*
X69795677Y-111826418D01*
X69795667Y-111826421D01*
X69668195Y-111879221D01*
X69668182Y-111879228D01*
X69553458Y-111955885D01*
X69553454Y-111955888D01*
X69455888Y-112053454D01*
X69455885Y-112053458D01*
X69379228Y-112168182D01*
X69379221Y-112168195D01*
X69326421Y-112295667D01*
X69326418Y-112295677D01*
X69299500Y-112431004D01*
X69299500Y-112431007D01*
X69299500Y-112568993D01*
X69299500Y-112568995D01*
X69299499Y-112568995D01*
X68200500Y-112568995D01*
X68200500Y-112568993D01*
X68200500Y-112431007D01*
X68200500Y-112431004D01*
X68173581Y-112295677D01*
X68173580Y-112295676D01*
X68173580Y-112295672D01*
X68169572Y-112285995D01*
X68120778Y-112168195D01*
X68120771Y-112168182D01*
X68044114Y-112053458D01*
X68044111Y-112053454D01*
X67946545Y-111955888D01*
X67946541Y-111955885D01*
X67831817Y-111879228D01*
X67831804Y-111879221D01*
X67704332Y-111826421D01*
X67704322Y-111826418D01*
X67568995Y-111799500D01*
X67568993Y-111799500D01*
X67431007Y-111799500D01*
X67431005Y-111799500D01*
X67295677Y-111826418D01*
X67295667Y-111826421D01*
X67168195Y-111879221D01*
X67168182Y-111879228D01*
X67053458Y-111955885D01*
X67053454Y-111955888D01*
X66955888Y-112053454D01*
X66955885Y-112053458D01*
X66879228Y-112168182D01*
X66879221Y-112168195D01*
X66826421Y-112295667D01*
X66826418Y-112295677D01*
X66799500Y-112431004D01*
X66799500Y-112431007D01*
X66799500Y-112568993D01*
X66799500Y-112568995D01*
X66799499Y-112568995D01*
X50951332Y-112568995D01*
X50846413Y-112404305D01*
X50841020Y-112394965D01*
X50652674Y-112033155D01*
X50648105Y-112023357D01*
X50645127Y-112016168D01*
X50492015Y-111646524D01*
X50488316Y-111636360D01*
X50365668Y-111247369D01*
X50362868Y-111236921D01*
X50325449Y-111068135D01*
X50274583Y-110838695D01*
X50272707Y-110828049D01*
X50257014Y-110708845D01*
X50219468Y-110423654D01*
X50218528Y-110412917D01*
X50200618Y-110002702D01*
X50200500Y-109997293D01*
X50200500Y-109855778D01*
X52799500Y-109855778D01*
X52799500Y-110144221D01*
X52799501Y-110144238D01*
X52837149Y-110430206D01*
X52837150Y-110430211D01*
X52837151Y-110430217D01*
X52902360Y-110673580D01*
X52911809Y-110708844D01*
X52911814Y-110708860D01*
X53022191Y-110975336D01*
X53022199Y-110975352D01*
X53166420Y-111225148D01*
X53166431Y-111225164D01*
X53342024Y-111454002D01*
X53342030Y-111454009D01*
X53545990Y-111657969D01*
X53545996Y-111657974D01*
X53774844Y-111833575D01*
X53774851Y-111833579D01*
X54024647Y-111977800D01*
X54024663Y-111977808D01*
X54291139Y-112088185D01*
X54291145Y-112088186D01*
X54291155Y-112088191D01*
X54569783Y-112162849D01*
X54855772Y-112200500D01*
X54855779Y-112200500D01*
X55144221Y-112200500D01*
X55144228Y-112200500D01*
X55430217Y-112162849D01*
X55708845Y-112088191D01*
X55708857Y-112088185D01*
X55708860Y-112088185D01*
X55975336Y-111977808D01*
X55975339Y-111977806D01*
X55975345Y-111977804D01*
X56225156Y-111833575D01*
X56454004Y-111657974D01*
X56657974Y-111454004D01*
X56833575Y-111225156D01*
X56977804Y-110975345D01*
X57038816Y-110828049D01*
X57088185Y-110708860D01*
X57088185Y-110708857D01*
X57088191Y-110708845D01*
X57162849Y-110430217D01*
X57200500Y-110144228D01*
X57200500Y-110068995D01*
X66799499Y-110068995D01*
X66826418Y-110204322D01*
X66826421Y-110204332D01*
X66879221Y-110331804D01*
X66879228Y-110331817D01*
X66955885Y-110446541D01*
X66955888Y-110446545D01*
X67053454Y-110544111D01*
X67053458Y-110544114D01*
X67168182Y-110620771D01*
X67168195Y-110620778D01*
X67295667Y-110673578D01*
X67295672Y-110673580D01*
X67295676Y-110673580D01*
X67295677Y-110673581D01*
X67431004Y-110700500D01*
X67431007Y-110700500D01*
X67568995Y-110700500D01*
X67660041Y-110682389D01*
X67704328Y-110673580D01*
X67831811Y-110620775D01*
X67946542Y-110544114D01*
X68044114Y-110446542D01*
X68120775Y-110331811D01*
X68173580Y-110204328D01*
X68200500Y-110068995D01*
X69299499Y-110068995D01*
X69326418Y-110204322D01*
X69326421Y-110204332D01*
X69379221Y-110331804D01*
X69379228Y-110331817D01*
X69455885Y-110446541D01*
X69455888Y-110446545D01*
X69553454Y-110544111D01*
X69553458Y-110544114D01*
X69668182Y-110620771D01*
X69668195Y-110620778D01*
X69795667Y-110673578D01*
X69795672Y-110673580D01*
X69795676Y-110673580D01*
X69795677Y-110673581D01*
X69931004Y-110700500D01*
X69931007Y-110700500D01*
X70068995Y-110700500D01*
X70160041Y-110682389D01*
X70204328Y-110673580D01*
X70331811Y-110620775D01*
X70446542Y-110544114D01*
X70544114Y-110446542D01*
X70620775Y-110331811D01*
X70673580Y-110204328D01*
X70700500Y-110068995D01*
X71799499Y-110068995D01*
X71826418Y-110204322D01*
X71826421Y-110204332D01*
X71879221Y-110331804D01*
X71879228Y-110331817D01*
X71955885Y-110446541D01*
X71955888Y-110446545D01*
X72053454Y-110544111D01*
X72053458Y-110544114D01*
X72168182Y-110620771D01*
X72168195Y-110620778D01*
X72295667Y-110673578D01*
X72295672Y-110673580D01*
X72295676Y-110673580D01*
X72295677Y-110673581D01*
X72431004Y-110700500D01*
X72431007Y-110700500D01*
X72568995Y-110700500D01*
X72660041Y-110682389D01*
X72704328Y-110673580D01*
X72831811Y-110620775D01*
X72946542Y-110544114D01*
X73044114Y-110446542D01*
X73120775Y-110331811D01*
X73173580Y-110204328D01*
X73200500Y-110068995D01*
X74299499Y-110068995D01*
X74326418Y-110204322D01*
X74326421Y-110204332D01*
X74379221Y-110331804D01*
X74379228Y-110331817D01*
X74455885Y-110446541D01*
X74455888Y-110446545D01*
X74553454Y-110544111D01*
X74553458Y-110544114D01*
X74668182Y-110620771D01*
X74668195Y-110620778D01*
X74795667Y-110673578D01*
X74795672Y-110673580D01*
X74795676Y-110673580D01*
X74795677Y-110673581D01*
X74931004Y-110700500D01*
X74931007Y-110700500D01*
X75068995Y-110700500D01*
X75160041Y-110682389D01*
X75204328Y-110673580D01*
X75331811Y-110620775D01*
X75446542Y-110544114D01*
X75544114Y-110446542D01*
X75620775Y-110331811D01*
X75673580Y-110204328D01*
X75700500Y-110068995D01*
X76799499Y-110068995D01*
X76826418Y-110204322D01*
X76826421Y-110204332D01*
X76879221Y-110331804D01*
X76879228Y-110331817D01*
X76955885Y-110446541D01*
X76955888Y-110446545D01*
X77053454Y-110544111D01*
X77053458Y-110544114D01*
X77168182Y-110620771D01*
X77168195Y-110620778D01*
X77295667Y-110673578D01*
X77295672Y-110673580D01*
X77295676Y-110673580D01*
X77295677Y-110673581D01*
X77431004Y-110700500D01*
X77431007Y-110700500D01*
X77568995Y-110700500D01*
X77660041Y-110682389D01*
X77704328Y-110673580D01*
X77831811Y-110620775D01*
X77946542Y-110544114D01*
X78044114Y-110446542D01*
X78120775Y-110331811D01*
X78173580Y-110204328D01*
X78200500Y-110068993D01*
X78200500Y-109931007D01*
X78200500Y-109931004D01*
X78200499Y-109931002D01*
X78189540Y-109875904D01*
X78185536Y-109855778D01*
X87799500Y-109855778D01*
X87799500Y-110144221D01*
X87799501Y-110144238D01*
X87837149Y-110430206D01*
X87837150Y-110430211D01*
X87837151Y-110430217D01*
X87902360Y-110673580D01*
X87911809Y-110708844D01*
X87911814Y-110708860D01*
X88022191Y-110975336D01*
X88022199Y-110975352D01*
X88166420Y-111225148D01*
X88166431Y-111225164D01*
X88342024Y-111454002D01*
X88342030Y-111454009D01*
X88545990Y-111657969D01*
X88545996Y-111657974D01*
X88774844Y-111833575D01*
X88774851Y-111833579D01*
X89024647Y-111977800D01*
X89024663Y-111977808D01*
X89291139Y-112088185D01*
X89291145Y-112088186D01*
X89291155Y-112088191D01*
X89569783Y-112162849D01*
X89855772Y-112200500D01*
X89855779Y-112200500D01*
X90144221Y-112200500D01*
X90144228Y-112200500D01*
X90430217Y-112162849D01*
X90708845Y-112088191D01*
X90708857Y-112088185D01*
X90708860Y-112088185D01*
X90975336Y-111977808D01*
X90975339Y-111977806D01*
X90975345Y-111977804D01*
X91225156Y-111833575D01*
X91454004Y-111657974D01*
X91657974Y-111454004D01*
X91833575Y-111225156D01*
X91977804Y-110975345D01*
X92038816Y-110828049D01*
X92088185Y-110708860D01*
X92088185Y-110708857D01*
X92088191Y-110708845D01*
X92162849Y-110430217D01*
X92200500Y-110144228D01*
X92200500Y-109855772D01*
X92162849Y-109569783D01*
X92088191Y-109291155D01*
X92088186Y-109291145D01*
X92088185Y-109291139D01*
X91977808Y-109024663D01*
X91977800Y-109024647D01*
X91833579Y-108774851D01*
X91833575Y-108774844D01*
X91657974Y-108545996D01*
X91657969Y-108545990D01*
X91454009Y-108342030D01*
X91454002Y-108342024D01*
X91225164Y-108166431D01*
X91225162Y-108166429D01*
X91225156Y-108166425D01*
X91225151Y-108166422D01*
X91225148Y-108166420D01*
X90975352Y-108022199D01*
X90975336Y-108022191D01*
X90708860Y-107911814D01*
X90708848Y-107911810D01*
X90708845Y-107911809D01*
X90430217Y-107837151D01*
X90430211Y-107837150D01*
X90430206Y-107837149D01*
X90144238Y-107799501D01*
X90144233Y-107799500D01*
X90144228Y-107799500D01*
X89855772Y-107799500D01*
X89855766Y-107799500D01*
X89855761Y-107799501D01*
X89569793Y-107837149D01*
X89569786Y-107837150D01*
X89569783Y-107837151D01*
X89291155Y-107911809D01*
X89291139Y-107911814D01*
X89024663Y-108022191D01*
X89024647Y-108022199D01*
X88774851Y-108166420D01*
X88774835Y-108166431D01*
X88545997Y-108342024D01*
X88545990Y-108342030D01*
X88342030Y-108545990D01*
X88342024Y-108545997D01*
X88166431Y-108774835D01*
X88166420Y-108774851D01*
X88022199Y-109024647D01*
X88022191Y-109024663D01*
X87911814Y-109291139D01*
X87911809Y-109291155D01*
X87841527Y-109553454D01*
X87837152Y-109569780D01*
X87837149Y-109569793D01*
X87799501Y-109855761D01*
X87799500Y-109855778D01*
X78185536Y-109855778D01*
X78173581Y-109795677D01*
X78173580Y-109795676D01*
X78173580Y-109795672D01*
X78134004Y-109700126D01*
X78120778Y-109668195D01*
X78120771Y-109668182D01*
X78044114Y-109553458D01*
X78044111Y-109553454D01*
X77946545Y-109455888D01*
X77946541Y-109455885D01*
X77831817Y-109379228D01*
X77831804Y-109379221D01*
X77704332Y-109326421D01*
X77704322Y-109326418D01*
X77568995Y-109299500D01*
X77568993Y-109299500D01*
X77431007Y-109299500D01*
X77431005Y-109299500D01*
X77295677Y-109326418D01*
X77295667Y-109326421D01*
X77168195Y-109379221D01*
X77168182Y-109379228D01*
X77053458Y-109455885D01*
X77053454Y-109455888D01*
X76955888Y-109553454D01*
X76955885Y-109553458D01*
X76879228Y-109668182D01*
X76879221Y-109668195D01*
X76826421Y-109795667D01*
X76826418Y-109795677D01*
X76799500Y-109931004D01*
X76799500Y-109931007D01*
X76799500Y-110068993D01*
X76799500Y-110068995D01*
X76799499Y-110068995D01*
X75700500Y-110068995D01*
X75700500Y-110068993D01*
X75700500Y-109931007D01*
X75700500Y-109931004D01*
X75673581Y-109795677D01*
X75673580Y-109795676D01*
X75673580Y-109795672D01*
X75634004Y-109700126D01*
X75620778Y-109668195D01*
X75620771Y-109668182D01*
X75544114Y-109553458D01*
X75544111Y-109553454D01*
X75446545Y-109455888D01*
X75446541Y-109455885D01*
X75331817Y-109379228D01*
X75331804Y-109379221D01*
X75204332Y-109326421D01*
X75204322Y-109326418D01*
X75068995Y-109299500D01*
X75068993Y-109299500D01*
X74931007Y-109299500D01*
X74931005Y-109299500D01*
X74795677Y-109326418D01*
X74795667Y-109326421D01*
X74668195Y-109379221D01*
X74668182Y-109379228D01*
X74553458Y-109455885D01*
X74553454Y-109455888D01*
X74455888Y-109553454D01*
X74455885Y-109553458D01*
X74379228Y-109668182D01*
X74379221Y-109668195D01*
X74326421Y-109795667D01*
X74326418Y-109795677D01*
X74299500Y-109931004D01*
X74299500Y-109931007D01*
X74299500Y-110068993D01*
X74299500Y-110068995D01*
X74299499Y-110068995D01*
X73200500Y-110068995D01*
X73200500Y-110068993D01*
X73200500Y-109931007D01*
X73200500Y-109931004D01*
X73173581Y-109795677D01*
X73173580Y-109795676D01*
X73173580Y-109795672D01*
X73134004Y-109700126D01*
X73120778Y-109668195D01*
X73120771Y-109668182D01*
X73044114Y-109553458D01*
X73044111Y-109553454D01*
X72946545Y-109455888D01*
X72946541Y-109455885D01*
X72831817Y-109379228D01*
X72831804Y-109379221D01*
X72704332Y-109326421D01*
X72704322Y-109326418D01*
X72568995Y-109299500D01*
X72568993Y-109299500D01*
X72431007Y-109299500D01*
X72431005Y-109299500D01*
X72295677Y-109326418D01*
X72295667Y-109326421D01*
X72168195Y-109379221D01*
X72168182Y-109379228D01*
X72053458Y-109455885D01*
X72053454Y-109455888D01*
X71955888Y-109553454D01*
X71955885Y-109553458D01*
X71879228Y-109668182D01*
X71879221Y-109668195D01*
X71826421Y-109795667D01*
X71826418Y-109795677D01*
X71799500Y-109931004D01*
X71799500Y-109931007D01*
X71799500Y-110068993D01*
X71799500Y-110068995D01*
X71799499Y-110068995D01*
X70700500Y-110068995D01*
X70700500Y-110068993D01*
X70700500Y-109931007D01*
X70700500Y-109931004D01*
X70673581Y-109795677D01*
X70673580Y-109795676D01*
X70673580Y-109795672D01*
X70634004Y-109700126D01*
X70620778Y-109668195D01*
X70620771Y-109668182D01*
X70544114Y-109553458D01*
X70544111Y-109553454D01*
X70446545Y-109455888D01*
X70446541Y-109455885D01*
X70331817Y-109379228D01*
X70331804Y-109379221D01*
X70204332Y-109326421D01*
X70204322Y-109326418D01*
X70068995Y-109299500D01*
X70068993Y-109299500D01*
X69931007Y-109299500D01*
X69931005Y-109299500D01*
X69795677Y-109326418D01*
X69795667Y-109326421D01*
X69668195Y-109379221D01*
X69668182Y-109379228D01*
X69553458Y-109455885D01*
X69553454Y-109455888D01*
X69455888Y-109553454D01*
X69455885Y-109553458D01*
X69379228Y-109668182D01*
X69379221Y-109668195D01*
X69326421Y-109795667D01*
X69326418Y-109795677D01*
X69299500Y-109931004D01*
X69299500Y-109931007D01*
X69299500Y-110068993D01*
X69299500Y-110068995D01*
X69299499Y-110068995D01*
X68200500Y-110068995D01*
X68200500Y-110068993D01*
X68200500Y-109931007D01*
X68200500Y-109931004D01*
X68173581Y-109795677D01*
X68173580Y-109795676D01*
X68173580Y-109795672D01*
X68134004Y-109700126D01*
X68120778Y-109668195D01*
X68120771Y-109668182D01*
X68044114Y-109553458D01*
X68044111Y-109553454D01*
X67946545Y-109455888D01*
X67946541Y-109455885D01*
X67831817Y-109379228D01*
X67831804Y-109379221D01*
X67704332Y-109326421D01*
X67704322Y-109326418D01*
X67568995Y-109299500D01*
X67568993Y-109299500D01*
X67431007Y-109299500D01*
X67431005Y-109299500D01*
X67295677Y-109326418D01*
X67295667Y-109326421D01*
X67168195Y-109379221D01*
X67168182Y-109379228D01*
X67053458Y-109455885D01*
X67053454Y-109455888D01*
X66955888Y-109553454D01*
X66955885Y-109553458D01*
X66879228Y-109668182D01*
X66879221Y-109668195D01*
X66826421Y-109795667D01*
X66826418Y-109795677D01*
X66799500Y-109931004D01*
X66799500Y-109931007D01*
X66799500Y-110068993D01*
X66799500Y-110068995D01*
X66799499Y-110068995D01*
X57200500Y-110068995D01*
X57200500Y-109855772D01*
X57162849Y-109569783D01*
X57088191Y-109291155D01*
X57088186Y-109291145D01*
X57088185Y-109291139D01*
X56977808Y-109024663D01*
X56977800Y-109024647D01*
X56833579Y-108774851D01*
X56833575Y-108774844D01*
X56657974Y-108545996D01*
X56657969Y-108545990D01*
X56454009Y-108342030D01*
X56454002Y-108342024D01*
X56319732Y-108238995D01*
X83499499Y-108238995D01*
X83526418Y-108374322D01*
X83526421Y-108374332D01*
X83579221Y-108501804D01*
X83579228Y-108501817D01*
X83655885Y-108616541D01*
X83655888Y-108616545D01*
X83753454Y-108714111D01*
X83753458Y-108714114D01*
X83868182Y-108790771D01*
X83868195Y-108790778D01*
X83995667Y-108843578D01*
X83995672Y-108843580D01*
X83995676Y-108843580D01*
X83995677Y-108843581D01*
X84131004Y-108870500D01*
X84131007Y-108870500D01*
X84268995Y-108870500D01*
X84360041Y-108852389D01*
X84404328Y-108843580D01*
X84531811Y-108790775D01*
X84646542Y-108714114D01*
X84744114Y-108616542D01*
X84820775Y-108501811D01*
X84873580Y-108374328D01*
X84900500Y-108238993D01*
X84900500Y-108101007D01*
X84900500Y-108101004D01*
X84873581Y-107965677D01*
X84873580Y-107965676D01*
X84873580Y-107965672D01*
X84873578Y-107965667D01*
X84820778Y-107838195D01*
X84820771Y-107838182D01*
X84744114Y-107723458D01*
X84744111Y-107723454D01*
X84646545Y-107625888D01*
X84646541Y-107625885D01*
X84531817Y-107549228D01*
X84531804Y-107549221D01*
X84404332Y-107496421D01*
X84404322Y-107496418D01*
X84268995Y-107469500D01*
X84268993Y-107469500D01*
X84131007Y-107469500D01*
X84131005Y-107469500D01*
X83995677Y-107496418D01*
X83995667Y-107496421D01*
X83868195Y-107549221D01*
X83868182Y-107549228D01*
X83753458Y-107625885D01*
X83753454Y-107625888D01*
X83655888Y-107723454D01*
X83655885Y-107723458D01*
X83579228Y-107838182D01*
X83579221Y-107838195D01*
X83526421Y-107965667D01*
X83526418Y-107965677D01*
X83499500Y-108101004D01*
X83499500Y-108101007D01*
X83499500Y-108238993D01*
X83499500Y-108238995D01*
X83499499Y-108238995D01*
X56319732Y-108238995D01*
X56225164Y-108166431D01*
X56225162Y-108166429D01*
X56225156Y-108166425D01*
X56225151Y-108166422D01*
X56225148Y-108166420D01*
X55975352Y-108022199D01*
X55975336Y-108022191D01*
X55708860Y-107911814D01*
X55708848Y-107911810D01*
X55708845Y-107911809D01*
X55430217Y-107837151D01*
X55430211Y-107837150D01*
X55430206Y-107837149D01*
X55144238Y-107799501D01*
X55144233Y-107799500D01*
X55144228Y-107799500D01*
X54855772Y-107799500D01*
X54855766Y-107799500D01*
X54855761Y-107799501D01*
X54569793Y-107837149D01*
X54569786Y-107837150D01*
X54569783Y-107837151D01*
X54291155Y-107911809D01*
X54291139Y-107911814D01*
X54024663Y-108022191D01*
X54024647Y-108022199D01*
X53774851Y-108166420D01*
X53774835Y-108166431D01*
X53545997Y-108342024D01*
X53545990Y-108342030D01*
X53342030Y-108545990D01*
X53342024Y-108545997D01*
X53166431Y-108774835D01*
X53166420Y-108774851D01*
X53022199Y-109024647D01*
X53022191Y-109024663D01*
X52911814Y-109291139D01*
X52911809Y-109291155D01*
X52841527Y-109553454D01*
X52837152Y-109569780D01*
X52837149Y-109569793D01*
X52799501Y-109855761D01*
X52799500Y-109855778D01*
X50200500Y-109855778D01*
X50200500Y-107568995D01*
X66799499Y-107568995D01*
X66826418Y-107704322D01*
X66826421Y-107704332D01*
X66879221Y-107831804D01*
X66879228Y-107831817D01*
X66955885Y-107946541D01*
X66955888Y-107946545D01*
X67053454Y-108044111D01*
X67053458Y-108044114D01*
X67168182Y-108120771D01*
X67168195Y-108120778D01*
X67295667Y-108173578D01*
X67295672Y-108173580D01*
X67295676Y-108173580D01*
X67295677Y-108173581D01*
X67431004Y-108200500D01*
X67431007Y-108200500D01*
X67568995Y-108200500D01*
X67660041Y-108182389D01*
X67704328Y-108173580D01*
X67831811Y-108120775D01*
X67946542Y-108044114D01*
X68044114Y-107946542D01*
X68120775Y-107831811D01*
X68173580Y-107704328D01*
X68189183Y-107625886D01*
X68200500Y-107568995D01*
X69299499Y-107568995D01*
X69326418Y-107704322D01*
X69326421Y-107704332D01*
X69379221Y-107831804D01*
X69379228Y-107831817D01*
X69455885Y-107946541D01*
X69455888Y-107946545D01*
X69553454Y-108044111D01*
X69553458Y-108044114D01*
X69668182Y-108120771D01*
X69668195Y-108120778D01*
X69795667Y-108173578D01*
X69795672Y-108173580D01*
X69795676Y-108173580D01*
X69795677Y-108173581D01*
X69931004Y-108200500D01*
X69931007Y-108200500D01*
X70068995Y-108200500D01*
X70160041Y-108182389D01*
X70204328Y-108173580D01*
X70331811Y-108120775D01*
X70446542Y-108044114D01*
X70544114Y-107946542D01*
X70620775Y-107831811D01*
X70673580Y-107704328D01*
X70689183Y-107625886D01*
X70700500Y-107568995D01*
X70700500Y-107431004D01*
X70673581Y-107295677D01*
X70673580Y-107295676D01*
X70673580Y-107295672D01*
X70667034Y-107279869D01*
X70620778Y-107168195D01*
X70620771Y-107168182D01*
X70544114Y-107053458D01*
X70544111Y-107053454D01*
X70446545Y-106955888D01*
X70446541Y-106955885D01*
X70331817Y-106879228D01*
X70331804Y-106879221D01*
X70204332Y-106826421D01*
X70204322Y-106826418D01*
X70068995Y-106799500D01*
X70068993Y-106799500D01*
X69931007Y-106799500D01*
X69931005Y-106799500D01*
X69795677Y-106826418D01*
X69795667Y-106826421D01*
X69668195Y-106879221D01*
X69668182Y-106879228D01*
X69553458Y-106955885D01*
X69553454Y-106955888D01*
X69455888Y-107053454D01*
X69455885Y-107053458D01*
X69379228Y-107168182D01*
X69379221Y-107168195D01*
X69326421Y-107295667D01*
X69326418Y-107295677D01*
X69299500Y-107431004D01*
X69299500Y-107431007D01*
X69299500Y-107568993D01*
X69299500Y-107568995D01*
X69299499Y-107568995D01*
X68200500Y-107568995D01*
X68200500Y-107431004D01*
X68173581Y-107295677D01*
X68173580Y-107295676D01*
X68173580Y-107295672D01*
X68167034Y-107279869D01*
X68120778Y-107168195D01*
X68120771Y-107168182D01*
X68044114Y-107053458D01*
X68044111Y-107053454D01*
X67946545Y-106955888D01*
X67946541Y-106955885D01*
X67831817Y-106879228D01*
X67831804Y-106879221D01*
X67704332Y-106826421D01*
X67704322Y-106826418D01*
X67568995Y-106799500D01*
X67568993Y-106799500D01*
X67431007Y-106799500D01*
X67431005Y-106799500D01*
X67295677Y-106826418D01*
X67295667Y-106826421D01*
X67168195Y-106879221D01*
X67168182Y-106879228D01*
X67053458Y-106955885D01*
X67053454Y-106955888D01*
X66955888Y-107053454D01*
X66955885Y-107053458D01*
X66879228Y-107168182D01*
X66879221Y-107168195D01*
X66826421Y-107295667D01*
X66826418Y-107295677D01*
X66799500Y-107431004D01*
X66799500Y-107431007D01*
X66799500Y-107568993D01*
X66799500Y-107568995D01*
X66799499Y-107568995D01*
X50200500Y-107568995D01*
X50200500Y-105068995D01*
X66799499Y-105068995D01*
X66826418Y-105204322D01*
X66826421Y-105204332D01*
X66879221Y-105331804D01*
X66879228Y-105331817D01*
X66955885Y-105446541D01*
X66955888Y-105446545D01*
X67053454Y-105544111D01*
X67053458Y-105544114D01*
X67168182Y-105620771D01*
X67168195Y-105620778D01*
X67295667Y-105673578D01*
X67295672Y-105673580D01*
X67295676Y-105673580D01*
X67295677Y-105673581D01*
X67431004Y-105700500D01*
X67431007Y-105700500D01*
X67568995Y-105700500D01*
X67660041Y-105682389D01*
X67704328Y-105673580D01*
X67831811Y-105620775D01*
X67946542Y-105544114D01*
X68044114Y-105446542D01*
X68120775Y-105331811D01*
X68173580Y-105204328D01*
X68199843Y-105072298D01*
X68200500Y-105068995D01*
X69299499Y-105068995D01*
X69326418Y-105204322D01*
X69326421Y-105204332D01*
X69379221Y-105331804D01*
X69379228Y-105331817D01*
X69455885Y-105446541D01*
X69455888Y-105446545D01*
X69553454Y-105544111D01*
X69553458Y-105544114D01*
X69668182Y-105620771D01*
X69668195Y-105620778D01*
X69795667Y-105673578D01*
X69795672Y-105673580D01*
X69795676Y-105673580D01*
X69795677Y-105673581D01*
X69931004Y-105700500D01*
X69931007Y-105700500D01*
X70068995Y-105700500D01*
X70160041Y-105682389D01*
X70204328Y-105673580D01*
X70331811Y-105620775D01*
X70446542Y-105544114D01*
X70544114Y-105446542D01*
X70620775Y-105331811D01*
X70673580Y-105204328D01*
X70696642Y-105088389D01*
X71849500Y-105088389D01*
X71849500Y-105211610D01*
X71873535Y-105332444D01*
X71873538Y-105332454D01*
X71920687Y-105446283D01*
X71920692Y-105446292D01*
X71989141Y-105548732D01*
X71989144Y-105548736D01*
X72076263Y-105635855D01*
X72076267Y-105635858D01*
X72178707Y-105704307D01*
X72178711Y-105704309D01*
X72178714Y-105704311D01*
X72253863Y-105735439D01*
X72308266Y-105779280D01*
X72330331Y-105845574D01*
X72313052Y-105913274D01*
X72261914Y-105960884D01*
X72253863Y-105964561D01*
X72178717Y-105995687D01*
X72178707Y-105995692D01*
X72076267Y-106064141D01*
X72076263Y-106064144D01*
X71989144Y-106151263D01*
X71989141Y-106151267D01*
X71920692Y-106253707D01*
X71920687Y-106253716D01*
X71873538Y-106367545D01*
X71873535Y-106367555D01*
X71849500Y-106488389D01*
X71849500Y-106611610D01*
X71873535Y-106732444D01*
X71873538Y-106732454D01*
X71920687Y-106846283D01*
X71920692Y-106846292D01*
X71989141Y-106948732D01*
X71989144Y-106948736D01*
X72076263Y-107035855D01*
X72076267Y-107035858D01*
X72178707Y-107104307D01*
X72178713Y-107104310D01*
X72178714Y-107104311D01*
X72292548Y-107151463D01*
X72397296Y-107172298D01*
X72413389Y-107175499D01*
X72413393Y-107175500D01*
X72425500Y-107175500D01*
X72492539Y-107195185D01*
X72538294Y-107247989D01*
X72549500Y-107299500D01*
X72549500Y-107311610D01*
X72573535Y-107432444D01*
X72573538Y-107432454D01*
X72620687Y-107546283D01*
X72620692Y-107546292D01*
X72689141Y-107648732D01*
X72689144Y-107648736D01*
X72776263Y-107735855D01*
X72776267Y-107735858D01*
X72878707Y-107804307D01*
X72878713Y-107804310D01*
X72878714Y-107804311D01*
X72992548Y-107851463D01*
X73113389Y-107875499D01*
X73113393Y-107875500D01*
X73113394Y-107875500D01*
X73236607Y-107875500D01*
X73236608Y-107875499D01*
X73357452Y-107851463D01*
X73471286Y-107804311D01*
X73573733Y-107735858D01*
X73660858Y-107648733D01*
X73729311Y-107546286D01*
X73760439Y-107471136D01*
X73804280Y-107416733D01*
X73870574Y-107394668D01*
X73938273Y-107411947D01*
X73985884Y-107463084D01*
X73989561Y-107471137D01*
X74020685Y-107546279D01*
X74020692Y-107546292D01*
X74089141Y-107648732D01*
X74089144Y-107648736D01*
X74176263Y-107735855D01*
X74176267Y-107735858D01*
X74278707Y-107804307D01*
X74278713Y-107804310D01*
X74278714Y-107804311D01*
X74392548Y-107851463D01*
X74513389Y-107875499D01*
X74513393Y-107875500D01*
X74513394Y-107875500D01*
X74636607Y-107875500D01*
X74636608Y-107875499D01*
X74757452Y-107851463D01*
X74871286Y-107804311D01*
X74973733Y-107735858D01*
X75060858Y-107648733D01*
X75114137Y-107568995D01*
X76799499Y-107568995D01*
X76826418Y-107704322D01*
X76826421Y-107704332D01*
X76879221Y-107831804D01*
X76879228Y-107831817D01*
X76955885Y-107946541D01*
X76955888Y-107946545D01*
X77053454Y-108044111D01*
X77053458Y-108044114D01*
X77168182Y-108120771D01*
X77168195Y-108120778D01*
X77295667Y-108173578D01*
X77295672Y-108173580D01*
X77295676Y-108173580D01*
X77295677Y-108173581D01*
X77431004Y-108200500D01*
X77431007Y-108200500D01*
X77568995Y-108200500D01*
X77660041Y-108182389D01*
X77704328Y-108173580D01*
X77831811Y-108120775D01*
X77946542Y-108044114D01*
X77946545Y-108044111D01*
X77983423Y-108007234D01*
X78044111Y-107946545D01*
X78044114Y-107946542D01*
X78120775Y-107831811D01*
X78173580Y-107704328D01*
X78189183Y-107625886D01*
X78200500Y-107568995D01*
X78200500Y-107431004D01*
X78173581Y-107295677D01*
X78173580Y-107295676D01*
X78173580Y-107295672D01*
X78167034Y-107279869D01*
X78120778Y-107168195D01*
X78120771Y-107168182D01*
X78044114Y-107053458D01*
X78044111Y-107053454D01*
X77946545Y-106955888D01*
X77946541Y-106955885D01*
X77831817Y-106879228D01*
X77831804Y-106879221D01*
X77704332Y-106826421D01*
X77704322Y-106826418D01*
X77568995Y-106799500D01*
X77568993Y-106799500D01*
X77431007Y-106799500D01*
X77431005Y-106799500D01*
X77295677Y-106826418D01*
X77295667Y-106826421D01*
X77168195Y-106879221D01*
X77168182Y-106879228D01*
X77053458Y-106955885D01*
X77053454Y-106955888D01*
X76955888Y-107053454D01*
X76955885Y-107053458D01*
X76879228Y-107168182D01*
X76879221Y-107168195D01*
X76826421Y-107295667D01*
X76826418Y-107295677D01*
X76799500Y-107431004D01*
X76799500Y-107431007D01*
X76799500Y-107568993D01*
X76799500Y-107568995D01*
X76799499Y-107568995D01*
X75114137Y-107568995D01*
X75129311Y-107546286D01*
X75176463Y-107432452D01*
X75200500Y-107311606D01*
X75200500Y-107289623D01*
X75202064Y-107279869D01*
X75213012Y-107256886D01*
X75220185Y-107232461D01*
X75227786Y-107225873D01*
X75232114Y-107216791D01*
X75253751Y-107203375D01*
X75272989Y-107186706D01*
X75284770Y-107184143D01*
X75291496Y-107179973D01*
X75303076Y-107180160D01*
X75324500Y-107175500D01*
X75336607Y-107175500D01*
X75336608Y-107175499D01*
X75457452Y-107151463D01*
X75571286Y-107104311D01*
X75673733Y-107035858D01*
X75760858Y-106948733D01*
X75829311Y-106846286D01*
X75876463Y-106732452D01*
X75900500Y-106611606D01*
X75900500Y-106488394D01*
X75876463Y-106367548D01*
X75829311Y-106253714D01*
X75829310Y-106253713D01*
X75829307Y-106253707D01*
X75760858Y-106151267D01*
X75760855Y-106151263D01*
X75673736Y-106064144D01*
X75673732Y-106064141D01*
X75571292Y-105995692D01*
X75571279Y-105995685D01*
X75496137Y-105964561D01*
X75441733Y-105920720D01*
X75419668Y-105854426D01*
X75436947Y-105786727D01*
X75488084Y-105739116D01*
X75496137Y-105735439D01*
X75571279Y-105704314D01*
X75571279Y-105704313D01*
X75571286Y-105704311D01*
X75673733Y-105635858D01*
X75760858Y-105548733D01*
X75829311Y-105446286D01*
X75876463Y-105332452D01*
X75900500Y-105211606D01*
X75900500Y-105088394D01*
X75896641Y-105068995D01*
X76799499Y-105068995D01*
X76826418Y-105204322D01*
X76826421Y-105204332D01*
X76879221Y-105331804D01*
X76879228Y-105331817D01*
X76955885Y-105446541D01*
X76955888Y-105446545D01*
X77053454Y-105544111D01*
X77053458Y-105544114D01*
X77168182Y-105620771D01*
X77168195Y-105620778D01*
X77295667Y-105673578D01*
X77295672Y-105673580D01*
X77295676Y-105673580D01*
X77295677Y-105673581D01*
X77431004Y-105700500D01*
X77431007Y-105700500D01*
X77568995Y-105700500D01*
X77660041Y-105682389D01*
X77704328Y-105673580D01*
X77831811Y-105620775D01*
X77946542Y-105544114D01*
X78044114Y-105446542D01*
X78120775Y-105331811D01*
X78173580Y-105204328D01*
X78199843Y-105072298D01*
X78200500Y-105068995D01*
X78200500Y-104931004D01*
X78173581Y-104795677D01*
X78173580Y-104795676D01*
X78173580Y-104795672D01*
X78173578Y-104795667D01*
X78120778Y-104668195D01*
X78120771Y-104668182D01*
X78044114Y-104553458D01*
X78044111Y-104553454D01*
X77946545Y-104455888D01*
X77946541Y-104455885D01*
X77831817Y-104379228D01*
X77831804Y-104379221D01*
X77704332Y-104326421D01*
X77704322Y-104326418D01*
X77568995Y-104299500D01*
X77568993Y-104299500D01*
X77431007Y-104299500D01*
X77431005Y-104299500D01*
X77295677Y-104326418D01*
X77295667Y-104326421D01*
X77168195Y-104379221D01*
X77168182Y-104379228D01*
X77053458Y-104455885D01*
X77053454Y-104455888D01*
X76955888Y-104553454D01*
X76955885Y-104553458D01*
X76879228Y-104668182D01*
X76879221Y-104668195D01*
X76826421Y-104795667D01*
X76826418Y-104795677D01*
X76799500Y-104931004D01*
X76799500Y-104931007D01*
X76799500Y-105068993D01*
X76799500Y-105068995D01*
X76799499Y-105068995D01*
X75896641Y-105068995D01*
X75876463Y-104967548D01*
X75829311Y-104853714D01*
X75829310Y-104853713D01*
X75829307Y-104853707D01*
X75760858Y-104751267D01*
X75760855Y-104751263D01*
X75673736Y-104664144D01*
X75673732Y-104664141D01*
X75571292Y-104595692D01*
X75571283Y-104595687D01*
X75469332Y-104553458D01*
X75457452Y-104548537D01*
X75457448Y-104548536D01*
X75457444Y-104548535D01*
X75336610Y-104524500D01*
X75336606Y-104524500D01*
X75324500Y-104524500D01*
X75257461Y-104504815D01*
X75211706Y-104452011D01*
X75200500Y-104400500D01*
X75200500Y-104388393D01*
X75200499Y-104388389D01*
X75188173Y-104326420D01*
X75176463Y-104267548D01*
X75129311Y-104153714D01*
X75129310Y-104153713D01*
X75129307Y-104153707D01*
X75060858Y-104051267D01*
X75060855Y-104051263D01*
X74973736Y-103964144D01*
X74973732Y-103964141D01*
X74871292Y-103895692D01*
X74871283Y-103895687D01*
X74757454Y-103848538D01*
X74757455Y-103848538D01*
X74757452Y-103848537D01*
X74757448Y-103848536D01*
X74757444Y-103848535D01*
X74636610Y-103824500D01*
X74636606Y-103824500D01*
X74513394Y-103824500D01*
X74513389Y-103824500D01*
X74392555Y-103848535D01*
X74392545Y-103848538D01*
X74278716Y-103895687D01*
X74278707Y-103895692D01*
X74176267Y-103964141D01*
X74176263Y-103964144D01*
X74089144Y-104051263D01*
X74089141Y-104051267D01*
X74020692Y-104153707D01*
X74020687Y-104153717D01*
X73989561Y-104228863D01*
X73945720Y-104283266D01*
X73879426Y-104305331D01*
X73811726Y-104288052D01*
X73764116Y-104236914D01*
X73760439Y-104228863D01*
X73729312Y-104153717D01*
X73729312Y-104153716D01*
X73729311Y-104153714D01*
X73729309Y-104153711D01*
X73729307Y-104153707D01*
X73660858Y-104051267D01*
X73660855Y-104051263D01*
X73573736Y-103964144D01*
X73573732Y-103964141D01*
X73471292Y-103895692D01*
X73471283Y-103895687D01*
X73357454Y-103848538D01*
X73357455Y-103848538D01*
X73357452Y-103848537D01*
X73357448Y-103848536D01*
X73357444Y-103848535D01*
X73236610Y-103824500D01*
X73236606Y-103824500D01*
X73113394Y-103824500D01*
X73113389Y-103824500D01*
X72992555Y-103848535D01*
X72992545Y-103848538D01*
X72878716Y-103895687D01*
X72878707Y-103895692D01*
X72776267Y-103964141D01*
X72776263Y-103964144D01*
X72689144Y-104051263D01*
X72689141Y-104051267D01*
X72620692Y-104153707D01*
X72620687Y-104153716D01*
X72573538Y-104267545D01*
X72573535Y-104267555D01*
X72549500Y-104388389D01*
X72549500Y-104400500D01*
X72529815Y-104467539D01*
X72477011Y-104513294D01*
X72425500Y-104524500D01*
X72413389Y-104524500D01*
X72292555Y-104548535D01*
X72292545Y-104548538D01*
X72178716Y-104595687D01*
X72178707Y-104595692D01*
X72076267Y-104664141D01*
X72076263Y-104664144D01*
X71989144Y-104751263D01*
X71989141Y-104751267D01*
X71920692Y-104853707D01*
X71920687Y-104853716D01*
X71873538Y-104967545D01*
X71873535Y-104967555D01*
X71849500Y-105088389D01*
X70696642Y-105088389D01*
X70700500Y-105068993D01*
X70700500Y-104931007D01*
X70700500Y-104931004D01*
X70673581Y-104795677D01*
X70673580Y-104795676D01*
X70673580Y-104795672D01*
X70673578Y-104795667D01*
X70620778Y-104668195D01*
X70620771Y-104668182D01*
X70544114Y-104553458D01*
X70544111Y-104553454D01*
X70446545Y-104455888D01*
X70446541Y-104455885D01*
X70331817Y-104379228D01*
X70331804Y-104379221D01*
X70204332Y-104326421D01*
X70204322Y-104326418D01*
X70068995Y-104299500D01*
X70068993Y-104299500D01*
X69931007Y-104299500D01*
X69931005Y-104299500D01*
X69795677Y-104326418D01*
X69795667Y-104326421D01*
X69668195Y-104379221D01*
X69668182Y-104379228D01*
X69553458Y-104455885D01*
X69553454Y-104455888D01*
X69455888Y-104553454D01*
X69455885Y-104553458D01*
X69379228Y-104668182D01*
X69379221Y-104668195D01*
X69326421Y-104795667D01*
X69326418Y-104795677D01*
X69299500Y-104931004D01*
X69299500Y-104931007D01*
X69299500Y-105068993D01*
X69299500Y-105068995D01*
X69299499Y-105068995D01*
X68200500Y-105068995D01*
X68200500Y-104931004D01*
X68173581Y-104795677D01*
X68173580Y-104795676D01*
X68173580Y-104795672D01*
X68173578Y-104795667D01*
X68120778Y-104668195D01*
X68120771Y-104668182D01*
X68044114Y-104553458D01*
X68044111Y-104553454D01*
X67946545Y-104455888D01*
X67946541Y-104455885D01*
X67831817Y-104379228D01*
X67831804Y-104379221D01*
X67704332Y-104326421D01*
X67704322Y-104326418D01*
X67568995Y-104299500D01*
X67568993Y-104299500D01*
X67431007Y-104299500D01*
X67431005Y-104299500D01*
X67295677Y-104326418D01*
X67295667Y-104326421D01*
X67168195Y-104379221D01*
X67168182Y-104379228D01*
X67053458Y-104455885D01*
X67053454Y-104455888D01*
X66955888Y-104553454D01*
X66955885Y-104553458D01*
X66879228Y-104668182D01*
X66879221Y-104668195D01*
X66826421Y-104795667D01*
X66826418Y-104795677D01*
X66799500Y-104931004D01*
X66799500Y-104931007D01*
X66799500Y-105068993D01*
X66799500Y-105068995D01*
X66799499Y-105068995D01*
X50200500Y-105068995D01*
X50200500Y-101019183D01*
X55379500Y-101019183D01*
X55379500Y-101180816D01*
X55411029Y-101339323D01*
X55411031Y-101339331D01*
X55472882Y-101488652D01*
X55501251Y-101531111D01*
X55522128Y-101597788D01*
X55503643Y-101665168D01*
X55501251Y-101668889D01*
X55472882Y-101711347D01*
X55411031Y-101860668D01*
X55411029Y-101860676D01*
X55379500Y-102019183D01*
X55379500Y-102180816D01*
X55411029Y-102339322D01*
X55411031Y-102339331D01*
X55426825Y-102377461D01*
X55430883Y-102387258D01*
X55438351Y-102456727D01*
X55426806Y-102491003D01*
X55394354Y-102554695D01*
X55394352Y-102554698D01*
X55379500Y-102648475D01*
X55379500Y-103551517D01*
X55390292Y-103619657D01*
X55394354Y-103645304D01*
X55451950Y-103758342D01*
X55451952Y-103758344D01*
X55451954Y-103758347D01*
X55483345Y-103789738D01*
X55516830Y-103851061D01*
X55517281Y-103901610D01*
X55499500Y-103991002D01*
X55499500Y-103991007D01*
X55499500Y-104128993D01*
X55499500Y-104128995D01*
X55499499Y-104128995D01*
X55526418Y-104264322D01*
X55526421Y-104264332D01*
X55579221Y-104391804D01*
X55579228Y-104391817D01*
X55655885Y-104506541D01*
X55655888Y-104506545D01*
X55753454Y-104604111D01*
X55753458Y-104604114D01*
X55868182Y-104680771D01*
X55868195Y-104680778D01*
X55995667Y-104733578D01*
X55995672Y-104733580D01*
X55995676Y-104733580D01*
X55995677Y-104733581D01*
X56131004Y-104760500D01*
X56131007Y-104760500D01*
X56268995Y-104760500D01*
X56360041Y-104742389D01*
X56404328Y-104733580D01*
X56531811Y-104680775D01*
X56646542Y-104604114D01*
X56744114Y-104506542D01*
X56820775Y-104391811D01*
X56822193Y-104388389D01*
X56847861Y-104326420D01*
X56873580Y-104264328D01*
X56895582Y-104153717D01*
X56900500Y-104128995D01*
X56900500Y-103991004D01*
X56882718Y-103901611D01*
X56888945Y-103832019D01*
X56916655Y-103789737D01*
X56948046Y-103758346D01*
X56948046Y-103758345D01*
X56948050Y-103758342D01*
X57005646Y-103645304D01*
X57005646Y-103645302D01*
X57005647Y-103645301D01*
X57016149Y-103578995D01*
X84639499Y-103578995D01*
X84666418Y-103714322D01*
X84666421Y-103714332D01*
X84719221Y-103841804D01*
X84719228Y-103841817D01*
X84795885Y-103956541D01*
X84795888Y-103956545D01*
X84893454Y-104054111D01*
X84893458Y-104054114D01*
X85008182Y-104130771D01*
X85008195Y-104130778D01*
X85135667Y-104183578D01*
X85135672Y-104183580D01*
X85135676Y-104183580D01*
X85135677Y-104183581D01*
X85271004Y-104210500D01*
X85271007Y-104210500D01*
X85408995Y-104210500D01*
X85500041Y-104192389D01*
X85544328Y-104183580D01*
X85671811Y-104130775D01*
X85786542Y-104054114D01*
X85884114Y-103956542D01*
X85960775Y-103841811D01*
X86013580Y-103714328D01*
X86027310Y-103645302D01*
X86040500Y-103578995D01*
X86040500Y-103441004D01*
X86013581Y-103305677D01*
X86013580Y-103305676D01*
X86013580Y-103305672D01*
X86002529Y-103278993D01*
X85960778Y-103178195D01*
X85960771Y-103178182D01*
X85884114Y-103063458D01*
X85884111Y-103063454D01*
X85786545Y-102965888D01*
X85786541Y-102965885D01*
X85671817Y-102889228D01*
X85671804Y-102889221D01*
X85544332Y-102836421D01*
X85544322Y-102836418D01*
X85408995Y-102809500D01*
X85408993Y-102809500D01*
X85271007Y-102809500D01*
X85271005Y-102809500D01*
X85135677Y-102836418D01*
X85135667Y-102836421D01*
X85008195Y-102889221D01*
X85008182Y-102889228D01*
X84893458Y-102965885D01*
X84893454Y-102965888D01*
X84795888Y-103063454D01*
X84795885Y-103063458D01*
X84719228Y-103178182D01*
X84719221Y-103178195D01*
X84666421Y-103305667D01*
X84666418Y-103305677D01*
X84639500Y-103441004D01*
X84639500Y-103441007D01*
X84639500Y-103578993D01*
X84639500Y-103578995D01*
X84639499Y-103578995D01*
X57016149Y-103578995D01*
X57020500Y-103551524D01*
X57020500Y-103434915D01*
X57020499Y-102648482D01*
X57014991Y-102613703D01*
X57007911Y-102568995D01*
X66799499Y-102568995D01*
X66826418Y-102704322D01*
X66826421Y-102704332D01*
X66879221Y-102831804D01*
X66879228Y-102831817D01*
X66955885Y-102946541D01*
X66955888Y-102946545D01*
X67053454Y-103044111D01*
X67053458Y-103044114D01*
X67168182Y-103120771D01*
X67168195Y-103120778D01*
X67295667Y-103173578D01*
X67295672Y-103173580D01*
X67295676Y-103173580D01*
X67295677Y-103173581D01*
X67431004Y-103200500D01*
X67431007Y-103200500D01*
X67568995Y-103200500D01*
X67681192Y-103178182D01*
X67704328Y-103173580D01*
X67831811Y-103120775D01*
X67946542Y-103044114D01*
X68044114Y-102946542D01*
X68120775Y-102831811D01*
X68130017Y-102809500D01*
X68173578Y-102704332D01*
X68173580Y-102704328D01*
X68191607Y-102613703D01*
X68200500Y-102568995D01*
X69299499Y-102568995D01*
X69326418Y-102704322D01*
X69326421Y-102704332D01*
X69379221Y-102831804D01*
X69379228Y-102831817D01*
X69455885Y-102946541D01*
X69455888Y-102946545D01*
X69553454Y-103044111D01*
X69553458Y-103044114D01*
X69668182Y-103120771D01*
X69668195Y-103120778D01*
X69795667Y-103173578D01*
X69795672Y-103173580D01*
X69795676Y-103173580D01*
X69795677Y-103173581D01*
X69931004Y-103200500D01*
X69931007Y-103200500D01*
X70068995Y-103200500D01*
X70181192Y-103178182D01*
X70204328Y-103173580D01*
X70331811Y-103120775D01*
X70446542Y-103044114D01*
X70544114Y-102946542D01*
X70620775Y-102831811D01*
X70630017Y-102809500D01*
X70673578Y-102704332D01*
X70673580Y-102704328D01*
X70691607Y-102613703D01*
X70700500Y-102568995D01*
X71799499Y-102568995D01*
X71826418Y-102704322D01*
X71826421Y-102704332D01*
X71879221Y-102831804D01*
X71879228Y-102831817D01*
X71955885Y-102946541D01*
X71955888Y-102946545D01*
X72053454Y-103044111D01*
X72053458Y-103044114D01*
X72168182Y-103120771D01*
X72168195Y-103120778D01*
X72295667Y-103173578D01*
X72295672Y-103173580D01*
X72295676Y-103173580D01*
X72295677Y-103173581D01*
X72431004Y-103200500D01*
X72431007Y-103200500D01*
X72568995Y-103200500D01*
X72681192Y-103178182D01*
X72704328Y-103173580D01*
X72831811Y-103120775D01*
X72946542Y-103044114D01*
X73044114Y-102946542D01*
X73120775Y-102831811D01*
X73130017Y-102809500D01*
X73173578Y-102704332D01*
X73173580Y-102704328D01*
X73191607Y-102613703D01*
X73200500Y-102568995D01*
X74299499Y-102568995D01*
X74326418Y-102704322D01*
X74326421Y-102704332D01*
X74379221Y-102831804D01*
X74379228Y-102831817D01*
X74455885Y-102946541D01*
X74455888Y-102946545D01*
X74553454Y-103044111D01*
X74553458Y-103044114D01*
X74668182Y-103120771D01*
X74668195Y-103120778D01*
X74795667Y-103173578D01*
X74795672Y-103173580D01*
X74795676Y-103173580D01*
X74795677Y-103173581D01*
X74931004Y-103200500D01*
X74931007Y-103200500D01*
X75068995Y-103200500D01*
X75181192Y-103178182D01*
X75204328Y-103173580D01*
X75331811Y-103120775D01*
X75446542Y-103044114D01*
X75544114Y-102946542D01*
X75620775Y-102831811D01*
X75630017Y-102809500D01*
X75673578Y-102704332D01*
X75673580Y-102704328D01*
X75691607Y-102613703D01*
X75700500Y-102568995D01*
X76799499Y-102568995D01*
X76826418Y-102704322D01*
X76826421Y-102704332D01*
X76879221Y-102831804D01*
X76879228Y-102831817D01*
X76955885Y-102946541D01*
X76955888Y-102946545D01*
X77053454Y-103044111D01*
X77053458Y-103044114D01*
X77168182Y-103120771D01*
X77168195Y-103120778D01*
X77295667Y-103173578D01*
X77295672Y-103173580D01*
X77295676Y-103173580D01*
X77295677Y-103173581D01*
X77431004Y-103200500D01*
X77431007Y-103200500D01*
X77568995Y-103200500D01*
X77681192Y-103178182D01*
X77704328Y-103173580D01*
X77831811Y-103120775D01*
X77946542Y-103044114D01*
X78044114Y-102946542D01*
X78120775Y-102831811D01*
X78130017Y-102809500D01*
X78173578Y-102704332D01*
X78173580Y-102704328D01*
X78191607Y-102613703D01*
X78200500Y-102568995D01*
X78200500Y-102431004D01*
X78173581Y-102295677D01*
X78173580Y-102295676D01*
X78173580Y-102295672D01*
X78154439Y-102249461D01*
X78120778Y-102168195D01*
X78120771Y-102168182D01*
X78044114Y-102053458D01*
X78044111Y-102053454D01*
X77946545Y-101955888D01*
X77946541Y-101955885D01*
X77831817Y-101879228D01*
X77831804Y-101879221D01*
X77704332Y-101826421D01*
X77704322Y-101826418D01*
X77568995Y-101799500D01*
X77568993Y-101799500D01*
X77431007Y-101799500D01*
X77431005Y-101799500D01*
X77295677Y-101826418D01*
X77295667Y-101826421D01*
X77168195Y-101879221D01*
X77168182Y-101879228D01*
X77053458Y-101955885D01*
X77053454Y-101955888D01*
X76955888Y-102053454D01*
X76955885Y-102053458D01*
X76879228Y-102168182D01*
X76879221Y-102168195D01*
X76826421Y-102295667D01*
X76826418Y-102295677D01*
X76799500Y-102431004D01*
X76799500Y-102431007D01*
X76799500Y-102568993D01*
X76799500Y-102568995D01*
X76799499Y-102568995D01*
X75700500Y-102568995D01*
X75700500Y-102431004D01*
X75673581Y-102295677D01*
X75673580Y-102295676D01*
X75673580Y-102295672D01*
X75654439Y-102249461D01*
X75620778Y-102168195D01*
X75620771Y-102168182D01*
X75544114Y-102053458D01*
X75544111Y-102053454D01*
X75446545Y-101955888D01*
X75446541Y-101955885D01*
X75331817Y-101879228D01*
X75331804Y-101879221D01*
X75204332Y-101826421D01*
X75204322Y-101826418D01*
X75068995Y-101799500D01*
X75068993Y-101799500D01*
X74931007Y-101799500D01*
X74931005Y-101799500D01*
X74795677Y-101826418D01*
X74795667Y-101826421D01*
X74668195Y-101879221D01*
X74668182Y-101879228D01*
X74553458Y-101955885D01*
X74553454Y-101955888D01*
X74455888Y-102053454D01*
X74455885Y-102053458D01*
X74379228Y-102168182D01*
X74379221Y-102168195D01*
X74326421Y-102295667D01*
X74326418Y-102295677D01*
X74299500Y-102431004D01*
X74299500Y-102431007D01*
X74299500Y-102568993D01*
X74299500Y-102568995D01*
X74299499Y-102568995D01*
X73200500Y-102568995D01*
X73200500Y-102431004D01*
X73173581Y-102295677D01*
X73173580Y-102295676D01*
X73173580Y-102295672D01*
X73154439Y-102249461D01*
X73120778Y-102168195D01*
X73120771Y-102168182D01*
X73044114Y-102053458D01*
X73044111Y-102053454D01*
X72946545Y-101955888D01*
X72946541Y-101955885D01*
X72831817Y-101879228D01*
X72831804Y-101879221D01*
X72704332Y-101826421D01*
X72704322Y-101826418D01*
X72568995Y-101799500D01*
X72568993Y-101799500D01*
X72431007Y-101799500D01*
X72431005Y-101799500D01*
X72295677Y-101826418D01*
X72295667Y-101826421D01*
X72168195Y-101879221D01*
X72168182Y-101879228D01*
X72053458Y-101955885D01*
X72053454Y-101955888D01*
X71955888Y-102053454D01*
X71955885Y-102053458D01*
X71879228Y-102168182D01*
X71879221Y-102168195D01*
X71826421Y-102295667D01*
X71826418Y-102295677D01*
X71799500Y-102431004D01*
X71799500Y-102431007D01*
X71799500Y-102568993D01*
X71799500Y-102568995D01*
X71799499Y-102568995D01*
X70700500Y-102568995D01*
X70700500Y-102431004D01*
X70673581Y-102295677D01*
X70673580Y-102295676D01*
X70673580Y-102295672D01*
X70654439Y-102249461D01*
X70620778Y-102168195D01*
X70620771Y-102168182D01*
X70544114Y-102053458D01*
X70544111Y-102053454D01*
X70446545Y-101955888D01*
X70446541Y-101955885D01*
X70331817Y-101879228D01*
X70331804Y-101879221D01*
X70204332Y-101826421D01*
X70204322Y-101826418D01*
X70068995Y-101799500D01*
X70068993Y-101799500D01*
X69931007Y-101799500D01*
X69931005Y-101799500D01*
X69795677Y-101826418D01*
X69795667Y-101826421D01*
X69668195Y-101879221D01*
X69668182Y-101879228D01*
X69553458Y-101955885D01*
X69553454Y-101955888D01*
X69455888Y-102053454D01*
X69455885Y-102053458D01*
X69379228Y-102168182D01*
X69379221Y-102168195D01*
X69326421Y-102295667D01*
X69326418Y-102295677D01*
X69299500Y-102431004D01*
X69299500Y-102431007D01*
X69299500Y-102568993D01*
X69299500Y-102568995D01*
X69299499Y-102568995D01*
X68200500Y-102568995D01*
X68200500Y-102431004D01*
X68173581Y-102295677D01*
X68173580Y-102295676D01*
X68173580Y-102295672D01*
X68154439Y-102249461D01*
X68120778Y-102168195D01*
X68120771Y-102168182D01*
X68044114Y-102053458D01*
X68044111Y-102053454D01*
X67946545Y-101955888D01*
X67946541Y-101955885D01*
X67831817Y-101879228D01*
X67831804Y-101879221D01*
X67704332Y-101826421D01*
X67704322Y-101826418D01*
X67568995Y-101799500D01*
X67568993Y-101799500D01*
X67431007Y-101799500D01*
X67431005Y-101799500D01*
X67295677Y-101826418D01*
X67295667Y-101826421D01*
X67168195Y-101879221D01*
X67168182Y-101879228D01*
X67053458Y-101955885D01*
X67053454Y-101955888D01*
X66955888Y-102053454D01*
X66955885Y-102053458D01*
X66879228Y-102168182D01*
X66879221Y-102168195D01*
X66826421Y-102295667D01*
X66826418Y-102295677D01*
X66799500Y-102431004D01*
X66799500Y-102431007D01*
X66799500Y-102568993D01*
X66799500Y-102568995D01*
X66799499Y-102568995D01*
X57007911Y-102568995D01*
X57005646Y-102554696D01*
X56973192Y-102491002D01*
X56973108Y-102490553D01*
X56972795Y-102490217D01*
X56966665Y-102456248D01*
X56960297Y-102422336D01*
X56960442Y-102421758D01*
X56960388Y-102421457D01*
X56969116Y-102387259D01*
X56988969Y-102339331D01*
X57020500Y-102180812D01*
X57020500Y-102019188D01*
X56988969Y-101860669D01*
X56927118Y-101711348D01*
X56898748Y-101668889D01*
X56877870Y-101602215D01*
X56896354Y-101534834D01*
X56898734Y-101531130D01*
X56927118Y-101488652D01*
X56988969Y-101339331D01*
X57020500Y-101180812D01*
X57020500Y-101019188D01*
X56988969Y-100860669D01*
X56927118Y-100711348D01*
X56927117Y-100711347D01*
X56927114Y-100711341D01*
X56837324Y-100576962D01*
X56837321Y-100576958D01*
X56723041Y-100462678D01*
X56723037Y-100462675D01*
X56588658Y-100372885D01*
X56588649Y-100372880D01*
X56439331Y-100311031D01*
X56439323Y-100311029D01*
X56280816Y-100279500D01*
X56280812Y-100279500D01*
X56119188Y-100279500D01*
X56119183Y-100279500D01*
X55960676Y-100311029D01*
X55960668Y-100311031D01*
X55811350Y-100372880D01*
X55811341Y-100372885D01*
X55676962Y-100462675D01*
X55676958Y-100462678D01*
X55562678Y-100576958D01*
X55562675Y-100576962D01*
X55472885Y-100711341D01*
X55472880Y-100711350D01*
X55411031Y-100860668D01*
X55411029Y-100860676D01*
X55379500Y-101019183D01*
X50200500Y-101019183D01*
X50200500Y-100068995D01*
X66799499Y-100068995D01*
X66826418Y-100204322D01*
X66826421Y-100204332D01*
X66879221Y-100331804D01*
X66879228Y-100331817D01*
X66955885Y-100446541D01*
X66955888Y-100446545D01*
X67053454Y-100544111D01*
X67053458Y-100544114D01*
X67168182Y-100620771D01*
X67168195Y-100620778D01*
X67295667Y-100673578D01*
X67295672Y-100673580D01*
X67295676Y-100673580D01*
X67295677Y-100673581D01*
X67431004Y-100700500D01*
X67431007Y-100700500D01*
X67568995Y-100700500D01*
X67660041Y-100682389D01*
X67704328Y-100673580D01*
X67831811Y-100620775D01*
X67946542Y-100544114D01*
X68044114Y-100446542D01*
X68120775Y-100331811D01*
X68173580Y-100204328D01*
X68200500Y-100068995D01*
X69299499Y-100068995D01*
X69326418Y-100204322D01*
X69326421Y-100204332D01*
X69379221Y-100331804D01*
X69379228Y-100331817D01*
X69455885Y-100446541D01*
X69455888Y-100446545D01*
X69553454Y-100544111D01*
X69553458Y-100544114D01*
X69668182Y-100620771D01*
X69668195Y-100620778D01*
X69795667Y-100673578D01*
X69795672Y-100673580D01*
X69795676Y-100673580D01*
X69795677Y-100673581D01*
X69931004Y-100700500D01*
X69931007Y-100700500D01*
X70068995Y-100700500D01*
X70160041Y-100682389D01*
X70204328Y-100673580D01*
X70331811Y-100620775D01*
X70446542Y-100544114D01*
X70544114Y-100446542D01*
X70620775Y-100331811D01*
X70673580Y-100204328D01*
X70700500Y-100068995D01*
X71799499Y-100068995D01*
X71826418Y-100204322D01*
X71826421Y-100204332D01*
X71879221Y-100331804D01*
X71879228Y-100331817D01*
X71955885Y-100446541D01*
X71955888Y-100446545D01*
X72053454Y-100544111D01*
X72053458Y-100544114D01*
X72168182Y-100620771D01*
X72168195Y-100620778D01*
X72295667Y-100673578D01*
X72295672Y-100673580D01*
X72295676Y-100673580D01*
X72295677Y-100673581D01*
X72431004Y-100700500D01*
X72431007Y-100700500D01*
X72568995Y-100700500D01*
X72660041Y-100682389D01*
X72704328Y-100673580D01*
X72831811Y-100620775D01*
X72946542Y-100544114D01*
X73044114Y-100446542D01*
X73120775Y-100331811D01*
X73173580Y-100204328D01*
X73200500Y-100068995D01*
X74299499Y-100068995D01*
X74326418Y-100204322D01*
X74326421Y-100204332D01*
X74379221Y-100331804D01*
X74379228Y-100331817D01*
X74455885Y-100446541D01*
X74455888Y-100446545D01*
X74553454Y-100544111D01*
X74553458Y-100544114D01*
X74668182Y-100620771D01*
X74668195Y-100620778D01*
X74795667Y-100673578D01*
X74795672Y-100673580D01*
X74795676Y-100673580D01*
X74795677Y-100673581D01*
X74931004Y-100700500D01*
X74931007Y-100700500D01*
X75068995Y-100700500D01*
X75160041Y-100682389D01*
X75204328Y-100673580D01*
X75331811Y-100620775D01*
X75446542Y-100544114D01*
X75544114Y-100446542D01*
X75620775Y-100331811D01*
X75673580Y-100204328D01*
X75700500Y-100068995D01*
X76799499Y-100068995D01*
X76826418Y-100204322D01*
X76826421Y-100204332D01*
X76879221Y-100331804D01*
X76879228Y-100331817D01*
X76955885Y-100446541D01*
X76955888Y-100446545D01*
X77053454Y-100544111D01*
X77053458Y-100544114D01*
X77168182Y-100620771D01*
X77168195Y-100620778D01*
X77295667Y-100673578D01*
X77295672Y-100673580D01*
X77295676Y-100673580D01*
X77295677Y-100673581D01*
X77431004Y-100700500D01*
X77431007Y-100700500D01*
X77568995Y-100700500D01*
X77660041Y-100682389D01*
X77704328Y-100673580D01*
X77831811Y-100620775D01*
X77946542Y-100544114D01*
X78044114Y-100446542D01*
X78120775Y-100331811D01*
X78173580Y-100204328D01*
X78200500Y-100068993D01*
X78200500Y-99931007D01*
X78200500Y-99931004D01*
X78173581Y-99795677D01*
X78173580Y-99795676D01*
X78173580Y-99795672D01*
X78131820Y-99694853D01*
X78120778Y-99668195D01*
X78120771Y-99668182D01*
X78044114Y-99553458D01*
X78044111Y-99553454D01*
X77946545Y-99455888D01*
X77946541Y-99455885D01*
X77831817Y-99379228D01*
X77831804Y-99379221D01*
X77704332Y-99326421D01*
X77704322Y-99326418D01*
X77568995Y-99299500D01*
X77568993Y-99299500D01*
X77431007Y-99299500D01*
X77431005Y-99299500D01*
X77295677Y-99326418D01*
X77295667Y-99326421D01*
X77168195Y-99379221D01*
X77168182Y-99379228D01*
X77053458Y-99455885D01*
X77053454Y-99455888D01*
X76955888Y-99553454D01*
X76955885Y-99553458D01*
X76879228Y-99668182D01*
X76879221Y-99668195D01*
X76826421Y-99795667D01*
X76826418Y-99795677D01*
X76799500Y-99931004D01*
X76799500Y-99931007D01*
X76799500Y-100068993D01*
X76799500Y-100068995D01*
X76799499Y-100068995D01*
X75700500Y-100068995D01*
X75700500Y-100068993D01*
X75700500Y-99931007D01*
X75700500Y-99931004D01*
X75673581Y-99795677D01*
X75673580Y-99795676D01*
X75673580Y-99795672D01*
X75631820Y-99694853D01*
X75620778Y-99668195D01*
X75620771Y-99668182D01*
X75544114Y-99553458D01*
X75544111Y-99553454D01*
X75446545Y-99455888D01*
X75446541Y-99455885D01*
X75331817Y-99379228D01*
X75331804Y-99379221D01*
X75204332Y-99326421D01*
X75204322Y-99326418D01*
X75068995Y-99299500D01*
X75068993Y-99299500D01*
X74931007Y-99299500D01*
X74931005Y-99299500D01*
X74795677Y-99326418D01*
X74795667Y-99326421D01*
X74668195Y-99379221D01*
X74668182Y-99379228D01*
X74553458Y-99455885D01*
X74553454Y-99455888D01*
X74455888Y-99553454D01*
X74455885Y-99553458D01*
X74379228Y-99668182D01*
X74379221Y-99668195D01*
X74326421Y-99795667D01*
X74326418Y-99795677D01*
X74299500Y-99931004D01*
X74299500Y-99931007D01*
X74299500Y-100068993D01*
X74299500Y-100068995D01*
X74299499Y-100068995D01*
X73200500Y-100068995D01*
X73200500Y-100068993D01*
X73200500Y-99931007D01*
X73200500Y-99931004D01*
X73173581Y-99795677D01*
X73173580Y-99795676D01*
X73173580Y-99795672D01*
X73131820Y-99694853D01*
X73120778Y-99668195D01*
X73120771Y-99668182D01*
X73044114Y-99553458D01*
X73044111Y-99553454D01*
X72946545Y-99455888D01*
X72946541Y-99455885D01*
X72831817Y-99379228D01*
X72831804Y-99379221D01*
X72704332Y-99326421D01*
X72704322Y-99326418D01*
X72568995Y-99299500D01*
X72568993Y-99299500D01*
X72431007Y-99299500D01*
X72431005Y-99299500D01*
X72295677Y-99326418D01*
X72295667Y-99326421D01*
X72168195Y-99379221D01*
X72168182Y-99379228D01*
X72053458Y-99455885D01*
X72053454Y-99455888D01*
X71955888Y-99553454D01*
X71955885Y-99553458D01*
X71879228Y-99668182D01*
X71879221Y-99668195D01*
X71826421Y-99795667D01*
X71826418Y-99795677D01*
X71799500Y-99931004D01*
X71799500Y-99931007D01*
X71799500Y-100068993D01*
X71799500Y-100068995D01*
X71799499Y-100068995D01*
X70700500Y-100068995D01*
X70700500Y-100068993D01*
X70700500Y-99931007D01*
X70700500Y-99931004D01*
X70673581Y-99795677D01*
X70673580Y-99795676D01*
X70673580Y-99795672D01*
X70631820Y-99694853D01*
X70620778Y-99668195D01*
X70620771Y-99668182D01*
X70544114Y-99553458D01*
X70544111Y-99553454D01*
X70446545Y-99455888D01*
X70446541Y-99455885D01*
X70331817Y-99379228D01*
X70331804Y-99379221D01*
X70204332Y-99326421D01*
X70204322Y-99326418D01*
X70068995Y-99299500D01*
X70068993Y-99299500D01*
X69931007Y-99299500D01*
X69931005Y-99299500D01*
X69795677Y-99326418D01*
X69795667Y-99326421D01*
X69668195Y-99379221D01*
X69668182Y-99379228D01*
X69553458Y-99455885D01*
X69553454Y-99455888D01*
X69455888Y-99553454D01*
X69455885Y-99553458D01*
X69379228Y-99668182D01*
X69379221Y-99668195D01*
X69326421Y-99795667D01*
X69326418Y-99795677D01*
X69299500Y-99931004D01*
X69299500Y-99931007D01*
X69299500Y-100068993D01*
X69299500Y-100068995D01*
X69299499Y-100068995D01*
X68200500Y-100068995D01*
X68200500Y-100068993D01*
X68200500Y-99931007D01*
X68200500Y-99931004D01*
X68173581Y-99795677D01*
X68173580Y-99795676D01*
X68173580Y-99795672D01*
X68131820Y-99694853D01*
X68120778Y-99668195D01*
X68120771Y-99668182D01*
X68044114Y-99553458D01*
X68044111Y-99553454D01*
X67946545Y-99455888D01*
X67946541Y-99455885D01*
X67831817Y-99379228D01*
X67831804Y-99379221D01*
X67704332Y-99326421D01*
X67704322Y-99326418D01*
X67568995Y-99299500D01*
X67568993Y-99299500D01*
X67431007Y-99299500D01*
X67431005Y-99299500D01*
X67295677Y-99326418D01*
X67295667Y-99326421D01*
X67168195Y-99379221D01*
X67168182Y-99379228D01*
X67053458Y-99455885D01*
X67053454Y-99455888D01*
X66955888Y-99553454D01*
X66955885Y-99553458D01*
X66879228Y-99668182D01*
X66879221Y-99668195D01*
X66826421Y-99795667D01*
X66826418Y-99795677D01*
X66799500Y-99931004D01*
X66799500Y-99931007D01*
X66799500Y-100068993D01*
X66799500Y-100068995D01*
X66799499Y-100068995D01*
X50200500Y-100068995D01*
X50200500Y-97093995D01*
X61424499Y-97093995D01*
X61451418Y-97229322D01*
X61451421Y-97229332D01*
X61504221Y-97356804D01*
X61504228Y-97356817D01*
X61580885Y-97471541D01*
X61580888Y-97471545D01*
X61678454Y-97569111D01*
X61678458Y-97569114D01*
X61793182Y-97645771D01*
X61793195Y-97645778D01*
X61920667Y-97698578D01*
X61920672Y-97698580D01*
X61920676Y-97698580D01*
X61920677Y-97698581D01*
X62056004Y-97725500D01*
X62056007Y-97725500D01*
X62193995Y-97725500D01*
X62285041Y-97707389D01*
X62329328Y-97698580D01*
X62456811Y-97645775D01*
X62571542Y-97569114D01*
X62669114Y-97471542D01*
X62745775Y-97356811D01*
X62798580Y-97229328D01*
X62825500Y-97093993D01*
X62825500Y-96956007D01*
X62825500Y-96956004D01*
X62798581Y-96820677D01*
X62798580Y-96820676D01*
X62798580Y-96820672D01*
X62754222Y-96713581D01*
X62745778Y-96693195D01*
X62745771Y-96693182D01*
X62669114Y-96578458D01*
X62669111Y-96578454D01*
X62571545Y-96480888D01*
X62571541Y-96480885D01*
X62456817Y-96404228D01*
X62456804Y-96404221D01*
X62329332Y-96351421D01*
X62329322Y-96351418D01*
X62193995Y-96324500D01*
X62193993Y-96324500D01*
X62056007Y-96324500D01*
X62056005Y-96324500D01*
X61920677Y-96351418D01*
X61920667Y-96351421D01*
X61793195Y-96404221D01*
X61793182Y-96404228D01*
X61678458Y-96480885D01*
X61678454Y-96480888D01*
X61580888Y-96578454D01*
X61580885Y-96578458D01*
X61504228Y-96693182D01*
X61504221Y-96693195D01*
X61451421Y-96820667D01*
X61451418Y-96820677D01*
X61424500Y-96956004D01*
X61424500Y-96956007D01*
X61424500Y-97093993D01*
X61424500Y-97093995D01*
X61424499Y-97093995D01*
X50200500Y-97093995D01*
X50200500Y-96108995D01*
X53909499Y-96108995D01*
X53936418Y-96244322D01*
X53936421Y-96244332D01*
X53989221Y-96371804D01*
X53989228Y-96371817D01*
X54065885Y-96486541D01*
X54065888Y-96486545D01*
X54163454Y-96584111D01*
X54163458Y-96584114D01*
X54278182Y-96660771D01*
X54278195Y-96660778D01*
X54405667Y-96713578D01*
X54405672Y-96713580D01*
X54405676Y-96713580D01*
X54405677Y-96713581D01*
X54541004Y-96740500D01*
X54541007Y-96740500D01*
X54678995Y-96740500D01*
X54770041Y-96722389D01*
X54814328Y-96713580D01*
X54941811Y-96660775D01*
X55056542Y-96584114D01*
X55154114Y-96486542D01*
X55230775Y-96371811D01*
X55283580Y-96244328D01*
X55310500Y-96108993D01*
X55310500Y-95971007D01*
X55310500Y-95971004D01*
X55283581Y-95835677D01*
X55283580Y-95835676D01*
X55283580Y-95835672D01*
X55283578Y-95835667D01*
X55230778Y-95708195D01*
X55230771Y-95708182D01*
X55154114Y-95593458D01*
X55154111Y-95593454D01*
X55056545Y-95495888D01*
X55056541Y-95495885D01*
X54941817Y-95419228D01*
X54941804Y-95419221D01*
X54814332Y-95366421D01*
X54814322Y-95366418D01*
X54678995Y-95339500D01*
X54678993Y-95339500D01*
X54541007Y-95339500D01*
X54541005Y-95339500D01*
X54405677Y-95366418D01*
X54405667Y-95366421D01*
X54278195Y-95419221D01*
X54278182Y-95419228D01*
X54163458Y-95495885D01*
X54163454Y-95495888D01*
X54065888Y-95593454D01*
X54065885Y-95593458D01*
X53989228Y-95708182D01*
X53989221Y-95708195D01*
X53936421Y-95835667D01*
X53936418Y-95835677D01*
X53909500Y-95971004D01*
X53909500Y-95971007D01*
X53909500Y-96108993D01*
X53909500Y-96108995D01*
X53909499Y-96108995D01*
X50200500Y-96108995D01*
X50200500Y-94593995D01*
X66399499Y-94593995D01*
X66426418Y-94729322D01*
X66426421Y-94729332D01*
X66479221Y-94856804D01*
X66479228Y-94856817D01*
X66555885Y-94971541D01*
X66555888Y-94971545D01*
X66653454Y-95069111D01*
X66653458Y-95069114D01*
X66768182Y-95145771D01*
X66768195Y-95145778D01*
X66895667Y-95198578D01*
X66895672Y-95198580D01*
X66895676Y-95198580D01*
X66895677Y-95198581D01*
X67031004Y-95225500D01*
X67031007Y-95225500D01*
X67168995Y-95225500D01*
X67260041Y-95207389D01*
X67304328Y-95198580D01*
X67431811Y-95145775D01*
X67511033Y-95092840D01*
X67577708Y-95071962D01*
X67645088Y-95090446D01*
X67667604Y-95108261D01*
X67703454Y-95144111D01*
X67703458Y-95144114D01*
X67818182Y-95220771D01*
X67818195Y-95220778D01*
X67945667Y-95273578D01*
X67945672Y-95273580D01*
X67945676Y-95273580D01*
X67945677Y-95273581D01*
X68081004Y-95300500D01*
X68081007Y-95300500D01*
X68218995Y-95300500D01*
X68310041Y-95282389D01*
X68354328Y-95273580D01*
X68481811Y-95220775D01*
X68596542Y-95144114D01*
X68694114Y-95046542D01*
X68770775Y-94931811D01*
X68823580Y-94804328D01*
X68848705Y-94678017D01*
X68850500Y-94668995D01*
X68850500Y-94531004D01*
X68823581Y-94395677D01*
X68823580Y-94395676D01*
X68823580Y-94395672D01*
X68786663Y-94306545D01*
X68770778Y-94268195D01*
X68770771Y-94268182D01*
X68694114Y-94153458D01*
X68694111Y-94153454D01*
X68596545Y-94055888D01*
X68596541Y-94055885D01*
X68481817Y-93979228D01*
X68481804Y-93979221D01*
X68354332Y-93926421D01*
X68354322Y-93926418D01*
X68218995Y-93899500D01*
X68218993Y-93899500D01*
X68081007Y-93899500D01*
X68081005Y-93899500D01*
X67945677Y-93926418D01*
X67945667Y-93926421D01*
X67818195Y-93979221D01*
X67818177Y-93979231D01*
X67738965Y-94032159D01*
X67672288Y-94053037D01*
X67604908Y-94034552D01*
X67582393Y-94016737D01*
X67546545Y-93980888D01*
X67546541Y-93980885D01*
X67431817Y-93904228D01*
X67431804Y-93904221D01*
X67304332Y-93851421D01*
X67304322Y-93851418D01*
X67168995Y-93824500D01*
X67168993Y-93824500D01*
X67031007Y-93824500D01*
X67031005Y-93824500D01*
X66895677Y-93851418D01*
X66895667Y-93851421D01*
X66768195Y-93904221D01*
X66768182Y-93904228D01*
X66653458Y-93980885D01*
X66653454Y-93980888D01*
X66555888Y-94078454D01*
X66555885Y-94078458D01*
X66479228Y-94193182D01*
X66479221Y-94193195D01*
X66426421Y-94320667D01*
X66426418Y-94320677D01*
X66399500Y-94456004D01*
X66399500Y-94456007D01*
X66399500Y-94593993D01*
X66399500Y-94593995D01*
X66399499Y-94593995D01*
X50200500Y-94593995D01*
X50200500Y-92141519D01*
X50220185Y-92074480D01*
X50272989Y-92028725D01*
X50341783Y-92018729D01*
X50416674Y-92029270D01*
X50449369Y-92032792D01*
X50465442Y-92033996D01*
X50498271Y-92035384D01*
X54206749Y-92071564D01*
X54273592Y-92091902D01*
X54318830Y-92145149D01*
X54328098Y-92214402D01*
X54298454Y-92277671D01*
X54252991Y-92310119D01*
X54134441Y-92359223D01*
X54134432Y-92359228D01*
X54019708Y-92435885D01*
X54019704Y-92435888D01*
X53922138Y-92533454D01*
X53922135Y-92533458D01*
X53845478Y-92648182D01*
X53845471Y-92648195D01*
X53792671Y-92775667D01*
X53792668Y-92775677D01*
X53765750Y-92911004D01*
X53765750Y-92911007D01*
X53765750Y-93048993D01*
X53765750Y-93048995D01*
X53765749Y-93048995D01*
X53792668Y-93184322D01*
X53792671Y-93184332D01*
X53845471Y-93311804D01*
X53845478Y-93311817D01*
X53922135Y-93426541D01*
X53922138Y-93426545D01*
X54019704Y-93524111D01*
X54019708Y-93524114D01*
X54134432Y-93600771D01*
X54134445Y-93600778D01*
X54261917Y-93653578D01*
X54261922Y-93653580D01*
X54261926Y-93653580D01*
X54261927Y-93653581D01*
X54397254Y-93680500D01*
X54397257Y-93680500D01*
X54535245Y-93680500D01*
X54626291Y-93662389D01*
X54670578Y-93653580D01*
X54798061Y-93600775D01*
X54912792Y-93524114D01*
X55010364Y-93426542D01*
X55087025Y-93311811D01*
X55139830Y-93184328D01*
X55148639Y-93140041D01*
X55166750Y-93048995D01*
X55166750Y-92911004D01*
X55139831Y-92775677D01*
X55139830Y-92775676D01*
X55139830Y-92775672D01*
X55139828Y-92775667D01*
X55087028Y-92648195D01*
X55087021Y-92648182D01*
X55010364Y-92533458D01*
X55010361Y-92533454D01*
X54912795Y-92435888D01*
X54912791Y-92435885D01*
X54798067Y-92359228D01*
X54798057Y-92359223D01*
X54692085Y-92315328D01*
X54637682Y-92271487D01*
X54615617Y-92205193D01*
X54632896Y-92137493D01*
X54684034Y-92089883D01*
X54740743Y-92076774D01*
X60137040Y-92129421D01*
X60152476Y-92129184D01*
X60162367Y-92129033D01*
X60162386Y-92129032D01*
X60162400Y-92129032D01*
X60174836Y-92128529D01*
X60200173Y-92126866D01*
X60281375Y-92119484D01*
X60331628Y-92112357D01*
X60356040Y-92107634D01*
X60405307Y-92095509D01*
X60405326Y-92095503D01*
X60405335Y-92095501D01*
X60429413Y-92088275D01*
X60483392Y-92072078D01*
X60507504Y-92064178D01*
X60519231Y-92060007D01*
X60542929Y-92050901D01*
X63278135Y-90920347D01*
X63347608Y-90912932D01*
X63410064Y-90944254D01*
X63445671Y-91004369D01*
X63449500Y-91034945D01*
X63449500Y-91048993D01*
X63449500Y-91048995D01*
X63449499Y-91048995D01*
X63476418Y-91184322D01*
X63476421Y-91184332D01*
X63529221Y-91311804D01*
X63529228Y-91311817D01*
X63605885Y-91426541D01*
X63605888Y-91426545D01*
X63703454Y-91524111D01*
X63703458Y-91524114D01*
X63818182Y-91600771D01*
X63818195Y-91600778D01*
X63945667Y-91653578D01*
X63945672Y-91653580D01*
X63945676Y-91653580D01*
X63945677Y-91653581D01*
X64081004Y-91680500D01*
X64081007Y-91680500D01*
X64218995Y-91680500D01*
X64310041Y-91662389D01*
X64354328Y-91653580D01*
X64481811Y-91600775D01*
X64596542Y-91524114D01*
X64694114Y-91426542D01*
X64770775Y-91311811D01*
X64823580Y-91184328D01*
X64850500Y-91048993D01*
X64850500Y-90911007D01*
X64850500Y-90911004D01*
X64823581Y-90775677D01*
X64823580Y-90775676D01*
X64823580Y-90775672D01*
X64802050Y-90723694D01*
X64770778Y-90648195D01*
X64770771Y-90648182D01*
X64694114Y-90533458D01*
X64694111Y-90533454D01*
X64685081Y-90524424D01*
X64669337Y-90495591D01*
X64652591Y-90467319D01*
X64652672Y-90465073D01*
X64651596Y-90463101D01*
X64653939Y-90430326D01*
X64655137Y-90397495D01*
X64656419Y-90395650D01*
X64656580Y-90393409D01*
X64676272Y-90367103D01*
X64695029Y-90340133D01*
X64697605Y-90338606D01*
X64698452Y-90337476D01*
X64725396Y-90322146D01*
X64928134Y-90238348D01*
X64997608Y-90230932D01*
X65060064Y-90262254D01*
X65095671Y-90322369D01*
X65099500Y-90352945D01*
X65099500Y-90368993D01*
X65099500Y-90368995D01*
X65099499Y-90368995D01*
X65126418Y-90504322D01*
X65126421Y-90504332D01*
X65179221Y-90631804D01*
X65179228Y-90631817D01*
X65255885Y-90746541D01*
X65255888Y-90746545D01*
X65353454Y-90844111D01*
X65353458Y-90844114D01*
X65468182Y-90920771D01*
X65468195Y-90920778D01*
X65595667Y-90973578D01*
X65595672Y-90973580D01*
X65595676Y-90973580D01*
X65595677Y-90973581D01*
X65731004Y-91000500D01*
X65731007Y-91000500D01*
X65868995Y-91000500D01*
X65960041Y-90982389D01*
X66004328Y-90973580D01*
X66131811Y-90920775D01*
X66246542Y-90844114D01*
X66344114Y-90746542D01*
X66420775Y-90631811D01*
X66423605Y-90624980D01*
X66432740Y-90602924D01*
X66473580Y-90504328D01*
X66495198Y-90395650D01*
X66500500Y-90368995D01*
X66500500Y-90231004D01*
X66473581Y-90095677D01*
X66473580Y-90095676D01*
X66473580Y-90095672D01*
X66438413Y-90010771D01*
X66420778Y-89968195D01*
X66420771Y-89968182D01*
X66344114Y-89853458D01*
X66344111Y-89853454D01*
X66333665Y-89843008D01*
X66300180Y-89781685D01*
X66305164Y-89711993D01*
X66347036Y-89656060D01*
X66373973Y-89640733D01*
X66813665Y-89458995D01*
X69629499Y-89458995D01*
X69656418Y-89594322D01*
X69656421Y-89594332D01*
X69709221Y-89721804D01*
X69709228Y-89721817D01*
X69785885Y-89836541D01*
X69785888Y-89836545D01*
X69883454Y-89934111D01*
X69883458Y-89934114D01*
X69998182Y-90010771D01*
X69998195Y-90010778D01*
X70125667Y-90063578D01*
X70125672Y-90063580D01*
X70125676Y-90063580D01*
X70125677Y-90063581D01*
X70261004Y-90090500D01*
X70261007Y-90090500D01*
X70398995Y-90090500D01*
X70490041Y-90072389D01*
X70534328Y-90063580D01*
X70661811Y-90010775D01*
X70776542Y-89934114D01*
X70874114Y-89836542D01*
X70950775Y-89721811D01*
X71003580Y-89594328D01*
X71030500Y-89458993D01*
X71030500Y-89321007D01*
X71030500Y-89321004D01*
X71003581Y-89185677D01*
X71003580Y-89185676D01*
X71003580Y-89185672D01*
X70959108Y-89078306D01*
X70950778Y-89058195D01*
X70950771Y-89058182D01*
X70874114Y-88943458D01*
X70874111Y-88943454D01*
X70776545Y-88845888D01*
X70776541Y-88845885D01*
X70661817Y-88769228D01*
X70661804Y-88769221D01*
X70534332Y-88716421D01*
X70534322Y-88716418D01*
X70398995Y-88689500D01*
X70398993Y-88689500D01*
X70261007Y-88689500D01*
X70261005Y-88689500D01*
X70125677Y-88716418D01*
X70125667Y-88716421D01*
X69998195Y-88769221D01*
X69998182Y-88769228D01*
X69883458Y-88845885D01*
X69883454Y-88845888D01*
X69785888Y-88943454D01*
X69785885Y-88943458D01*
X69709228Y-89058182D01*
X69709221Y-89058195D01*
X69656421Y-89185667D01*
X69656418Y-89185677D01*
X69629500Y-89321004D01*
X69629500Y-89321007D01*
X69629500Y-89458993D01*
X69629500Y-89458995D01*
X69629499Y-89458995D01*
X66813665Y-89458995D01*
X66862998Y-89438604D01*
X66912002Y-89415192D01*
X66935350Y-89402454D01*
X66981525Y-89373944D01*
X66981530Y-89373939D01*
X66981532Y-89373938D01*
X67009224Y-89348158D01*
X67086836Y-89275907D01*
X67130680Y-89221506D01*
X67130714Y-89221464D01*
X67130717Y-89221459D01*
X67133291Y-89217762D01*
X67133400Y-89217838D01*
X67160913Y-89176661D01*
X67214079Y-89097091D01*
X67229491Y-89078311D01*
X67253311Y-89054491D01*
X67272088Y-89039080D01*
X67300113Y-89020355D01*
X67321544Y-89008901D01*
X67334559Y-89003509D01*
X67352664Y-88996010D01*
X67375921Y-88988954D01*
X67408966Y-88982381D01*
X67433154Y-88980000D01*
X67477303Y-88980000D01*
X67495757Y-88981380D01*
X67502622Y-88982414D01*
X67525774Y-88984793D01*
X67573215Y-88987423D01*
X67715798Y-88968139D01*
X67783000Y-88949016D01*
X67914368Y-88890347D01*
X68023891Y-88797040D01*
X68070087Y-88744621D01*
X68070088Y-88744619D01*
X68070120Y-88744569D01*
X68073350Y-88739777D01*
X68074019Y-88738612D01*
X68148887Y-88624235D01*
X68176712Y-88564633D01*
X68202481Y-88497273D01*
X68212708Y-88463493D01*
X68213396Y-88460451D01*
X68213410Y-88460455D01*
X68213677Y-88459556D01*
X68215614Y-88450654D01*
X68228622Y-88393197D01*
X68228622Y-88393195D01*
X68228636Y-88393134D01*
X68229422Y-88387801D01*
X68229655Y-88386145D01*
X68229657Y-88386137D01*
X68245593Y-88272989D01*
X68250237Y-88219775D01*
X68251132Y-88193618D01*
X68250135Y-88140200D01*
X68219532Y-87999612D01*
X68195106Y-87934151D01*
X68188673Y-87916912D01*
X68181060Y-87908438D01*
X68126133Y-87807879D01*
X68024386Y-87706161D01*
X68024380Y-87706155D01*
X67995110Y-87684250D01*
X67953231Y-87628322D01*
X67947936Y-87560060D01*
X68007140Y-87271439D01*
X68039894Y-87209726D01*
X68046608Y-87203345D01*
X68050108Y-87200261D01*
X68143401Y-87090730D01*
X68202059Y-86959349D01*
X68221174Y-86892145D01*
X68221174Y-86892142D01*
X68221173Y-86892142D01*
X68221175Y-86892139D01*
X68222256Y-86884381D01*
X68222291Y-86883875D01*
X68240441Y-86749558D01*
X68235533Y-86171674D01*
X68238057Y-86145722D01*
X68507240Y-84833451D01*
X68511731Y-84817242D01*
X68512946Y-84813787D01*
X68548216Y-84713474D01*
X68563533Y-84683609D01*
X68621641Y-84600409D01*
X68644411Y-84575743D01*
X68674428Y-84550991D01*
X68722713Y-84511174D01*
X68751256Y-84493526D01*
X68844009Y-84452326D01*
X68876243Y-84442979D01*
X68985063Y-84426927D01*
X69001832Y-84425608D01*
X73904746Y-84373326D01*
X76545887Y-84345162D01*
X76564649Y-84346389D01*
X76686322Y-84363688D01*
X76722245Y-84374529D01*
X76824553Y-84423322D01*
X76855587Y-84444413D01*
X76938620Y-84521580D01*
X76961922Y-84550986D01*
X76990104Y-84600411D01*
X77018068Y-84649454D01*
X77031508Y-84684488D01*
X77057657Y-84804562D01*
X77060255Y-84823199D01*
X77370000Y-89770001D01*
X78455733Y-91614929D01*
X79254721Y-92972609D01*
X79271757Y-93040370D01*
X79249455Y-93106584D01*
X79194895Y-93150230D01*
X79147853Y-93159500D01*
X79041005Y-93159500D01*
X78905677Y-93186418D01*
X78905667Y-93186421D01*
X78778195Y-93239221D01*
X78778182Y-93239228D01*
X78663458Y-93315885D01*
X78663454Y-93315888D01*
X78565888Y-93413454D01*
X78565885Y-93413458D01*
X78489228Y-93528182D01*
X78489221Y-93528195D01*
X78436421Y-93655667D01*
X78436418Y-93655677D01*
X78409500Y-93791004D01*
X78409500Y-93791007D01*
X78409500Y-93928993D01*
X78409500Y-93928995D01*
X78409499Y-93928995D01*
X78436418Y-94064322D01*
X78436421Y-94064332D01*
X78489221Y-94191804D01*
X78489228Y-94191817D01*
X78565885Y-94306541D01*
X78565888Y-94306545D01*
X78663454Y-94404111D01*
X78663458Y-94404114D01*
X78778182Y-94480771D01*
X78778195Y-94480778D01*
X78899453Y-94531004D01*
X78905672Y-94533580D01*
X78905676Y-94533580D01*
X78905677Y-94533581D01*
X79041004Y-94560500D01*
X79041007Y-94560500D01*
X79178995Y-94560500D01*
X79270041Y-94542389D01*
X79314328Y-94533580D01*
X79441811Y-94480775D01*
X79556542Y-94404114D01*
X79654114Y-94306542D01*
X79730775Y-94191811D01*
X79735288Y-94180914D01*
X79779128Y-94126511D01*
X79845422Y-94104445D01*
X79913122Y-94121723D01*
X79956717Y-94165474D01*
X83864523Y-100805807D01*
X83864525Y-100805809D01*
X84020000Y-101070000D01*
X84325975Y-101051280D01*
X86218160Y-100935513D01*
X86286274Y-100951067D01*
X86335168Y-101000979D01*
X86349316Y-101069401D01*
X86332768Y-101116959D01*
X86334860Y-101118078D01*
X86331983Y-101123459D01*
X86264106Y-101287332D01*
X86264103Y-101287341D01*
X86229500Y-101461304D01*
X86229500Y-101638695D01*
X86264103Y-101812658D01*
X86264106Y-101812667D01*
X86331983Y-101976540D01*
X86331990Y-101976553D01*
X86430535Y-102124034D01*
X86430538Y-102124038D01*
X86555961Y-102249461D01*
X86555965Y-102249464D01*
X86703446Y-102348009D01*
X86703459Y-102348016D01*
X86798200Y-102387258D01*
X86867334Y-102415894D01*
X86867336Y-102415894D01*
X86867341Y-102415896D01*
X87041304Y-102450499D01*
X87041307Y-102450500D01*
X87334481Y-102450500D01*
X87401520Y-102470185D01*
X87447275Y-102522989D01*
X87457219Y-102592147D01*
X87428194Y-102655703D01*
X87422162Y-102662181D01*
X87320888Y-102763454D01*
X87320885Y-102763458D01*
X87244228Y-102878182D01*
X87244221Y-102878195D01*
X87191421Y-103005667D01*
X87191418Y-103005677D01*
X87164500Y-103141004D01*
X87164500Y-103141007D01*
X87164500Y-103278993D01*
X87164500Y-103278995D01*
X87164499Y-103278995D01*
X87191418Y-103414322D01*
X87191421Y-103414332D01*
X87244221Y-103541804D01*
X87244228Y-103541817D01*
X87320885Y-103656541D01*
X87320888Y-103656545D01*
X87418454Y-103754111D01*
X87418458Y-103754114D01*
X87533182Y-103830771D01*
X87533195Y-103830778D01*
X87660667Y-103883578D01*
X87660672Y-103883580D01*
X87660676Y-103883580D01*
X87660677Y-103883581D01*
X87796004Y-103910500D01*
X87796007Y-103910500D01*
X87933995Y-103910500D01*
X88025041Y-103892389D01*
X88069328Y-103883580D01*
X88196811Y-103830775D01*
X88311542Y-103754114D01*
X88409114Y-103656542D01*
X88485775Y-103541811D01*
X88538580Y-103414328D01*
X88565500Y-103278993D01*
X88565500Y-103141007D01*
X88565500Y-103141004D01*
X88538581Y-103005677D01*
X88538580Y-103005676D01*
X88538580Y-103005672D01*
X88514088Y-102946542D01*
X88485778Y-102878195D01*
X88485771Y-102878182D01*
X88409114Y-102763458D01*
X88409111Y-102763454D01*
X88311545Y-102665888D01*
X88306834Y-102662022D01*
X88308036Y-102660556D01*
X88268884Y-102613703D01*
X88260181Y-102544377D01*
X88290339Y-102481352D01*
X88349785Y-102444636D01*
X88358392Y-102442603D01*
X88492658Y-102415896D01*
X88492661Y-102415894D01*
X88492666Y-102415894D01*
X88656547Y-102348013D01*
X88804035Y-102249464D01*
X88929464Y-102124035D01*
X89028013Y-101976547D01*
X89095894Y-101812666D01*
X89130500Y-101638691D01*
X89130500Y-101461309D01*
X89130500Y-101461306D01*
X89130499Y-101461304D01*
X90659500Y-101461304D01*
X90659500Y-101638695D01*
X90694103Y-101812658D01*
X90694106Y-101812667D01*
X90761983Y-101976540D01*
X90761990Y-101976553D01*
X90860535Y-102124034D01*
X90860538Y-102124038D01*
X90985961Y-102249461D01*
X90985965Y-102249464D01*
X91133446Y-102348009D01*
X91133459Y-102348016D01*
X91228200Y-102387258D01*
X91297334Y-102415894D01*
X91297336Y-102415894D01*
X91297341Y-102415896D01*
X91471304Y-102450499D01*
X91471307Y-102450500D01*
X91471309Y-102450500D01*
X92248693Y-102450500D01*
X92248694Y-102450499D01*
X92306682Y-102438964D01*
X92422658Y-102415896D01*
X92422661Y-102415894D01*
X92422666Y-102415894D01*
X92586547Y-102348013D01*
X92734035Y-102249464D01*
X92859464Y-102124035D01*
X92958013Y-101976547D01*
X93025894Y-101812666D01*
X93060500Y-101638691D01*
X93060500Y-101461309D01*
X93060500Y-101461306D01*
X93060499Y-101461304D01*
X93025896Y-101287341D01*
X93025893Y-101287332D01*
X92958016Y-101123459D01*
X92958009Y-101123446D01*
X92859464Y-100975965D01*
X92859461Y-100975961D01*
X92734038Y-100850538D01*
X92734034Y-100850535D01*
X92586553Y-100751990D01*
X92586540Y-100751983D01*
X92422667Y-100684106D01*
X92422658Y-100684103D01*
X92248694Y-100649500D01*
X92248691Y-100649500D01*
X91471309Y-100649500D01*
X91471306Y-100649500D01*
X91297341Y-100684103D01*
X91297332Y-100684106D01*
X91133459Y-100751983D01*
X91133446Y-100751990D01*
X90985965Y-100850535D01*
X90985961Y-100850538D01*
X90860538Y-100975961D01*
X90860535Y-100975965D01*
X90761990Y-101123446D01*
X90761983Y-101123459D01*
X90694106Y-101287332D01*
X90694103Y-101287341D01*
X90659500Y-101461304D01*
X89130499Y-101461304D01*
X89095896Y-101287341D01*
X89095893Y-101287332D01*
X89028016Y-101123459D01*
X89028009Y-101123446D01*
X88929464Y-100975965D01*
X88929461Y-100975961D01*
X88804033Y-100850533D01*
X88802505Y-100849279D01*
X88801919Y-100848419D01*
X88799728Y-100846228D01*
X88800143Y-100845812D01*
X88763174Y-100791531D01*
X88759320Y-100776391D01*
X88747065Y-100711350D01*
X88695828Y-100439414D01*
X88702759Y-100369893D01*
X88710295Y-100354461D01*
X88722984Y-100332485D01*
X88760500Y-100192475D01*
X88760500Y-100047525D01*
X88738632Y-99965913D01*
X88740295Y-99896067D01*
X88762993Y-99854627D01*
X88793801Y-99817511D01*
X88869001Y-99694853D01*
X88906601Y-99555972D01*
X88913106Y-99502738D01*
X88915243Y-99494434D01*
X88912026Y-99342775D01*
X88912025Y-99342764D01*
X88639928Y-97698580D01*
X88198127Y-95028937D01*
X88206602Y-94959586D01*
X88251227Y-94905823D01*
X88288362Y-94888922D01*
X88422485Y-94852984D01*
X88548015Y-94780509D01*
X88650509Y-94678015D01*
X88722984Y-94552485D01*
X88760500Y-94412475D01*
X88760500Y-94267525D01*
X88722984Y-94127515D01*
X88722404Y-94126511D01*
X88650511Y-94001988D01*
X88650506Y-94001982D01*
X88575631Y-93927107D01*
X88542146Y-93865784D01*
X88547130Y-93796092D01*
X88589002Y-93740159D01*
X88615852Y-93724869D01*
X88656547Y-93708013D01*
X88804035Y-93609464D01*
X88929464Y-93484035D01*
X89028013Y-93336547D01*
X89095894Y-93172666D01*
X89130500Y-92998691D01*
X89130500Y-92821309D01*
X89130500Y-92821306D01*
X89130499Y-92821304D01*
X90659500Y-92821304D01*
X90659500Y-92998695D01*
X90694103Y-93172658D01*
X90694106Y-93172667D01*
X90761983Y-93336540D01*
X90761990Y-93336553D01*
X90860535Y-93484034D01*
X90860538Y-93484038D01*
X90985961Y-93609461D01*
X90985965Y-93609464D01*
X91133446Y-93708009D01*
X91133459Y-93708016D01*
X91211061Y-93740159D01*
X91297334Y-93775894D01*
X91297336Y-93775894D01*
X91297341Y-93775896D01*
X91471304Y-93810499D01*
X91471307Y-93810500D01*
X91471309Y-93810500D01*
X92248693Y-93810500D01*
X92248694Y-93810499D01*
X92306682Y-93798964D01*
X92422658Y-93775896D01*
X92422661Y-93775894D01*
X92422666Y-93775894D01*
X92586547Y-93708013D01*
X92734035Y-93609464D01*
X92859464Y-93484035D01*
X92958013Y-93336547D01*
X93025894Y-93172666D01*
X93060500Y-92998691D01*
X93060500Y-92821309D01*
X93060500Y-92821306D01*
X93060499Y-92821304D01*
X93025896Y-92647341D01*
X93025893Y-92647332D01*
X92958016Y-92483459D01*
X92958009Y-92483446D01*
X92859464Y-92335965D01*
X92859461Y-92335961D01*
X92734038Y-92210538D01*
X92734034Y-92210535D01*
X92586553Y-92111990D01*
X92586540Y-92111983D01*
X92422667Y-92044106D01*
X92422658Y-92044103D01*
X92248694Y-92009500D01*
X92248691Y-92009500D01*
X91471309Y-92009500D01*
X91471306Y-92009500D01*
X91297341Y-92044103D01*
X91297332Y-92044106D01*
X91133459Y-92111983D01*
X91133446Y-92111990D01*
X90985965Y-92210535D01*
X90985961Y-92210538D01*
X90860538Y-92335961D01*
X90860535Y-92335965D01*
X90761990Y-92483446D01*
X90761983Y-92483459D01*
X90694106Y-92647332D01*
X90694103Y-92647341D01*
X90659500Y-92821304D01*
X89130499Y-92821304D01*
X89095896Y-92647341D01*
X89095893Y-92647332D01*
X89028016Y-92483459D01*
X89028009Y-92483446D01*
X88929464Y-92335965D01*
X88929461Y-92335961D01*
X88804038Y-92210538D01*
X88804034Y-92210535D01*
X88656553Y-92111990D01*
X88656540Y-92111983D01*
X88492667Y-92044106D01*
X88492659Y-92044104D01*
X88414325Y-92028522D01*
X88352414Y-91996137D01*
X88317840Y-91935421D01*
X88321581Y-91865651D01*
X88362447Y-91808979D01*
X88369615Y-91803809D01*
X88421542Y-91769114D01*
X88519114Y-91671542D01*
X88595775Y-91556811D01*
X88648580Y-91429328D01*
X88675500Y-91293993D01*
X88675500Y-91156007D01*
X88675500Y-91156004D01*
X88648581Y-91020677D01*
X88648580Y-91020676D01*
X88648580Y-91020672D01*
X88640225Y-91000500D01*
X88595778Y-90893195D01*
X88595771Y-90893182D01*
X88519114Y-90778458D01*
X88519111Y-90778454D01*
X88421545Y-90680888D01*
X88421541Y-90680885D01*
X88306817Y-90604228D01*
X88306804Y-90604221D01*
X88179332Y-90551421D01*
X88179322Y-90551418D01*
X88043995Y-90524500D01*
X88043993Y-90524500D01*
X87906007Y-90524500D01*
X87906005Y-90524500D01*
X87770677Y-90551418D01*
X87770667Y-90551421D01*
X87643195Y-90604221D01*
X87637814Y-90607098D01*
X87637240Y-90606024D01*
X87576676Y-90624980D01*
X87509298Y-90606485D01*
X87462616Y-90554499D01*
X87452145Y-90521244D01*
X87449346Y-90504332D01*
X86691684Y-85926043D01*
X86686813Y-85900658D01*
X86684107Y-85888275D01*
X86677948Y-85863183D01*
X86656107Y-85783102D01*
X86639985Y-85734023D01*
X86630866Y-85710407D01*
X86609811Y-85663213D01*
X86572158Y-85589230D01*
X86559844Y-85566492D01*
X86559841Y-85566486D01*
X86553533Y-85555518D01*
X86551827Y-85552720D01*
X86540079Y-85533450D01*
X85631261Y-84125005D01*
X85613599Y-84080738D01*
X84737139Y-79428995D01*
X89529499Y-79428995D01*
X89556418Y-79564322D01*
X89556421Y-79564332D01*
X89609221Y-79691804D01*
X89609228Y-79691817D01*
X89685885Y-79806541D01*
X89685888Y-79806545D01*
X89783454Y-79904111D01*
X89783458Y-79904114D01*
X89898182Y-79980771D01*
X89898195Y-79980778D01*
X90025667Y-80033578D01*
X90025672Y-80033580D01*
X90025676Y-80033580D01*
X90025677Y-80033581D01*
X90161004Y-80060500D01*
X90161007Y-80060500D01*
X90298995Y-80060500D01*
X90390041Y-80042389D01*
X90434328Y-80033580D01*
X90561811Y-79980775D01*
X90676542Y-79904114D01*
X90774114Y-79806542D01*
X90850775Y-79691811D01*
X90903580Y-79564328D01*
X90930500Y-79428993D01*
X90930500Y-79291007D01*
X90930500Y-79291004D01*
X90903581Y-79155677D01*
X90903580Y-79155676D01*
X90903580Y-79155672D01*
X90903578Y-79155667D01*
X90850778Y-79028195D01*
X90850771Y-79028182D01*
X90774114Y-78913458D01*
X90774111Y-78913454D01*
X90676545Y-78815888D01*
X90676541Y-78815885D01*
X90561817Y-78739228D01*
X90561804Y-78739221D01*
X90434332Y-78686421D01*
X90434322Y-78686418D01*
X90298995Y-78659500D01*
X90298993Y-78659500D01*
X90161007Y-78659500D01*
X90161005Y-78659500D01*
X90025677Y-78686418D01*
X90025667Y-78686421D01*
X89898195Y-78739221D01*
X89898182Y-78739228D01*
X89783458Y-78815885D01*
X89783454Y-78815888D01*
X89685888Y-78913454D01*
X89685885Y-78913458D01*
X89609228Y-79028182D01*
X89609221Y-79028195D01*
X89556421Y-79155667D01*
X89556418Y-79155677D01*
X89529500Y-79291004D01*
X89529500Y-79291007D01*
X89529500Y-79428993D01*
X89529500Y-79428995D01*
X89529499Y-79428995D01*
X84737139Y-79428995D01*
X83223220Y-71393995D01*
X89519499Y-71393995D01*
X89546418Y-71529322D01*
X89546421Y-71529332D01*
X89599221Y-71656804D01*
X89599228Y-71656817D01*
X89675885Y-71771541D01*
X89675888Y-71771545D01*
X89773454Y-71869111D01*
X89773458Y-71869114D01*
X89888182Y-71945771D01*
X89888195Y-71945778D01*
X90004598Y-71993993D01*
X90015672Y-71998580D01*
X90015676Y-71998580D01*
X90015677Y-71998581D01*
X90151004Y-72025500D01*
X90151007Y-72025500D01*
X90288995Y-72025500D01*
X90380041Y-72007389D01*
X90424328Y-71998580D01*
X90551811Y-71945775D01*
X90666542Y-71869114D01*
X90764114Y-71771542D01*
X90840775Y-71656811D01*
X90893580Y-71529328D01*
X90920500Y-71393993D01*
X90920500Y-71256007D01*
X90920500Y-71256004D01*
X90893581Y-71120677D01*
X90893580Y-71120676D01*
X90893580Y-71120672D01*
X90893578Y-71120667D01*
X90840778Y-70993195D01*
X90840771Y-70993182D01*
X90764114Y-70878458D01*
X90764111Y-70878454D01*
X90666545Y-70780888D01*
X90666541Y-70780885D01*
X90551817Y-70704228D01*
X90551804Y-70704221D01*
X90424332Y-70651421D01*
X90424322Y-70651418D01*
X90288995Y-70624500D01*
X90288993Y-70624500D01*
X90151007Y-70624500D01*
X90151005Y-70624500D01*
X90015677Y-70651418D01*
X90015667Y-70651421D01*
X89888195Y-70704221D01*
X89888182Y-70704228D01*
X89773458Y-70780885D01*
X89773454Y-70780888D01*
X89675888Y-70878454D01*
X89675885Y-70878458D01*
X89599228Y-70993182D01*
X89599221Y-70993195D01*
X89546421Y-71120667D01*
X89546418Y-71120677D01*
X89519500Y-71256004D01*
X89519500Y-71256007D01*
X89519500Y-71393993D01*
X89519500Y-71393995D01*
X89519499Y-71393995D01*
X83223220Y-71393995D01*
X82706019Y-68648995D01*
X89539499Y-68648995D01*
X89566418Y-68784322D01*
X89566421Y-68784332D01*
X89619221Y-68911804D01*
X89619228Y-68911817D01*
X89695885Y-69026541D01*
X89695888Y-69026545D01*
X89793454Y-69124111D01*
X89793458Y-69124114D01*
X89908182Y-69200771D01*
X89908195Y-69200778D01*
X90035667Y-69253578D01*
X90035672Y-69253580D01*
X90035676Y-69253580D01*
X90035677Y-69253581D01*
X90171004Y-69280500D01*
X90171007Y-69280500D01*
X90308995Y-69280500D01*
X90400041Y-69262389D01*
X90444328Y-69253580D01*
X90571811Y-69200775D01*
X90686542Y-69124114D01*
X90784114Y-69026542D01*
X90860775Y-68911811D01*
X90913580Y-68784328D01*
X90940500Y-68648993D01*
X90940500Y-68511007D01*
X90940500Y-68511004D01*
X90913581Y-68375677D01*
X90913580Y-68375676D01*
X90913580Y-68375672D01*
X90913578Y-68375667D01*
X90860778Y-68248195D01*
X90860771Y-68248182D01*
X90784114Y-68133458D01*
X90784111Y-68133454D01*
X90686545Y-68035888D01*
X90686541Y-68035885D01*
X90571817Y-67959228D01*
X90571804Y-67959221D01*
X90444332Y-67906421D01*
X90444322Y-67906418D01*
X90308995Y-67879500D01*
X90308993Y-67879500D01*
X90171007Y-67879500D01*
X90171005Y-67879500D01*
X90035677Y-67906418D01*
X90035667Y-67906421D01*
X89908195Y-67959221D01*
X89908182Y-67959228D01*
X89793458Y-68035885D01*
X89793454Y-68035888D01*
X89695888Y-68133454D01*
X89695885Y-68133458D01*
X89619228Y-68248182D01*
X89619221Y-68248195D01*
X89566421Y-68375667D01*
X89566418Y-68375677D01*
X89539500Y-68511004D01*
X89539500Y-68511007D01*
X89539500Y-68648993D01*
X89539500Y-68648995D01*
X89539499Y-68648995D01*
X82706019Y-68648995D01*
X82464847Y-67368995D01*
X86124499Y-67368995D01*
X86151418Y-67504322D01*
X86151421Y-67504332D01*
X86204221Y-67631804D01*
X86204228Y-67631817D01*
X86280885Y-67746541D01*
X86280888Y-67746545D01*
X86378454Y-67844111D01*
X86378458Y-67844114D01*
X86493182Y-67920771D01*
X86493195Y-67920778D01*
X86586023Y-67959228D01*
X86620672Y-67973580D01*
X86620676Y-67973580D01*
X86620677Y-67973581D01*
X86756004Y-68000500D01*
X86756007Y-68000500D01*
X86893995Y-68000500D01*
X86985041Y-67982389D01*
X87029328Y-67973580D01*
X87156811Y-67920775D01*
X87271542Y-67844114D01*
X87369114Y-67746542D01*
X87445775Y-67631811D01*
X87498580Y-67504328D01*
X87525500Y-67368993D01*
X87525500Y-67231007D01*
X87525500Y-67231004D01*
X87498581Y-67095677D01*
X87498580Y-67095676D01*
X87498580Y-67095672D01*
X87498578Y-67095667D01*
X87445778Y-66968195D01*
X87445771Y-66968182D01*
X87369114Y-66853458D01*
X87369111Y-66853454D01*
X87271545Y-66755888D01*
X87271541Y-66755885D01*
X87156817Y-66679228D01*
X87156804Y-66679221D01*
X87029332Y-66626421D01*
X87029322Y-66626418D01*
X86893995Y-66599500D01*
X86893993Y-66599500D01*
X86756007Y-66599500D01*
X86756005Y-66599500D01*
X86620677Y-66626418D01*
X86620667Y-66626421D01*
X86493195Y-66679221D01*
X86493182Y-66679228D01*
X86378458Y-66755885D01*
X86378454Y-66755888D01*
X86280888Y-66853454D01*
X86280885Y-66853458D01*
X86204228Y-66968182D01*
X86204221Y-66968195D01*
X86151421Y-67095667D01*
X86151418Y-67095677D01*
X86124500Y-67231004D01*
X86124500Y-67231007D01*
X86124500Y-67368993D01*
X86124500Y-67368995D01*
X86124499Y-67368995D01*
X82464847Y-67368995D01*
X81897473Y-64357703D01*
X81904404Y-64288183D01*
X81947824Y-64233442D01*
X81950368Y-64231693D01*
X82036542Y-64174114D01*
X82134114Y-64076542D01*
X82200772Y-63976781D01*
X82254382Y-63931977D01*
X82323707Y-63923270D01*
X82328065Y-63924056D01*
X82461004Y-63950500D01*
X82461007Y-63950500D01*
X82598995Y-63950500D01*
X82692114Y-63931977D01*
X82734328Y-63923580D01*
X82861811Y-63870775D01*
X82976542Y-63794114D01*
X83074114Y-63696542D01*
X83150775Y-63581811D01*
X83203580Y-63454328D01*
X83230500Y-63318993D01*
X83230500Y-63258995D01*
X84084499Y-63258995D01*
X84111418Y-63394322D01*
X84111421Y-63394332D01*
X84164221Y-63521804D01*
X84164228Y-63521817D01*
X84240885Y-63636541D01*
X84240888Y-63636545D01*
X84338454Y-63734111D01*
X84338458Y-63734114D01*
X84453182Y-63810771D01*
X84453195Y-63810778D01*
X84573591Y-63860647D01*
X84580672Y-63863580D01*
X84580676Y-63863580D01*
X84580677Y-63863581D01*
X84716004Y-63890500D01*
X84716007Y-63890500D01*
X84853995Y-63890500D01*
X84953141Y-63870778D01*
X84989328Y-63863580D01*
X85116811Y-63810775D01*
X85231542Y-63734114D01*
X85329114Y-63636542D01*
X85405775Y-63521811D01*
X85458580Y-63394328D01*
X85473565Y-63318993D01*
X85485500Y-63258995D01*
X85485500Y-63121004D01*
X85458581Y-62985677D01*
X85458580Y-62985676D01*
X85458580Y-62985672D01*
X85450224Y-62965499D01*
X85405778Y-62858195D01*
X85405771Y-62858182D01*
X85329114Y-62743458D01*
X85329111Y-62743454D01*
X85231545Y-62645888D01*
X85231541Y-62645885D01*
X85116817Y-62569228D01*
X85116804Y-62569221D01*
X84989332Y-62516421D01*
X84989322Y-62516418D01*
X84853995Y-62489500D01*
X84853993Y-62489500D01*
X84716007Y-62489500D01*
X84716005Y-62489500D01*
X84580677Y-62516418D01*
X84580667Y-62516421D01*
X84453195Y-62569221D01*
X84453182Y-62569228D01*
X84338458Y-62645885D01*
X84338454Y-62645888D01*
X84240888Y-62743454D01*
X84240885Y-62743458D01*
X84164228Y-62858182D01*
X84164221Y-62858195D01*
X84111421Y-62985667D01*
X84111418Y-62985677D01*
X84084500Y-63121004D01*
X84084500Y-63121007D01*
X84084500Y-63258993D01*
X84084500Y-63258995D01*
X84084499Y-63258995D01*
X83230500Y-63258995D01*
X83230500Y-63181007D01*
X83230500Y-63181004D01*
X83230499Y-63181002D01*
X83222166Y-63139106D01*
X83203581Y-63045677D01*
X83203580Y-63045676D01*
X83203580Y-63045672D01*
X83181118Y-62991443D01*
X83150778Y-62918195D01*
X83150773Y-62918186D01*
X83150630Y-62917972D01*
X83134206Y-62893392D01*
X83113328Y-62826717D01*
X83122746Y-62777051D01*
X83173580Y-62654328D01*
X83190509Y-62569221D01*
X83200500Y-62518995D01*
X83200500Y-62381004D01*
X83180107Y-62278485D01*
X83186334Y-62208893D01*
X83214044Y-62166611D01*
X83224114Y-62156542D01*
X83300775Y-62041811D01*
X83353580Y-61914328D01*
X83380500Y-61778993D01*
X83380500Y-61641007D01*
X83380500Y-61641004D01*
X83353581Y-61505677D01*
X83353580Y-61505676D01*
X83353580Y-61505672D01*
X83353578Y-61505667D01*
X83300778Y-61378195D01*
X83300771Y-61378182D01*
X83224114Y-61263458D01*
X83224111Y-61263454D01*
X83126545Y-61165888D01*
X83126541Y-61165885D01*
X83011817Y-61089228D01*
X83011804Y-61089221D01*
X82884332Y-61036421D01*
X82884322Y-61036418D01*
X82748995Y-61009500D01*
X82748993Y-61009500D01*
X82611007Y-61009500D01*
X82611005Y-61009500D01*
X82475677Y-61036418D01*
X82475671Y-61036420D01*
X82460764Y-61042595D01*
X82391294Y-61050062D01*
X82328815Y-61018786D01*
X82293164Y-60958697D01*
X82289327Y-60926147D01*
X82294000Y-60618995D01*
X89549499Y-60618995D01*
X89576418Y-60754322D01*
X89576421Y-60754332D01*
X89629221Y-60881804D01*
X89629228Y-60881817D01*
X89705885Y-60996541D01*
X89705888Y-60996545D01*
X89803454Y-61094111D01*
X89803458Y-61094114D01*
X89918182Y-61170771D01*
X89918195Y-61170778D01*
X90045667Y-61223578D01*
X90045672Y-61223580D01*
X90045676Y-61223580D01*
X90045677Y-61223581D01*
X90181004Y-61250500D01*
X90181007Y-61250500D01*
X90318995Y-61250500D01*
X90410041Y-61232389D01*
X90454328Y-61223580D01*
X90581811Y-61170775D01*
X90696542Y-61094114D01*
X90794114Y-60996542D01*
X90870775Y-60881811D01*
X90923580Y-60754328D01*
X90950500Y-60618993D01*
X90950500Y-60481007D01*
X90950500Y-60481004D01*
X90923581Y-60345677D01*
X90923580Y-60345676D01*
X90923580Y-60345672D01*
X90923578Y-60345667D01*
X90870778Y-60218195D01*
X90870771Y-60218182D01*
X90794114Y-60103458D01*
X90794111Y-60103454D01*
X90696545Y-60005888D01*
X90696541Y-60005885D01*
X90581817Y-59929228D01*
X90581804Y-59929221D01*
X90454332Y-59876421D01*
X90454322Y-59876418D01*
X90318995Y-59849500D01*
X90318993Y-59849500D01*
X90181007Y-59849500D01*
X90181005Y-59849500D01*
X90045677Y-59876418D01*
X90045667Y-59876421D01*
X89918195Y-59929221D01*
X89918182Y-59929228D01*
X89803458Y-60005885D01*
X89803454Y-60005888D01*
X89705888Y-60103454D01*
X89705885Y-60103458D01*
X89629228Y-60218182D01*
X89629221Y-60218195D01*
X89576421Y-60345667D01*
X89576418Y-60345677D01*
X89549500Y-60481004D01*
X89549500Y-60481007D01*
X89549500Y-60618993D01*
X89549500Y-60618995D01*
X89549499Y-60618995D01*
X82294000Y-60618995D01*
X82296221Y-60473029D01*
X82331274Y-58168995D01*
X82999499Y-58168995D01*
X83026418Y-58304322D01*
X83026421Y-58304332D01*
X83079221Y-58431804D01*
X83079228Y-58431817D01*
X83155885Y-58546541D01*
X83155888Y-58546545D01*
X83253454Y-58644111D01*
X83253458Y-58644114D01*
X83368182Y-58720771D01*
X83368195Y-58720778D01*
X83495667Y-58773578D01*
X83495672Y-58773580D01*
X83495676Y-58773580D01*
X83495677Y-58773581D01*
X83631004Y-58800500D01*
X83631007Y-58800500D01*
X83768995Y-58800500D01*
X83860041Y-58782389D01*
X83904328Y-58773580D01*
X84031811Y-58720775D01*
X84146542Y-58644114D01*
X84244114Y-58546542D01*
X84320775Y-58431811D01*
X84373580Y-58304328D01*
X84400500Y-58168993D01*
X84400500Y-58031007D01*
X84400500Y-58031004D01*
X84373581Y-57895677D01*
X84373580Y-57895676D01*
X84373580Y-57895672D01*
X84373578Y-57895667D01*
X84320778Y-57768195D01*
X84320771Y-57768182D01*
X84244114Y-57653458D01*
X84244111Y-57653454D01*
X84146545Y-57555888D01*
X84146541Y-57555885D01*
X84031817Y-57479228D01*
X84031804Y-57479221D01*
X83904332Y-57426421D01*
X83904322Y-57426418D01*
X83768995Y-57399500D01*
X83768993Y-57399500D01*
X83631007Y-57399500D01*
X83631005Y-57399500D01*
X83495677Y-57426418D01*
X83495667Y-57426421D01*
X83368195Y-57479221D01*
X83368182Y-57479228D01*
X83253458Y-57555885D01*
X83253454Y-57555888D01*
X83155888Y-57653454D01*
X83155885Y-57653458D01*
X83079228Y-57768182D01*
X83079221Y-57768195D01*
X83026421Y-57895667D01*
X83026418Y-57895677D01*
X82999500Y-58031004D01*
X82999500Y-58031007D01*
X82999500Y-58168993D01*
X82999500Y-58168995D01*
X82999499Y-58168995D01*
X82331274Y-58168995D01*
X82333495Y-58023029D01*
X82341768Y-57479225D01*
X82381681Y-54855778D01*
X87799500Y-54855778D01*
X87799500Y-55144221D01*
X87799501Y-55144238D01*
X87837149Y-55430206D01*
X87837150Y-55430211D01*
X87837151Y-55430217D01*
X87837152Y-55430219D01*
X87911809Y-55708844D01*
X87911814Y-55708860D01*
X88022191Y-55975336D01*
X88022199Y-55975352D01*
X88166420Y-56225148D01*
X88166431Y-56225164D01*
X88342024Y-56454002D01*
X88342030Y-56454009D01*
X88545990Y-56657969D01*
X88545996Y-56657974D01*
X88774844Y-56833575D01*
X88774851Y-56833579D01*
X89024647Y-56977800D01*
X89024663Y-56977808D01*
X89291139Y-57088185D01*
X89291145Y-57088186D01*
X89291155Y-57088191D01*
X89569783Y-57162849D01*
X89855772Y-57200500D01*
X89855779Y-57200500D01*
X90144221Y-57200500D01*
X90144228Y-57200500D01*
X90430217Y-57162849D01*
X90708845Y-57088191D01*
X90708857Y-57088185D01*
X90708860Y-57088185D01*
X90975336Y-56977808D01*
X90975339Y-56977806D01*
X90975345Y-56977804D01*
X91225156Y-56833575D01*
X91454004Y-56657974D01*
X91657974Y-56454004D01*
X91833575Y-56225156D01*
X91977804Y-55975345D01*
X92088191Y-55708845D01*
X92162849Y-55430217D01*
X92200500Y-55144228D01*
X92200500Y-54855772D01*
X92162849Y-54569783D01*
X92088191Y-54291155D01*
X92088186Y-54291145D01*
X92088185Y-54291139D01*
X91977808Y-54024663D01*
X91977800Y-54024647D01*
X91833579Y-53774851D01*
X91833575Y-53774844D01*
X91716100Y-53621747D01*
X91657975Y-53545997D01*
X91657969Y-53545990D01*
X91454009Y-53342030D01*
X91454002Y-53342024D01*
X91225164Y-53166431D01*
X91225162Y-53166429D01*
X91225156Y-53166425D01*
X91225151Y-53166422D01*
X91225148Y-53166420D01*
X90975352Y-53022199D01*
X90975336Y-53022191D01*
X90708860Y-52911814D01*
X90708848Y-52911810D01*
X90708845Y-52911809D01*
X90430217Y-52837151D01*
X90430211Y-52837150D01*
X90430206Y-52837149D01*
X90144238Y-52799501D01*
X90144233Y-52799500D01*
X90144228Y-52799500D01*
X89855772Y-52799500D01*
X89855766Y-52799500D01*
X89855761Y-52799501D01*
X89569793Y-52837149D01*
X89569786Y-52837150D01*
X89569783Y-52837151D01*
X89342012Y-52898182D01*
X89291155Y-52911809D01*
X89291139Y-52911814D01*
X89024663Y-53022191D01*
X89024647Y-53022199D01*
X88774851Y-53166420D01*
X88774835Y-53166431D01*
X88545997Y-53342024D01*
X88545990Y-53342030D01*
X88342030Y-53545990D01*
X88342024Y-53545997D01*
X88166431Y-53774835D01*
X88166420Y-53774851D01*
X88022199Y-54024647D01*
X88022191Y-54024663D01*
X87911814Y-54291139D01*
X87911809Y-54291155D01*
X87847208Y-54532252D01*
X87837152Y-54569780D01*
X87837149Y-54569793D01*
X87799501Y-54855761D01*
X87799500Y-54855778D01*
X82381681Y-54855778D01*
X82393040Y-54109195D01*
X82393071Y-54096301D01*
X82393006Y-54089988D01*
X82392711Y-54077148D01*
X82372745Y-53966487D01*
X82380214Y-53897021D01*
X82402798Y-53868995D01*
X85124499Y-53868995D01*
X85151418Y-54004322D01*
X85151421Y-54004332D01*
X85204221Y-54131804D01*
X85204228Y-54131817D01*
X85280885Y-54246541D01*
X85280888Y-54246545D01*
X85378454Y-54344111D01*
X85378458Y-54344114D01*
X85493182Y-54420771D01*
X85493195Y-54420778D01*
X85620667Y-54473578D01*
X85620672Y-54473580D01*
X85620676Y-54473580D01*
X85620677Y-54473581D01*
X85756004Y-54500500D01*
X85756007Y-54500500D01*
X85893995Y-54500500D01*
X85985041Y-54482389D01*
X86029328Y-54473580D01*
X86156811Y-54420775D01*
X86271542Y-54344114D01*
X86369114Y-54246542D01*
X86445775Y-54131811D01*
X86498580Y-54004328D01*
X86525500Y-53868993D01*
X86525500Y-53731007D01*
X86525500Y-53731004D01*
X86498581Y-53595677D01*
X86498580Y-53595676D01*
X86498580Y-53595672D01*
X86484557Y-53561817D01*
X86445778Y-53468195D01*
X86445771Y-53468182D01*
X86369114Y-53353458D01*
X86369111Y-53353454D01*
X86271545Y-53255888D01*
X86271541Y-53255885D01*
X86156817Y-53179228D01*
X86156804Y-53179221D01*
X86029332Y-53126421D01*
X86029322Y-53126418D01*
X85893995Y-53099500D01*
X85893993Y-53099500D01*
X85756007Y-53099500D01*
X85756005Y-53099500D01*
X85620677Y-53126418D01*
X85620667Y-53126421D01*
X85493195Y-53179221D01*
X85493182Y-53179228D01*
X85378458Y-53255885D01*
X85378454Y-53255888D01*
X85280888Y-53353454D01*
X85280885Y-53353458D01*
X85204228Y-53468182D01*
X85204221Y-53468195D01*
X85151421Y-53595667D01*
X85151418Y-53595677D01*
X85124500Y-53731004D01*
X85124500Y-53731007D01*
X85124500Y-53868993D01*
X85124500Y-53868995D01*
X85124499Y-53868995D01*
X82402798Y-53868995D01*
X82424054Y-53842617D01*
X82425804Y-53841424D01*
X82526542Y-53774114D01*
X82624114Y-53676542D01*
X82639406Y-53653657D01*
X82700771Y-53561817D01*
X82700771Y-53561816D01*
X82700775Y-53561811D01*
X82753580Y-53434328D01*
X82767641Y-53363639D01*
X82780500Y-53298995D01*
X82780500Y-53161004D01*
X82753581Y-53025677D01*
X82753580Y-53025676D01*
X82753580Y-53025672D01*
X82753491Y-53025458D01*
X82700778Y-52898195D01*
X82700771Y-52898182D01*
X82624114Y-52783458D01*
X82624111Y-52783454D01*
X82621293Y-52780636D01*
X82620288Y-52778795D01*
X82620249Y-52778748D01*
X82620258Y-52778740D01*
X82587808Y-52719313D01*
X82592792Y-52649621D01*
X82634664Y-52593688D01*
X82684783Y-52571338D01*
X82753446Y-52557679D01*
X82824328Y-52543580D01*
X82951811Y-52490775D01*
X83066542Y-52414114D01*
X83164114Y-52316542D01*
X83240775Y-52201811D01*
X83293580Y-52074328D01*
X83313233Y-51975527D01*
X83320500Y-51938995D01*
X83320500Y-51801004D01*
X83293581Y-51665677D01*
X83293580Y-51665676D01*
X83293580Y-51665672D01*
X83264945Y-51596541D01*
X83240778Y-51538195D01*
X83240771Y-51538182D01*
X83164114Y-51423458D01*
X83164111Y-51423454D01*
X83066545Y-51325888D01*
X83066541Y-51325885D01*
X82951817Y-51249228D01*
X82951804Y-51249221D01*
X82878831Y-51218995D01*
X83824499Y-51218995D01*
X83851418Y-51354322D01*
X83851421Y-51354332D01*
X83904221Y-51481804D01*
X83904228Y-51481817D01*
X83980885Y-51596541D01*
X83980888Y-51596545D01*
X84078454Y-51694111D01*
X84078458Y-51694114D01*
X84193182Y-51770771D01*
X84193195Y-51770778D01*
X84320667Y-51823578D01*
X84320672Y-51823580D01*
X84320676Y-51823580D01*
X84320677Y-51823581D01*
X84456004Y-51850500D01*
X84456007Y-51850500D01*
X84593995Y-51850500D01*
X84685041Y-51832389D01*
X84729328Y-51823580D01*
X84856811Y-51770775D01*
X84971542Y-51694114D01*
X85069114Y-51596542D01*
X85145775Y-51481811D01*
X85198580Y-51354328D01*
X85219486Y-51249228D01*
X85225500Y-51218995D01*
X85225500Y-51081004D01*
X85198581Y-50945677D01*
X85198580Y-50945676D01*
X85198580Y-50945672D01*
X85155229Y-50841012D01*
X85145778Y-50818195D01*
X85145771Y-50818182D01*
X85069114Y-50703458D01*
X85069111Y-50703454D01*
X84971545Y-50605888D01*
X84971541Y-50605885D01*
X84856817Y-50529228D01*
X84856804Y-50529221D01*
X84729332Y-50476421D01*
X84729322Y-50476418D01*
X84593995Y-50449500D01*
X84593993Y-50449500D01*
X84456007Y-50449500D01*
X84456005Y-50449500D01*
X84320677Y-50476418D01*
X84320667Y-50476421D01*
X84193195Y-50529221D01*
X84193182Y-50529228D01*
X84078458Y-50605885D01*
X84078454Y-50605888D01*
X83980888Y-50703454D01*
X83980885Y-50703458D01*
X83904228Y-50818182D01*
X83904221Y-50818195D01*
X83851421Y-50945667D01*
X83851418Y-50945677D01*
X83824500Y-51081004D01*
X83824500Y-51081007D01*
X83824500Y-51218993D01*
X83824500Y-51218995D01*
X83824499Y-51218995D01*
X82878831Y-51218995D01*
X82824332Y-51196421D01*
X82824319Y-51196417D01*
X82688996Y-51169500D01*
X82688993Y-51169500D01*
X82563665Y-51169500D01*
X82496626Y-51149815D01*
X82450871Y-51097011D01*
X82439679Y-51043613D01*
X82441169Y-50945667D01*
X82447593Y-50523498D01*
X82446998Y-50490095D01*
X82446165Y-50473740D01*
X82443366Y-50440468D01*
X82430870Y-50334110D01*
X82418718Y-50268464D01*
X82410660Y-50236790D01*
X82389962Y-50173314D01*
X82388690Y-50170143D01*
X82382014Y-50100596D01*
X82413997Y-50038477D01*
X82474488Y-50003511D01*
X82503785Y-50000000D01*
X89700126Y-50000000D01*
X89767165Y-50019685D01*
G37*
%TD.AperFunction*%
%TD*%
%TA.AperFunction,Conductor*%
%TO.N,+12V*%
G36*
X65084288Y-50001070D02*
G01*
X65189951Y-50015049D01*
X65221356Y-50023507D01*
X65312142Y-50061314D01*
X65340269Y-50077648D01*
X65418102Y-50137763D01*
X65441014Y-50160850D01*
X65500535Y-50239134D01*
X65516655Y-50267384D01*
X65553771Y-50358453D01*
X65561991Y-50389922D01*
X65575169Y-50495689D01*
X65576116Y-50511961D01*
X65519999Y-57909998D01*
X65520000Y-57910000D01*
X65675063Y-58059099D01*
X67967787Y-60263642D01*
X67978545Y-60275407D01*
X68043817Y-60356728D01*
X68060385Y-60383892D01*
X68099532Y-60471778D01*
X68108643Y-60502263D01*
X68125435Y-60605176D01*
X68126985Y-60621043D01*
X68292235Y-65613341D01*
X68291653Y-65630123D01*
X68280427Y-65739332D01*
X68272529Y-65771894D01*
X68235573Y-65866201D01*
X68219245Y-65895460D01*
X68158386Y-65976433D01*
X68134820Y-66000253D01*
X68054505Y-66061974D01*
X68025421Y-66078615D01*
X67931513Y-66116578D01*
X67899037Y-66124823D01*
X67789959Y-66137216D01*
X67773185Y-66137978D01*
X64116556Y-66056099D01*
X50498424Y-65751160D01*
X50479339Y-65749249D01*
X50356051Y-65727168D01*
X50319893Y-65714699D01*
X50217805Y-65660651D01*
X50187167Y-65637756D01*
X50106407Y-65555167D01*
X50084207Y-65524028D01*
X50032453Y-65420746D01*
X50020800Y-65384329D01*
X50001482Y-65260566D01*
X50000000Y-65241454D01*
X50000000Y-64096153D01*
X53899500Y-64096153D01*
X53899500Y-64253846D01*
X53930261Y-64408489D01*
X53930264Y-64408501D01*
X53990602Y-64554172D01*
X53990609Y-64554185D01*
X54078210Y-64685288D01*
X54078213Y-64685292D01*
X54189707Y-64796786D01*
X54189711Y-64796789D01*
X54320814Y-64884390D01*
X54320827Y-64884397D01*
X54466498Y-64944735D01*
X54466503Y-64944737D01*
X54621153Y-64975499D01*
X54621156Y-64975500D01*
X54621158Y-64975500D01*
X54778844Y-64975500D01*
X54778845Y-64975499D01*
X54933497Y-64944737D01*
X55079179Y-64884394D01*
X55210289Y-64796789D01*
X55321789Y-64685289D01*
X55409394Y-64554179D01*
X55469737Y-64408497D01*
X55500500Y-64253842D01*
X55500500Y-64096158D01*
X55500500Y-64096155D01*
X55500499Y-64096153D01*
X55469738Y-63941510D01*
X55469737Y-63941503D01*
X55469735Y-63941498D01*
X55409397Y-63795827D01*
X55409390Y-63795814D01*
X55321789Y-63664711D01*
X55321786Y-63664707D01*
X55210292Y-63553213D01*
X55210288Y-63553210D01*
X55079185Y-63465609D01*
X55079172Y-63465602D01*
X54933501Y-63405264D01*
X54933489Y-63405261D01*
X54778845Y-63374500D01*
X54778842Y-63374500D01*
X54621158Y-63374500D01*
X54621155Y-63374500D01*
X54466510Y-63405261D01*
X54466498Y-63405264D01*
X54320827Y-63465602D01*
X54320814Y-63465609D01*
X54189711Y-63553210D01*
X54189707Y-63553213D01*
X54078213Y-63664707D01*
X54078210Y-63664711D01*
X53990609Y-63795814D01*
X53990602Y-63795827D01*
X53930264Y-63941498D01*
X53930261Y-63941510D01*
X53899500Y-64096153D01*
X50000000Y-64096153D01*
X50000000Y-59577135D01*
X51294500Y-59577135D01*
X51294500Y-60502870D01*
X51294501Y-60502876D01*
X51300908Y-60562483D01*
X51351202Y-60697328D01*
X51351206Y-60697334D01*
X51393012Y-60753181D01*
X51417429Y-60818645D01*
X51415363Y-60851680D01*
X51409500Y-60881157D01*
X51409500Y-61038846D01*
X51440261Y-61193489D01*
X51440264Y-61193501D01*
X51500602Y-61339172D01*
X51500609Y-61339185D01*
X51588210Y-61470288D01*
X51588213Y-61470292D01*
X51699707Y-61581786D01*
X51699711Y-61581789D01*
X51830814Y-61669390D01*
X51830827Y-61669397D01*
X51976498Y-61729735D01*
X51976503Y-61729737D01*
X52131153Y-61760499D01*
X52131156Y-61760500D01*
X52131158Y-61760500D01*
X52288844Y-61760500D01*
X52288845Y-61760499D01*
X52443497Y-61729737D01*
X52589179Y-61669394D01*
X52720289Y-61581789D01*
X52831789Y-61470289D01*
X52919394Y-61339179D01*
X52979737Y-61193497D01*
X53010500Y-61038842D01*
X53010500Y-60881158D01*
X53010500Y-60881157D01*
X53010500Y-60881155D01*
X53004637Y-60851686D01*
X53010862Y-60782094D01*
X53026986Y-60753181D01*
X53068796Y-60697331D01*
X53119091Y-60562483D01*
X53125500Y-60502873D01*
X53125499Y-59577128D01*
X53119091Y-59517517D01*
X53068796Y-59382669D01*
X53068795Y-59382668D01*
X53068793Y-59382664D01*
X52982547Y-59267455D01*
X52982544Y-59267452D01*
X52867335Y-59181206D01*
X52867328Y-59181202D01*
X52732482Y-59130908D01*
X52732483Y-59130908D01*
X52672883Y-59124501D01*
X52672881Y-59124500D01*
X52672873Y-59124500D01*
X52672864Y-59124500D01*
X51747129Y-59124500D01*
X51747123Y-59124501D01*
X51687516Y-59130908D01*
X51552671Y-59181202D01*
X51552664Y-59181206D01*
X51437455Y-59267452D01*
X51437452Y-59267455D01*
X51351206Y-59382664D01*
X51351202Y-59382671D01*
X51300908Y-59517517D01*
X51294501Y-59577116D01*
X51294501Y-59577123D01*
X51294500Y-59577135D01*
X50000000Y-59577135D01*
X50000000Y-58046153D01*
X56999500Y-58046153D01*
X56999500Y-58203846D01*
X57030261Y-58358489D01*
X57030264Y-58358501D01*
X57090602Y-58504172D01*
X57090609Y-58504185D01*
X57178210Y-58635288D01*
X57178213Y-58635292D01*
X57289707Y-58746786D01*
X57289711Y-58746789D01*
X57420814Y-58834390D01*
X57420827Y-58834397D01*
X57566498Y-58894735D01*
X57566503Y-58894737D01*
X57721153Y-58925499D01*
X57721156Y-58925500D01*
X57721158Y-58925500D01*
X57878844Y-58925500D01*
X57878845Y-58925499D01*
X58033497Y-58894737D01*
X58179179Y-58834394D01*
X58310289Y-58746789D01*
X58421789Y-58635289D01*
X58509394Y-58504179D01*
X58569737Y-58358497D01*
X58600500Y-58203842D01*
X58600500Y-58046158D01*
X58600500Y-58046155D01*
X58600499Y-58046153D01*
X58569738Y-57891510D01*
X58569737Y-57891503D01*
X58569735Y-57891498D01*
X58509397Y-57745827D01*
X58509390Y-57745814D01*
X58421789Y-57614711D01*
X58421786Y-57614707D01*
X58310292Y-57503213D01*
X58310288Y-57503210D01*
X58179185Y-57415609D01*
X58179172Y-57415602D01*
X58033501Y-57355264D01*
X58033489Y-57355261D01*
X57878845Y-57324500D01*
X57878842Y-57324500D01*
X57721158Y-57324500D01*
X57721155Y-57324500D01*
X57566510Y-57355261D01*
X57566498Y-57355264D01*
X57420827Y-57415602D01*
X57420814Y-57415609D01*
X57289711Y-57503210D01*
X57289707Y-57503213D01*
X57178213Y-57614707D01*
X57178210Y-57614711D01*
X57090609Y-57745814D01*
X57090602Y-57745827D01*
X57030264Y-57891498D01*
X57030261Y-57891510D01*
X56999500Y-58046153D01*
X50000000Y-58046153D01*
X50000000Y-55299873D01*
X50019685Y-55232834D01*
X50072489Y-55187079D01*
X50076495Y-55185334D01*
X50113574Y-55169976D01*
X50169976Y-55113574D01*
X50200500Y-55039882D01*
X50200500Y-55002706D01*
X50200618Y-54997297D01*
X50207083Y-54849223D01*
X52699500Y-54849223D01*
X52699500Y-55150776D01*
X52699501Y-55150793D01*
X52738861Y-55449766D01*
X52816913Y-55741060D01*
X52932314Y-56019661D01*
X52932318Y-56019671D01*
X53083099Y-56280831D01*
X53266679Y-56520078D01*
X53266685Y-56520085D01*
X53479914Y-56733314D01*
X53479921Y-56733320D01*
X53719168Y-56916900D01*
X53980328Y-57067681D01*
X53980329Y-57067681D01*
X53980332Y-57067683D01*
X54166072Y-57144619D01*
X54258939Y-57183086D01*
X54258940Y-57183086D01*
X54258942Y-57183087D01*
X54550232Y-57261138D01*
X54849217Y-57300500D01*
X54849224Y-57300500D01*
X55150776Y-57300500D01*
X55150783Y-57300500D01*
X55449768Y-57261138D01*
X55741058Y-57183087D01*
X56019668Y-57067683D01*
X56280832Y-56916900D01*
X56520080Y-56733319D01*
X56733319Y-56520080D01*
X56916900Y-56280832D01*
X57032185Y-56081153D01*
X58609500Y-56081153D01*
X58609500Y-56238846D01*
X58640261Y-56393489D01*
X58640264Y-56393501D01*
X58700602Y-56539172D01*
X58700609Y-56539185D01*
X58788210Y-56670288D01*
X58788213Y-56670292D01*
X58899707Y-56781786D01*
X58899711Y-56781789D01*
X59030814Y-56869390D01*
X59030827Y-56869397D01*
X59176498Y-56929735D01*
X59176503Y-56929737D01*
X59331153Y-56960499D01*
X59331156Y-56960500D01*
X59331158Y-56960500D01*
X59488844Y-56960500D01*
X59488845Y-56960499D01*
X59643497Y-56929737D01*
X59789179Y-56869394D01*
X59920289Y-56781789D01*
X60031789Y-56670289D01*
X60119394Y-56539179D01*
X60179737Y-56393497D01*
X60210500Y-56238842D01*
X60210500Y-56081158D01*
X60210500Y-56081155D01*
X60210499Y-56081153D01*
X60179738Y-55926510D01*
X60179737Y-55926503D01*
X60179735Y-55926498D01*
X60119397Y-55780827D01*
X60119390Y-55780814D01*
X60031789Y-55649711D01*
X60031786Y-55649707D01*
X59920292Y-55538213D01*
X59920288Y-55538210D01*
X59789185Y-55450609D01*
X59789172Y-55450602D01*
X59643501Y-55390264D01*
X59643489Y-55390261D01*
X59488845Y-55359500D01*
X59488842Y-55359500D01*
X59331158Y-55359500D01*
X59331155Y-55359500D01*
X59176510Y-55390261D01*
X59176498Y-55390264D01*
X59030827Y-55450602D01*
X59030814Y-55450609D01*
X58899711Y-55538210D01*
X58899707Y-55538213D01*
X58788213Y-55649707D01*
X58788210Y-55649711D01*
X58700609Y-55780814D01*
X58700602Y-55780827D01*
X58640264Y-55926498D01*
X58640261Y-55926510D01*
X58609500Y-56081153D01*
X57032185Y-56081153D01*
X57067683Y-56019668D01*
X57183087Y-55741058D01*
X57261138Y-55449768D01*
X57300500Y-55150783D01*
X57300500Y-54849217D01*
X57261138Y-54550232D01*
X57183087Y-54258942D01*
X57067683Y-53980332D01*
X56916900Y-53719168D01*
X56733319Y-53479920D01*
X56733314Y-53479914D01*
X56520085Y-53266685D01*
X56520078Y-53266679D01*
X56280831Y-53083099D01*
X56019671Y-52932318D01*
X56019661Y-52932314D01*
X55741060Y-52816913D01*
X55449766Y-52738861D01*
X55150793Y-52699501D01*
X55150788Y-52699500D01*
X55150783Y-52699500D01*
X54849217Y-52699500D01*
X54849211Y-52699500D01*
X54849206Y-52699501D01*
X54550233Y-52738861D01*
X54258939Y-52816913D01*
X53980338Y-52932314D01*
X53980328Y-52932318D01*
X53719168Y-53083099D01*
X53479921Y-53266679D01*
X53479914Y-53266685D01*
X53266685Y-53479914D01*
X53266679Y-53479921D01*
X53083099Y-53719168D01*
X52932318Y-53980328D01*
X52932314Y-53980338D01*
X52816913Y-54258939D01*
X52738861Y-54550233D01*
X52699501Y-54849206D01*
X52699500Y-54849223D01*
X50207083Y-54849223D01*
X50207497Y-54839749D01*
X50207497Y-54839748D01*
X50209891Y-54784906D01*
X50218528Y-54587082D01*
X50219468Y-54576347D01*
X50272709Y-54171938D01*
X50274582Y-54161308D01*
X50362870Y-53763068D01*
X50365668Y-53752630D01*
X50488319Y-53363629D01*
X50492016Y-53353473D01*
X50527967Y-53266681D01*
X50648111Y-52976627D01*
X50652669Y-52966853D01*
X50841025Y-52605024D01*
X50846407Y-52595703D01*
X51065574Y-52251680D01*
X51071765Y-52242837D01*
X51320083Y-51919224D01*
X51327021Y-51910955D01*
X51602594Y-51610220D01*
X51610220Y-51602594D01*
X51786402Y-51441153D01*
X58609500Y-51441153D01*
X58609500Y-51598846D01*
X58640261Y-51753489D01*
X58640264Y-51753501D01*
X58700602Y-51899172D01*
X58700609Y-51899185D01*
X58788210Y-52030288D01*
X58788213Y-52030292D01*
X58899707Y-52141786D01*
X58899711Y-52141789D01*
X59030814Y-52229390D01*
X59030827Y-52229397D01*
X59176498Y-52289735D01*
X59176503Y-52289737D01*
X59331153Y-52320499D01*
X59331156Y-52320500D01*
X59331158Y-52320500D01*
X59488844Y-52320500D01*
X59488845Y-52320499D01*
X59643497Y-52289737D01*
X59789179Y-52229394D01*
X59920289Y-52141789D01*
X60031789Y-52030289D01*
X60119394Y-51899179D01*
X60179737Y-51753497D01*
X60210500Y-51598842D01*
X60210500Y-51441158D01*
X60210500Y-51441155D01*
X60210499Y-51441153D01*
X60186310Y-51319547D01*
X60179737Y-51286503D01*
X60179735Y-51286498D01*
X60119397Y-51140827D01*
X60119390Y-51140814D01*
X60031789Y-51009711D01*
X60031786Y-51009707D01*
X59920292Y-50898213D01*
X59920288Y-50898210D01*
X59789185Y-50810609D01*
X59789172Y-50810602D01*
X59643501Y-50750264D01*
X59643489Y-50750261D01*
X59488845Y-50719500D01*
X59488842Y-50719500D01*
X59331158Y-50719500D01*
X59331155Y-50719500D01*
X59176510Y-50750261D01*
X59176498Y-50750264D01*
X59030827Y-50810602D01*
X59030814Y-50810609D01*
X58899711Y-50898210D01*
X58899707Y-50898213D01*
X58788213Y-51009707D01*
X58788210Y-51009711D01*
X58700609Y-51140814D01*
X58700602Y-51140827D01*
X58640264Y-51286498D01*
X58640261Y-51286510D01*
X58609500Y-51441153D01*
X51786402Y-51441153D01*
X51910955Y-51327021D01*
X51919224Y-51320083D01*
X52242837Y-51071765D01*
X52251680Y-51065574D01*
X52595703Y-50846407D01*
X52605024Y-50841025D01*
X52966853Y-50652669D01*
X52976627Y-50648111D01*
X53353482Y-50492012D01*
X53363629Y-50488319D01*
X53752639Y-50365665D01*
X53763068Y-50362870D01*
X54161308Y-50274582D01*
X54171938Y-50272709D01*
X54576347Y-50219468D01*
X54587080Y-50218528D01*
X54997297Y-50200617D01*
X55002706Y-50200500D01*
X55039880Y-50200500D01*
X55039882Y-50200500D01*
X55113574Y-50169976D01*
X55169976Y-50113574D01*
X55185313Y-50076547D01*
X55229155Y-50022143D01*
X55295449Y-50000079D01*
X55299874Y-50000000D01*
X65068026Y-50000000D01*
X65084288Y-50001070D01*
G37*
%TD.AperFunction*%
%TD*%
%TA.AperFunction,Conductor*%
%TO.N,+5VMUX*%
G36*
X50164421Y-66195797D02*
G01*
X50191254Y-66205051D01*
X50191272Y-66205055D01*
X50191283Y-66205059D01*
X50266923Y-66224748D01*
X50266937Y-66224751D01*
X50364548Y-66242233D01*
X50385497Y-66245985D01*
X50390227Y-66246832D01*
X50428975Y-66252234D01*
X50448060Y-66254145D01*
X50487108Y-66256533D01*
X60135691Y-66472584D01*
X60202272Y-66493764D01*
X60246833Y-66547580D01*
X60255226Y-66616943D01*
X60236016Y-66665444D01*
X60165609Y-66770814D01*
X60165602Y-66770827D01*
X60105264Y-66916498D01*
X60105261Y-66916510D01*
X60074500Y-67071153D01*
X60074500Y-67228846D01*
X60105261Y-67383489D01*
X60105264Y-67383501D01*
X60165602Y-67529172D01*
X60165609Y-67529185D01*
X60253210Y-67660288D01*
X60253213Y-67660292D01*
X60364707Y-67771786D01*
X60364711Y-67771789D01*
X60495814Y-67859390D01*
X60495827Y-67859397D01*
X60641498Y-67919735D01*
X60641503Y-67919737D01*
X60796153Y-67950499D01*
X60796156Y-67950500D01*
X60796158Y-67950500D01*
X60953844Y-67950500D01*
X60953845Y-67950499D01*
X61108497Y-67919737D01*
X61254179Y-67859394D01*
X61385289Y-67771789D01*
X61496789Y-67660289D01*
X61584394Y-67529179D01*
X61644737Y-67383497D01*
X61675500Y-67228842D01*
X61675500Y-67071158D01*
X61675500Y-67071155D01*
X61675499Y-67071153D01*
X61644738Y-66916510D01*
X61644737Y-66916503D01*
X61606900Y-66825156D01*
X61584397Y-66770827D01*
X61584390Y-66770814D01*
X61536527Y-66699182D01*
X61515649Y-66632504D01*
X61534134Y-66565124D01*
X61586112Y-66518434D01*
X61642400Y-66506322D01*
X65740415Y-66598086D01*
X65806993Y-66619265D01*
X65851554Y-66673081D01*
X65859947Y-66742444D01*
X65829507Y-66805334D01*
X65806527Y-66825156D01*
X65689707Y-66903213D01*
X65578213Y-67014707D01*
X65578210Y-67014711D01*
X65490609Y-67145814D01*
X65490602Y-67145827D01*
X65430264Y-67291498D01*
X65430261Y-67291510D01*
X65399500Y-67446153D01*
X65399500Y-67603846D01*
X65430261Y-67758489D01*
X65430264Y-67758501D01*
X65490602Y-67904172D01*
X65490609Y-67904185D01*
X65578210Y-68035288D01*
X65578213Y-68035292D01*
X65689707Y-68146786D01*
X65689711Y-68146789D01*
X65820814Y-68234390D01*
X65820827Y-68234397D01*
X65966498Y-68294735D01*
X65966503Y-68294737D01*
X66121153Y-68325499D01*
X66121156Y-68325500D01*
X66121158Y-68325500D01*
X66278844Y-68325500D01*
X66278845Y-68325499D01*
X66433497Y-68294737D01*
X66579179Y-68234394D01*
X66710289Y-68146789D01*
X66821789Y-68035289D01*
X66909394Y-67904179D01*
X66969737Y-67758497D01*
X67000500Y-67603842D01*
X67000500Y-67446158D01*
X67000500Y-67446155D01*
X67000499Y-67446153D01*
X66969738Y-67291510D01*
X66969737Y-67291503D01*
X66943782Y-67228842D01*
X66909397Y-67145827D01*
X66909390Y-67145814D01*
X66821789Y-67014711D01*
X66821786Y-67014707D01*
X66710292Y-66903213D01*
X66710288Y-66903210D01*
X66625537Y-66846581D01*
X66580732Y-66792969D01*
X66572025Y-66723644D01*
X66602179Y-66660616D01*
X66661623Y-66623897D01*
X66697198Y-66619510D01*
X67443955Y-66636232D01*
X67510534Y-66657411D01*
X67555095Y-66711226D01*
X67565172Y-66759147D01*
X67601508Y-71038225D01*
X67582393Y-71105429D01*
X67529979Y-71151631D01*
X67460908Y-71162161D01*
X67439518Y-71156391D01*
X67439324Y-71157031D01*
X67433500Y-71155264D01*
X67433497Y-71155263D01*
X67433492Y-71155262D01*
X67433489Y-71155261D01*
X67278845Y-71124500D01*
X67278842Y-71124500D01*
X67121158Y-71124500D01*
X67121155Y-71124500D01*
X66966510Y-71155261D01*
X66966498Y-71155264D01*
X66820827Y-71215602D01*
X66820814Y-71215609D01*
X66689711Y-71303210D01*
X66689707Y-71303213D01*
X66578213Y-71414707D01*
X66578210Y-71414711D01*
X66490609Y-71545814D01*
X66490602Y-71545827D01*
X66430264Y-71691498D01*
X66430261Y-71691510D01*
X66399500Y-71846153D01*
X66399500Y-72003846D01*
X66430261Y-72158489D01*
X66430264Y-72158501D01*
X66490602Y-72304172D01*
X66490609Y-72304185D01*
X66578210Y-72435288D01*
X66578213Y-72435292D01*
X66689707Y-72546786D01*
X66689711Y-72546789D01*
X66820814Y-72634390D01*
X66820827Y-72634397D01*
X66926603Y-72678210D01*
X66966503Y-72694737D01*
X67121153Y-72725499D01*
X67121156Y-72725500D01*
X67121158Y-72725500D01*
X67278844Y-72725500D01*
X67278845Y-72725499D01*
X67433497Y-72694737D01*
X67445047Y-72689952D01*
X67514514Y-72682481D01*
X67576994Y-72713754D01*
X67612649Y-72773841D01*
X67616498Y-72803459D01*
X67652238Y-77012311D01*
X67642804Y-77060815D01*
X67603342Y-77156087D01*
X67603340Y-77156092D01*
X67574500Y-77301079D01*
X67574500Y-77301082D01*
X67574500Y-77448918D01*
X67574500Y-77448920D01*
X67574499Y-77448920D01*
X67603340Y-77593907D01*
X67603343Y-77593917D01*
X67649073Y-77704319D01*
X67650613Y-77711893D01*
X67653188Y-77715826D01*
X67658508Y-77750717D01*
X67658895Y-77796240D01*
X67649460Y-77844746D01*
X67603342Y-77956085D01*
X67603340Y-77956093D01*
X67574500Y-78101079D01*
X67574500Y-78101082D01*
X67574500Y-78248918D01*
X67574500Y-78248920D01*
X67574499Y-78248920D01*
X67603340Y-78393907D01*
X67603343Y-78393917D01*
X67636596Y-78474197D01*
X67644065Y-78543666D01*
X67634829Y-78573161D01*
X67609664Y-78628263D01*
X67589976Y-78695311D01*
X67569520Y-78837588D01*
X67540495Y-78901144D01*
X67481717Y-78938918D01*
X67411847Y-78938918D01*
X67353069Y-78901144D01*
X67325165Y-78844132D01*
X67307238Y-78754010D01*
X67307237Y-78754003D01*
X67282926Y-78695311D01*
X67246897Y-78608327D01*
X67246890Y-78608314D01*
X67159289Y-78477211D01*
X67159286Y-78477207D01*
X67047792Y-78365713D01*
X67047788Y-78365710D01*
X66916685Y-78278109D01*
X66916672Y-78278102D01*
X66771001Y-78217764D01*
X66770989Y-78217761D01*
X66616345Y-78187000D01*
X66616342Y-78187000D01*
X66458658Y-78187000D01*
X66458655Y-78187000D01*
X66304010Y-78217761D01*
X66303998Y-78217764D01*
X66158327Y-78278102D01*
X66158314Y-78278109D01*
X66027211Y-78365710D01*
X66027207Y-78365713D01*
X65915713Y-78477207D01*
X65915710Y-78477211D01*
X65828109Y-78608314D01*
X65828102Y-78608327D01*
X65767764Y-78753998D01*
X65767761Y-78754010D01*
X65737000Y-78908653D01*
X65737000Y-79066346D01*
X65767761Y-79220989D01*
X65767764Y-79221001D01*
X65828102Y-79366672D01*
X65828109Y-79366685D01*
X65915710Y-79497788D01*
X65915713Y-79497792D01*
X66027207Y-79609286D01*
X66027211Y-79609289D01*
X66158314Y-79696890D01*
X66158327Y-79696897D01*
X66261691Y-79739711D01*
X66304003Y-79757237D01*
X66458653Y-79787999D01*
X66458656Y-79788000D01*
X66458658Y-79788000D01*
X66616344Y-79788000D01*
X66616345Y-79787999D01*
X66770997Y-79757237D01*
X66916679Y-79696894D01*
X67047789Y-79609289D01*
X67159289Y-79497789D01*
X67246894Y-79366679D01*
X67307237Y-79220997D01*
X67321269Y-79150454D01*
X67323883Y-79137315D01*
X67356268Y-79075404D01*
X67416984Y-79040830D01*
X67486753Y-79044569D01*
X67543425Y-79085436D01*
X67569006Y-79150454D01*
X67569500Y-79161506D01*
X67569500Y-80258602D01*
X67570579Y-80291630D01*
X67570580Y-80291638D01*
X67571639Y-80307810D01*
X67574877Y-80340706D01*
X67588701Y-80445797D01*
X67588702Y-80445804D01*
X67588704Y-80445816D01*
X67601577Y-80510585D01*
X67601586Y-80510625D01*
X67609939Y-80541826D01*
X67609952Y-80541869D01*
X67629938Y-80600794D01*
X67631171Y-80604427D01*
X67658156Y-80669628D01*
X67668578Y-80694809D01*
X67671248Y-80700227D01*
X67684011Y-80753976D01*
X67734959Y-86753850D01*
X67715844Y-86821054D01*
X67663430Y-86867256D01*
X67594359Y-86877786D01*
X67541560Y-86854789D01*
X67540354Y-86856595D01*
X67404185Y-86765609D01*
X67404172Y-86765602D01*
X67258501Y-86705264D01*
X67258489Y-86705261D01*
X67103845Y-86674500D01*
X67103842Y-86674500D01*
X66946158Y-86674500D01*
X66946155Y-86674500D01*
X66791510Y-86705261D01*
X66791498Y-86705264D01*
X66645827Y-86765602D01*
X66645814Y-86765609D01*
X66514711Y-86853210D01*
X66514707Y-86853213D01*
X66403213Y-86964707D01*
X66403210Y-86964711D01*
X66315609Y-87095814D01*
X66315602Y-87095827D01*
X66255264Y-87241498D01*
X66255261Y-87241510D01*
X66224500Y-87396153D01*
X66224500Y-87553846D01*
X66255261Y-87708489D01*
X66255264Y-87708501D01*
X66315602Y-87854172D01*
X66315609Y-87854185D01*
X66403210Y-87985288D01*
X66403213Y-87985292D01*
X66514707Y-88096786D01*
X66514711Y-88096789D01*
X66645814Y-88184390D01*
X66645827Y-88184397D01*
X66788570Y-88243522D01*
X66791503Y-88244737D01*
X66894719Y-88265268D01*
X66946153Y-88275499D01*
X66946156Y-88275500D01*
X66946158Y-88275500D01*
X67103843Y-88275500D01*
X67115558Y-88273169D01*
X67258497Y-88244737D01*
X67404179Y-88184394D01*
X67535289Y-88096789D01*
X67535293Y-88096784D01*
X67539999Y-88092924D01*
X67540920Y-88094047D01*
X67595870Y-88064032D01*
X67665562Y-88069007D01*
X67721502Y-88110871D01*
X67745928Y-88176332D01*
X67745033Y-88202489D01*
X67729097Y-88315637D01*
X67728830Y-88316536D01*
X67728895Y-88317017D01*
X67718668Y-88350797D01*
X67690843Y-88410399D01*
X67644647Y-88462818D01*
X67577445Y-88481941D01*
X67554293Y-88479562D01*
X67528846Y-88474500D01*
X67528842Y-88474500D01*
X67371158Y-88474500D01*
X67371153Y-88474500D01*
X67319786Y-88484717D01*
X67319517Y-88484771D01*
X67216503Y-88505263D01*
X67213577Y-88506474D01*
X67213576Y-88506475D01*
X67070827Y-88565602D01*
X67070814Y-88565609D01*
X66939711Y-88653210D01*
X66939707Y-88653213D01*
X66828213Y-88764707D01*
X66828207Y-88764715D01*
X66740607Y-88895818D01*
X66740606Y-88895819D01*
X66737094Y-88904299D01*
X66693250Y-88958700D01*
X66669902Y-88971438D01*
X60349833Y-91583735D01*
X60338106Y-91587906D01*
X60285580Y-91603667D01*
X60260021Y-91611337D01*
X60235609Y-91616060D01*
X60154407Y-91623442D01*
X60141971Y-91623945D01*
X58250591Y-91605493D01*
X50503202Y-91529908D01*
X50487129Y-91528704D01*
X50382732Y-91514010D01*
X50351725Y-91505431D01*
X50276210Y-91473502D01*
X50222129Y-91429263D01*
X50200550Y-91362810D01*
X50200500Y-91359291D01*
X50200500Y-90271153D01*
X53665750Y-90271153D01*
X53665750Y-90428846D01*
X53696511Y-90583489D01*
X53696514Y-90583501D01*
X53756852Y-90729172D01*
X53756859Y-90729185D01*
X53844460Y-90860288D01*
X53844463Y-90860292D01*
X53955957Y-90971786D01*
X53955961Y-90971789D01*
X54087064Y-91059390D01*
X54087077Y-91059397D01*
X54186310Y-91100500D01*
X54232753Y-91119737D01*
X54387403Y-91150499D01*
X54387406Y-91150500D01*
X54387408Y-91150500D01*
X54545094Y-91150500D01*
X54545095Y-91150499D01*
X54699747Y-91119737D01*
X54845429Y-91059394D01*
X54976539Y-90971789D01*
X55088039Y-90860289D01*
X55175644Y-90729179D01*
X55235987Y-90583497D01*
X55266750Y-90428842D01*
X55266750Y-90271158D01*
X55266750Y-90271155D01*
X55266749Y-90271153D01*
X55235988Y-90116510D01*
X55235987Y-90116503D01*
X55219003Y-90075500D01*
X55175647Y-89970827D01*
X55175640Y-89970814D01*
X55088039Y-89839711D01*
X55088036Y-89839707D01*
X54976542Y-89728213D01*
X54976538Y-89728210D01*
X54845435Y-89640609D01*
X54845422Y-89640602D01*
X54699751Y-89580264D01*
X54699739Y-89580261D01*
X54545095Y-89549500D01*
X54545092Y-89549500D01*
X54387408Y-89549500D01*
X54387405Y-89549500D01*
X54232760Y-89580261D01*
X54232748Y-89580264D01*
X54087077Y-89640602D01*
X54087064Y-89640609D01*
X53955961Y-89728210D01*
X53955957Y-89728213D01*
X53844463Y-89839707D01*
X53844460Y-89839711D01*
X53756859Y-89970814D01*
X53756852Y-89970827D01*
X53696514Y-90116498D01*
X53696511Y-90116510D01*
X53665750Y-90271153D01*
X50200500Y-90271153D01*
X50200500Y-87960119D01*
X50200499Y-87960116D01*
X50189470Y-87933489D01*
X50169976Y-87886426D01*
X50113574Y-87830024D01*
X50076547Y-87814687D01*
X50060982Y-87802143D01*
X50042797Y-87793839D01*
X50034332Y-87780668D01*
X50022143Y-87770845D01*
X50015830Y-87751877D01*
X50005023Y-87735061D01*
X50001060Y-87707498D01*
X50000079Y-87704551D01*
X50000000Y-87700126D01*
X50000000Y-87621153D01*
X53665750Y-87621153D01*
X53665750Y-87778846D01*
X53696511Y-87933489D01*
X53696514Y-87933501D01*
X53756852Y-88079172D01*
X53756859Y-88079185D01*
X53844460Y-88210288D01*
X53844463Y-88210292D01*
X53955957Y-88321786D01*
X53955961Y-88321789D01*
X54087064Y-88409390D01*
X54087077Y-88409397D01*
X54216049Y-88462818D01*
X54232753Y-88469737D01*
X54387403Y-88500499D01*
X54387406Y-88500500D01*
X54387408Y-88500500D01*
X54545094Y-88500500D01*
X54545095Y-88500499D01*
X54699747Y-88469737D01*
X54845429Y-88409394D01*
X54976539Y-88321789D01*
X55088039Y-88210289D01*
X55175644Y-88079179D01*
X55235987Y-87933497D01*
X55266750Y-87778842D01*
X55266750Y-87621158D01*
X55266750Y-87621155D01*
X55266749Y-87621153D01*
X59999500Y-87621153D01*
X59999500Y-87778846D01*
X60030261Y-87933489D01*
X60030264Y-87933501D01*
X60090602Y-88079172D01*
X60090609Y-88079185D01*
X60178210Y-88210288D01*
X60178213Y-88210292D01*
X60289707Y-88321786D01*
X60289711Y-88321789D01*
X60420814Y-88409390D01*
X60420827Y-88409397D01*
X60549799Y-88462818D01*
X60566503Y-88469737D01*
X60721153Y-88500499D01*
X60721156Y-88500500D01*
X60721158Y-88500500D01*
X60878844Y-88500500D01*
X60878845Y-88500499D01*
X61033497Y-88469737D01*
X61179179Y-88409394D01*
X61310289Y-88321789D01*
X61421789Y-88210289D01*
X61509394Y-88079179D01*
X61569737Y-87933497D01*
X61600500Y-87778842D01*
X61600500Y-87621158D01*
X61600500Y-87621155D01*
X61600499Y-87621153D01*
X61587110Y-87553842D01*
X61569737Y-87466503D01*
X61569549Y-87466048D01*
X61509397Y-87320827D01*
X61509390Y-87320814D01*
X61421789Y-87189711D01*
X61421786Y-87189707D01*
X61310292Y-87078213D01*
X61310288Y-87078210D01*
X61179185Y-86990609D01*
X61179172Y-86990602D01*
X61033501Y-86930264D01*
X61033489Y-86930261D01*
X60878845Y-86899500D01*
X60878842Y-86899500D01*
X60721158Y-86899500D01*
X60721155Y-86899500D01*
X60566510Y-86930261D01*
X60566498Y-86930264D01*
X60420827Y-86990602D01*
X60420814Y-86990609D01*
X60289711Y-87078210D01*
X60289707Y-87078213D01*
X60178213Y-87189707D01*
X60178210Y-87189711D01*
X60090609Y-87320814D01*
X60090602Y-87320827D01*
X60030264Y-87466498D01*
X60030261Y-87466510D01*
X59999500Y-87621153D01*
X55266749Y-87621153D01*
X55253360Y-87553842D01*
X55235987Y-87466503D01*
X55235799Y-87466048D01*
X55175647Y-87320827D01*
X55175640Y-87320814D01*
X55088039Y-87189711D01*
X55088036Y-87189707D01*
X54976542Y-87078213D01*
X54976538Y-87078210D01*
X54845435Y-86990609D01*
X54845422Y-86990602D01*
X54699751Y-86930264D01*
X54699739Y-86930261D01*
X54545095Y-86899500D01*
X54545092Y-86899500D01*
X54387408Y-86899500D01*
X54387405Y-86899500D01*
X54232760Y-86930261D01*
X54232748Y-86930264D01*
X54087077Y-86990602D01*
X54087064Y-86990609D01*
X53955961Y-87078210D01*
X53955957Y-87078213D01*
X53844463Y-87189707D01*
X53844460Y-87189711D01*
X53756859Y-87320814D01*
X53756852Y-87320827D01*
X53696514Y-87466498D01*
X53696511Y-87466510D01*
X53665750Y-87621153D01*
X50000000Y-87621153D01*
X50000000Y-86081153D01*
X63669500Y-86081153D01*
X63669500Y-86238846D01*
X63700261Y-86393489D01*
X63700264Y-86393501D01*
X63760602Y-86539172D01*
X63760609Y-86539185D01*
X63848210Y-86670288D01*
X63848213Y-86670292D01*
X63959707Y-86781786D01*
X63959711Y-86781789D01*
X64090814Y-86869390D01*
X64090827Y-86869397D01*
X64236498Y-86929735D01*
X64236503Y-86929737D01*
X64391153Y-86960499D01*
X64391156Y-86960500D01*
X64391158Y-86960500D01*
X64548844Y-86960500D01*
X64548845Y-86960499D01*
X64703497Y-86929737D01*
X64849179Y-86869394D01*
X64980289Y-86781789D01*
X65091789Y-86670289D01*
X65179394Y-86539179D01*
X65239737Y-86393497D01*
X65243354Y-86375308D01*
X65275739Y-86313399D01*
X65336454Y-86278824D01*
X65364972Y-86275500D01*
X65403844Y-86275500D01*
X65403845Y-86275499D01*
X65558497Y-86244737D01*
X65704179Y-86184394D01*
X65835289Y-86096789D01*
X65946789Y-85985289D01*
X66034394Y-85854179D01*
X66094737Y-85708497D01*
X66125500Y-85553842D01*
X66125500Y-85396158D01*
X66125500Y-85396155D01*
X66125499Y-85396153D01*
X66116674Y-85351786D01*
X66094737Y-85241503D01*
X66094234Y-85240288D01*
X66034397Y-85095827D01*
X66034390Y-85095814D01*
X65946789Y-84964711D01*
X65946786Y-84964707D01*
X65835292Y-84853213D01*
X65835288Y-84853210D01*
X65704185Y-84765609D01*
X65704172Y-84765602D01*
X65558501Y-84705264D01*
X65558489Y-84705261D01*
X65403845Y-84674500D01*
X65403842Y-84674500D01*
X65246158Y-84674500D01*
X65246155Y-84674500D01*
X65091510Y-84705261D01*
X65091498Y-84705264D01*
X64945827Y-84765602D01*
X64945814Y-84765609D01*
X64814711Y-84853210D01*
X64814707Y-84853213D01*
X64703213Y-84964707D01*
X64703210Y-84964711D01*
X64615609Y-85095814D01*
X64615602Y-85095827D01*
X64555263Y-85241501D01*
X64555263Y-85241502D01*
X64554373Y-85245976D01*
X64551645Y-85259691D01*
X64519261Y-85321601D01*
X64458546Y-85356176D01*
X64430028Y-85359500D01*
X64391155Y-85359500D01*
X64236510Y-85390261D01*
X64236498Y-85390264D01*
X64090827Y-85450602D01*
X64090814Y-85450609D01*
X63959711Y-85538210D01*
X63959707Y-85538213D01*
X63848213Y-85649707D01*
X63848210Y-85649711D01*
X63760609Y-85780814D01*
X63760602Y-85780827D01*
X63700264Y-85926498D01*
X63700261Y-85926510D01*
X63669500Y-86081153D01*
X50000000Y-86081153D01*
X50000000Y-85081153D01*
X53665750Y-85081153D01*
X53665750Y-85238846D01*
X53696511Y-85393489D01*
X53696514Y-85393501D01*
X53756852Y-85539172D01*
X53756859Y-85539185D01*
X53844460Y-85670288D01*
X53844463Y-85670292D01*
X53955957Y-85781786D01*
X53955961Y-85781789D01*
X54087064Y-85869390D01*
X54087077Y-85869397D01*
X54223835Y-85926043D01*
X54232753Y-85929737D01*
X54387403Y-85960499D01*
X54387406Y-85960500D01*
X54387408Y-85960500D01*
X54545094Y-85960500D01*
X54545095Y-85960499D01*
X54699747Y-85929737D01*
X54845429Y-85869394D01*
X54976539Y-85781789D01*
X55088039Y-85670289D01*
X55175644Y-85539179D01*
X55235987Y-85393497D01*
X55266750Y-85238842D01*
X55266750Y-85081158D01*
X55266750Y-85081155D01*
X55266749Y-85081153D01*
X59999500Y-85081153D01*
X59999500Y-85238846D01*
X60030261Y-85393489D01*
X60030264Y-85393501D01*
X60090602Y-85539172D01*
X60090609Y-85539185D01*
X60178210Y-85670288D01*
X60178213Y-85670292D01*
X60289707Y-85781786D01*
X60289711Y-85781789D01*
X60420814Y-85869390D01*
X60420827Y-85869397D01*
X60557585Y-85926043D01*
X60566503Y-85929737D01*
X60721153Y-85960499D01*
X60721156Y-85960500D01*
X60721158Y-85960500D01*
X60878844Y-85960500D01*
X60878845Y-85960499D01*
X60889179Y-85958443D01*
X60914287Y-85953450D01*
X60914292Y-85953449D01*
X60999800Y-85936439D01*
X61033497Y-85929737D01*
X61179179Y-85869394D01*
X61310289Y-85781789D01*
X61421789Y-85670289D01*
X61509394Y-85539179D01*
X61569737Y-85393497D01*
X61600500Y-85238842D01*
X61600500Y-85081158D01*
X61600500Y-85081155D01*
X61600499Y-85081153D01*
X61577096Y-84963501D01*
X61569737Y-84926503D01*
X61539379Y-84853211D01*
X61509397Y-84780827D01*
X61509395Y-84780823D01*
X61509394Y-84780821D01*
X61464717Y-84713957D01*
X61422753Y-84651153D01*
X62449500Y-84651153D01*
X62449500Y-84808846D01*
X62480261Y-84963489D01*
X62480264Y-84963501D01*
X62540602Y-85109172D01*
X62540609Y-85109185D01*
X62628210Y-85240288D01*
X62628213Y-85240292D01*
X62739707Y-85351786D01*
X62739711Y-85351789D01*
X62870814Y-85439390D01*
X62870827Y-85439397D01*
X63016498Y-85499735D01*
X63016503Y-85499737D01*
X63171153Y-85530499D01*
X63171156Y-85530500D01*
X63171158Y-85530500D01*
X63328844Y-85530500D01*
X63328845Y-85530499D01*
X63483497Y-85499737D01*
X63629179Y-85439394D01*
X63760289Y-85351789D01*
X63871789Y-85240289D01*
X63959394Y-85109179D01*
X64019737Y-84963497D01*
X64050500Y-84808842D01*
X64050500Y-84651158D01*
X64050500Y-84651155D01*
X64050499Y-84651153D01*
X64034544Y-84570941D01*
X64019737Y-84496503D01*
X64019735Y-84496498D01*
X63959397Y-84350827D01*
X63959390Y-84350814D01*
X63871789Y-84219711D01*
X63871786Y-84219707D01*
X63760292Y-84108213D01*
X63760288Y-84108210D01*
X63629185Y-84020609D01*
X63629172Y-84020602D01*
X63483501Y-83960264D01*
X63483489Y-83960261D01*
X63328845Y-83929500D01*
X63328842Y-83929500D01*
X63171158Y-83929500D01*
X63171155Y-83929500D01*
X63016510Y-83960261D01*
X63016498Y-83960264D01*
X62870827Y-84020602D01*
X62870814Y-84020609D01*
X62739711Y-84108210D01*
X62739707Y-84108213D01*
X62628213Y-84219707D01*
X62628210Y-84219711D01*
X62540609Y-84350814D01*
X62540602Y-84350827D01*
X62480264Y-84496498D01*
X62480261Y-84496510D01*
X62449500Y-84651153D01*
X61422753Y-84651153D01*
X61421789Y-84649710D01*
X61310292Y-84538213D01*
X61310288Y-84538210D01*
X61179185Y-84450609D01*
X61179172Y-84450602D01*
X61033501Y-84390264D01*
X61033489Y-84390261D01*
X60878845Y-84359500D01*
X60878842Y-84359500D01*
X60721158Y-84359500D01*
X60721155Y-84359500D01*
X60566510Y-84390261D01*
X60566498Y-84390264D01*
X60420827Y-84450602D01*
X60420814Y-84450609D01*
X60289711Y-84538210D01*
X60289707Y-84538213D01*
X60178213Y-84649707D01*
X60178210Y-84649711D01*
X60090609Y-84780814D01*
X60090602Y-84780827D01*
X60030264Y-84926498D01*
X60030261Y-84926510D01*
X59999500Y-85081153D01*
X55266749Y-85081153D01*
X55243346Y-84963501D01*
X55235987Y-84926503D01*
X55205629Y-84853211D01*
X55175647Y-84780827D01*
X55175640Y-84780814D01*
X55088039Y-84649711D01*
X55088036Y-84649707D01*
X54976542Y-84538213D01*
X54976538Y-84538210D01*
X54845435Y-84450609D01*
X54845422Y-84450602D01*
X54699751Y-84390264D01*
X54699739Y-84390261D01*
X54545095Y-84359500D01*
X54545092Y-84359500D01*
X54387408Y-84359500D01*
X54387405Y-84359500D01*
X54232760Y-84390261D01*
X54232748Y-84390264D01*
X54087077Y-84450602D01*
X54087064Y-84450609D01*
X53955961Y-84538210D01*
X53955957Y-84538213D01*
X53844463Y-84649707D01*
X53844460Y-84649711D01*
X53756859Y-84780814D01*
X53756852Y-84780827D01*
X53696514Y-84926498D01*
X53696511Y-84926510D01*
X53665750Y-85081153D01*
X50000000Y-85081153D01*
X50000000Y-82371153D01*
X53665750Y-82371153D01*
X53665750Y-82528846D01*
X53696511Y-82683489D01*
X53696514Y-82683501D01*
X53756852Y-82829172D01*
X53756859Y-82829185D01*
X53844460Y-82960288D01*
X53844463Y-82960292D01*
X53955957Y-83071786D01*
X53955961Y-83071789D01*
X54087064Y-83159390D01*
X54087077Y-83159397D01*
X54232748Y-83219735D01*
X54232753Y-83219737D01*
X54387403Y-83250499D01*
X54387406Y-83250500D01*
X54387408Y-83250500D01*
X54545094Y-83250500D01*
X54545095Y-83250499D01*
X54699747Y-83219737D01*
X54845429Y-83159394D01*
X54976539Y-83071789D01*
X55088039Y-82960289D01*
X55175644Y-82829179D01*
X55235987Y-82683497D01*
X55266750Y-82528842D01*
X55266750Y-82371158D01*
X55266750Y-82371155D01*
X55266749Y-82371153D01*
X59999500Y-82371153D01*
X59999500Y-82528846D01*
X60030261Y-82683489D01*
X60030264Y-82683501D01*
X60090602Y-82829172D01*
X60090609Y-82829185D01*
X60178210Y-82960288D01*
X60178213Y-82960292D01*
X60289707Y-83071786D01*
X60289711Y-83071789D01*
X60420814Y-83159390D01*
X60420827Y-83159397D01*
X60566498Y-83219735D01*
X60566503Y-83219737D01*
X60721153Y-83250499D01*
X60721156Y-83250500D01*
X60721158Y-83250500D01*
X60878844Y-83250500D01*
X60878845Y-83250499D01*
X61033497Y-83219737D01*
X61090434Y-83196153D01*
X64524500Y-83196153D01*
X64524500Y-83353846D01*
X64555261Y-83508489D01*
X64555264Y-83508501D01*
X64615602Y-83654172D01*
X64615609Y-83654185D01*
X64703210Y-83785288D01*
X64703213Y-83785292D01*
X64814707Y-83896786D01*
X64814711Y-83896789D01*
X64945814Y-83984390D01*
X64945827Y-83984397D01*
X65033245Y-84020606D01*
X65091503Y-84044737D01*
X65246153Y-84075499D01*
X65246156Y-84075500D01*
X65246158Y-84075500D01*
X65403844Y-84075500D01*
X65403845Y-84075499D01*
X65558497Y-84044737D01*
X65704179Y-83984394D01*
X65835289Y-83896789D01*
X65946789Y-83785289D01*
X66034394Y-83654179D01*
X66094737Y-83508497D01*
X66125500Y-83353842D01*
X66125500Y-83196158D01*
X66125500Y-83196155D01*
X66125499Y-83196153D01*
X66100761Y-83071789D01*
X66094737Y-83041503D01*
X66061099Y-82960292D01*
X66034397Y-82895827D01*
X66034390Y-82895814D01*
X65946789Y-82764711D01*
X65946786Y-82764707D01*
X65835292Y-82653213D01*
X65835288Y-82653210D01*
X65704185Y-82565609D01*
X65704172Y-82565602D01*
X65558501Y-82505264D01*
X65558489Y-82505261D01*
X65403845Y-82474500D01*
X65403842Y-82474500D01*
X65246158Y-82474500D01*
X65246155Y-82474500D01*
X65091510Y-82505261D01*
X65091498Y-82505264D01*
X64945827Y-82565602D01*
X64945814Y-82565609D01*
X64814711Y-82653210D01*
X64814707Y-82653213D01*
X64703213Y-82764707D01*
X64703210Y-82764711D01*
X64615609Y-82895814D01*
X64615602Y-82895827D01*
X64555264Y-83041498D01*
X64555261Y-83041510D01*
X64524500Y-83196153D01*
X61090434Y-83196153D01*
X61179179Y-83159394D01*
X61310289Y-83071789D01*
X61421789Y-82960289D01*
X61509394Y-82829179D01*
X61569737Y-82683497D01*
X61600500Y-82528842D01*
X61600500Y-82371158D01*
X61600500Y-82371155D01*
X61600499Y-82371153D01*
X61569738Y-82216510D01*
X61569737Y-82216503D01*
X61569735Y-82216498D01*
X61509397Y-82070827D01*
X61509390Y-82070814D01*
X61421789Y-81939711D01*
X61421786Y-81939707D01*
X61310292Y-81828213D01*
X61310288Y-81828210D01*
X61179185Y-81740609D01*
X61179172Y-81740602D01*
X61033501Y-81680264D01*
X61033489Y-81680261D01*
X60878845Y-81649500D01*
X60878842Y-81649500D01*
X60721158Y-81649500D01*
X60721155Y-81649500D01*
X60566510Y-81680261D01*
X60566498Y-81680264D01*
X60420827Y-81740602D01*
X60420814Y-81740609D01*
X60289711Y-81828210D01*
X60289707Y-81828213D01*
X60178213Y-81939707D01*
X60178210Y-81939711D01*
X60090609Y-82070814D01*
X60090602Y-82070827D01*
X60030264Y-82216498D01*
X60030261Y-82216510D01*
X59999500Y-82371153D01*
X55266749Y-82371153D01*
X55235988Y-82216510D01*
X55235987Y-82216503D01*
X55235985Y-82216498D01*
X55175647Y-82070827D01*
X55175640Y-82070814D01*
X55088039Y-81939711D01*
X55088036Y-81939707D01*
X54976542Y-81828213D01*
X54976538Y-81828210D01*
X54845435Y-81740609D01*
X54845422Y-81740602D01*
X54699751Y-81680264D01*
X54699739Y-81680261D01*
X54545095Y-81649500D01*
X54545092Y-81649500D01*
X54387408Y-81649500D01*
X54387405Y-81649500D01*
X54232760Y-81680261D01*
X54232748Y-81680264D01*
X54087077Y-81740602D01*
X54087064Y-81740609D01*
X53955961Y-81828210D01*
X53955957Y-81828213D01*
X53844463Y-81939707D01*
X53844460Y-81939711D01*
X53756859Y-82070814D01*
X53756852Y-82070827D01*
X53696514Y-82216498D01*
X53696511Y-82216510D01*
X53665750Y-82371153D01*
X50000000Y-82371153D01*
X50000000Y-80171153D01*
X64124500Y-80171153D01*
X64124500Y-80328846D01*
X64155261Y-80483489D01*
X64155264Y-80483501D01*
X64215602Y-80629172D01*
X64215609Y-80629185D01*
X64303210Y-80760288D01*
X64303213Y-80760292D01*
X64414707Y-80871786D01*
X64414711Y-80871789D01*
X64451277Y-80896222D01*
X64496082Y-80949834D01*
X64504789Y-81019159D01*
X64504004Y-81023514D01*
X64499500Y-81046158D01*
X64499500Y-81203846D01*
X64530261Y-81358489D01*
X64530264Y-81358501D01*
X64590602Y-81504172D01*
X64590609Y-81504185D01*
X64678210Y-81635288D01*
X64678213Y-81635292D01*
X64789707Y-81746786D01*
X64789711Y-81746789D01*
X64920814Y-81834390D01*
X64920827Y-81834397D01*
X65066498Y-81894735D01*
X65066503Y-81894737D01*
X65221153Y-81925499D01*
X65221156Y-81925500D01*
X65221158Y-81925500D01*
X65378844Y-81925500D01*
X65378845Y-81925499D01*
X65533497Y-81894737D01*
X65679179Y-81834394D01*
X65810289Y-81746789D01*
X65921789Y-81635289D01*
X66009394Y-81504179D01*
X66069737Y-81358497D01*
X66100500Y-81203842D01*
X66100500Y-81046158D01*
X66100500Y-81046155D01*
X66100499Y-81046153D01*
X66095996Y-81023514D01*
X66069737Y-80891503D01*
X66031747Y-80799786D01*
X66009397Y-80745827D01*
X66009390Y-80745814D01*
X65921789Y-80614711D01*
X65921786Y-80614707D01*
X65810292Y-80503213D01*
X65810288Y-80503210D01*
X65773722Y-80478777D01*
X65728917Y-80425164D01*
X65720210Y-80355839D01*
X65720997Y-80351479D01*
X65725500Y-80328845D01*
X65725500Y-80171155D01*
X65725499Y-80171153D01*
X65694738Y-80016510D01*
X65694737Y-80016503D01*
X65694735Y-80016498D01*
X65634397Y-79870827D01*
X65634390Y-79870814D01*
X65546789Y-79739711D01*
X65546786Y-79739707D01*
X65435292Y-79628213D01*
X65435288Y-79628210D01*
X65304185Y-79540609D01*
X65304172Y-79540602D01*
X65158501Y-79480264D01*
X65158489Y-79480261D01*
X65003845Y-79449500D01*
X65003842Y-79449500D01*
X64846158Y-79449500D01*
X64846155Y-79449500D01*
X64691510Y-79480261D01*
X64691498Y-79480264D01*
X64545827Y-79540602D01*
X64545814Y-79540609D01*
X64414711Y-79628210D01*
X64414707Y-79628213D01*
X64303213Y-79739707D01*
X64303210Y-79739711D01*
X64215609Y-79870814D01*
X64215602Y-79870827D01*
X64155264Y-80016498D01*
X64155261Y-80016510D01*
X64124500Y-80171153D01*
X50000000Y-80171153D01*
X50000000Y-76467135D01*
X51964500Y-76467135D01*
X51964500Y-77392870D01*
X51964501Y-77392876D01*
X51970908Y-77452483D01*
X52008799Y-77554072D01*
X52013783Y-77623764D01*
X52007180Y-77644854D01*
X51999683Y-77662952D01*
X51999680Y-77662964D01*
X51964500Y-77839827D01*
X51964500Y-78020173D01*
X51999680Y-78197034D01*
X51999683Y-78197046D01*
X52068690Y-78363645D01*
X52068697Y-78363658D01*
X52168883Y-78513596D01*
X52168886Y-78513600D01*
X52296399Y-78641113D01*
X52296403Y-78641116D01*
X52446341Y-78741302D01*
X52446354Y-78741309D01*
X52612953Y-78810316D01*
X52612958Y-78810318D01*
X52782954Y-78844132D01*
X52789826Y-78845499D01*
X52789830Y-78845500D01*
X52789831Y-78845500D01*
X52970170Y-78845500D01*
X52970171Y-78845499D01*
X53147042Y-78810318D01*
X53313652Y-78741306D01*
X53463597Y-78641116D01*
X53591116Y-78513597D01*
X53652885Y-78421153D01*
X62074500Y-78421153D01*
X62074500Y-78578846D01*
X62105261Y-78733489D01*
X62105264Y-78733501D01*
X62165602Y-78879172D01*
X62165609Y-78879185D01*
X62253210Y-79010288D01*
X62253213Y-79010292D01*
X62364707Y-79121786D01*
X62364711Y-79121789D01*
X62495814Y-79209390D01*
X62495827Y-79209397D01*
X62641498Y-79269735D01*
X62641503Y-79269737D01*
X62796153Y-79300499D01*
X62796156Y-79300500D01*
X62796158Y-79300500D01*
X62953844Y-79300500D01*
X62953845Y-79300499D01*
X63108497Y-79269737D01*
X63254179Y-79209394D01*
X63385289Y-79121789D01*
X63496789Y-79010289D01*
X63584394Y-78879179D01*
X63644737Y-78733497D01*
X63673884Y-78586962D01*
X63706268Y-78525053D01*
X63766984Y-78490479D01*
X63836753Y-78494218D01*
X63842934Y-78496586D01*
X63929003Y-78532237D01*
X64042007Y-78554715D01*
X64083653Y-78562999D01*
X64083656Y-78563000D01*
X64083658Y-78563000D01*
X64241344Y-78563000D01*
X64241345Y-78562999D01*
X64395997Y-78532237D01*
X64541679Y-78471894D01*
X64672789Y-78384289D01*
X64784289Y-78272789D01*
X64871894Y-78141679D01*
X64932237Y-77995997D01*
X64963000Y-77841342D01*
X64963000Y-77683658D01*
X64963000Y-77683655D01*
X64962999Y-77683653D01*
X64937224Y-77554074D01*
X64932237Y-77529003D01*
X64900542Y-77452483D01*
X64871897Y-77383327D01*
X64871890Y-77383314D01*
X64784289Y-77252211D01*
X64784286Y-77252207D01*
X64672792Y-77140713D01*
X64672788Y-77140710D01*
X64541685Y-77053109D01*
X64541672Y-77053102D01*
X64396001Y-76992764D01*
X64395989Y-76992761D01*
X64241345Y-76962000D01*
X64241342Y-76962000D01*
X64083658Y-76962000D01*
X64083655Y-76962000D01*
X63929010Y-76992761D01*
X63928998Y-76992764D01*
X63783327Y-77053102D01*
X63783314Y-77053109D01*
X63652211Y-77140710D01*
X63652207Y-77140713D01*
X63540713Y-77252207D01*
X63540710Y-77252211D01*
X63453109Y-77383314D01*
X63453102Y-77383327D01*
X63392764Y-77528998D01*
X63392761Y-77529008D01*
X63363615Y-77675536D01*
X63331230Y-77737447D01*
X63270514Y-77772021D01*
X63200745Y-77768281D01*
X63194546Y-77765905D01*
X63108501Y-77730264D01*
X63108489Y-77730261D01*
X62953845Y-77699500D01*
X62953842Y-77699500D01*
X62796158Y-77699500D01*
X62796155Y-77699500D01*
X62641510Y-77730261D01*
X62641498Y-77730264D01*
X62495827Y-77790602D01*
X62495814Y-77790609D01*
X62364711Y-77878210D01*
X62364707Y-77878213D01*
X62253213Y-77989707D01*
X62253210Y-77989711D01*
X62165609Y-78120814D01*
X62165602Y-78120827D01*
X62105264Y-78266498D01*
X62105261Y-78266510D01*
X62074500Y-78421153D01*
X53652885Y-78421153D01*
X53691306Y-78363652D01*
X53760318Y-78197042D01*
X53795500Y-78020169D01*
X53795500Y-77839831D01*
X53760318Y-77662958D01*
X53757754Y-77656769D01*
X53752822Y-77644861D01*
X53745352Y-77575392D01*
X53751200Y-77554074D01*
X53789091Y-77452482D01*
X53789474Y-77448918D01*
X53795500Y-77392873D01*
X53795499Y-76467128D01*
X53789091Y-76407517D01*
X53738796Y-76272669D01*
X53675232Y-76187759D01*
X53650816Y-76122296D01*
X53650500Y-76113449D01*
X53650500Y-75986079D01*
X53621659Y-75841092D01*
X53621658Y-75841091D01*
X53621658Y-75841087D01*
X53621656Y-75841082D01*
X53565087Y-75704511D01*
X53565080Y-75704498D01*
X53482951Y-75581584D01*
X53482948Y-75581580D01*
X53378419Y-75477051D01*
X53378415Y-75477048D01*
X53255501Y-75394919D01*
X53255488Y-75394912D01*
X53118917Y-75338343D01*
X53118907Y-75338340D01*
X52973920Y-75309500D01*
X52973918Y-75309500D01*
X52826082Y-75309500D01*
X52826080Y-75309500D01*
X52681092Y-75338340D01*
X52681082Y-75338343D01*
X52544511Y-75394912D01*
X52544498Y-75394919D01*
X52421584Y-75477048D01*
X52421580Y-75477051D01*
X52317051Y-75581580D01*
X52317048Y-75581584D01*
X52234919Y-75704498D01*
X52234912Y-75704511D01*
X52178343Y-75841082D01*
X52178340Y-75841092D01*
X52149500Y-75986079D01*
X52149500Y-76064045D01*
X52129815Y-76131084D01*
X52113185Y-76151723D01*
X52107451Y-76157457D01*
X52021206Y-76272664D01*
X52021202Y-76272671D01*
X51970908Y-76407517D01*
X51964501Y-76467116D01*
X51964501Y-76467123D01*
X51964500Y-76467135D01*
X50000000Y-76467135D01*
X50000000Y-72331153D01*
X51019500Y-72331153D01*
X51019500Y-72488846D01*
X51050261Y-72643489D01*
X51050264Y-72643501D01*
X51110602Y-72789172D01*
X51110609Y-72789185D01*
X51198210Y-72920288D01*
X51198213Y-72920292D01*
X51309707Y-73031786D01*
X51309711Y-73031789D01*
X51440814Y-73119390D01*
X51440827Y-73119397D01*
X51586498Y-73179735D01*
X51586503Y-73179737D01*
X51724694Y-73207225D01*
X51741153Y-73210499D01*
X51741156Y-73210500D01*
X51741158Y-73210500D01*
X51898844Y-73210500D01*
X51898845Y-73210499D01*
X52053497Y-73179737D01*
X52199179Y-73119394D01*
X52330289Y-73031789D01*
X52441789Y-72920289D01*
X52529394Y-72789179D01*
X52589737Y-72643497D01*
X52620500Y-72488842D01*
X52620500Y-72331158D01*
X52620500Y-72331155D01*
X52620499Y-72331153D01*
X52615135Y-72304185D01*
X52589737Y-72176503D01*
X52589735Y-72176498D01*
X52532183Y-72037552D01*
X52532170Y-72037522D01*
X52529395Y-72030823D01*
X52529390Y-72030814D01*
X52506230Y-71996153D01*
X56949500Y-71996153D01*
X56949500Y-72153846D01*
X56980261Y-72308489D01*
X56980264Y-72308501D01*
X57040602Y-72454172D01*
X57040609Y-72454185D01*
X57128210Y-72585288D01*
X57128213Y-72585292D01*
X57239707Y-72696786D01*
X57239711Y-72696789D01*
X57370814Y-72784390D01*
X57370827Y-72784397D01*
X57516498Y-72844735D01*
X57516503Y-72844737D01*
X57671153Y-72875499D01*
X57671156Y-72875500D01*
X57671158Y-72875500D01*
X57828844Y-72875500D01*
X57828845Y-72875499D01*
X57983497Y-72844737D01*
X58116352Y-72789707D01*
X58129172Y-72784397D01*
X58129172Y-72784396D01*
X58129179Y-72784394D01*
X58260289Y-72696789D01*
X58371789Y-72585289D01*
X58459394Y-72454179D01*
X58510353Y-72331153D01*
X63569500Y-72331153D01*
X63569500Y-72488846D01*
X63600261Y-72643489D01*
X63600264Y-72643501D01*
X63660602Y-72789172D01*
X63660609Y-72789185D01*
X63748210Y-72920288D01*
X63748213Y-72920292D01*
X63859707Y-73031786D01*
X63859711Y-73031789D01*
X63990814Y-73119390D01*
X63990827Y-73119397D01*
X64136498Y-73179735D01*
X64136503Y-73179737D01*
X64196458Y-73191662D01*
X64274691Y-73207225D01*
X64336602Y-73239610D01*
X64371176Y-73300326D01*
X64374500Y-73328842D01*
X64374500Y-73378846D01*
X64405261Y-73533489D01*
X64405264Y-73533501D01*
X64465602Y-73679172D01*
X64465609Y-73679185D01*
X64553210Y-73810288D01*
X64553213Y-73810292D01*
X64664707Y-73921786D01*
X64664711Y-73921789D01*
X64795814Y-74009390D01*
X64795827Y-74009397D01*
X64941498Y-74069735D01*
X64941503Y-74069737D01*
X65096153Y-74100499D01*
X65096156Y-74100500D01*
X65096158Y-74100500D01*
X65253844Y-74100500D01*
X65253845Y-74100499D01*
X65408497Y-74069737D01*
X65554179Y-74009394D01*
X65685289Y-73921789D01*
X65796789Y-73810289D01*
X65884394Y-73679179D01*
X65944737Y-73533497D01*
X65975500Y-73378842D01*
X65975500Y-73221158D01*
X65975500Y-73221155D01*
X65975499Y-73221153D01*
X65973380Y-73210499D01*
X65944737Y-73066503D01*
X65930357Y-73031786D01*
X65884397Y-72920827D01*
X65884390Y-72920814D01*
X65796789Y-72789711D01*
X65796786Y-72789707D01*
X65685292Y-72678213D01*
X65685288Y-72678210D01*
X65554185Y-72590609D01*
X65554172Y-72590602D01*
X65408501Y-72530264D01*
X65408491Y-72530261D01*
X65270308Y-72502774D01*
X65208397Y-72470389D01*
X65173823Y-72409673D01*
X65170500Y-72381157D01*
X65170500Y-72331155D01*
X65170499Y-72331153D01*
X65165135Y-72304185D01*
X65139737Y-72176503D01*
X65139735Y-72176498D01*
X65079397Y-72030827D01*
X65079390Y-72030814D01*
X64991789Y-71899711D01*
X64991786Y-71899707D01*
X64880292Y-71788213D01*
X64880288Y-71788210D01*
X64749185Y-71700609D01*
X64749172Y-71700602D01*
X64603501Y-71640264D01*
X64603489Y-71640261D01*
X64448845Y-71609500D01*
X64448842Y-71609500D01*
X64291158Y-71609500D01*
X64291155Y-71609500D01*
X64136510Y-71640261D01*
X64136498Y-71640264D01*
X63990827Y-71700602D01*
X63990814Y-71700609D01*
X63859711Y-71788210D01*
X63859707Y-71788213D01*
X63748213Y-71899707D01*
X63748210Y-71899711D01*
X63660609Y-72030814D01*
X63660602Y-72030827D01*
X63600264Y-72176498D01*
X63600261Y-72176510D01*
X63569500Y-72331153D01*
X58510353Y-72331153D01*
X58519737Y-72308497D01*
X58550500Y-72153842D01*
X58550500Y-71996158D01*
X58550500Y-71996155D01*
X58550499Y-71996153D01*
X58531315Y-71899711D01*
X58519737Y-71841503D01*
X58497663Y-71788211D01*
X58459397Y-71695827D01*
X58459390Y-71695814D01*
X58371789Y-71564711D01*
X58371786Y-71564707D01*
X58260292Y-71453213D01*
X58260288Y-71453210D01*
X58129185Y-71365609D01*
X58129172Y-71365602D01*
X57983501Y-71305264D01*
X57983489Y-71305261D01*
X57828845Y-71274500D01*
X57828842Y-71274500D01*
X57671158Y-71274500D01*
X57671155Y-71274500D01*
X57516510Y-71305261D01*
X57516498Y-71305264D01*
X57370827Y-71365602D01*
X57370814Y-71365609D01*
X57239711Y-71453210D01*
X57239707Y-71453213D01*
X57128213Y-71564707D01*
X57128210Y-71564711D01*
X57040609Y-71695814D01*
X57040602Y-71695827D01*
X56980264Y-71841498D01*
X56980261Y-71841510D01*
X56949500Y-71996153D01*
X52506230Y-71996153D01*
X52441789Y-71899711D01*
X52441786Y-71899707D01*
X52330292Y-71788213D01*
X52330288Y-71788210D01*
X52199185Y-71700609D01*
X52199172Y-71700602D01*
X52053501Y-71640264D01*
X52053489Y-71640261D01*
X51898845Y-71609500D01*
X51898842Y-71609500D01*
X51741158Y-71609500D01*
X51741155Y-71609500D01*
X51586510Y-71640261D01*
X51586498Y-71640264D01*
X51440827Y-71700602D01*
X51440814Y-71700609D01*
X51309711Y-71788210D01*
X51309707Y-71788213D01*
X51198213Y-71899707D01*
X51198210Y-71899711D01*
X51110609Y-72030814D01*
X51110602Y-72030827D01*
X51050264Y-72176498D01*
X51050261Y-72176510D01*
X51019500Y-72331153D01*
X50000000Y-72331153D01*
X50000000Y-66313024D01*
X50019685Y-66245985D01*
X50072489Y-66200230D01*
X50141647Y-66190286D01*
X50164421Y-66195797D01*
G37*
%TD.AperFunction*%
%TD*%
%TA.AperFunction,Conductor*%
%TO.N,+5VBus*%
G36*
X68712208Y-78052545D02*
G01*
X68717455Y-78052415D01*
X68743127Y-78068022D01*
X68769996Y-78081472D01*
X68772673Y-78085985D01*
X68777157Y-78088711D01*
X68790314Y-78115717D01*
X68805648Y-78141561D01*
X68806600Y-78149145D01*
X68807759Y-78151523D01*
X68807341Y-78155046D01*
X68809500Y-78172227D01*
X68809500Y-78218846D01*
X68840261Y-78373489D01*
X68840264Y-78373501D01*
X68900602Y-78519172D01*
X68900609Y-78519185D01*
X68988210Y-78650288D01*
X68988213Y-78650292D01*
X69099707Y-78761786D01*
X69099711Y-78761789D01*
X69230814Y-78849390D01*
X69230827Y-78849397D01*
X69344927Y-78896658D01*
X69376503Y-78909737D01*
X69531153Y-78940499D01*
X69531156Y-78940500D01*
X69531158Y-78940500D01*
X69688844Y-78940500D01*
X69688845Y-78940499D01*
X69843497Y-78909737D01*
X69989179Y-78849394D01*
X70120289Y-78761789D01*
X70231789Y-78650289D01*
X70319394Y-78519179D01*
X70379737Y-78373497D01*
X70393948Y-78302055D01*
X70426332Y-78240144D01*
X70487048Y-78205570D01*
X70543849Y-78205516D01*
X71337997Y-78391599D01*
X71398774Y-78426057D01*
X71431276Y-78487907D01*
X71431321Y-78488136D01*
X71455261Y-78608489D01*
X71455264Y-78608501D01*
X71515602Y-78754172D01*
X71515609Y-78754185D01*
X71603210Y-78885288D01*
X71603213Y-78885292D01*
X71714707Y-78996786D01*
X71714711Y-78996789D01*
X71845814Y-79084390D01*
X71845827Y-79084397D01*
X71991498Y-79144735D01*
X71991503Y-79144737D01*
X72146153Y-79175499D01*
X72146156Y-79175500D01*
X72146158Y-79175500D01*
X72303844Y-79175500D01*
X72303845Y-79175499D01*
X72458497Y-79144737D01*
X72604179Y-79084394D01*
X72735289Y-78996789D01*
X72846789Y-78885289D01*
X72880022Y-78835551D01*
X72933632Y-78790747D01*
X73002957Y-78782038D01*
X73011408Y-78783711D01*
X81187594Y-80699544D01*
X82905682Y-81102124D01*
X82920854Y-81106720D01*
X83017966Y-81143062D01*
X83045940Y-81157841D01*
X83124149Y-81212966D01*
X83147474Y-81234345D01*
X83214351Y-81313588D01*
X83223780Y-81326332D01*
X86115329Y-85807526D01*
X86121648Y-85818513D01*
X86159301Y-85892496D01*
X86168420Y-85916112D01*
X86190261Y-85996193D01*
X86192967Y-86008576D01*
X87145676Y-91765454D01*
X87137201Y-91834807D01*
X87092576Y-91888570D01*
X87035499Y-91909101D01*
X87031463Y-91909498D01*
X86838170Y-91947947D01*
X86838160Y-91947950D01*
X86656092Y-92023364D01*
X86656079Y-92023371D01*
X86492218Y-92132860D01*
X86492214Y-92132863D01*
X86352863Y-92272214D01*
X86352860Y-92272218D01*
X86243371Y-92436079D01*
X86243364Y-92436092D01*
X86167950Y-92618160D01*
X86167947Y-92618170D01*
X86129500Y-92811456D01*
X86129500Y-92811459D01*
X86129500Y-93008541D01*
X86129500Y-93008543D01*
X86129499Y-93008543D01*
X86167947Y-93201829D01*
X86167950Y-93201839D01*
X86243364Y-93383907D01*
X86243371Y-93383920D01*
X86352860Y-93547781D01*
X86352863Y-93547785D01*
X86492214Y-93687136D01*
X86492218Y-93687139D01*
X86656079Y-93796628D01*
X86656092Y-93796635D01*
X86807072Y-93859172D01*
X86838165Y-93872051D01*
X86838169Y-93872051D01*
X86838170Y-93872052D01*
X87031456Y-93910500D01*
X87031459Y-93910500D01*
X87395495Y-93910500D01*
X87462534Y-93930185D01*
X87508289Y-93982989D01*
X87517831Y-94014255D01*
X88413309Y-99425303D01*
X88404834Y-99494656D01*
X88360209Y-99548419D01*
X88293602Y-99569520D01*
X88290602Y-99569358D01*
X88290602Y-99569500D01*
X88282475Y-99569500D01*
X88137525Y-99569500D01*
X88008993Y-99603940D01*
X87997511Y-99607017D01*
X87871988Y-99679488D01*
X87871982Y-99679493D01*
X87769493Y-99781982D01*
X87769488Y-99781988D01*
X87697017Y-99907511D01*
X87697015Y-99907516D01*
X87676972Y-99982315D01*
X87640607Y-100041975D01*
X87577759Y-100072503D01*
X87557742Y-100074219D01*
X84915994Y-100085806D01*
X84848869Y-100066415D01*
X84802883Y-100013813D01*
X84792636Y-99944698D01*
X84800887Y-99914360D01*
X84844737Y-99808497D01*
X84875500Y-99653842D01*
X84875500Y-99496158D01*
X84875500Y-99496155D01*
X84875499Y-99496153D01*
X84861406Y-99425303D01*
X84844737Y-99341503D01*
X84823655Y-99290606D01*
X84784397Y-99195827D01*
X84784390Y-99195814D01*
X84696789Y-99064711D01*
X84696786Y-99064707D01*
X84585292Y-98953213D01*
X84585288Y-98953210D01*
X84454185Y-98865609D01*
X84454172Y-98865602D01*
X84308501Y-98805264D01*
X84308489Y-98805261D01*
X84153845Y-98774500D01*
X84153842Y-98774500D01*
X83996158Y-98774500D01*
X83996155Y-98774500D01*
X83841510Y-98805261D01*
X83841498Y-98805264D01*
X83695827Y-98865602D01*
X83695814Y-98865609D01*
X83564711Y-98953210D01*
X83564707Y-98953213D01*
X83558653Y-98959268D01*
X83497330Y-98992753D01*
X83427638Y-98987769D01*
X83371705Y-98945897D01*
X83360772Y-98928437D01*
X83328360Y-98865609D01*
X81744887Y-95796153D01*
X83249500Y-95796153D01*
X83249500Y-95953846D01*
X83280261Y-96108489D01*
X83280264Y-96108501D01*
X83340602Y-96254172D01*
X83340609Y-96254185D01*
X83428210Y-96385288D01*
X83428213Y-96385292D01*
X83539707Y-96496786D01*
X83539711Y-96496789D01*
X83670814Y-96584390D01*
X83670827Y-96584397D01*
X83816498Y-96644735D01*
X83816503Y-96644737D01*
X83971153Y-96675499D01*
X83971156Y-96675500D01*
X83971158Y-96675500D01*
X84128844Y-96675500D01*
X84128845Y-96675499D01*
X84283497Y-96644737D01*
X84429179Y-96584394D01*
X84560289Y-96496789D01*
X84671789Y-96385289D01*
X84759394Y-96254179D01*
X84819737Y-96108497D01*
X84850500Y-95953842D01*
X84850500Y-95796158D01*
X84850500Y-95796155D01*
X84850499Y-95796153D01*
X84819738Y-95641510D01*
X84819737Y-95641503D01*
X84819735Y-95641498D01*
X84759397Y-95495827D01*
X84759390Y-95495814D01*
X84671789Y-95364711D01*
X84671786Y-95364707D01*
X84560292Y-95253213D01*
X84560288Y-95253210D01*
X84429185Y-95165609D01*
X84429172Y-95165602D01*
X84283501Y-95105264D01*
X84283489Y-95105261D01*
X84128845Y-95074500D01*
X84128842Y-95074500D01*
X83971158Y-95074500D01*
X83971155Y-95074500D01*
X83816510Y-95105261D01*
X83816498Y-95105264D01*
X83670827Y-95165602D01*
X83670814Y-95165609D01*
X83539711Y-95253210D01*
X83539707Y-95253213D01*
X83428213Y-95364707D01*
X83428210Y-95364711D01*
X83340609Y-95495814D01*
X83340602Y-95495827D01*
X83280264Y-95641498D01*
X83280261Y-95641510D01*
X83249500Y-95796153D01*
X81744887Y-95796153D01*
X80509353Y-93401153D01*
X83829500Y-93401153D01*
X83829500Y-93558846D01*
X83860261Y-93713489D01*
X83860264Y-93713501D01*
X83920602Y-93859172D01*
X83920609Y-93859185D01*
X84008210Y-93990288D01*
X84008213Y-93990292D01*
X84119707Y-94101786D01*
X84119711Y-94101789D01*
X84250814Y-94189390D01*
X84250827Y-94189397D01*
X84396498Y-94249735D01*
X84396503Y-94249737D01*
X84551153Y-94280499D01*
X84551156Y-94280500D01*
X84551158Y-94280500D01*
X84708844Y-94280500D01*
X84708845Y-94280499D01*
X84863497Y-94249737D01*
X85009179Y-94189394D01*
X85140289Y-94101789D01*
X85251789Y-93990289D01*
X85339394Y-93859179D01*
X85399737Y-93713497D01*
X85430500Y-93558842D01*
X85430500Y-93401158D01*
X85430500Y-93401155D01*
X85430499Y-93401153D01*
X85427070Y-93383914D01*
X85399737Y-93246503D01*
X85381233Y-93201829D01*
X85339397Y-93100827D01*
X85339390Y-93100814D01*
X85251789Y-92969711D01*
X85251786Y-92969707D01*
X85140292Y-92858213D01*
X85140288Y-92858210D01*
X85009185Y-92770609D01*
X85009172Y-92770602D01*
X84863501Y-92710264D01*
X84863489Y-92710261D01*
X84708845Y-92679500D01*
X84708842Y-92679500D01*
X84551158Y-92679500D01*
X84551155Y-92679500D01*
X84396510Y-92710261D01*
X84396498Y-92710264D01*
X84250827Y-92770602D01*
X84250814Y-92770609D01*
X84119711Y-92858210D01*
X84119707Y-92858213D01*
X84008213Y-92969707D01*
X84008210Y-92969711D01*
X83920609Y-93100814D01*
X83920602Y-93100827D01*
X83860264Y-93246498D01*
X83860261Y-93246510D01*
X83829500Y-93401153D01*
X80509353Y-93401153D01*
X78642229Y-89781858D01*
X78637759Y-89772195D01*
X78611196Y-89707637D01*
X78604817Y-89687335D01*
X78589683Y-89619169D01*
X78587825Y-89608691D01*
X78358705Y-87890292D01*
X78280153Y-87301153D01*
X82999500Y-87301153D01*
X82999500Y-87458846D01*
X83030261Y-87613489D01*
X83030264Y-87613501D01*
X83090602Y-87759172D01*
X83090609Y-87759185D01*
X83178210Y-87890288D01*
X83178213Y-87890292D01*
X83289707Y-88001786D01*
X83289711Y-88001789D01*
X83420814Y-88089390D01*
X83420827Y-88089397D01*
X83566498Y-88149735D01*
X83566503Y-88149737D01*
X83714517Y-88179179D01*
X83721153Y-88180499D01*
X83721156Y-88180500D01*
X83721158Y-88180500D01*
X83878844Y-88180500D01*
X83878845Y-88180499D01*
X84033497Y-88149737D01*
X84179179Y-88089394D01*
X84310289Y-88001789D01*
X84421789Y-87890289D01*
X84509394Y-87759179D01*
X84569737Y-87613497D01*
X84600500Y-87458842D01*
X84600500Y-87301158D01*
X84600500Y-87301155D01*
X84600499Y-87301153D01*
X84569738Y-87146510D01*
X84569737Y-87146503D01*
X84546584Y-87090606D01*
X84509397Y-87000827D01*
X84509390Y-87000814D01*
X84421789Y-86869711D01*
X84421786Y-86869707D01*
X84310292Y-86758213D01*
X84310288Y-86758210D01*
X84179185Y-86670609D01*
X84179172Y-86670602D01*
X84033501Y-86610264D01*
X84033489Y-86610261D01*
X83878845Y-86579500D01*
X83878842Y-86579500D01*
X83721158Y-86579500D01*
X83721155Y-86579500D01*
X83566510Y-86610261D01*
X83566498Y-86610264D01*
X83420827Y-86670602D01*
X83420814Y-86670609D01*
X83289711Y-86758210D01*
X83289707Y-86758213D01*
X83178213Y-86869707D01*
X83178210Y-86869711D01*
X83090609Y-87000814D01*
X83090602Y-87000827D01*
X83030264Y-87146498D01*
X83030261Y-87146510D01*
X82999500Y-87301153D01*
X78280153Y-87301153D01*
X78092333Y-85892496D01*
X77910861Y-84531454D01*
X77909488Y-84521153D01*
X82999500Y-84521153D01*
X82999500Y-84678846D01*
X83030261Y-84833489D01*
X83030264Y-84833501D01*
X83090602Y-84979172D01*
X83090609Y-84979185D01*
X83178210Y-85110288D01*
X83178213Y-85110292D01*
X83289707Y-85221786D01*
X83289711Y-85221789D01*
X83420814Y-85309390D01*
X83420827Y-85309397D01*
X83520316Y-85350606D01*
X83566503Y-85369737D01*
X83671418Y-85390606D01*
X83721153Y-85400499D01*
X83721156Y-85400500D01*
X83721158Y-85400500D01*
X83878844Y-85400500D01*
X83878845Y-85400499D01*
X84033497Y-85369737D01*
X84179179Y-85309394D01*
X84310289Y-85221789D01*
X84421789Y-85110289D01*
X84509394Y-84979179D01*
X84569737Y-84833497D01*
X84600500Y-84678842D01*
X84600500Y-84521158D01*
X84600500Y-84521155D01*
X84600499Y-84521153D01*
X84569738Y-84366510D01*
X84569737Y-84366503D01*
X84569735Y-84366498D01*
X84509397Y-84220827D01*
X84509390Y-84220814D01*
X84421789Y-84089711D01*
X84421786Y-84089707D01*
X84310292Y-83978213D01*
X84310288Y-83978210D01*
X84179185Y-83890609D01*
X84179172Y-83890602D01*
X84033501Y-83830264D01*
X84033489Y-83830261D01*
X83878845Y-83799500D01*
X83878842Y-83799500D01*
X83721158Y-83799500D01*
X83721155Y-83799500D01*
X83566510Y-83830261D01*
X83566498Y-83830264D01*
X83420827Y-83890602D01*
X83420814Y-83890609D01*
X83289711Y-83978210D01*
X83289707Y-83978213D01*
X83178213Y-84089707D01*
X83178210Y-84089711D01*
X83090609Y-84220814D01*
X83090602Y-84220827D01*
X83030264Y-84366498D01*
X83030261Y-84366510D01*
X82999500Y-84521153D01*
X77909488Y-84521153D01*
X77740000Y-83249999D01*
X74042466Y-82255319D01*
X68452957Y-80751674D01*
X68437614Y-80746450D01*
X68339721Y-80705799D01*
X68311722Y-80689604D01*
X68234169Y-80630011D01*
X68211313Y-80607128D01*
X68151808Y-80529500D01*
X68135652Y-80501490D01*
X68098248Y-80411115D01*
X68089883Y-80379870D01*
X68076059Y-80274779D01*
X68075000Y-80258607D01*
X68075000Y-78837729D01*
X68094685Y-78770690D01*
X68111314Y-78750052D01*
X68207951Y-78653416D01*
X68290084Y-78530495D01*
X68346658Y-78393913D01*
X68375500Y-78248918D01*
X68375500Y-78231922D01*
X68382523Y-78208002D01*
X68385455Y-78183241D01*
X68392198Y-78175054D01*
X68395185Y-78164883D01*
X68414023Y-78148559D01*
X68429878Y-78129312D01*
X68442172Y-78124168D01*
X68447989Y-78119128D01*
X68461607Y-78113854D01*
X68468359Y-78111686D01*
X68543913Y-78096658D01*
X68642756Y-78055715D01*
X68647607Y-78054159D01*
X68677640Y-78053409D01*
X68707516Y-78050197D01*
X68712208Y-78052545D01*
G37*
%TD.AperFunction*%
%TD*%
M02*
