%TF.GenerationSoftware,KiCad,Pcbnew,9.0.3*%
%TF.CreationDate,2025-12-03T23:50:37-08:00*%
%TF.ProjectId,AS 3,41532033-2e6b-4696-9361-645f70636258,V3*%
%TF.SameCoordinates,Original*%
%TF.FileFunction,Legend,Top*%
%TF.FilePolarity,Positive*%
%FSLAX46Y46*%
G04 Gerber Fmt 4.6, Leading zero omitted, Abs format (unit mm)*
G04 Created by KiCad (PCBNEW 9.0.3) date 2025-12-03 23:50:37*
%MOMM*%
%LPD*%
G01*
G04 APERTURE LIST*
G04 Aperture macros list*
%AMRoundRect*
0 Rectangle with rounded corners*
0 $1 Rounding radius*
0 $2 $3 $4 $5 $6 $7 $8 $9 X,Y pos of 4 corners*
0 Add a 4 corners polygon primitive as box body*
4,1,4,$2,$3,$4,$5,$6,$7,$8,$9,$2,$3,0*
0 Add four circle primitives for the rounded corners*
1,1,$1+$1,$2,$3*
1,1,$1+$1,$4,$5*
1,1,$1+$1,$6,$7*
1,1,$1+$1,$8,$9*
0 Add four rect primitives between the rounded corners*
20,1,$1+$1,$2,$3,$4,$5,0*
20,1,$1+$1,$4,$5,$6,$7,0*
20,1,$1+$1,$6,$7,$8,$9,0*
20,1,$1+$1,$8,$9,$2,$3,0*%
%AMFreePoly0*
4,1,5,0.775000,-2.840000,-0.775000,-2.840000,-0.775000,0.300000,0.775000,0.300000,0.775000,-2.840000,0.775000,-2.840000,$1*%
%AMFreePoly1*
4,1,8,0.675000,0.300000,0.775000,0.300000,0.775000,-0.300000,-0.775000,-0.300000,-4.224990,-0.300000,-4.224990,4.110000,0.675000,4.110000,0.675000,0.300000,0.675000,0.300000,$1*%
%AMFreePoly2*
4,1,13,0.187500,0.457500,0.187500,-0.137500,0.137498,-0.187500,-0.362501,-0.187500,-0.412501,-0.137500,-0.412501,0.107500,-0.362501,0.157500,-0.162502,0.157500,-0.062502,0.257500,-0.062502,0.457500,-0.012502,0.507500,0.137498,0.507500,0.187500,0.457500,0.187500,0.457500,$1*%
%AMFreePoly3*
4,1,13,0.137498,0.207500,0.187498,0.157500,0.187500,-0.437500,0.137498,-0.487500,-0.012499,-0.487500,-0.062499,-0.437500,-0.062502,-0.237500,-0.162502,-0.137500,-0.362501,-0.137500,-0.412501,-0.087500,-0.412501,0.157500,-0.362501,0.207503,0.137498,0.207500,0.137498,0.207500,$1*%
%AMFreePoly4*
4,1,13,0.512501,0.362498,0.512501,0.262499,0.462501,0.212499,0.262502,0.212499,0.162502,0.112499,0.162502,-0.087501,0.112502,-0.137501,-0.087500,-0.137501,-0.137500,-0.087501,-0.137500,0.362498,-0.087500,0.412498,0.462501,0.412498,0.512501,0.362498,0.512501,0.362498,$1*%
%AMFreePoly5*
4,1,13,0.162501,0.087501,0.162501,-0.112499,0.262504,-0.212499,0.462503,-0.212499,0.512503,-0.262499,0.512503,-0.362498,0.462503,-0.412501,-0.087498,-0.412498,-0.137498,-0.362498,-0.137498,0.087501,-0.087498,0.137501,0.112501,0.137501,0.162501,0.087501,0.162501,0.087501,$1*%
G04 Aperture macros list end*
%ADD10C,0.150000*%
%ADD11C,0.120000*%
%ADD12C,0.100000*%
%ADD13C,0.152400*%
%ADD14C,0.200000*%
%ADD15C,0.127000*%
%ADD16C,0.250000*%
%ADD17C,0.010000*%
%ADD18C,0.000000*%
%ADD19C,2.000000*%
%ADD20R,1.500000X0.900000*%
%ADD21R,0.900000X1.500000*%
%ADD22C,0.450000*%
%ADD23R,3.900000X3.900000*%
%ADD24R,0.830000X0.830000*%
%ADD25C,0.830000*%
%ADD26RoundRect,0.250000X0.475000X-0.250000X0.475000X0.250000X-0.475000X0.250000X-0.475000X-0.250000X0*%
%ADD27RoundRect,0.050000X-0.150000X-0.300000X0.150000X-0.300000X0.150000X0.300000X-0.150000X0.300000X0*%
%ADD28RoundRect,0.050000X-0.300000X0.150000X-0.300000X-0.150000X0.300000X-0.150000X0.300000X0.150000X0*%
%ADD29RoundRect,0.050000X0.150000X0.300000X-0.150000X0.300000X-0.150000X-0.300000X0.150000X-0.300000X0*%
%ADD30RoundRect,0.050000X0.300000X-0.150000X0.300000X0.150000X-0.300000X0.150000X-0.300000X-0.150000X0*%
%ADD31O,1.600000X1.000000*%
%ADD32O,2.100000X1.000000*%
%ADD33R,1.450000X0.600000*%
%ADD34R,1.450000X0.300000*%
%ADD35C,0.650000*%
%ADD36R,0.350000X0.500000*%
%ADD37R,1.650000X3.430000*%
%ADD38R,2.540000X1.270000*%
%ADD39RoundRect,0.250000X-1.500000X-0.550000X1.500000X-0.550000X1.500000X0.550000X-1.500000X0.550000X0*%
%ADD40RoundRect,0.243750X-0.243750X-0.456250X0.243750X-0.456250X0.243750X0.456250X-0.243750X0.456250X0*%
%ADD41RoundRect,0.135000X0.135000X0.185000X-0.135000X0.185000X-0.135000X-0.185000X0.135000X-0.185000X0*%
%ADD42RoundRect,0.162500X0.237500X0.162500X-0.237500X0.162500X-0.237500X-0.162500X0.237500X-0.162500X0*%
%ADD43RoundRect,0.225000X-0.250000X0.225000X-0.250000X-0.225000X0.250000X-0.225000X0.250000X0.225000X0*%
%ADD44RoundRect,0.225000X0.225000X0.250000X-0.225000X0.250000X-0.225000X-0.250000X0.225000X-0.250000X0*%
%ADD45RoundRect,0.135000X0.185000X-0.135000X0.185000X0.135000X-0.185000X0.135000X-0.185000X-0.135000X0*%
%ADD46R,5.003800X1.295400*%
%ADD47C,3.600000*%
%ADD48C,5.600000*%
%ADD49RoundRect,0.250000X0.250000X0.475000X-0.250000X0.475000X-0.250000X-0.475000X0.250000X-0.475000X0*%
%ADD50RoundRect,0.225000X0.250000X-0.225000X0.250000X0.225000X-0.250000X0.225000X-0.250000X-0.225000X0*%
%ADD51RoundRect,0.250000X0.325000X0.650000X-0.325000X0.650000X-0.325000X-0.650000X0.325000X-0.650000X0*%
%ADD52R,1.400000X1.600000*%
%ADD53RoundRect,0.135000X-0.135000X-0.185000X0.135000X-0.185000X0.135000X0.185000X-0.135000X0.185000X0*%
%ADD54RoundRect,0.258261X-1.029739X-0.929739X1.029739X-0.929739X1.029739X0.929739X-1.029739X0.929739X0*%
%ADD55RoundRect,0.250000X-0.325000X-0.650000X0.325000X-0.650000X0.325000X0.650000X-0.325000X0.650000X0*%
%ADD56RoundRect,0.250002X-1.749998X1.499998X-1.749998X-1.499998X1.749998X-1.499998X1.749998X1.499998X0*%
%ADD57RoundRect,0.250000X-0.475000X0.250000X-0.475000X-0.250000X0.475000X-0.250000X0.475000X0.250000X0*%
%ADD58R,0.840000X0.840000*%
%ADD59C,0.840000*%
%ADD60RoundRect,0.140000X-0.170000X0.140000X-0.170000X-0.140000X0.170000X-0.140000X0.170000X0.140000X0*%
%ADD61RoundRect,0.225000X-0.225000X-0.250000X0.225000X-0.250000X0.225000X0.250000X-0.225000X0.250000X0*%
%ADD62RoundRect,0.080000X-0.735000X-0.240000X0.735000X-0.240000X0.735000X0.240000X-0.735000X0.240000X0*%
%ADD63RoundRect,0.135000X-0.185000X0.135000X-0.185000X-0.135000X0.185000X-0.135000X0.185000X0.135000X0*%
%ADD64RoundRect,0.250000X-0.250000X-0.475000X0.250000X-0.475000X0.250000X0.475000X-0.250000X0.475000X0*%
%ADD65R,0.254000X0.508000*%
%ADD66R,0.254000X0.812800*%
%ADD67R,0.457200X0.304800*%
%ADD68FreePoly0,0.000000*%
%ADD69R,1.550000X0.600000*%
%ADD70FreePoly1,0.000000*%
%ADD71RoundRect,0.200000X-0.275000X0.200000X-0.275000X-0.200000X0.275000X-0.200000X0.275000X0.200000X0*%
%ADD72FreePoly2,0.000000*%
%ADD73FreePoly3,0.000000*%
%ADD74R,0.249999X0.650001*%
%ADD75FreePoly4,0.000000*%
%ADD76R,0.650001X0.249999*%
%ADD77FreePoly5,0.000000*%
%ADD78RoundRect,0.200000X0.275000X-0.200000X0.275000X0.200000X-0.275000X0.200000X-0.275000X-0.200000X0*%
G04 APERTURE END LIST*
D10*
X51709819Y-57209047D02*
X51709819Y-57780475D01*
X51709819Y-57494761D02*
X50709819Y-57494761D01*
X50709819Y-57494761D02*
X50852676Y-57589999D01*
X50852676Y-57589999D02*
X50947914Y-57685237D01*
X50947914Y-57685237D02*
X50995533Y-57780475D01*
X50805057Y-56828094D02*
X50757438Y-56780475D01*
X50757438Y-56780475D02*
X50709819Y-56685237D01*
X50709819Y-56685237D02*
X50709819Y-56447142D01*
X50709819Y-56447142D02*
X50757438Y-56351904D01*
X50757438Y-56351904D02*
X50805057Y-56304285D01*
X50805057Y-56304285D02*
X50900295Y-56256666D01*
X50900295Y-56256666D02*
X50995533Y-56256666D01*
X50995533Y-56256666D02*
X51138390Y-56304285D01*
X51138390Y-56304285D02*
X51709819Y-56875713D01*
X51709819Y-56875713D02*
X51709819Y-56256666D01*
X50709819Y-55970951D02*
X51709819Y-55637618D01*
X51709819Y-55637618D02*
X50709819Y-55304285D01*
X54778095Y-76227438D02*
X54682857Y-76179819D01*
X54682857Y-76179819D02*
X54540000Y-76179819D01*
X54540000Y-76179819D02*
X54397143Y-76227438D01*
X54397143Y-76227438D02*
X54301905Y-76322676D01*
X54301905Y-76322676D02*
X54254286Y-76417914D01*
X54254286Y-76417914D02*
X54206667Y-76608390D01*
X54206667Y-76608390D02*
X54206667Y-76751247D01*
X54206667Y-76751247D02*
X54254286Y-76941723D01*
X54254286Y-76941723D02*
X54301905Y-77036961D01*
X54301905Y-77036961D02*
X54397143Y-77132200D01*
X54397143Y-77132200D02*
X54540000Y-77179819D01*
X54540000Y-77179819D02*
X54635238Y-77179819D01*
X54635238Y-77179819D02*
X54778095Y-77132200D01*
X54778095Y-77132200D02*
X54825714Y-77084580D01*
X54825714Y-77084580D02*
X54825714Y-76751247D01*
X54825714Y-76751247D02*
X54635238Y-76751247D01*
X55254286Y-77179819D02*
X55254286Y-76179819D01*
X55254286Y-76179819D02*
X55825714Y-77179819D01*
X55825714Y-77179819D02*
X55825714Y-76179819D01*
X56301905Y-77179819D02*
X56301905Y-76179819D01*
X56301905Y-76179819D02*
X56540000Y-76179819D01*
X56540000Y-76179819D02*
X56682857Y-76227438D01*
X56682857Y-76227438D02*
X56778095Y-76322676D01*
X56778095Y-76322676D02*
X56825714Y-76417914D01*
X56825714Y-76417914D02*
X56873333Y-76608390D01*
X56873333Y-76608390D02*
X56873333Y-76751247D01*
X56873333Y-76751247D02*
X56825714Y-76941723D01*
X56825714Y-76941723D02*
X56778095Y-77036961D01*
X56778095Y-77036961D02*
X56682857Y-77132200D01*
X56682857Y-77132200D02*
X56540000Y-77179819D01*
X56540000Y-77179819D02*
X56301905Y-77179819D01*
X54809523Y-78719819D02*
X54333333Y-78719819D01*
X54333333Y-78719819D02*
X54285714Y-79196009D01*
X54285714Y-79196009D02*
X54333333Y-79148390D01*
X54333333Y-79148390D02*
X54428571Y-79100771D01*
X54428571Y-79100771D02*
X54666666Y-79100771D01*
X54666666Y-79100771D02*
X54761904Y-79148390D01*
X54761904Y-79148390D02*
X54809523Y-79196009D01*
X54809523Y-79196009D02*
X54857142Y-79291247D01*
X54857142Y-79291247D02*
X54857142Y-79529342D01*
X54857142Y-79529342D02*
X54809523Y-79624580D01*
X54809523Y-79624580D02*
X54761904Y-79672200D01*
X54761904Y-79672200D02*
X54666666Y-79719819D01*
X54666666Y-79719819D02*
X54428571Y-79719819D01*
X54428571Y-79719819D02*
X54333333Y-79672200D01*
X54333333Y-79672200D02*
X54285714Y-79624580D01*
X55142857Y-78719819D02*
X55476190Y-79719819D01*
X55476190Y-79719819D02*
X55809523Y-78719819D01*
X54299160Y-78402200D02*
X54442017Y-78449819D01*
X54442017Y-78449819D02*
X54680112Y-78449819D01*
X54680112Y-78449819D02*
X54775350Y-78402200D01*
X54775350Y-78402200D02*
X54822969Y-78354580D01*
X54822969Y-78354580D02*
X54870588Y-78259342D01*
X54870588Y-78259342D02*
X54870588Y-78164104D01*
X54870588Y-78164104D02*
X54822969Y-78068866D01*
X54822969Y-78068866D02*
X54775350Y-78021247D01*
X54775350Y-78021247D02*
X54680112Y-77973628D01*
X54680112Y-77973628D02*
X54489636Y-77926009D01*
X54489636Y-77926009D02*
X54394398Y-77878390D01*
X54394398Y-77878390D02*
X54346779Y-77830771D01*
X54346779Y-77830771D02*
X54299160Y-77735533D01*
X54299160Y-77735533D02*
X54299160Y-77640295D01*
X54299160Y-77640295D02*
X54346779Y-77545057D01*
X54346779Y-77545057D02*
X54394398Y-77497438D01*
X54394398Y-77497438D02*
X54489636Y-77449819D01*
X54489636Y-77449819D02*
X54727731Y-77449819D01*
X54727731Y-77449819D02*
X54870588Y-77497438D01*
X55299160Y-78449819D02*
X55299160Y-77449819D01*
X56299159Y-77497438D02*
X56203921Y-77449819D01*
X56203921Y-77449819D02*
X56061064Y-77449819D01*
X56061064Y-77449819D02*
X55918207Y-77497438D01*
X55918207Y-77497438D02*
X55822969Y-77592676D01*
X55822969Y-77592676D02*
X55775350Y-77687914D01*
X55775350Y-77687914D02*
X55727731Y-77878390D01*
X55727731Y-77878390D02*
X55727731Y-78021247D01*
X55727731Y-78021247D02*
X55775350Y-78211723D01*
X55775350Y-78211723D02*
X55822969Y-78306961D01*
X55822969Y-78306961D02*
X55918207Y-78402200D01*
X55918207Y-78402200D02*
X56061064Y-78449819D01*
X56061064Y-78449819D02*
X56156302Y-78449819D01*
X56156302Y-78449819D02*
X56299159Y-78402200D01*
X56299159Y-78402200D02*
X56346778Y-78354580D01*
X56346778Y-78354580D02*
X56346778Y-78021247D01*
X56346778Y-78021247D02*
X56156302Y-78021247D01*
X51758095Y-61617438D02*
X51662857Y-61569819D01*
X51662857Y-61569819D02*
X51520000Y-61569819D01*
X51520000Y-61569819D02*
X51377143Y-61617438D01*
X51377143Y-61617438D02*
X51281905Y-61712676D01*
X51281905Y-61712676D02*
X51234286Y-61807914D01*
X51234286Y-61807914D02*
X51186667Y-61998390D01*
X51186667Y-61998390D02*
X51186667Y-62141247D01*
X51186667Y-62141247D02*
X51234286Y-62331723D01*
X51234286Y-62331723D02*
X51281905Y-62426961D01*
X51281905Y-62426961D02*
X51377143Y-62522200D01*
X51377143Y-62522200D02*
X51520000Y-62569819D01*
X51520000Y-62569819D02*
X51615238Y-62569819D01*
X51615238Y-62569819D02*
X51758095Y-62522200D01*
X51758095Y-62522200D02*
X51805714Y-62474580D01*
X51805714Y-62474580D02*
X51805714Y-62141247D01*
X51805714Y-62141247D02*
X51615238Y-62141247D01*
X52234286Y-62569819D02*
X52234286Y-61569819D01*
X52234286Y-61569819D02*
X52805714Y-62569819D01*
X52805714Y-62569819D02*
X52805714Y-61569819D01*
X53281905Y-62569819D02*
X53281905Y-61569819D01*
X53281905Y-61569819D02*
X53520000Y-61569819D01*
X53520000Y-61569819D02*
X53662857Y-61617438D01*
X53662857Y-61617438D02*
X53758095Y-61712676D01*
X53758095Y-61712676D02*
X53805714Y-61807914D01*
X53805714Y-61807914D02*
X53853333Y-61998390D01*
X53853333Y-61998390D02*
X53853333Y-62141247D01*
X53853333Y-62141247D02*
X53805714Y-62331723D01*
X53805714Y-62331723D02*
X53758095Y-62426961D01*
X53758095Y-62426961D02*
X53662857Y-62522200D01*
X53662857Y-62522200D02*
X53520000Y-62569819D01*
X53520000Y-62569819D02*
X53281905Y-62569819D01*
X62038095Y-65207438D02*
X61942857Y-65159819D01*
X61942857Y-65159819D02*
X61800000Y-65159819D01*
X61800000Y-65159819D02*
X61657143Y-65207438D01*
X61657143Y-65207438D02*
X61561905Y-65302676D01*
X61561905Y-65302676D02*
X61514286Y-65397914D01*
X61514286Y-65397914D02*
X61466667Y-65588390D01*
X61466667Y-65588390D02*
X61466667Y-65731247D01*
X61466667Y-65731247D02*
X61514286Y-65921723D01*
X61514286Y-65921723D02*
X61561905Y-66016961D01*
X61561905Y-66016961D02*
X61657143Y-66112200D01*
X61657143Y-66112200D02*
X61800000Y-66159819D01*
X61800000Y-66159819D02*
X61895238Y-66159819D01*
X61895238Y-66159819D02*
X62038095Y-66112200D01*
X62038095Y-66112200D02*
X62085714Y-66064580D01*
X62085714Y-66064580D02*
X62085714Y-65731247D01*
X62085714Y-65731247D02*
X61895238Y-65731247D01*
X62514286Y-66159819D02*
X62514286Y-65159819D01*
X62514286Y-65159819D02*
X63085714Y-66159819D01*
X63085714Y-66159819D02*
X63085714Y-65159819D01*
X63561905Y-66159819D02*
X63561905Y-65159819D01*
X63561905Y-65159819D02*
X63800000Y-65159819D01*
X63800000Y-65159819D02*
X63942857Y-65207438D01*
X63942857Y-65207438D02*
X64038095Y-65302676D01*
X64038095Y-65302676D02*
X64085714Y-65397914D01*
X64085714Y-65397914D02*
X64133333Y-65588390D01*
X64133333Y-65588390D02*
X64133333Y-65731247D01*
X64133333Y-65731247D02*
X64085714Y-65921723D01*
X64085714Y-65921723D02*
X64038095Y-66016961D01*
X64038095Y-66016961D02*
X63942857Y-66112200D01*
X63942857Y-66112200D02*
X63800000Y-66159819D01*
X63800000Y-66159819D02*
X63561905Y-66159819D01*
X62509523Y-68299819D02*
X62033333Y-68299819D01*
X62033333Y-68299819D02*
X61985714Y-68776009D01*
X61985714Y-68776009D02*
X62033333Y-68728390D01*
X62033333Y-68728390D02*
X62128571Y-68680771D01*
X62128571Y-68680771D02*
X62366666Y-68680771D01*
X62366666Y-68680771D02*
X62461904Y-68728390D01*
X62461904Y-68728390D02*
X62509523Y-68776009D01*
X62509523Y-68776009D02*
X62557142Y-68871247D01*
X62557142Y-68871247D02*
X62557142Y-69109342D01*
X62557142Y-69109342D02*
X62509523Y-69204580D01*
X62509523Y-69204580D02*
X62461904Y-69252200D01*
X62461904Y-69252200D02*
X62366666Y-69299819D01*
X62366666Y-69299819D02*
X62128571Y-69299819D01*
X62128571Y-69299819D02*
X62033333Y-69252200D01*
X62033333Y-69252200D02*
X61985714Y-69204580D01*
X62842857Y-68299819D02*
X63176190Y-69299819D01*
X63176190Y-69299819D02*
X63509523Y-68299819D01*
X52012969Y-82921569D02*
X51441541Y-82921569D01*
X51727255Y-82921569D02*
X51727255Y-81921569D01*
X51727255Y-81921569D02*
X51632017Y-82064426D01*
X51632017Y-82064426D02*
X51536779Y-82159664D01*
X51536779Y-82159664D02*
X51441541Y-82207283D01*
X52393922Y-82016807D02*
X52441541Y-81969188D01*
X52441541Y-81969188D02*
X52536779Y-81921569D01*
X52536779Y-81921569D02*
X52774874Y-81921569D01*
X52774874Y-81921569D02*
X52870112Y-81969188D01*
X52870112Y-81969188D02*
X52917731Y-82016807D01*
X52917731Y-82016807D02*
X52965350Y-82112045D01*
X52965350Y-82112045D02*
X52965350Y-82207283D01*
X52965350Y-82207283D02*
X52917731Y-82350140D01*
X52917731Y-82350140D02*
X52346303Y-82921569D01*
X52346303Y-82921569D02*
X52965350Y-82921569D01*
X53298684Y-82254902D02*
X53536779Y-82921569D01*
X53536779Y-82921569D02*
X53774874Y-82254902D01*
X52917731Y-84631569D02*
X52441541Y-84631569D01*
X52441541Y-84631569D02*
X52393922Y-85107759D01*
X52393922Y-85107759D02*
X52441541Y-85060140D01*
X52441541Y-85060140D02*
X52536779Y-85012521D01*
X52536779Y-85012521D02*
X52774874Y-85012521D01*
X52774874Y-85012521D02*
X52870112Y-85060140D01*
X52870112Y-85060140D02*
X52917731Y-85107759D01*
X52917731Y-85107759D02*
X52965350Y-85202997D01*
X52965350Y-85202997D02*
X52965350Y-85441092D01*
X52965350Y-85441092D02*
X52917731Y-85536330D01*
X52917731Y-85536330D02*
X52870112Y-85583950D01*
X52870112Y-85583950D02*
X52774874Y-85631569D01*
X52774874Y-85631569D02*
X52536779Y-85631569D01*
X52536779Y-85631569D02*
X52441541Y-85583950D01*
X52441541Y-85583950D02*
X52393922Y-85536330D01*
X53298684Y-84964902D02*
X53536779Y-85631569D01*
X53536779Y-85631569D02*
X53774874Y-84964902D01*
X51965350Y-87504902D02*
X51965350Y-88171569D01*
X51536779Y-87504902D02*
X51536779Y-88028711D01*
X51536779Y-88028711D02*
X51584398Y-88123950D01*
X51584398Y-88123950D02*
X51679636Y-88171569D01*
X51679636Y-88171569D02*
X51822493Y-88171569D01*
X51822493Y-88171569D02*
X51917731Y-88123950D01*
X51917731Y-88123950D02*
X51965350Y-88076330D01*
X52393922Y-88123950D02*
X52489160Y-88171569D01*
X52489160Y-88171569D02*
X52679636Y-88171569D01*
X52679636Y-88171569D02*
X52774874Y-88123950D01*
X52774874Y-88123950D02*
X52822493Y-88028711D01*
X52822493Y-88028711D02*
X52822493Y-87981092D01*
X52822493Y-87981092D02*
X52774874Y-87885854D01*
X52774874Y-87885854D02*
X52679636Y-87838235D01*
X52679636Y-87838235D02*
X52536779Y-87838235D01*
X52536779Y-87838235D02*
X52441541Y-87790616D01*
X52441541Y-87790616D02*
X52393922Y-87695378D01*
X52393922Y-87695378D02*
X52393922Y-87647759D01*
X52393922Y-87647759D02*
X52441541Y-87552521D01*
X52441541Y-87552521D02*
X52536779Y-87504902D01*
X52536779Y-87504902D02*
X52679636Y-87504902D01*
X52679636Y-87504902D02*
X52774874Y-87552521D01*
X53251065Y-88171569D02*
X53251065Y-87171569D01*
X53251065Y-87552521D02*
X53346303Y-87504902D01*
X53346303Y-87504902D02*
X53536779Y-87504902D01*
X53536779Y-87504902D02*
X53632017Y-87552521D01*
X53632017Y-87552521D02*
X53679636Y-87600140D01*
X53679636Y-87600140D02*
X53727255Y-87695378D01*
X53727255Y-87695378D02*
X53727255Y-87981092D01*
X53727255Y-87981092D02*
X53679636Y-88076330D01*
X53679636Y-88076330D02*
X53632017Y-88123950D01*
X53632017Y-88123950D02*
X53536779Y-88171569D01*
X53536779Y-88171569D02*
X53346303Y-88171569D01*
X53346303Y-88171569D02*
X53251065Y-88123950D01*
X51108208Y-90821569D02*
X51108208Y-90154902D01*
X51108208Y-90250140D02*
X51155827Y-90202521D01*
X51155827Y-90202521D02*
X51251065Y-90154902D01*
X51251065Y-90154902D02*
X51393922Y-90154902D01*
X51393922Y-90154902D02*
X51489160Y-90202521D01*
X51489160Y-90202521D02*
X51536779Y-90297759D01*
X51536779Y-90297759D02*
X51536779Y-90821569D01*
X51536779Y-90297759D02*
X51584398Y-90202521D01*
X51584398Y-90202521D02*
X51679636Y-90154902D01*
X51679636Y-90154902D02*
X51822493Y-90154902D01*
X51822493Y-90154902D02*
X51917732Y-90202521D01*
X51917732Y-90202521D02*
X51965351Y-90297759D01*
X51965351Y-90297759D02*
X51965351Y-90821569D01*
X52870112Y-90154902D02*
X52870112Y-90821569D01*
X52441541Y-90154902D02*
X52441541Y-90678711D01*
X52441541Y-90678711D02*
X52489160Y-90773950D01*
X52489160Y-90773950D02*
X52584398Y-90821569D01*
X52584398Y-90821569D02*
X52727255Y-90821569D01*
X52727255Y-90821569D02*
X52822493Y-90773950D01*
X52822493Y-90773950D02*
X52870112Y-90726330D01*
X53251065Y-90821569D02*
X53774874Y-90154902D01*
X53251065Y-90154902D02*
X53774874Y-90821569D01*
X51393922Y-92451569D02*
X52012969Y-92451569D01*
X52012969Y-92451569D02*
X51679636Y-92832521D01*
X51679636Y-92832521D02*
X51822493Y-92832521D01*
X51822493Y-92832521D02*
X51917731Y-92880140D01*
X51917731Y-92880140D02*
X51965350Y-92927759D01*
X51965350Y-92927759D02*
X52012969Y-93022997D01*
X52012969Y-93022997D02*
X52012969Y-93261092D01*
X52012969Y-93261092D02*
X51965350Y-93356330D01*
X51965350Y-93356330D02*
X51917731Y-93403950D01*
X51917731Y-93403950D02*
X51822493Y-93451569D01*
X51822493Y-93451569D02*
X51536779Y-93451569D01*
X51536779Y-93451569D02*
X51441541Y-93403950D01*
X51441541Y-93403950D02*
X51393922Y-93356330D01*
X52346303Y-92784902D02*
X52584398Y-93451569D01*
X52584398Y-93451569D02*
X52822493Y-92784902D01*
X53108208Y-92451569D02*
X53727255Y-92451569D01*
X53727255Y-92451569D02*
X53393922Y-92832521D01*
X53393922Y-92832521D02*
X53536779Y-92832521D01*
X53536779Y-92832521D02*
X53632017Y-92880140D01*
X53632017Y-92880140D02*
X53679636Y-92927759D01*
X53679636Y-92927759D02*
X53727255Y-93022997D01*
X53727255Y-93022997D02*
X53727255Y-93261092D01*
X53727255Y-93261092D02*
X53679636Y-93356330D01*
X53679636Y-93356330D02*
X53632017Y-93403950D01*
X53632017Y-93403950D02*
X53536779Y-93451569D01*
X53536779Y-93451569D02*
X53251065Y-93451569D01*
X53251065Y-93451569D02*
X53155827Y-93403950D01*
X53155827Y-93403950D02*
X53108208Y-93356330D01*
X51727255Y-95822200D02*
X51822493Y-95869819D01*
X51822493Y-95869819D02*
X52012969Y-95869819D01*
X52012969Y-95869819D02*
X52108207Y-95822200D01*
X52108207Y-95822200D02*
X52155826Y-95726961D01*
X52155826Y-95726961D02*
X52155826Y-95679342D01*
X52155826Y-95679342D02*
X52108207Y-95584104D01*
X52108207Y-95584104D02*
X52012969Y-95536485D01*
X52012969Y-95536485D02*
X51870112Y-95536485D01*
X51870112Y-95536485D02*
X51774874Y-95488866D01*
X51774874Y-95488866D02*
X51727255Y-95393628D01*
X51727255Y-95393628D02*
X51727255Y-95346009D01*
X51727255Y-95346009D02*
X51774874Y-95250771D01*
X51774874Y-95250771D02*
X51870112Y-95203152D01*
X51870112Y-95203152D02*
X52012969Y-95203152D01*
X52012969Y-95203152D02*
X52108207Y-95250771D01*
X52489160Y-95203152D02*
X52727255Y-95869819D01*
X52965350Y-95203152D02*
X52727255Y-95869819D01*
X52727255Y-95869819D02*
X52632017Y-96107914D01*
X52632017Y-96107914D02*
X52584398Y-96155533D01*
X52584398Y-96155533D02*
X52489160Y-96203152D01*
X53298684Y-95822200D02*
X53393922Y-95869819D01*
X53393922Y-95869819D02*
X53584398Y-95869819D01*
X53584398Y-95869819D02*
X53679636Y-95822200D01*
X53679636Y-95822200D02*
X53727255Y-95726961D01*
X53727255Y-95726961D02*
X53727255Y-95679342D01*
X53727255Y-95679342D02*
X53679636Y-95584104D01*
X53679636Y-95584104D02*
X53584398Y-95536485D01*
X53584398Y-95536485D02*
X53441541Y-95536485D01*
X53441541Y-95536485D02*
X53346303Y-95488866D01*
X53346303Y-95488866D02*
X53298684Y-95393628D01*
X53298684Y-95393628D02*
X53298684Y-95346009D01*
X53298684Y-95346009D02*
X53346303Y-95250771D01*
X53346303Y-95250771D02*
X53441541Y-95203152D01*
X53441541Y-95203152D02*
X53584398Y-95203152D01*
X53584398Y-95203152D02*
X53679636Y-95250771D01*
X93849819Y-76969047D02*
X93183152Y-76969047D01*
X93373628Y-76969047D02*
X93278390Y-76921428D01*
X93278390Y-76921428D02*
X93230771Y-76873809D01*
X93230771Y-76873809D02*
X93183152Y-76778571D01*
X93183152Y-76778571D02*
X93183152Y-76683333D01*
X93802200Y-75969047D02*
X93849819Y-76064285D01*
X93849819Y-76064285D02*
X93849819Y-76254761D01*
X93849819Y-76254761D02*
X93802200Y-76349999D01*
X93802200Y-76349999D02*
X93706961Y-76397618D01*
X93706961Y-76397618D02*
X93326009Y-76397618D01*
X93326009Y-76397618D02*
X93230771Y-76349999D01*
X93230771Y-76349999D02*
X93183152Y-76254761D01*
X93183152Y-76254761D02*
X93183152Y-76064285D01*
X93183152Y-76064285D02*
X93230771Y-75969047D01*
X93230771Y-75969047D02*
X93326009Y-75921428D01*
X93326009Y-75921428D02*
X93421247Y-75921428D01*
X93421247Y-75921428D02*
X93516485Y-76397618D01*
X93802200Y-75540475D02*
X93849819Y-75445237D01*
X93849819Y-75445237D02*
X93849819Y-75254761D01*
X93849819Y-75254761D02*
X93802200Y-75159523D01*
X93802200Y-75159523D02*
X93706961Y-75111904D01*
X93706961Y-75111904D02*
X93659342Y-75111904D01*
X93659342Y-75111904D02*
X93564104Y-75159523D01*
X93564104Y-75159523D02*
X93516485Y-75254761D01*
X93516485Y-75254761D02*
X93516485Y-75397618D01*
X93516485Y-75397618D02*
X93468866Y-75492856D01*
X93468866Y-75492856D02*
X93373628Y-75540475D01*
X93373628Y-75540475D02*
X93326009Y-75540475D01*
X93326009Y-75540475D02*
X93230771Y-75492856D01*
X93230771Y-75492856D02*
X93183152Y-75397618D01*
X93183152Y-75397618D02*
X93183152Y-75254761D01*
X93183152Y-75254761D02*
X93230771Y-75159523D01*
X93802200Y-74302380D02*
X93849819Y-74397618D01*
X93849819Y-74397618D02*
X93849819Y-74588094D01*
X93849819Y-74588094D02*
X93802200Y-74683332D01*
X93802200Y-74683332D02*
X93706961Y-74730951D01*
X93706961Y-74730951D02*
X93326009Y-74730951D01*
X93326009Y-74730951D02*
X93230771Y-74683332D01*
X93230771Y-74683332D02*
X93183152Y-74588094D01*
X93183152Y-74588094D02*
X93183152Y-74397618D01*
X93183152Y-74397618D02*
X93230771Y-74302380D01*
X93230771Y-74302380D02*
X93326009Y-74254761D01*
X93326009Y-74254761D02*
X93421247Y-74254761D01*
X93421247Y-74254761D02*
X93516485Y-74730951D01*
X93183152Y-73969046D02*
X93183152Y-73588094D01*
X92849819Y-73826189D02*
X93706961Y-73826189D01*
X93706961Y-73826189D02*
X93802200Y-73778570D01*
X93802200Y-73778570D02*
X93849819Y-73683332D01*
X93849819Y-73683332D02*
X93849819Y-73588094D01*
X52841541Y-99369819D02*
X53460588Y-99369819D01*
X53460588Y-99369819D02*
X53127255Y-99750771D01*
X53127255Y-99750771D02*
X53270112Y-99750771D01*
X53270112Y-99750771D02*
X53365350Y-99798390D01*
X53365350Y-99798390D02*
X53412969Y-99846009D01*
X53412969Y-99846009D02*
X53460588Y-99941247D01*
X53460588Y-99941247D02*
X53460588Y-100179342D01*
X53460588Y-100179342D02*
X53412969Y-100274580D01*
X53412969Y-100274580D02*
X53365350Y-100322200D01*
X53365350Y-100322200D02*
X53270112Y-100369819D01*
X53270112Y-100369819D02*
X52984398Y-100369819D01*
X52984398Y-100369819D02*
X52889160Y-100322200D01*
X52889160Y-100322200D02*
X52841541Y-100274580D01*
X53793922Y-99703152D02*
X54032017Y-100369819D01*
X54032017Y-100369819D02*
X54270112Y-99703152D01*
X54555827Y-99369819D02*
X55174874Y-99369819D01*
X55174874Y-99369819D02*
X54841541Y-99750771D01*
X54841541Y-99750771D02*
X54984398Y-99750771D01*
X54984398Y-99750771D02*
X55079636Y-99798390D01*
X55079636Y-99798390D02*
X55127255Y-99846009D01*
X55127255Y-99846009D02*
X55174874Y-99941247D01*
X55174874Y-99941247D02*
X55174874Y-100179342D01*
X55174874Y-100179342D02*
X55127255Y-100274580D01*
X55127255Y-100274580D02*
X55079636Y-100322200D01*
X55079636Y-100322200D02*
X54984398Y-100369819D01*
X54984398Y-100369819D02*
X54698684Y-100369819D01*
X54698684Y-100369819D02*
X54603446Y-100322200D01*
X54603446Y-100322200D02*
X54555827Y-100274580D01*
X62470952Y-62819819D02*
X61899524Y-62819819D01*
X62185238Y-62819819D02*
X62185238Y-61819819D01*
X62185238Y-61819819D02*
X62090000Y-61962676D01*
X62090000Y-61962676D02*
X61994762Y-62057914D01*
X61994762Y-62057914D02*
X61899524Y-62105533D01*
X62851905Y-61915057D02*
X62899524Y-61867438D01*
X62899524Y-61867438D02*
X62994762Y-61819819D01*
X62994762Y-61819819D02*
X63232857Y-61819819D01*
X63232857Y-61819819D02*
X63328095Y-61867438D01*
X63328095Y-61867438D02*
X63375714Y-61915057D01*
X63375714Y-61915057D02*
X63423333Y-62010295D01*
X63423333Y-62010295D02*
X63423333Y-62105533D01*
X63423333Y-62105533D02*
X63375714Y-62248390D01*
X63375714Y-62248390D02*
X62804286Y-62819819D01*
X62804286Y-62819819D02*
X63423333Y-62819819D01*
X63709048Y-61819819D02*
X64042381Y-62819819D01*
X64042381Y-62819819D02*
X64375714Y-61819819D01*
X54136779Y-101344819D02*
X54136779Y-100678152D01*
X54136779Y-100868628D02*
X54184398Y-100773390D01*
X54184398Y-100773390D02*
X54232017Y-100725771D01*
X54232017Y-100725771D02*
X54327255Y-100678152D01*
X54327255Y-100678152D02*
X54422493Y-100678152D01*
X54660589Y-101344819D02*
X55184398Y-100678152D01*
X54660589Y-100678152D02*
X55184398Y-101344819D01*
X54018922Y-101953152D02*
X54399874Y-101953152D01*
X54161779Y-101619819D02*
X54161779Y-102476961D01*
X54161779Y-102476961D02*
X54209398Y-102572200D01*
X54209398Y-102572200D02*
X54304636Y-102619819D01*
X54304636Y-102619819D02*
X54399874Y-102619819D01*
X54637970Y-102619819D02*
X55161779Y-101953152D01*
X54637970Y-101953152D02*
X55161779Y-102619819D01*
X93849819Y-66029761D02*
X92849819Y-66029761D01*
X93230771Y-66029761D02*
X93183152Y-65934523D01*
X93183152Y-65934523D02*
X93183152Y-65744047D01*
X93183152Y-65744047D02*
X93230771Y-65648809D01*
X93230771Y-65648809D02*
X93278390Y-65601190D01*
X93278390Y-65601190D02*
X93373628Y-65553571D01*
X93373628Y-65553571D02*
X93659342Y-65553571D01*
X93659342Y-65553571D02*
X93754580Y-65601190D01*
X93754580Y-65601190D02*
X93802200Y-65648809D01*
X93802200Y-65648809D02*
X93849819Y-65744047D01*
X93849819Y-65744047D02*
X93849819Y-65934523D01*
X93849819Y-65934523D02*
X93802200Y-66029761D01*
X93849819Y-64982142D02*
X93802200Y-65077380D01*
X93802200Y-65077380D02*
X93754580Y-65124999D01*
X93754580Y-65124999D02*
X93659342Y-65172618D01*
X93659342Y-65172618D02*
X93373628Y-65172618D01*
X93373628Y-65172618D02*
X93278390Y-65124999D01*
X93278390Y-65124999D02*
X93230771Y-65077380D01*
X93230771Y-65077380D02*
X93183152Y-64982142D01*
X93183152Y-64982142D02*
X93183152Y-64839285D01*
X93183152Y-64839285D02*
X93230771Y-64744047D01*
X93230771Y-64744047D02*
X93278390Y-64696428D01*
X93278390Y-64696428D02*
X93373628Y-64648809D01*
X93373628Y-64648809D02*
X93659342Y-64648809D01*
X93659342Y-64648809D02*
X93754580Y-64696428D01*
X93754580Y-64696428D02*
X93802200Y-64744047D01*
X93802200Y-64744047D02*
X93849819Y-64839285D01*
X93849819Y-64839285D02*
X93849819Y-64982142D01*
X93849819Y-64077380D02*
X93802200Y-64172618D01*
X93802200Y-64172618D02*
X93754580Y-64220237D01*
X93754580Y-64220237D02*
X93659342Y-64267856D01*
X93659342Y-64267856D02*
X93373628Y-64267856D01*
X93373628Y-64267856D02*
X93278390Y-64220237D01*
X93278390Y-64220237D02*
X93230771Y-64172618D01*
X93230771Y-64172618D02*
X93183152Y-64077380D01*
X93183152Y-64077380D02*
X93183152Y-63934523D01*
X93183152Y-63934523D02*
X93230771Y-63839285D01*
X93230771Y-63839285D02*
X93278390Y-63791666D01*
X93278390Y-63791666D02*
X93373628Y-63744047D01*
X93373628Y-63744047D02*
X93659342Y-63744047D01*
X93659342Y-63744047D02*
X93754580Y-63791666D01*
X93754580Y-63791666D02*
X93802200Y-63839285D01*
X93802200Y-63839285D02*
X93849819Y-63934523D01*
X93849819Y-63934523D02*
X93849819Y-64077380D01*
X93183152Y-63458332D02*
X93183152Y-63077380D01*
X92849819Y-63315475D02*
X93706961Y-63315475D01*
X93706961Y-63315475D02*
X93802200Y-63267856D01*
X93802200Y-63267856D02*
X93849819Y-63172618D01*
X93849819Y-63172618D02*
X93849819Y-63077380D01*
X53315350Y-103328152D02*
X53315350Y-104137676D01*
X53315350Y-104137676D02*
X53267731Y-104232914D01*
X53267731Y-104232914D02*
X53220112Y-104280533D01*
X53220112Y-104280533D02*
X53124874Y-104328152D01*
X53124874Y-104328152D02*
X52982017Y-104328152D01*
X52982017Y-104328152D02*
X52886779Y-104280533D01*
X53315350Y-103947200D02*
X53220112Y-103994819D01*
X53220112Y-103994819D02*
X53029636Y-103994819D01*
X53029636Y-103994819D02*
X52934398Y-103947200D01*
X52934398Y-103947200D02*
X52886779Y-103899580D01*
X52886779Y-103899580D02*
X52839160Y-103804342D01*
X52839160Y-103804342D02*
X52839160Y-103518628D01*
X52839160Y-103518628D02*
X52886779Y-103423390D01*
X52886779Y-103423390D02*
X52934398Y-103375771D01*
X52934398Y-103375771D02*
X53029636Y-103328152D01*
X53029636Y-103328152D02*
X53220112Y-103328152D01*
X53220112Y-103328152D02*
X53315350Y-103375771D01*
X53791541Y-103328152D02*
X53791541Y-103994819D01*
X53791541Y-103423390D02*
X53839160Y-103375771D01*
X53839160Y-103375771D02*
X53934398Y-103328152D01*
X53934398Y-103328152D02*
X54077255Y-103328152D01*
X54077255Y-103328152D02*
X54172493Y-103375771D01*
X54172493Y-103375771D02*
X54220112Y-103471009D01*
X54220112Y-103471009D02*
X54220112Y-103994819D01*
X55124874Y-103994819D02*
X55124874Y-102994819D01*
X55124874Y-103947200D02*
X55029636Y-103994819D01*
X55029636Y-103994819D02*
X54839160Y-103994819D01*
X54839160Y-103994819D02*
X54743922Y-103947200D01*
X54743922Y-103947200D02*
X54696303Y-103899580D01*
X54696303Y-103899580D02*
X54648684Y-103804342D01*
X54648684Y-103804342D02*
X54648684Y-103518628D01*
X54648684Y-103518628D02*
X54696303Y-103423390D01*
X54696303Y-103423390D02*
X54743922Y-103375771D01*
X54743922Y-103375771D02*
X54839160Y-103328152D01*
X54839160Y-103328152D02*
X55029636Y-103328152D01*
X55029636Y-103328152D02*
X55124874Y-103375771D01*
X80908866Y-53543220D02*
X80908866Y-52781316D01*
X53118458Y-65550180D02*
X52594649Y-66216847D01*
X53118458Y-66216847D02*
X52594649Y-65550180D01*
X51829160Y-69152200D02*
X51972017Y-69199819D01*
X51972017Y-69199819D02*
X52210112Y-69199819D01*
X52210112Y-69199819D02*
X52305350Y-69152200D01*
X52305350Y-69152200D02*
X52352969Y-69104580D01*
X52352969Y-69104580D02*
X52400588Y-69009342D01*
X52400588Y-69009342D02*
X52400588Y-68914104D01*
X52400588Y-68914104D02*
X52352969Y-68818866D01*
X52352969Y-68818866D02*
X52305350Y-68771247D01*
X52305350Y-68771247D02*
X52210112Y-68723628D01*
X52210112Y-68723628D02*
X52019636Y-68676009D01*
X52019636Y-68676009D02*
X51924398Y-68628390D01*
X51924398Y-68628390D02*
X51876779Y-68580771D01*
X51876779Y-68580771D02*
X51829160Y-68485533D01*
X51829160Y-68485533D02*
X51829160Y-68390295D01*
X51829160Y-68390295D02*
X51876779Y-68295057D01*
X51876779Y-68295057D02*
X51924398Y-68247438D01*
X51924398Y-68247438D02*
X52019636Y-68199819D01*
X52019636Y-68199819D02*
X52257731Y-68199819D01*
X52257731Y-68199819D02*
X52400588Y-68247438D01*
X52829160Y-69199819D02*
X52829160Y-68199819D01*
X53829159Y-68247438D02*
X53733921Y-68199819D01*
X53733921Y-68199819D02*
X53591064Y-68199819D01*
X53591064Y-68199819D02*
X53448207Y-68247438D01*
X53448207Y-68247438D02*
X53352969Y-68342676D01*
X53352969Y-68342676D02*
X53305350Y-68437914D01*
X53305350Y-68437914D02*
X53257731Y-68628390D01*
X53257731Y-68628390D02*
X53257731Y-68771247D01*
X53257731Y-68771247D02*
X53305350Y-68961723D01*
X53305350Y-68961723D02*
X53352969Y-69056961D01*
X53352969Y-69056961D02*
X53448207Y-69152200D01*
X53448207Y-69152200D02*
X53591064Y-69199819D01*
X53591064Y-69199819D02*
X53686302Y-69199819D01*
X53686302Y-69199819D02*
X53829159Y-69152200D01*
X53829159Y-69152200D02*
X53876778Y-69104580D01*
X53876778Y-69104580D02*
X53876778Y-68771247D01*
X53876778Y-68771247D02*
X53686302Y-68771247D01*
X87454188Y-89169047D02*
X87454188Y-88692857D01*
X87739903Y-89264285D02*
X86739903Y-88930952D01*
X86739903Y-88930952D02*
X87739903Y-88597619D01*
X87739903Y-88264285D02*
X87073236Y-88264285D01*
X86739903Y-88264285D02*
X86787522Y-88311904D01*
X86787522Y-88311904D02*
X86835141Y-88264285D01*
X86835141Y-88264285D02*
X86787522Y-88216666D01*
X86787522Y-88216666D02*
X86739903Y-88264285D01*
X86739903Y-88264285D02*
X86835141Y-88264285D01*
X87739903Y-87788095D02*
X87073236Y-87788095D01*
X87263712Y-87788095D02*
X87168474Y-87740476D01*
X87168474Y-87740476D02*
X87120855Y-87692857D01*
X87120855Y-87692857D02*
X87073236Y-87597619D01*
X87073236Y-87597619D02*
X87073236Y-87502381D01*
X87692284Y-86454761D02*
X87739903Y-86311904D01*
X87739903Y-86311904D02*
X87739903Y-86073809D01*
X87739903Y-86073809D02*
X87692284Y-85978571D01*
X87692284Y-85978571D02*
X87644664Y-85930952D01*
X87644664Y-85930952D02*
X87549426Y-85883333D01*
X87549426Y-85883333D02*
X87454188Y-85883333D01*
X87454188Y-85883333D02*
X87358950Y-85930952D01*
X87358950Y-85930952D02*
X87311331Y-85978571D01*
X87311331Y-85978571D02*
X87263712Y-86073809D01*
X87263712Y-86073809D02*
X87216093Y-86264285D01*
X87216093Y-86264285D02*
X87168474Y-86359523D01*
X87168474Y-86359523D02*
X87120855Y-86407142D01*
X87120855Y-86407142D02*
X87025617Y-86454761D01*
X87025617Y-86454761D02*
X86930379Y-86454761D01*
X86930379Y-86454761D02*
X86835141Y-86407142D01*
X86835141Y-86407142D02*
X86787522Y-86359523D01*
X86787522Y-86359523D02*
X86739903Y-86264285D01*
X86739903Y-86264285D02*
X86739903Y-86026190D01*
X86739903Y-86026190D02*
X86787522Y-85883333D01*
X87692284Y-85026190D02*
X87739903Y-85121428D01*
X87739903Y-85121428D02*
X87739903Y-85311904D01*
X87739903Y-85311904D02*
X87692284Y-85407142D01*
X87692284Y-85407142D02*
X87644664Y-85454761D01*
X87644664Y-85454761D02*
X87549426Y-85502380D01*
X87549426Y-85502380D02*
X87263712Y-85502380D01*
X87263712Y-85502380D02*
X87168474Y-85454761D01*
X87168474Y-85454761D02*
X87120855Y-85407142D01*
X87120855Y-85407142D02*
X87073236Y-85311904D01*
X87073236Y-85311904D02*
X87073236Y-85121428D01*
X87073236Y-85121428D02*
X87120855Y-85026190D01*
X87739903Y-84169047D02*
X87216093Y-84169047D01*
X87216093Y-84169047D02*
X87120855Y-84216666D01*
X87120855Y-84216666D02*
X87073236Y-84311904D01*
X87073236Y-84311904D02*
X87073236Y-84502380D01*
X87073236Y-84502380D02*
X87120855Y-84597618D01*
X87692284Y-84169047D02*
X87739903Y-84264285D01*
X87739903Y-84264285D02*
X87739903Y-84502380D01*
X87739903Y-84502380D02*
X87692284Y-84597618D01*
X87692284Y-84597618D02*
X87597045Y-84645237D01*
X87597045Y-84645237D02*
X87501807Y-84645237D01*
X87501807Y-84645237D02*
X87406569Y-84597618D01*
X87406569Y-84597618D02*
X87358950Y-84502380D01*
X87358950Y-84502380D02*
X87358950Y-84264285D01*
X87358950Y-84264285D02*
X87311331Y-84169047D01*
X87739903Y-83549999D02*
X87692284Y-83645237D01*
X87692284Y-83645237D02*
X87597045Y-83692856D01*
X87597045Y-83692856D02*
X86739903Y-83692856D01*
X87692284Y-82788094D02*
X87739903Y-82883332D01*
X87739903Y-82883332D02*
X87739903Y-83073808D01*
X87739903Y-83073808D02*
X87692284Y-83169046D01*
X87692284Y-83169046D02*
X87597045Y-83216665D01*
X87597045Y-83216665D02*
X87216093Y-83216665D01*
X87216093Y-83216665D02*
X87120855Y-83169046D01*
X87120855Y-83169046D02*
X87073236Y-83073808D01*
X87073236Y-83073808D02*
X87073236Y-82883332D01*
X87073236Y-82883332D02*
X87120855Y-82788094D01*
X87120855Y-82788094D02*
X87216093Y-82740475D01*
X87216093Y-82740475D02*
X87311331Y-82740475D01*
X87311331Y-82740475D02*
X87406569Y-83216665D01*
X87692284Y-82359522D02*
X87739903Y-82264284D01*
X87739903Y-82264284D02*
X87739903Y-82073808D01*
X87739903Y-82073808D02*
X87692284Y-81978570D01*
X87692284Y-81978570D02*
X87597045Y-81930951D01*
X87597045Y-81930951D02*
X87549426Y-81930951D01*
X87549426Y-81930951D02*
X87454188Y-81978570D01*
X87454188Y-81978570D02*
X87406569Y-82073808D01*
X87406569Y-82073808D02*
X87406569Y-82216665D01*
X87406569Y-82216665D02*
X87358950Y-82311903D01*
X87358950Y-82311903D02*
X87263712Y-82359522D01*
X87263712Y-82359522D02*
X87216093Y-82359522D01*
X87216093Y-82359522D02*
X87120855Y-82311903D01*
X87120855Y-82311903D02*
X87073236Y-82216665D01*
X87073236Y-82216665D02*
X87073236Y-82073808D01*
X87073236Y-82073808D02*
X87120855Y-81978570D01*
X88349847Y-86359523D02*
X89349847Y-86026190D01*
X89349847Y-86026190D02*
X88349847Y-85692857D01*
X88349847Y-85454761D02*
X88349847Y-84835714D01*
X88349847Y-84835714D02*
X88730799Y-85169047D01*
X88730799Y-85169047D02*
X88730799Y-85026190D01*
X88730799Y-85026190D02*
X88778418Y-84930952D01*
X88778418Y-84930952D02*
X88826037Y-84883333D01*
X88826037Y-84883333D02*
X88921275Y-84835714D01*
X88921275Y-84835714D02*
X89159370Y-84835714D01*
X89159370Y-84835714D02*
X89254608Y-84883333D01*
X89254608Y-84883333D02*
X89302228Y-84930952D01*
X89302228Y-84930952D02*
X89349847Y-85026190D01*
X89349847Y-85026190D02*
X89349847Y-85311904D01*
X89349847Y-85311904D02*
X89302228Y-85407142D01*
X89302228Y-85407142D02*
X89254608Y-85454761D01*
X90959791Y-88192857D02*
X89959791Y-88192857D01*
X90912172Y-88192857D02*
X90959791Y-88288095D01*
X90959791Y-88288095D02*
X90959791Y-88478571D01*
X90959791Y-88478571D02*
X90912172Y-88573809D01*
X90912172Y-88573809D02*
X90864552Y-88621428D01*
X90864552Y-88621428D02*
X90769314Y-88669047D01*
X90769314Y-88669047D02*
X90483600Y-88669047D01*
X90483600Y-88669047D02*
X90388362Y-88621428D01*
X90388362Y-88621428D02*
X90340743Y-88573809D01*
X90340743Y-88573809D02*
X90293124Y-88478571D01*
X90293124Y-88478571D02*
X90293124Y-88288095D01*
X90293124Y-88288095D02*
X90340743Y-88192857D01*
X90912172Y-87335714D02*
X90959791Y-87430952D01*
X90959791Y-87430952D02*
X90959791Y-87621428D01*
X90959791Y-87621428D02*
X90912172Y-87716666D01*
X90912172Y-87716666D02*
X90816933Y-87764285D01*
X90816933Y-87764285D02*
X90435981Y-87764285D01*
X90435981Y-87764285D02*
X90340743Y-87716666D01*
X90340743Y-87716666D02*
X90293124Y-87621428D01*
X90293124Y-87621428D02*
X90293124Y-87430952D01*
X90293124Y-87430952D02*
X90340743Y-87335714D01*
X90340743Y-87335714D02*
X90435981Y-87288095D01*
X90435981Y-87288095D02*
X90531219Y-87288095D01*
X90531219Y-87288095D02*
X90626457Y-87764285D01*
X90912172Y-86907142D02*
X90959791Y-86811904D01*
X90959791Y-86811904D02*
X90959791Y-86621428D01*
X90959791Y-86621428D02*
X90912172Y-86526190D01*
X90912172Y-86526190D02*
X90816933Y-86478571D01*
X90816933Y-86478571D02*
X90769314Y-86478571D01*
X90769314Y-86478571D02*
X90674076Y-86526190D01*
X90674076Y-86526190D02*
X90626457Y-86621428D01*
X90626457Y-86621428D02*
X90626457Y-86764285D01*
X90626457Y-86764285D02*
X90578838Y-86859523D01*
X90578838Y-86859523D02*
X90483600Y-86907142D01*
X90483600Y-86907142D02*
X90435981Y-86907142D01*
X90435981Y-86907142D02*
X90340743Y-86859523D01*
X90340743Y-86859523D02*
X90293124Y-86764285D01*
X90293124Y-86764285D02*
X90293124Y-86621428D01*
X90293124Y-86621428D02*
X90340743Y-86526190D01*
X90959791Y-86049999D02*
X90293124Y-86049999D01*
X89959791Y-86049999D02*
X90007410Y-86097618D01*
X90007410Y-86097618D02*
X90055029Y-86049999D01*
X90055029Y-86049999D02*
X90007410Y-86002380D01*
X90007410Y-86002380D02*
X89959791Y-86049999D01*
X89959791Y-86049999D02*
X90055029Y-86049999D01*
X90293124Y-85145238D02*
X91102648Y-85145238D01*
X91102648Y-85145238D02*
X91197886Y-85192857D01*
X91197886Y-85192857D02*
X91245505Y-85240476D01*
X91245505Y-85240476D02*
X91293124Y-85335714D01*
X91293124Y-85335714D02*
X91293124Y-85478571D01*
X91293124Y-85478571D02*
X91245505Y-85573809D01*
X90912172Y-85145238D02*
X90959791Y-85240476D01*
X90959791Y-85240476D02*
X90959791Y-85430952D01*
X90959791Y-85430952D02*
X90912172Y-85526190D01*
X90912172Y-85526190D02*
X90864552Y-85573809D01*
X90864552Y-85573809D02*
X90769314Y-85621428D01*
X90769314Y-85621428D02*
X90483600Y-85621428D01*
X90483600Y-85621428D02*
X90388362Y-85573809D01*
X90388362Y-85573809D02*
X90340743Y-85526190D01*
X90340743Y-85526190D02*
X90293124Y-85430952D01*
X90293124Y-85430952D02*
X90293124Y-85240476D01*
X90293124Y-85240476D02*
X90340743Y-85145238D01*
X90293124Y-84669047D02*
X90959791Y-84669047D01*
X90388362Y-84669047D02*
X90340743Y-84621428D01*
X90340743Y-84621428D02*
X90293124Y-84526190D01*
X90293124Y-84526190D02*
X90293124Y-84383333D01*
X90293124Y-84383333D02*
X90340743Y-84288095D01*
X90340743Y-84288095D02*
X90435981Y-84240476D01*
X90435981Y-84240476D02*
X90959791Y-84240476D01*
X90912172Y-83383333D02*
X90959791Y-83478571D01*
X90959791Y-83478571D02*
X90959791Y-83669047D01*
X90959791Y-83669047D02*
X90912172Y-83764285D01*
X90912172Y-83764285D02*
X90816933Y-83811904D01*
X90816933Y-83811904D02*
X90435981Y-83811904D01*
X90435981Y-83811904D02*
X90340743Y-83764285D01*
X90340743Y-83764285D02*
X90293124Y-83669047D01*
X90293124Y-83669047D02*
X90293124Y-83478571D01*
X90293124Y-83478571D02*
X90340743Y-83383333D01*
X90340743Y-83383333D02*
X90435981Y-83335714D01*
X90435981Y-83335714D02*
X90531219Y-83335714D01*
X90531219Y-83335714D02*
X90626457Y-83811904D01*
X90959791Y-82478571D02*
X89959791Y-82478571D01*
X90912172Y-82478571D02*
X90959791Y-82573809D01*
X90959791Y-82573809D02*
X90959791Y-82764285D01*
X90959791Y-82764285D02*
X90912172Y-82859523D01*
X90912172Y-82859523D02*
X90864552Y-82907142D01*
X90864552Y-82907142D02*
X90769314Y-82954761D01*
X90769314Y-82954761D02*
X90483600Y-82954761D01*
X90483600Y-82954761D02*
X90388362Y-82907142D01*
X90388362Y-82907142D02*
X90340743Y-82859523D01*
X90340743Y-82859523D02*
X90293124Y-82764285D01*
X90293124Y-82764285D02*
X90293124Y-82573809D01*
X90293124Y-82573809D02*
X90340743Y-82478571D01*
X92569735Y-89002381D02*
X91569735Y-89002381D01*
X91950687Y-89002381D02*
X91903068Y-88907143D01*
X91903068Y-88907143D02*
X91903068Y-88716667D01*
X91903068Y-88716667D02*
X91950687Y-88621429D01*
X91950687Y-88621429D02*
X91998306Y-88573810D01*
X91998306Y-88573810D02*
X92093544Y-88526191D01*
X92093544Y-88526191D02*
X92379258Y-88526191D01*
X92379258Y-88526191D02*
X92474496Y-88573810D01*
X92474496Y-88573810D02*
X92522116Y-88621429D01*
X92522116Y-88621429D02*
X92569735Y-88716667D01*
X92569735Y-88716667D02*
X92569735Y-88907143D01*
X92569735Y-88907143D02*
X92522116Y-89002381D01*
X91903068Y-88192857D02*
X92569735Y-87954762D01*
X91903068Y-87716667D02*
X92569735Y-87954762D01*
X92569735Y-87954762D02*
X92807830Y-88050000D01*
X92807830Y-88050000D02*
X92855449Y-88097619D01*
X92855449Y-88097619D02*
X92903068Y-88192857D01*
X92569735Y-86573809D02*
X91569735Y-86573809D01*
X91950687Y-86573809D02*
X91903068Y-86478571D01*
X91903068Y-86478571D02*
X91903068Y-86288095D01*
X91903068Y-86288095D02*
X91950687Y-86192857D01*
X91950687Y-86192857D02*
X91998306Y-86145238D01*
X91998306Y-86145238D02*
X92093544Y-86097619D01*
X92093544Y-86097619D02*
X92379258Y-86097619D01*
X92379258Y-86097619D02*
X92474496Y-86145238D01*
X92474496Y-86145238D02*
X92522116Y-86192857D01*
X92522116Y-86192857D02*
X92569735Y-86288095D01*
X92569735Y-86288095D02*
X92569735Y-86478571D01*
X92569735Y-86478571D02*
X92522116Y-86573809D01*
X92522116Y-85288095D02*
X92569735Y-85383333D01*
X92569735Y-85383333D02*
X92569735Y-85573809D01*
X92569735Y-85573809D02*
X92522116Y-85669047D01*
X92522116Y-85669047D02*
X92426877Y-85716666D01*
X92426877Y-85716666D02*
X92045925Y-85716666D01*
X92045925Y-85716666D02*
X91950687Y-85669047D01*
X91950687Y-85669047D02*
X91903068Y-85573809D01*
X91903068Y-85573809D02*
X91903068Y-85383333D01*
X91903068Y-85383333D02*
X91950687Y-85288095D01*
X91950687Y-85288095D02*
X92045925Y-85240476D01*
X92045925Y-85240476D02*
X92141163Y-85240476D01*
X92141163Y-85240476D02*
X92236401Y-85716666D01*
X92569735Y-84383333D02*
X92045925Y-84383333D01*
X92045925Y-84383333D02*
X91950687Y-84430952D01*
X91950687Y-84430952D02*
X91903068Y-84526190D01*
X91903068Y-84526190D02*
X91903068Y-84716666D01*
X91903068Y-84716666D02*
X91950687Y-84811904D01*
X92522116Y-84383333D02*
X92569735Y-84478571D01*
X92569735Y-84478571D02*
X92569735Y-84716666D01*
X92569735Y-84716666D02*
X92522116Y-84811904D01*
X92522116Y-84811904D02*
X92426877Y-84859523D01*
X92426877Y-84859523D02*
X92331639Y-84859523D01*
X92331639Y-84859523D02*
X92236401Y-84811904D01*
X92236401Y-84811904D02*
X92188782Y-84716666D01*
X92188782Y-84716666D02*
X92188782Y-84478571D01*
X92188782Y-84478571D02*
X92141163Y-84383333D01*
X92569735Y-83907142D02*
X91569735Y-83907142D01*
X92188782Y-83811904D02*
X92569735Y-83526190D01*
X91903068Y-83526190D02*
X92284020Y-83907142D01*
X92522116Y-82716666D02*
X92569735Y-82811904D01*
X92569735Y-82811904D02*
X92569735Y-83002380D01*
X92569735Y-83002380D02*
X92522116Y-83097618D01*
X92522116Y-83097618D02*
X92426877Y-83145237D01*
X92426877Y-83145237D02*
X92045925Y-83145237D01*
X92045925Y-83145237D02*
X91950687Y-83097618D01*
X91950687Y-83097618D02*
X91903068Y-83002380D01*
X91903068Y-83002380D02*
X91903068Y-82811904D01*
X91903068Y-82811904D02*
X91950687Y-82716666D01*
X91950687Y-82716666D02*
X92045925Y-82669047D01*
X92045925Y-82669047D02*
X92141163Y-82669047D01*
X92141163Y-82669047D02*
X92236401Y-83145237D01*
X92569735Y-82240475D02*
X91903068Y-82240475D01*
X92093544Y-82240475D02*
X91998306Y-82192856D01*
X91998306Y-82192856D02*
X91950687Y-82145237D01*
X91950687Y-82145237D02*
X91903068Y-82049999D01*
X91903068Y-82049999D02*
X91903068Y-81954761D01*
X42928571Y-102981009D02*
X42595238Y-102981009D01*
X42595238Y-103504819D02*
X42595238Y-102504819D01*
X42595238Y-102504819D02*
X43071428Y-102504819D01*
X43452381Y-103504819D02*
X43452381Y-102504819D01*
X43928571Y-103504819D02*
X43928571Y-102504819D01*
X43928571Y-102504819D02*
X44166666Y-102504819D01*
X44166666Y-102504819D02*
X44309523Y-102552438D01*
X44309523Y-102552438D02*
X44404761Y-102647676D01*
X44404761Y-102647676D02*
X44452380Y-102742914D01*
X44452380Y-102742914D02*
X44499999Y-102933390D01*
X44499999Y-102933390D02*
X44499999Y-103076247D01*
X44499999Y-103076247D02*
X44452380Y-103266723D01*
X44452380Y-103266723D02*
X44404761Y-103361961D01*
X44404761Y-103361961D02*
X44309523Y-103457200D01*
X44309523Y-103457200D02*
X44166666Y-103504819D01*
X44166666Y-103504819D02*
X43928571Y-103504819D01*
X45357142Y-102838152D02*
X45357142Y-103504819D01*
X45119047Y-102457200D02*
X44880952Y-103171485D01*
X44880952Y-103171485D02*
X45499999Y-103171485D01*
X42928571Y-56981009D02*
X42595238Y-56981009D01*
X42595238Y-57504819D02*
X42595238Y-56504819D01*
X42595238Y-56504819D02*
X43071428Y-56504819D01*
X43452381Y-57504819D02*
X43452381Y-56504819D01*
X43928571Y-57504819D02*
X43928571Y-56504819D01*
X43928571Y-56504819D02*
X44166666Y-56504819D01*
X44166666Y-56504819D02*
X44309523Y-56552438D01*
X44309523Y-56552438D02*
X44404761Y-56647676D01*
X44404761Y-56647676D02*
X44452380Y-56742914D01*
X44452380Y-56742914D02*
X44499999Y-56933390D01*
X44499999Y-56933390D02*
X44499999Y-57076247D01*
X44499999Y-57076247D02*
X44452380Y-57266723D01*
X44452380Y-57266723D02*
X44404761Y-57361961D01*
X44404761Y-57361961D02*
X44309523Y-57457200D01*
X44309523Y-57457200D02*
X44166666Y-57504819D01*
X44166666Y-57504819D02*
X43928571Y-57504819D01*
X44833333Y-56504819D02*
X45452380Y-56504819D01*
X45452380Y-56504819D02*
X45119047Y-56885771D01*
X45119047Y-56885771D02*
X45261904Y-56885771D01*
X45261904Y-56885771D02*
X45357142Y-56933390D01*
X45357142Y-56933390D02*
X45404761Y-56981009D01*
X45404761Y-56981009D02*
X45452380Y-57076247D01*
X45452380Y-57076247D02*
X45452380Y-57314342D01*
X45452380Y-57314342D02*
X45404761Y-57409580D01*
X45404761Y-57409580D02*
X45357142Y-57457200D01*
X45357142Y-57457200D02*
X45261904Y-57504819D01*
X45261904Y-57504819D02*
X44976190Y-57504819D01*
X44976190Y-57504819D02*
X44880952Y-57457200D01*
X44880952Y-57457200D02*
X44833333Y-57409580D01*
X101928571Y-56981009D02*
X101595238Y-56981009D01*
X101595238Y-57504819D02*
X101595238Y-56504819D01*
X101595238Y-56504819D02*
X102071428Y-56504819D01*
X102452381Y-57504819D02*
X102452381Y-56504819D01*
X102928571Y-57504819D02*
X102928571Y-56504819D01*
X102928571Y-56504819D02*
X103166666Y-56504819D01*
X103166666Y-56504819D02*
X103309523Y-56552438D01*
X103309523Y-56552438D02*
X103404761Y-56647676D01*
X103404761Y-56647676D02*
X103452380Y-56742914D01*
X103452380Y-56742914D02*
X103499999Y-56933390D01*
X103499999Y-56933390D02*
X103499999Y-57076247D01*
X103499999Y-57076247D02*
X103452380Y-57266723D01*
X103452380Y-57266723D02*
X103404761Y-57361961D01*
X103404761Y-57361961D02*
X103309523Y-57457200D01*
X103309523Y-57457200D02*
X103166666Y-57504819D01*
X103166666Y-57504819D02*
X102928571Y-57504819D01*
X103880952Y-56600057D02*
X103928571Y-56552438D01*
X103928571Y-56552438D02*
X104023809Y-56504819D01*
X104023809Y-56504819D02*
X104261904Y-56504819D01*
X104261904Y-56504819D02*
X104357142Y-56552438D01*
X104357142Y-56552438D02*
X104404761Y-56600057D01*
X104404761Y-56600057D02*
X104452380Y-56695295D01*
X104452380Y-56695295D02*
X104452380Y-56790533D01*
X104452380Y-56790533D02*
X104404761Y-56933390D01*
X104404761Y-56933390D02*
X103833333Y-57504819D01*
X103833333Y-57504819D02*
X104452380Y-57504819D01*
X101928571Y-102981009D02*
X101595238Y-102981009D01*
X101595238Y-103504819D02*
X101595238Y-102504819D01*
X101595238Y-102504819D02*
X102071428Y-102504819D01*
X102452381Y-103504819D02*
X102452381Y-102504819D01*
X102928571Y-103504819D02*
X102928571Y-102504819D01*
X102928571Y-102504819D02*
X103166666Y-102504819D01*
X103166666Y-102504819D02*
X103309523Y-102552438D01*
X103309523Y-102552438D02*
X103404761Y-102647676D01*
X103404761Y-102647676D02*
X103452380Y-102742914D01*
X103452380Y-102742914D02*
X103499999Y-102933390D01*
X103499999Y-102933390D02*
X103499999Y-103076247D01*
X103499999Y-103076247D02*
X103452380Y-103266723D01*
X103452380Y-103266723D02*
X103404761Y-103361961D01*
X103404761Y-103361961D02*
X103309523Y-103457200D01*
X103309523Y-103457200D02*
X103166666Y-103504819D01*
X103166666Y-103504819D02*
X102928571Y-103504819D01*
X104452380Y-103504819D02*
X103880952Y-103504819D01*
X104166666Y-103504819D02*
X104166666Y-102504819D01*
X104166666Y-102504819D02*
X104071428Y-102647676D01*
X104071428Y-102647676D02*
X103976190Y-102742914D01*
X103976190Y-102742914D02*
X103880952Y-102790533D01*
X61179819Y-112311904D02*
X61989342Y-112311904D01*
X61989342Y-112311904D02*
X62084580Y-112264285D01*
X62084580Y-112264285D02*
X62132200Y-112216666D01*
X62132200Y-112216666D02*
X62179819Y-112121428D01*
X62179819Y-112121428D02*
X62179819Y-111930952D01*
X62179819Y-111930952D02*
X62132200Y-111835714D01*
X62132200Y-111835714D02*
X62084580Y-111788095D01*
X62084580Y-111788095D02*
X61989342Y-111740476D01*
X61989342Y-111740476D02*
X61179819Y-111740476D01*
X62179819Y-110740476D02*
X62179819Y-111311904D01*
X62179819Y-111026190D02*
X61179819Y-111026190D01*
X61179819Y-111026190D02*
X61322676Y-111121428D01*
X61322676Y-111121428D02*
X61417914Y-111216666D01*
X61417914Y-111216666D02*
X61465533Y-111311904D01*
X84929819Y-102433333D02*
X85644104Y-102433333D01*
X85644104Y-102433333D02*
X85786961Y-102480952D01*
X85786961Y-102480952D02*
X85882200Y-102576190D01*
X85882200Y-102576190D02*
X85929819Y-102719047D01*
X85929819Y-102719047D02*
X85929819Y-102814285D01*
X84929819Y-102052380D02*
X84929819Y-101433333D01*
X84929819Y-101433333D02*
X85310771Y-101766666D01*
X85310771Y-101766666D02*
X85310771Y-101623809D01*
X85310771Y-101623809D02*
X85358390Y-101528571D01*
X85358390Y-101528571D02*
X85406009Y-101480952D01*
X85406009Y-101480952D02*
X85501247Y-101433333D01*
X85501247Y-101433333D02*
X85739342Y-101433333D01*
X85739342Y-101433333D02*
X85834580Y-101480952D01*
X85834580Y-101480952D02*
X85882200Y-101528571D01*
X85882200Y-101528571D02*
X85929819Y-101623809D01*
X85929819Y-101623809D02*
X85929819Y-101909523D01*
X85929819Y-101909523D02*
X85882200Y-102004761D01*
X85882200Y-102004761D02*
X85834580Y-102052380D01*
X85894819Y-53031904D02*
X86704342Y-53031904D01*
X86704342Y-53031904D02*
X86799580Y-52984285D01*
X86799580Y-52984285D02*
X86847200Y-52936666D01*
X86847200Y-52936666D02*
X86894819Y-52841428D01*
X86894819Y-52841428D02*
X86894819Y-52650952D01*
X86894819Y-52650952D02*
X86847200Y-52555714D01*
X86847200Y-52555714D02*
X86799580Y-52508095D01*
X86799580Y-52508095D02*
X86704342Y-52460476D01*
X86704342Y-52460476D02*
X85894819Y-52460476D01*
X85894819Y-51508095D02*
X85894819Y-51984285D01*
X85894819Y-51984285D02*
X86371009Y-52031904D01*
X86371009Y-52031904D02*
X86323390Y-51984285D01*
X86323390Y-51984285D02*
X86275771Y-51889047D01*
X86275771Y-51889047D02*
X86275771Y-51650952D01*
X86275771Y-51650952D02*
X86323390Y-51555714D01*
X86323390Y-51555714D02*
X86371009Y-51508095D01*
X86371009Y-51508095D02*
X86466247Y-51460476D01*
X86466247Y-51460476D02*
X86704342Y-51460476D01*
X86704342Y-51460476D02*
X86799580Y-51508095D01*
X86799580Y-51508095D02*
X86847200Y-51555714D01*
X86847200Y-51555714D02*
X86894819Y-51650952D01*
X86894819Y-51650952D02*
X86894819Y-51889047D01*
X86894819Y-51889047D02*
X86847200Y-51984285D01*
X86847200Y-51984285D02*
X86799580Y-52031904D01*
X59144819Y-59703333D02*
X59859104Y-59703333D01*
X59859104Y-59703333D02*
X60001961Y-59750952D01*
X60001961Y-59750952D02*
X60097200Y-59846190D01*
X60097200Y-59846190D02*
X60144819Y-59989047D01*
X60144819Y-59989047D02*
X60144819Y-60084285D01*
X60144819Y-58703333D02*
X60144819Y-59274761D01*
X60144819Y-58989047D02*
X59144819Y-58989047D01*
X59144819Y-58989047D02*
X59287676Y-59084285D01*
X59287676Y-59084285D02*
X59382914Y-59179523D01*
X59382914Y-59179523D02*
X59430533Y-59274761D01*
X77229580Y-55582857D02*
X77277200Y-55630476D01*
X77277200Y-55630476D02*
X77324819Y-55773333D01*
X77324819Y-55773333D02*
X77324819Y-55868571D01*
X77324819Y-55868571D02*
X77277200Y-56011428D01*
X77277200Y-56011428D02*
X77181961Y-56106666D01*
X77181961Y-56106666D02*
X77086723Y-56154285D01*
X77086723Y-56154285D02*
X76896247Y-56201904D01*
X76896247Y-56201904D02*
X76753390Y-56201904D01*
X76753390Y-56201904D02*
X76562914Y-56154285D01*
X76562914Y-56154285D02*
X76467676Y-56106666D01*
X76467676Y-56106666D02*
X76372438Y-56011428D01*
X76372438Y-56011428D02*
X76324819Y-55868571D01*
X76324819Y-55868571D02*
X76324819Y-55773333D01*
X76324819Y-55773333D02*
X76372438Y-55630476D01*
X76372438Y-55630476D02*
X76420057Y-55582857D01*
X77324819Y-54630476D02*
X77324819Y-55201904D01*
X77324819Y-54916190D02*
X76324819Y-54916190D01*
X76324819Y-54916190D02*
X76467676Y-55011428D01*
X76467676Y-55011428D02*
X76562914Y-55106666D01*
X76562914Y-55106666D02*
X76610533Y-55201904D01*
X76324819Y-54297142D02*
X76324819Y-53678095D01*
X76324819Y-53678095D02*
X76705771Y-54011428D01*
X76705771Y-54011428D02*
X76705771Y-53868571D01*
X76705771Y-53868571D02*
X76753390Y-53773333D01*
X76753390Y-53773333D02*
X76801009Y-53725714D01*
X76801009Y-53725714D02*
X76896247Y-53678095D01*
X76896247Y-53678095D02*
X77134342Y-53678095D01*
X77134342Y-53678095D02*
X77229580Y-53725714D01*
X77229580Y-53725714D02*
X77277200Y-53773333D01*
X77277200Y-53773333D02*
X77324819Y-53868571D01*
X77324819Y-53868571D02*
X77324819Y-54154285D01*
X77324819Y-54154285D02*
X77277200Y-54249523D01*
X77277200Y-54249523D02*
X77229580Y-54297142D01*
X74444819Y-82646666D02*
X74444819Y-83122856D01*
X74444819Y-83122856D02*
X73444819Y-83122856D01*
X73540057Y-82360951D02*
X73492438Y-82313332D01*
X73492438Y-82313332D02*
X73444819Y-82218094D01*
X73444819Y-82218094D02*
X73444819Y-81979999D01*
X73444819Y-81979999D02*
X73492438Y-81884761D01*
X73492438Y-81884761D02*
X73540057Y-81837142D01*
X73540057Y-81837142D02*
X73635295Y-81789523D01*
X73635295Y-81789523D02*
X73730533Y-81789523D01*
X73730533Y-81789523D02*
X73873390Y-81837142D01*
X73873390Y-81837142D02*
X74444819Y-82408570D01*
X74444819Y-82408570D02*
X74444819Y-81789523D01*
X70138095Y-75454819D02*
X70138095Y-76264342D01*
X70138095Y-76264342D02*
X70185714Y-76359580D01*
X70185714Y-76359580D02*
X70233333Y-76407200D01*
X70233333Y-76407200D02*
X70328571Y-76454819D01*
X70328571Y-76454819D02*
X70519047Y-76454819D01*
X70519047Y-76454819D02*
X70614285Y-76407200D01*
X70614285Y-76407200D02*
X70661904Y-76359580D01*
X70661904Y-76359580D02*
X70709523Y-76264342D01*
X70709523Y-76264342D02*
X70709523Y-75454819D01*
X71614285Y-75454819D02*
X71423809Y-75454819D01*
X71423809Y-75454819D02*
X71328571Y-75502438D01*
X71328571Y-75502438D02*
X71280952Y-75550057D01*
X71280952Y-75550057D02*
X71185714Y-75692914D01*
X71185714Y-75692914D02*
X71138095Y-75883390D01*
X71138095Y-75883390D02*
X71138095Y-76264342D01*
X71138095Y-76264342D02*
X71185714Y-76359580D01*
X71185714Y-76359580D02*
X71233333Y-76407200D01*
X71233333Y-76407200D02*
X71328571Y-76454819D01*
X71328571Y-76454819D02*
X71519047Y-76454819D01*
X71519047Y-76454819D02*
X71614285Y-76407200D01*
X71614285Y-76407200D02*
X71661904Y-76359580D01*
X71661904Y-76359580D02*
X71709523Y-76264342D01*
X71709523Y-76264342D02*
X71709523Y-76026247D01*
X71709523Y-76026247D02*
X71661904Y-75931009D01*
X71661904Y-75931009D02*
X71614285Y-75883390D01*
X71614285Y-75883390D02*
X71519047Y-75835771D01*
X71519047Y-75835771D02*
X71328571Y-75835771D01*
X71328571Y-75835771D02*
X71233333Y-75883390D01*
X71233333Y-75883390D02*
X71185714Y-75931009D01*
X71185714Y-75931009D02*
X71138095Y-76026247D01*
X81884819Y-80036666D02*
X81884819Y-80512856D01*
X81884819Y-80512856D02*
X80884819Y-80512856D01*
X81884819Y-79179523D02*
X81884819Y-79750951D01*
X81884819Y-79465237D02*
X80884819Y-79465237D01*
X80884819Y-79465237D02*
X81027676Y-79560475D01*
X81027676Y-79560475D02*
X81122914Y-79655713D01*
X81122914Y-79655713D02*
X81170533Y-79750951D01*
X57304819Y-103483333D02*
X58019104Y-103483333D01*
X58019104Y-103483333D02*
X58161961Y-103530952D01*
X58161961Y-103530952D02*
X58257200Y-103626190D01*
X58257200Y-103626190D02*
X58304819Y-103769047D01*
X58304819Y-103769047D02*
X58304819Y-103864285D01*
X57400057Y-103054761D02*
X57352438Y-103007142D01*
X57352438Y-103007142D02*
X57304819Y-102911904D01*
X57304819Y-102911904D02*
X57304819Y-102673809D01*
X57304819Y-102673809D02*
X57352438Y-102578571D01*
X57352438Y-102578571D02*
X57400057Y-102530952D01*
X57400057Y-102530952D02*
X57495295Y-102483333D01*
X57495295Y-102483333D02*
X57590533Y-102483333D01*
X57590533Y-102483333D02*
X57733390Y-102530952D01*
X57733390Y-102530952D02*
X58304819Y-103102380D01*
X58304819Y-103102380D02*
X58304819Y-102483333D01*
X55234819Y-59911904D02*
X56044342Y-59911904D01*
X56044342Y-59911904D02*
X56139580Y-59864285D01*
X56139580Y-59864285D02*
X56187200Y-59816666D01*
X56187200Y-59816666D02*
X56234819Y-59721428D01*
X56234819Y-59721428D02*
X56234819Y-59530952D01*
X56234819Y-59530952D02*
X56187200Y-59435714D01*
X56187200Y-59435714D02*
X56139580Y-59388095D01*
X56139580Y-59388095D02*
X56044342Y-59340476D01*
X56044342Y-59340476D02*
X55234819Y-59340476D01*
X55330057Y-58911904D02*
X55282438Y-58864285D01*
X55282438Y-58864285D02*
X55234819Y-58769047D01*
X55234819Y-58769047D02*
X55234819Y-58530952D01*
X55234819Y-58530952D02*
X55282438Y-58435714D01*
X55282438Y-58435714D02*
X55330057Y-58388095D01*
X55330057Y-58388095D02*
X55425295Y-58340476D01*
X55425295Y-58340476D02*
X55520533Y-58340476D01*
X55520533Y-58340476D02*
X55663390Y-58388095D01*
X55663390Y-58388095D02*
X56234819Y-58959523D01*
X56234819Y-58959523D02*
X56234819Y-58340476D01*
X64804819Y-91911904D02*
X65614342Y-91911904D01*
X65614342Y-91911904D02*
X65709580Y-91864285D01*
X65709580Y-91864285D02*
X65757200Y-91816666D01*
X65757200Y-91816666D02*
X65804819Y-91721428D01*
X65804819Y-91721428D02*
X65804819Y-91530952D01*
X65804819Y-91530952D02*
X65757200Y-91435714D01*
X65757200Y-91435714D02*
X65709580Y-91388095D01*
X65709580Y-91388095D02*
X65614342Y-91340476D01*
X65614342Y-91340476D02*
X64804819Y-91340476D01*
X65138152Y-90435714D02*
X65804819Y-90435714D01*
X64757200Y-90673809D02*
X65471485Y-90911904D01*
X65471485Y-90911904D02*
X65471485Y-90292857D01*
X62785057Y-56966554D02*
X62737438Y-57061792D01*
X62737438Y-57061792D02*
X62642200Y-57157030D01*
X62642200Y-57157030D02*
X62499342Y-57299887D01*
X62499342Y-57299887D02*
X62451723Y-57395125D01*
X62451723Y-57395125D02*
X62451723Y-57490363D01*
X62689819Y-57442744D02*
X62642200Y-57537982D01*
X62642200Y-57537982D02*
X62546961Y-57633220D01*
X62546961Y-57633220D02*
X62356485Y-57680839D01*
X62356485Y-57680839D02*
X62023152Y-57680839D01*
X62023152Y-57680839D02*
X61832676Y-57633220D01*
X61832676Y-57633220D02*
X61737438Y-57537982D01*
X61737438Y-57537982D02*
X61689819Y-57442744D01*
X61689819Y-57442744D02*
X61689819Y-57252268D01*
X61689819Y-57252268D02*
X61737438Y-57157030D01*
X61737438Y-57157030D02*
X61832676Y-57061792D01*
X61832676Y-57061792D02*
X62023152Y-57014173D01*
X62023152Y-57014173D02*
X62356485Y-57014173D01*
X62356485Y-57014173D02*
X62546961Y-57061792D01*
X62546961Y-57061792D02*
X62642200Y-57157030D01*
X62642200Y-57157030D02*
X62689819Y-57252268D01*
X62689819Y-57252268D02*
X62689819Y-57442744D01*
X62689819Y-56061792D02*
X62689819Y-56633220D01*
X62689819Y-56347506D02*
X61689819Y-56347506D01*
X61689819Y-56347506D02*
X61832676Y-56442744D01*
X61832676Y-56442744D02*
X61927914Y-56537982D01*
X61927914Y-56537982D02*
X61975533Y-56633220D01*
X76224819Y-65701904D02*
X77034342Y-65701904D01*
X77034342Y-65701904D02*
X77129580Y-65654285D01*
X77129580Y-65654285D02*
X77177200Y-65606666D01*
X77177200Y-65606666D02*
X77224819Y-65511428D01*
X77224819Y-65511428D02*
X77224819Y-65320952D01*
X77224819Y-65320952D02*
X77177200Y-65225714D01*
X77177200Y-65225714D02*
X77129580Y-65178095D01*
X77129580Y-65178095D02*
X77034342Y-65130476D01*
X77034342Y-65130476D02*
X76224819Y-65130476D01*
X76224819Y-64749523D02*
X76224819Y-64130476D01*
X76224819Y-64130476D02*
X76605771Y-64463809D01*
X76605771Y-64463809D02*
X76605771Y-64320952D01*
X76605771Y-64320952D02*
X76653390Y-64225714D01*
X76653390Y-64225714D02*
X76701009Y-64178095D01*
X76701009Y-64178095D02*
X76796247Y-64130476D01*
X76796247Y-64130476D02*
X77034342Y-64130476D01*
X77034342Y-64130476D02*
X77129580Y-64178095D01*
X77129580Y-64178095D02*
X77177200Y-64225714D01*
X77177200Y-64225714D02*
X77224819Y-64320952D01*
X77224819Y-64320952D02*
X77224819Y-64606666D01*
X77224819Y-64606666D02*
X77177200Y-64701904D01*
X77177200Y-64701904D02*
X77129580Y-64749523D01*
D11*
%TO.C,U1*%
X63175000Y-95360000D02*
X63175000Y-96360000D01*
X63175000Y-95360000D02*
X64675000Y-95360000D01*
X63175000Y-121210000D02*
X63175000Y-115010000D01*
X81575000Y-95360000D02*
X80075000Y-95360000D01*
X81575000Y-96360000D02*
X81575000Y-95360000D01*
X81575000Y-121210000D02*
X63175000Y-121210000D01*
X81575000Y-121210000D02*
X81575000Y-115010000D01*
X81575000Y-114835000D02*
X81575000Y-114335000D01*
X82075000Y-114335000D01*
X81575000Y-114835000D01*
G36*
X81575000Y-114835000D02*
G01*
X81575000Y-114335000D01*
X82075000Y-114335000D01*
X81575000Y-114835000D01*
G37*
%TO.C,J5*%
X52135000Y-76195000D02*
X52880000Y-76195000D01*
X52135000Y-76930000D02*
X52135000Y-76195000D01*
X52135000Y-77665000D02*
X52135000Y-79540000D01*
X52135000Y-77665000D02*
X52194435Y-77665000D01*
X52135000Y-79540000D02*
X52469970Y-79540000D01*
X53290030Y-79540000D02*
X53625000Y-79540000D01*
X53565565Y-77665000D02*
X53625000Y-77665000D01*
X53625000Y-77665000D02*
X53625000Y-79540000D01*
%TO.C,C24*%
X86425000Y-56551252D02*
X86425000Y-56028748D01*
X84955000Y-56551252D02*
X84955000Y-56028748D01*
%TO.C,D2*%
X62650000Y-73020000D02*
X63960000Y-73020000D01*
X62650000Y-71800000D02*
X63960000Y-71800000D01*
X62650000Y-71800000D02*
X62650000Y-73020000D01*
%TO.C,D3*%
X84680000Y-97930000D02*
X84680000Y-99240000D01*
X84680000Y-97930000D02*
X83460000Y-97930000D01*
X83460000Y-97930000D02*
X83460000Y-99240000D01*
%TO.C,D8*%
X53560000Y-73010000D02*
X53560000Y-71790000D01*
X53560000Y-73010000D02*
X52250000Y-73010000D01*
X53560000Y-71790000D02*
X52250000Y-71790000D01*
%TO.C,D10*%
X84680000Y-97490000D02*
X84680000Y-96180000D01*
X83460000Y-97490000D02*
X84680000Y-97490000D01*
X83460000Y-97490000D02*
X83460000Y-96180000D01*
%TO.C,D11*%
X85240000Y-95230000D02*
X85240000Y-93920000D01*
X84020000Y-95230000D02*
X85240000Y-95230000D01*
X84020000Y-95230000D02*
X84020000Y-93920000D01*
%TO.C,J3*%
X94710000Y-101930000D02*
X94710000Y-92530000D01*
X92810000Y-101930000D02*
X94710000Y-101930000D01*
X92810000Y-92530000D02*
X94710000Y-92530000D01*
X88910000Y-101930000D02*
X90910000Y-101930000D01*
X88910000Y-92530000D02*
X90910000Y-92530000D01*
%TO.C,J4*%
X51465000Y-59305000D02*
X51465000Y-58430000D01*
X51524435Y-59305000D02*
X51465000Y-59305000D01*
X51799970Y-58430000D02*
X51465000Y-58430000D01*
X52955000Y-58430000D02*
X52620030Y-58430000D01*
X52955000Y-59305000D02*
X52895565Y-59305000D01*
X52955000Y-59305000D02*
X52955000Y-58430000D01*
X52955000Y-60040000D02*
X52955000Y-60775000D01*
X52955000Y-60775000D02*
X52210000Y-60775000D01*
%TO.C,U5*%
X85545000Y-54530000D02*
X85545000Y-54170000D01*
X85905000Y-54170000D01*
X85545000Y-54530000D01*
G36*
X85545000Y-54530000D02*
G01*
X85545000Y-54170000D01*
X85905000Y-54170000D01*
X85545000Y-54530000D01*
G37*
D12*
X85545000Y-51470000D02*
X85545000Y-51620000D01*
X85545000Y-51460000D02*
X85395000Y-51460000D01*
X82995000Y-54170000D02*
X82845000Y-54170000D01*
X82845000Y-54170000D02*
X82845000Y-54020000D01*
X82845000Y-51470000D02*
X82995000Y-51470000D01*
X82845000Y-51470000D02*
X82845000Y-51620000D01*
D11*
%TO.C,J1*%
X61825000Y-73845000D02*
X61825000Y-72425000D01*
X61825000Y-72425000D02*
X61325000Y-72425000D01*
X61825000Y-61895000D02*
X61325000Y-61895000D01*
X61825000Y-60475000D02*
X61825000Y-61895000D01*
X61325000Y-72425000D02*
X61325000Y-71055000D01*
X61325000Y-63265000D02*
X63745000Y-63265000D01*
X61325000Y-61895000D02*
X61325000Y-63265000D01*
X58860000Y-73845000D02*
X61825000Y-73845000D01*
X58860000Y-60475000D02*
X61825000Y-60475000D01*
X56690000Y-73845000D02*
X54235000Y-73845000D01*
X56690000Y-60475000D02*
X54235000Y-60475000D01*
X54235000Y-73845000D02*
X54235000Y-71055000D01*
X54235000Y-60475000D02*
X54235000Y-63265000D01*
%TO.C,C13*%
X72432500Y-53092500D02*
X73220000Y-53092500D01*
X72826250Y-52698750D02*
X72826250Y-53486250D01*
X73460000Y-52594437D02*
X73460000Y-53880000D01*
X73460000Y-52594437D02*
X74524437Y-51530000D01*
X73460000Y-57285563D02*
X73460000Y-56000000D01*
X73460000Y-57285563D02*
X74524437Y-58350000D01*
X74524437Y-51530000D02*
X80280000Y-51530000D01*
X74524437Y-58350000D02*
X80280000Y-58350000D01*
X80280000Y-51530000D02*
X80280000Y-53880000D01*
X80280000Y-58350000D02*
X80280000Y-56000000D01*
%TO.C,D5*%
X57151250Y-81490000D02*
X54466250Y-81490000D01*
X54466250Y-83410000D02*
X57151250Y-83410000D01*
X54466250Y-81490000D02*
X54466250Y-83410000D01*
%TO.C,R5*%
X59378641Y-82830000D02*
X59071359Y-82830000D01*
X59378641Y-82070000D02*
X59071359Y-82070000D01*
%TO.C,R2*%
X59378641Y-85540000D02*
X59071359Y-85540000D01*
X59378641Y-84780000D02*
X59071359Y-84780000D01*
%TO.C,D4*%
X57151250Y-84200000D02*
X54466250Y-84200000D01*
X54466250Y-86120000D02*
X57151250Y-86120000D01*
X54466250Y-84200000D02*
X54466250Y-86120000D01*
%TO.C,R11*%
X59378641Y-88080000D02*
X59071359Y-88080000D01*
X59378641Y-87320000D02*
X59071359Y-87320000D01*
%TO.C,D1*%
X57151250Y-86740000D02*
X54466250Y-86740000D01*
X54466250Y-88660000D02*
X57151250Y-88660000D01*
X54466250Y-86740000D02*
X54466250Y-88660000D01*
%TO.C,R21*%
X59378641Y-90730000D02*
X59071359Y-90730000D01*
X59378641Y-89970000D02*
X59071359Y-89970000D01*
%TO.C,D6*%
X57151250Y-89390000D02*
X54466250Y-89390000D01*
X54466250Y-91310000D02*
X57151250Y-91310000D01*
X54466250Y-89390000D02*
X54466250Y-91310000D01*
%TO.C,R20*%
X59378641Y-93360000D02*
X59071359Y-93360000D01*
X59378641Y-92600000D02*
X59071359Y-92600000D01*
%TO.C,D7*%
X57151250Y-92020000D02*
X54466250Y-92020000D01*
X54466250Y-93940000D02*
X57151250Y-93940000D01*
X54466250Y-92020000D02*
X54466250Y-93940000D01*
D10*
%TO.C,D9*%
X56008750Y-95090000D02*
G75*
G02*
X55948750Y-95090000I-30000J0D01*
G01*
X55948750Y-95090000D02*
G75*
G02*
X56008750Y-95090000I30000J0D01*
G01*
D11*
%TO.C,R19*%
X63493641Y-86940000D02*
X63186359Y-86940000D01*
X63493641Y-87700000D02*
X63186359Y-87700000D01*
%TO.C,C17*%
X63010000Y-89414636D02*
X63010000Y-89695796D01*
X64030000Y-89414636D02*
X64030000Y-89695796D01*
%TO.C,C15*%
X66415580Y-83865000D02*
X66134420Y-83865000D01*
X66415580Y-84885000D02*
X66134420Y-84885000D01*
%TO.C,R22*%
X62870000Y-76818641D02*
X62870000Y-76511359D01*
X63630000Y-76818641D02*
X63630000Y-76511359D01*
D13*
%TO.C,L2*%
X70950200Y-83690300D02*
X70950200Y-90853100D01*
X70950200Y-90853100D02*
X77909800Y-90853100D01*
X77909800Y-83690300D02*
X70950200Y-83690300D01*
X77909800Y-90853100D02*
X77909800Y-83690300D01*
D14*
%TO.C,U6*%
X67675000Y-79575000D02*
G75*
G02*
X67475000Y-79575000I-100000J0D01*
G01*
X67475000Y-79575000D02*
G75*
G02*
X67675000Y-79575000I100000J0D01*
G01*
D11*
%TO.C,C1*%
X85550000Y-112114420D02*
X85550000Y-112395580D01*
X86570000Y-112114420D02*
X86570000Y-112395580D01*
%TO.C,C4*%
X60601252Y-54335000D02*
X60078748Y-54335000D01*
X60601252Y-55805000D02*
X60078748Y-55805000D01*
%TO.C,C2*%
X84870000Y-105410580D02*
X84870000Y-105129420D01*
X85890000Y-105410580D02*
X85890000Y-105129420D01*
%TO.C,C11*%
X75566252Y-59090000D02*
X74143748Y-59090000D01*
X75566252Y-60910000D02*
X74143748Y-60910000D01*
%TO.C,C23*%
X83170000Y-56220580D02*
X83170000Y-55939420D01*
X84190000Y-56220580D02*
X84190000Y-55939420D01*
%TO.C,SW1*%
X85800000Y-78350000D02*
X85800000Y-72350000D01*
X90350000Y-72250000D02*
X87750000Y-72250000D01*
X90350000Y-78450000D02*
X87750000Y-78450000D01*
X91350000Y-70250000D02*
X92350000Y-70250000D01*
X92300000Y-78250000D02*
X92300000Y-72450000D01*
X92350000Y-70250000D02*
X92350000Y-71250000D01*
%TO.C,R23*%
X63186359Y-85700000D02*
X63493641Y-85700000D01*
X63186359Y-86460000D02*
X63493641Y-86460000D01*
%TO.C,SW2*%
X85825000Y-67625000D02*
X85825000Y-61625000D01*
X90375000Y-61525000D02*
X87775000Y-61525000D01*
X90375000Y-67725000D02*
X87775000Y-67725000D01*
X91375000Y-59525000D02*
X92375000Y-59525000D01*
X92325000Y-67525000D02*
X92325000Y-61725000D01*
X92375000Y-59525000D02*
X92375000Y-60525000D01*
D10*
%TO.C,D2_2*%
X64640000Y-66900000D02*
X64640000Y-71200000D01*
X64640000Y-66900000D02*
X70450000Y-66900000D01*
X64640000Y-71200000D02*
X70450000Y-71200000D01*
D11*
%TO.C,C10*%
X80498748Y-86530000D02*
X81921252Y-86530000D01*
X80498748Y-88350000D02*
X81921252Y-88350000D01*
%TO.C,L1*%
X73100000Y-66950000D02*
X76000000Y-66950000D01*
X73100000Y-78770000D02*
X73100000Y-66950000D01*
X76000000Y-78770000D02*
X73100000Y-78770000D01*
X80520000Y-66950000D02*
X83420000Y-66950000D01*
X83420000Y-66950000D02*
X83420000Y-78770000D01*
X83420000Y-78770000D02*
X80520000Y-78770000D01*
%TO.C,C8*%
X68390000Y-85386252D02*
X68390000Y-84863748D01*
X69860000Y-85386252D02*
X69860000Y-84863748D01*
%TO.C,C18*%
X68415000Y-88488748D02*
X68415000Y-89011252D01*
X69885000Y-88488748D02*
X69885000Y-89011252D01*
%TO.C,R7*%
X84096359Y-62095000D02*
X84403641Y-62095000D01*
X84096359Y-62855000D02*
X84403641Y-62855000D01*
%TO.C,J2*%
X55455000Y-102365000D02*
X55455000Y-99490000D01*
X55514435Y-102365000D02*
X55455000Y-102365000D01*
X55789970Y-99490000D02*
X55455000Y-99490000D01*
X56945000Y-99490000D02*
X56610030Y-99490000D01*
X56945000Y-102365000D02*
X56885565Y-102365000D01*
X56945000Y-102365000D02*
X56945000Y-99490000D01*
X56945000Y-103100000D02*
X56945000Y-103835000D01*
X56945000Y-103835000D02*
X56200000Y-103835000D01*
%TO.C,C19*%
X60581252Y-51995000D02*
X60058748Y-51995000D01*
X60581252Y-53465000D02*
X60058748Y-53465000D01*
%TO.C,C26*%
X68790000Y-73990580D02*
X68790000Y-73709420D01*
X69810000Y-73990580D02*
X69810000Y-73709420D01*
%TO.C,R10*%
X65118641Y-76770000D02*
X64811359Y-76770000D01*
X65118641Y-77530000D02*
X64811359Y-77530000D01*
%TO.C,R9*%
X62850000Y-83773641D02*
X62850000Y-83466359D01*
X63610000Y-83773641D02*
X63610000Y-83466359D01*
%TO.C,C30*%
X66511252Y-81465000D02*
X65988748Y-81465000D01*
X66511252Y-82935000D02*
X65988748Y-82935000D01*
%TO.C,C3*%
X84685000Y-109141252D02*
X84685000Y-108618748D01*
X86155000Y-109141252D02*
X86155000Y-108618748D01*
%TO.C,C20*%
X82590000Y-112717164D02*
X82590000Y-112932836D01*
X83310000Y-112717164D02*
X83310000Y-112932836D01*
%TO.C,R4*%
X89188641Y-102830000D02*
X88881359Y-102830000D01*
X89188641Y-103590000D02*
X88881359Y-103590000D01*
%TO.C,C12*%
X78809420Y-59050000D02*
X79090580Y-59050000D01*
X78809420Y-60070000D02*
X79090580Y-60070000D01*
%TO.C,C27*%
X70265000Y-80913748D02*
X70265000Y-81436252D01*
X71735000Y-80913748D02*
X71735000Y-81436252D01*
%TO.C,R12*%
X70861359Y-76845000D02*
X71168641Y-76845000D01*
X70861359Y-77605000D02*
X71168641Y-77605000D01*
%TO.C,C32*%
X66590580Y-79740000D02*
X66309420Y-79740000D01*
X66590580Y-80760000D02*
X66309420Y-80760000D01*
%TO.C,R6*%
X84363641Y-58420000D02*
X84056359Y-58420000D01*
X84363641Y-59180000D02*
X84056359Y-59180000D01*
%TO.C,C6*%
X70415000Y-59334420D02*
X70415000Y-59615580D01*
X71435000Y-59334420D02*
X71435000Y-59615580D01*
%TO.C,R18*%
X84403641Y-60895000D02*
X84096359Y-60895000D01*
X84403641Y-61655000D02*
X84096359Y-61655000D01*
%TO.C,C22*%
X80488748Y-83710000D02*
X81911252Y-83710000D01*
X80488748Y-85530000D02*
X81911252Y-85530000D01*
%TO.C,R13*%
X71168641Y-77995000D02*
X70861359Y-77995000D01*
X71168641Y-78755000D02*
X70861359Y-78755000D01*
D15*
%TO.C,U2*%
X64450000Y-57965000D02*
X67450000Y-57965000D01*
X64450000Y-61035000D02*
X67450000Y-61035000D01*
D14*
X62530000Y-58245000D02*
G75*
G02*
X62330000Y-58245000I-100000J0D01*
G01*
X62330000Y-58245000D02*
G75*
G02*
X62530000Y-58245000I100000J0D01*
G01*
D11*
%TO.C,C9*%
X75571252Y-61770000D02*
X74148748Y-61770000D01*
X75571252Y-63590000D02*
X74148748Y-63590000D01*
%TO.C,R15*%
X80990000Y-57706359D02*
X80990000Y-58013641D01*
X81750000Y-57706359D02*
X81750000Y-58013641D01*
%TO.C,C16*%
X79200580Y-64570000D02*
X78919420Y-64570000D01*
X79200580Y-65590000D02*
X78919420Y-65590000D01*
%TO.C,R3*%
X89208641Y-90830000D02*
X88901359Y-90830000D01*
X89208641Y-91590000D02*
X88901359Y-91590000D01*
%TO.C,C31*%
X63963748Y-73740000D02*
X64486252Y-73740000D01*
X63963748Y-75210000D02*
X64486252Y-75210000D01*
%TO.C,C29*%
X64615580Y-77990000D02*
X64334420Y-77990000D01*
X64615580Y-79010000D02*
X64334420Y-79010000D01*
D13*
%TO.C,U4*%
X64614774Y-87547808D02*
X64614774Y-89910008D01*
X64614774Y-89910008D02*
X65202825Y-89910008D01*
X65799874Y-90057111D02*
X65799874Y-89750705D01*
X66896923Y-89910008D02*
X67484974Y-89910008D01*
X67484974Y-87547808D02*
X64614774Y-87547808D01*
X67484974Y-89910008D02*
X67484974Y-87547808D01*
D14*
%TO.C,Q1*%
X63030000Y-51710000D02*
X71370000Y-51710000D01*
X63030000Y-56920000D02*
X63030000Y-51710000D01*
X63030000Y-56920000D02*
X71370000Y-56920000D01*
X71370000Y-56920000D02*
X71370000Y-51710000D01*
D16*
X62525000Y-52409990D02*
G75*
G02*
X62275000Y-52409990I-125000J0D01*
G01*
X62275000Y-52409990D02*
G75*
G02*
X62525000Y-52409990I125000J0D01*
G01*
D11*
%TO.C,C25*%
X66465000Y-73936252D02*
X66465000Y-73413748D01*
X67935000Y-73936252D02*
X67935000Y-73413748D01*
%TO.C,C28*%
X68440000Y-80834420D02*
X68440000Y-81115580D01*
X69460000Y-80834420D02*
X69460000Y-81115580D01*
%TO.C,C21*%
X83850000Y-112114420D02*
X83850000Y-112395580D01*
X84870000Y-112114420D02*
X84870000Y-112395580D01*
%TO.C,C5*%
X77464420Y-93350000D02*
X77745580Y-93350000D01*
X77464420Y-94370000D02*
X77745580Y-94370000D01*
%TO.C,C14*%
X66185580Y-85825216D02*
X65904420Y-85825216D01*
X66185580Y-86845216D02*
X65904420Y-86845216D01*
%TO.C,R1*%
X86211359Y-58420000D02*
X86518641Y-58420000D01*
X86211359Y-59180000D02*
X86518641Y-59180000D01*
%TO.C,R16*%
X81983641Y-59125000D02*
X81676359Y-59125000D01*
X81983641Y-59885000D02*
X81676359Y-59885000D01*
%TO.C,R17*%
X84393641Y-59620000D02*
X84086359Y-59620000D01*
X84393641Y-60380000D02*
X84086359Y-60380000D01*
D10*
%TO.C,D2_1*%
X64640000Y-61975000D02*
X64640000Y-66275000D01*
X64640000Y-61975000D02*
X70450000Y-61975000D01*
X64640000Y-66275000D02*
X70450000Y-66275000D01*
D11*
%TO.C,R14*%
X81077500Y-61447742D02*
X81077500Y-61922258D01*
X82122500Y-61447742D02*
X82122500Y-61922258D01*
D10*
%TO.C,U3*%
X77650000Y-60639998D02*
X77900002Y-60639998D01*
X77650000Y-60889998D02*
X77650000Y-60639998D01*
X77650000Y-63890000D02*
X77650000Y-63640000D01*
X77650000Y-63890000D02*
X77900002Y-63890000D01*
X80250000Y-60639998D02*
X80500002Y-60639998D01*
X80250000Y-63890000D02*
X80500002Y-63890000D01*
X80500002Y-60889998D02*
X80500002Y-60639998D01*
X80500002Y-63890000D02*
X80500002Y-63640000D01*
D16*
X77450003Y-61337500D02*
G75*
G02*
X77200001Y-61337500I-125001J0D01*
G01*
X77200001Y-61337500D02*
G75*
G02*
X77450003Y-61337500I125001J0D01*
G01*
D11*
%TO.C,R8*%
X62952500Y-81262258D02*
X62952500Y-80787742D01*
X63997500Y-81262258D02*
X63997500Y-80787742D01*
%TO.C,C7*%
X70615000Y-73861252D02*
X70615000Y-73338748D01*
X72085000Y-73861252D02*
X72085000Y-73338748D01*
%TD*%
%LPC*%
D17*
%TO.C,U6*%
X67175000Y-77175000D02*
X66475000Y-77175000D01*
X66475000Y-76875000D01*
X67175000Y-76875000D01*
X67175000Y-77175000D01*
G36*
X67175000Y-77175000D02*
G01*
X66475000Y-77175000D01*
X66475000Y-76875000D01*
X67175000Y-76875000D01*
X67175000Y-77175000D01*
G37*
X67175000Y-77675000D02*
X66475000Y-77675000D01*
X66475000Y-77375000D01*
X67175000Y-77375000D01*
X67175000Y-77675000D01*
G36*
X67175000Y-77675000D02*
G01*
X66475000Y-77675000D01*
X66475000Y-77375000D01*
X67175000Y-77375000D01*
X67175000Y-77675000D01*
G37*
X67175000Y-78175000D02*
X66475000Y-78175000D01*
X66475000Y-77875000D01*
X67175000Y-77875000D01*
X67175000Y-78175000D01*
G36*
X67175000Y-78175000D02*
G01*
X66475000Y-78175000D01*
X66475000Y-77875000D01*
X67175000Y-77875000D01*
X67175000Y-78175000D01*
G37*
X67175000Y-78675000D02*
X66475000Y-78675000D01*
X66475000Y-78375000D01*
X67175000Y-78375000D01*
X67175000Y-78675000D01*
G36*
X67175000Y-78675000D02*
G01*
X66475000Y-78675000D01*
X66475000Y-78375000D01*
X67175000Y-78375000D01*
X67175000Y-78675000D01*
G37*
X67875000Y-77675000D02*
X67375000Y-77675000D01*
X67375000Y-76525000D01*
X67875000Y-76525000D01*
X67875000Y-77675000D01*
G36*
X67875000Y-77675000D02*
G01*
X67375000Y-77675000D01*
X67375000Y-76525000D01*
X67875000Y-76525000D01*
X67875000Y-77675000D01*
G37*
X67875000Y-79025000D02*
X67375000Y-79025000D01*
X67375000Y-77875000D01*
X67875000Y-77875000D01*
X67875000Y-79025000D01*
G36*
X67875000Y-79025000D02*
G01*
X67375000Y-79025000D01*
X67375000Y-77875000D01*
X67875000Y-77875000D01*
X67875000Y-79025000D01*
G37*
X68575000Y-77675000D02*
X68075000Y-77675000D01*
X68075000Y-76525000D01*
X68575000Y-76525000D01*
X68575000Y-77675000D01*
G36*
X68575000Y-77675000D02*
G01*
X68075000Y-77675000D01*
X68075000Y-76525000D01*
X68575000Y-76525000D01*
X68575000Y-77675000D01*
G37*
X68575000Y-79025000D02*
X68075000Y-79025000D01*
X68075000Y-77875000D01*
X68575000Y-77875000D01*
X68575000Y-79025000D01*
G36*
X68575000Y-79025000D02*
G01*
X68075000Y-79025000D01*
X68075000Y-77875000D01*
X68575000Y-77875000D01*
X68575000Y-79025000D01*
G37*
X69475000Y-77175000D02*
X68775000Y-77175000D01*
X68775000Y-76875000D01*
X69475000Y-76875000D01*
X69475000Y-77175000D01*
G36*
X69475000Y-77175000D02*
G01*
X68775000Y-77175000D01*
X68775000Y-76875000D01*
X69475000Y-76875000D01*
X69475000Y-77175000D01*
G37*
X69475000Y-77675000D02*
X68775000Y-77675000D01*
X68775000Y-77375000D01*
X69475000Y-77375000D01*
X69475000Y-77675000D01*
G36*
X69475000Y-77675000D02*
G01*
X68775000Y-77675000D01*
X68775000Y-77375000D01*
X69475000Y-77375000D01*
X69475000Y-77675000D01*
G37*
X69475000Y-78175000D02*
X68775000Y-78175000D01*
X68775000Y-77875000D01*
X69475000Y-77875000D01*
X69475000Y-78175000D01*
G36*
X69475000Y-78175000D02*
G01*
X68775000Y-78175000D01*
X68775000Y-77875000D01*
X69475000Y-77875000D01*
X69475000Y-78175000D01*
G37*
X69475000Y-78675000D02*
X68775000Y-78675000D01*
X68775000Y-78375000D01*
X69475000Y-78375000D01*
X69475000Y-78675000D01*
G36*
X69475000Y-78675000D02*
G01*
X68775000Y-78675000D01*
X68775000Y-78375000D01*
X69475000Y-78375000D01*
X69475000Y-78675000D01*
G37*
D18*
%TO.C,Q1*%
G36*
X64980000Y-52110000D02*
G01*
X64979990Y-55250000D01*
X64364990Y-55249990D01*
X64365000Y-52109990D01*
X64980000Y-52110000D01*
G37*
G36*
X69625000Y-52110030D02*
G01*
X69624980Y-56520030D01*
X66074990Y-56519990D01*
X66075000Y-52110000D01*
X69625000Y-52110030D01*
G37*
%TO.C,U3*%
G36*
X78425000Y-63019999D02*
G01*
X78475000Y-63069999D01*
X78475002Y-63664999D01*
X78425000Y-63714999D01*
X78275003Y-63714999D01*
X78225003Y-63664999D01*
X78225000Y-63464999D01*
X78125000Y-63364999D01*
X77925001Y-63364999D01*
X77875001Y-63314999D01*
X77875001Y-63069999D01*
X77925001Y-63019996D01*
X78425000Y-63019999D01*
G37*
G36*
X79924999Y-60864999D02*
G01*
X79924999Y-61064999D01*
X80025002Y-61164999D01*
X80225001Y-61164999D01*
X80275001Y-61214999D01*
X80275001Y-61314998D01*
X80225001Y-61365001D01*
X79675000Y-61364998D01*
X79625000Y-61314998D01*
X79625000Y-60864999D01*
X79675000Y-60814999D01*
X79874999Y-60814999D01*
X79924999Y-60864999D01*
G37*
G36*
X79048003Y-62050999D02*
G01*
X79112001Y-62103999D01*
X79144000Y-62114999D01*
X80225001Y-62114999D01*
X80275001Y-62164999D01*
X80275001Y-62364999D01*
X80225001Y-62414999D01*
X79144000Y-62414999D01*
X79112001Y-62425999D01*
X79048003Y-62478999D01*
X79016002Y-62490000D01*
X77925001Y-62489997D01*
X77875001Y-62440000D01*
X77875001Y-62089998D01*
X77925001Y-62040001D01*
X79016002Y-62039998D01*
X79048003Y-62050999D01*
G37*
%TD*%
D19*
%TO.C,FID4*%
X44000000Y-105000000D03*
%TD*%
%TO.C,FID3*%
X44000000Y-59000000D03*
%TD*%
%TO.C,FID2*%
X103000000Y-59000000D03*
%TD*%
%TO.C,FID1*%
X103000000Y-105000000D03*
%TD*%
D20*
%TO.C,U1*%
X81125000Y-113570000D03*
X81125000Y-112300000D03*
X81125000Y-111030000D03*
X81125000Y-109760000D03*
X81125000Y-108490000D03*
X81125000Y-107220000D03*
X81125000Y-105950000D03*
X81125000Y-104680000D03*
X81125000Y-103410000D03*
X81125000Y-102140000D03*
X81125000Y-100870000D03*
X81125000Y-99600000D03*
X81125000Y-98330000D03*
X81125000Y-97060000D03*
D21*
X79360000Y-95810000D03*
X78090000Y-95810000D03*
X76820000Y-95810000D03*
X75550000Y-95810000D03*
X74280000Y-95810000D03*
X73010000Y-95810000D03*
X71740000Y-95810000D03*
X70470000Y-95810000D03*
X69200000Y-95810000D03*
X67930000Y-95810000D03*
X66660000Y-95810000D03*
X65390000Y-95810000D03*
D20*
X63625000Y-97060000D03*
X63625000Y-98330000D03*
X63625000Y-99600000D03*
X63625000Y-100870000D03*
X63625000Y-102140000D03*
X63625000Y-103410000D03*
X63625000Y-104680000D03*
X63625000Y-105950000D03*
X63625000Y-107220000D03*
X63625000Y-108490000D03*
X63625000Y-109760000D03*
X63625000Y-111030000D03*
X63625000Y-112300000D03*
X63625000Y-113570000D03*
D22*
X75275000Y-106550000D03*
X75275000Y-105150000D03*
X74575000Y-107250000D03*
X74575000Y-105850000D03*
X74575000Y-104450000D03*
X73875000Y-106550000D03*
D23*
X73875000Y-105850000D03*
D22*
X73875000Y-105150000D03*
X73175000Y-107250000D03*
X73175000Y-105850000D03*
X73175000Y-104450000D03*
X72475000Y-106550000D03*
X72475000Y-105150000D03*
%TD*%
D24*
%TO.C,J5*%
X52880000Y-76930000D03*
D25*
X52880000Y-77930000D03*
X52880000Y-78930000D03*
%TD*%
D26*
%TO.C,C24*%
X85690000Y-55340000D03*
X85690000Y-57240000D03*
%TD*%
D27*
%TO.C,D2*%
X63810000Y-72410000D03*
X63110000Y-72410000D03*
%TD*%
D28*
%TO.C,D3*%
X84070000Y-99090000D03*
X84070000Y-98390000D03*
%TD*%
D29*
%TO.C,D8*%
X52400000Y-72400000D03*
X53100000Y-72400000D03*
%TD*%
D30*
%TO.C,D10*%
X84070000Y-96330000D03*
X84070000Y-97030000D03*
%TD*%
%TO.C,D11*%
X84630000Y-94070000D03*
X84630000Y-94770000D03*
%TD*%
D31*
%TO.C,J3*%
X91860000Y-92910000D03*
D32*
X87680000Y-92910000D03*
D31*
X91860000Y-101550000D03*
D32*
X87680000Y-101550000D03*
D33*
X86765000Y-100480000D03*
X86765000Y-99680000D03*
D34*
X86765000Y-98980000D03*
X86765000Y-97980000D03*
X86765000Y-96480000D03*
X86765000Y-95480000D03*
D33*
X86765000Y-94780000D03*
X86765000Y-93980000D03*
X86765000Y-93980000D03*
X86765000Y-94780000D03*
D34*
X86765000Y-95980000D03*
X86765000Y-96980000D03*
X86765000Y-97480000D03*
X86765000Y-98480000D03*
D33*
X86765000Y-99680000D03*
X86765000Y-100480000D03*
D35*
X88210000Y-94340000D03*
X88210000Y-100120000D03*
%TD*%
D25*
%TO.C,J4*%
X52210000Y-59040000D03*
D24*
X52210000Y-60040000D03*
%TD*%
D36*
%TO.C,U5*%
X85170000Y-51795000D03*
X84520000Y-51795000D03*
X83870000Y-51795000D03*
X83220000Y-51795000D03*
X83220000Y-53845000D03*
X83870000Y-53845000D03*
X84520000Y-53845000D03*
X85170000Y-53845000D03*
%TD*%
D37*
%TO.C,J1*%
X57775000Y-74045000D03*
X57775000Y-60275000D03*
D38*
X53075000Y-70160000D03*
X53075000Y-67160000D03*
X53075000Y-64160000D03*
X62475000Y-70160000D03*
X62475000Y-67160000D03*
X62475000Y-64160000D03*
%TD*%
D39*
%TO.C,C13*%
X74170000Y-54940000D03*
X79570000Y-54940000D03*
%TD*%
D40*
%TO.C,D5*%
X57088750Y-82450000D03*
X55213750Y-82450000D03*
%TD*%
D41*
%TO.C,R5*%
X58715000Y-82450000D03*
X59735000Y-82450000D03*
%TD*%
%TO.C,R2*%
X58715000Y-85160000D03*
X59735000Y-85160000D03*
%TD*%
D40*
%TO.C,D4*%
X57088750Y-85160000D03*
X55213750Y-85160000D03*
%TD*%
D41*
%TO.C,R11*%
X58715000Y-87700000D03*
X59735000Y-87700000D03*
%TD*%
D40*
%TO.C,D1*%
X57088750Y-87700000D03*
X55213750Y-87700000D03*
%TD*%
D41*
%TO.C,R21*%
X58715000Y-90350000D03*
X59735000Y-90350000D03*
%TD*%
D40*
%TO.C,D6*%
X57088750Y-90350000D03*
X55213750Y-90350000D03*
%TD*%
D41*
%TO.C,R20*%
X58715000Y-92980000D03*
X59735000Y-92980000D03*
%TD*%
D40*
%TO.C,D7*%
X57088750Y-92980000D03*
X55213750Y-92980000D03*
%TD*%
D42*
%TO.C,D9*%
X56928750Y-96040000D03*
X55428750Y-96040000D03*
X56928750Y-95140000D03*
X55428750Y-95140000D03*
%TD*%
D41*
%TO.C,R19*%
X63850000Y-87320000D03*
X62830000Y-87320000D03*
%TD*%
D43*
%TO.C,C17*%
X63520000Y-88780216D03*
X63520000Y-90330216D03*
%TD*%
D44*
%TO.C,C15*%
X67050000Y-84375000D03*
X65500000Y-84375000D03*
%TD*%
D45*
%TO.C,R22*%
X63250000Y-77175000D03*
X63250000Y-76155000D03*
%TD*%
D46*
%TO.C,L2*%
X74430000Y-89443400D03*
X74430000Y-85100000D03*
%TD*%
D47*
%TO.C,H3*%
X90000000Y-110000000D03*
D48*
X90000000Y-110000000D03*
%TD*%
D43*
%TO.C,C1*%
X86060000Y-111480000D03*
X86060000Y-113030000D03*
%TD*%
D49*
%TO.C,C4*%
X61290000Y-55070000D03*
X59390000Y-55070000D03*
%TD*%
D50*
%TO.C,C2*%
X85380000Y-106045000D03*
X85380000Y-104495000D03*
%TD*%
D51*
%TO.C,C11*%
X76330000Y-60000000D03*
X73380000Y-60000000D03*
%TD*%
D50*
%TO.C,C23*%
X83680000Y-56855000D03*
X83680000Y-55305000D03*
%TD*%
D52*
%TO.C,SW1*%
X91300000Y-71350000D03*
X91300000Y-79350000D03*
X86800000Y-71350000D03*
X86800000Y-79350000D03*
%TD*%
D53*
%TO.C,R23*%
X62830000Y-86080000D03*
X63850000Y-86080000D03*
%TD*%
D52*
%TO.C,SW2*%
X91325000Y-60625000D03*
X91325000Y-68625000D03*
X86825000Y-60625000D03*
X86825000Y-68625000D03*
%TD*%
D54*
%TO.C,D2_2*%
X66150000Y-69050000D03*
X70450000Y-69050000D03*
%TD*%
D55*
%TO.C,C10*%
X79735000Y-87440000D03*
X82685000Y-87440000D03*
%TD*%
D56*
%TO.C,L1*%
X78260000Y-68110000D03*
X78260000Y-77610000D03*
%TD*%
D26*
%TO.C,C8*%
X69125000Y-86075000D03*
X69125000Y-84175000D03*
%TD*%
D57*
%TO.C,C18*%
X69150000Y-87800000D03*
X69150000Y-89700000D03*
%TD*%
D53*
%TO.C,R7*%
X83740000Y-62475000D03*
X84760000Y-62475000D03*
%TD*%
D58*
%TO.C,J2*%
X56200000Y-103100000D03*
D59*
X56200000Y-102100000D03*
X56200000Y-101100000D03*
X56200000Y-100100000D03*
%TD*%
D49*
%TO.C,C19*%
X61270000Y-52730000D03*
X59370000Y-52730000D03*
%TD*%
D50*
%TO.C,C26*%
X69300000Y-74625000D03*
X69300000Y-73075000D03*
%TD*%
D41*
%TO.C,R10*%
X65475000Y-77150000D03*
X64455000Y-77150000D03*
%TD*%
D45*
%TO.C,R9*%
X63230000Y-84130000D03*
X63230000Y-83110000D03*
%TD*%
D49*
%TO.C,C30*%
X67200000Y-82200000D03*
X65300000Y-82200000D03*
%TD*%
D26*
%TO.C,C3*%
X85420000Y-109830000D03*
X85420000Y-107930000D03*
%TD*%
D60*
%TO.C,C20*%
X82950000Y-112345000D03*
X82950000Y-113305000D03*
%TD*%
D41*
%TO.C,R4*%
X89545000Y-103210000D03*
X88525000Y-103210000D03*
%TD*%
D61*
%TO.C,C12*%
X78175000Y-59560000D03*
X79725000Y-59560000D03*
%TD*%
D57*
%TO.C,C27*%
X71000000Y-80225000D03*
X71000000Y-82125000D03*
%TD*%
D53*
%TO.C,R12*%
X70505000Y-77225000D03*
X71525000Y-77225000D03*
%TD*%
D44*
%TO.C,C32*%
X67225000Y-80250000D03*
X65675000Y-80250000D03*
%TD*%
D41*
%TO.C,R6*%
X84720000Y-58800000D03*
X83700000Y-58800000D03*
%TD*%
D43*
%TO.C,C6*%
X70925000Y-58700000D03*
X70925000Y-60250000D03*
%TD*%
D41*
%TO.C,R18*%
X84760000Y-61275000D03*
X83740000Y-61275000D03*
%TD*%
D55*
%TO.C,C22*%
X79725000Y-84620000D03*
X82675000Y-84620000D03*
%TD*%
D41*
%TO.C,R13*%
X71525000Y-78375000D03*
X70505000Y-78375000D03*
%TD*%
D62*
%TO.C,U2*%
X63800000Y-58525000D03*
X63800000Y-59175000D03*
X63800000Y-59825000D03*
X63800000Y-60475000D03*
X68100000Y-60475000D03*
X68100000Y-59825000D03*
X68100000Y-59175000D03*
X68100000Y-58525000D03*
%TD*%
D51*
%TO.C,C9*%
X76335000Y-62680000D03*
X73385000Y-62680000D03*
%TD*%
D47*
%TO.C,H2*%
X90000000Y-55000000D03*
D48*
X90000000Y-55000000D03*
%TD*%
D63*
%TO.C,R15*%
X81370000Y-57350000D03*
X81370000Y-58370000D03*
%TD*%
D44*
%TO.C,C16*%
X79835000Y-65080000D03*
X78285000Y-65080000D03*
%TD*%
D41*
%TO.C,R3*%
X89565000Y-91210000D03*
X88545000Y-91210000D03*
%TD*%
D64*
%TO.C,C31*%
X63275000Y-74475000D03*
X65175000Y-74475000D03*
%TD*%
D44*
%TO.C,C29*%
X65250000Y-78500000D03*
X63700000Y-78500000D03*
%TD*%
D65*
%TO.C,U4*%
X65799748Y-89275000D03*
X66299874Y-89275016D03*
X66800000Y-89275000D03*
D66*
X66800000Y-88335216D03*
D65*
X66299874Y-88182800D03*
D66*
X65799748Y-88335216D03*
D67*
X65224874Y-88228782D03*
X65224874Y-88728908D03*
X65224874Y-89229034D03*
%TD*%
D68*
%TO.C,Q1*%
X64205000Y-52410000D03*
D69*
X64205000Y-53680000D03*
X64205000Y-54950000D03*
X64205000Y-56220000D03*
D70*
X70300000Y-56220000D03*
D69*
X70300000Y-54950000D03*
X70300000Y-53680000D03*
X70300000Y-52410000D03*
%TD*%
D26*
%TO.C,C25*%
X67200000Y-74625000D03*
X67200000Y-72725000D03*
%TD*%
D43*
%TO.C,C28*%
X68950000Y-80200000D03*
X68950000Y-81750000D03*
%TD*%
%TO.C,C21*%
X84360000Y-111480000D03*
X84360000Y-113030000D03*
%TD*%
D47*
%TO.C,H4*%
X55000000Y-110000000D03*
D48*
X55000000Y-110000000D03*
%TD*%
D61*
%TO.C,C5*%
X76830000Y-93860000D03*
X78380000Y-93860000D03*
%TD*%
D44*
%TO.C,C14*%
X66820000Y-86335216D03*
X65270000Y-86335216D03*
%TD*%
D53*
%TO.C,R1*%
X85855000Y-58800000D03*
X86875000Y-58800000D03*
%TD*%
D41*
%TO.C,R16*%
X82340000Y-59505000D03*
X81320000Y-59505000D03*
%TD*%
%TO.C,R17*%
X84750000Y-60000000D03*
X83730000Y-60000000D03*
%TD*%
D54*
%TO.C,D2_1*%
X66150000Y-64125000D03*
X70450000Y-64125000D03*
%TD*%
D71*
%TO.C,R14*%
X81600000Y-60860000D03*
X81600000Y-62510000D03*
%TD*%
D72*
%TO.C,U3*%
X78287502Y-61322499D03*
D73*
X78287502Y-63227499D03*
D74*
X79000000Y-63389998D03*
D75*
X79762500Y-63577498D03*
D76*
X79950001Y-62789999D03*
X79950001Y-61739999D03*
D77*
X79762498Y-60952500D03*
D74*
X79000000Y-61140000D03*
%TD*%
D78*
%TO.C,R8*%
X63475000Y-81850000D03*
X63475000Y-80200000D03*
%TD*%
D47*
%TO.C,H1*%
X55000000Y-55000000D03*
D48*
X55000000Y-55000000D03*
%TD*%
D26*
%TO.C,C7*%
X71350000Y-74550000D03*
X71350000Y-72650000D03*
%TD*%
%LPD*%
M02*
