%TF.GenerationSoftware,KiCad,Pcbnew,9.0.3*%
%TF.CreationDate,2025-12-03T23:50:38-08:00*%
%TF.ProjectId,AS 3,41532033-2e6b-4696-9361-645f70636258,V3*%
%TF.SameCoordinates,Original*%
%TF.FileFunction,Legend,Bot*%
%TF.FilePolarity,Positive*%
%FSLAX46Y46*%
G04 Gerber Fmt 4.6, Leading zero omitted, Abs format (unit mm)*
G04 Created by KiCad (PCBNEW 9.0.3) date 2025-12-03 23:50:38*
%MOMM*%
%LPD*%
G01*
G04 APERTURE LIST*
%ADD10C,0.150000*%
%ADD11R,0.830000X0.830000*%
%ADD12C,0.830000*%
%ADD13O,1.600000X1.000000*%
%ADD14O,2.100000X1.000000*%
%ADD15C,0.650000*%
%ADD16C,3.600000*%
%ADD17C,5.600000*%
%ADD18R,0.840000X0.840000*%
%ADD19C,0.840000*%
G04 APERTURE END LIST*
D10*
X93239819Y-75865713D02*
X92239819Y-75865713D01*
X93192200Y-75865713D02*
X93239819Y-75770475D01*
X93239819Y-75770475D02*
X93239819Y-75579999D01*
X93239819Y-75579999D02*
X93192200Y-75484761D01*
X93192200Y-75484761D02*
X93144580Y-75437142D01*
X93144580Y-75437142D02*
X93049342Y-75389523D01*
X93049342Y-75389523D02*
X92763628Y-75389523D01*
X92763628Y-75389523D02*
X92668390Y-75437142D01*
X92668390Y-75437142D02*
X92620771Y-75484761D01*
X92620771Y-75484761D02*
X92573152Y-75579999D01*
X92573152Y-75579999D02*
X92573152Y-75770475D01*
X92573152Y-75770475D02*
X92620771Y-75865713D01*
X93192200Y-76722856D02*
X93239819Y-76627618D01*
X93239819Y-76627618D02*
X93239819Y-76437142D01*
X93239819Y-76437142D02*
X93192200Y-76341904D01*
X93192200Y-76341904D02*
X93096961Y-76294285D01*
X93096961Y-76294285D02*
X92716009Y-76294285D01*
X92716009Y-76294285D02*
X92620771Y-76341904D01*
X92620771Y-76341904D02*
X92573152Y-76437142D01*
X92573152Y-76437142D02*
X92573152Y-76627618D01*
X92573152Y-76627618D02*
X92620771Y-76722856D01*
X92620771Y-76722856D02*
X92716009Y-76770475D01*
X92716009Y-76770475D02*
X92811247Y-76770475D01*
X92811247Y-76770475D02*
X92906485Y-76294285D01*
X93192200Y-77151428D02*
X93239819Y-77246666D01*
X93239819Y-77246666D02*
X93239819Y-77437142D01*
X93239819Y-77437142D02*
X93192200Y-77532380D01*
X93192200Y-77532380D02*
X93096961Y-77579999D01*
X93096961Y-77579999D02*
X93049342Y-77579999D01*
X93049342Y-77579999D02*
X92954104Y-77532380D01*
X92954104Y-77532380D02*
X92906485Y-77437142D01*
X92906485Y-77437142D02*
X92906485Y-77294285D01*
X92906485Y-77294285D02*
X92858866Y-77199047D01*
X92858866Y-77199047D02*
X92763628Y-77151428D01*
X92763628Y-77151428D02*
X92716009Y-77151428D01*
X92716009Y-77151428D02*
X92620771Y-77199047D01*
X92620771Y-77199047D02*
X92573152Y-77294285D01*
X92573152Y-77294285D02*
X92573152Y-77437142D01*
X92573152Y-77437142D02*
X92620771Y-77532380D01*
X93239819Y-78008571D02*
X92573152Y-78008571D01*
X92239819Y-78008571D02*
X92287438Y-77960952D01*
X92287438Y-77960952D02*
X92335057Y-78008571D01*
X92335057Y-78008571D02*
X92287438Y-78056190D01*
X92287438Y-78056190D02*
X92239819Y-78008571D01*
X92239819Y-78008571D02*
X92335057Y-78008571D01*
X92573152Y-78913332D02*
X93382676Y-78913332D01*
X93382676Y-78913332D02*
X93477914Y-78865713D01*
X93477914Y-78865713D02*
X93525533Y-78818094D01*
X93525533Y-78818094D02*
X93573152Y-78722856D01*
X93573152Y-78722856D02*
X93573152Y-78579999D01*
X93573152Y-78579999D02*
X93525533Y-78484761D01*
X93192200Y-78913332D02*
X93239819Y-78818094D01*
X93239819Y-78818094D02*
X93239819Y-78627618D01*
X93239819Y-78627618D02*
X93192200Y-78532380D01*
X93192200Y-78532380D02*
X93144580Y-78484761D01*
X93144580Y-78484761D02*
X93049342Y-78437142D01*
X93049342Y-78437142D02*
X92763628Y-78437142D01*
X92763628Y-78437142D02*
X92668390Y-78484761D01*
X92668390Y-78484761D02*
X92620771Y-78532380D01*
X92620771Y-78532380D02*
X92573152Y-78627618D01*
X92573152Y-78627618D02*
X92573152Y-78818094D01*
X92573152Y-78818094D02*
X92620771Y-78913332D01*
X92573152Y-79389523D02*
X93239819Y-79389523D01*
X92668390Y-79389523D02*
X92620771Y-79437142D01*
X92620771Y-79437142D02*
X92573152Y-79532380D01*
X92573152Y-79532380D02*
X92573152Y-79675237D01*
X92573152Y-79675237D02*
X92620771Y-79770475D01*
X92620771Y-79770475D02*
X92716009Y-79818094D01*
X92716009Y-79818094D02*
X93239819Y-79818094D01*
X93192200Y-80675237D02*
X93239819Y-80579999D01*
X93239819Y-80579999D02*
X93239819Y-80389523D01*
X93239819Y-80389523D02*
X93192200Y-80294285D01*
X93192200Y-80294285D02*
X93096961Y-80246666D01*
X93096961Y-80246666D02*
X92716009Y-80246666D01*
X92716009Y-80246666D02*
X92620771Y-80294285D01*
X92620771Y-80294285D02*
X92573152Y-80389523D01*
X92573152Y-80389523D02*
X92573152Y-80579999D01*
X92573152Y-80579999D02*
X92620771Y-80675237D01*
X92620771Y-80675237D02*
X92716009Y-80722856D01*
X92716009Y-80722856D02*
X92811247Y-80722856D01*
X92811247Y-80722856D02*
X92906485Y-80246666D01*
X93239819Y-81579999D02*
X92239819Y-81579999D01*
X93192200Y-81579999D02*
X93239819Y-81484761D01*
X93239819Y-81484761D02*
X93239819Y-81294285D01*
X93239819Y-81294285D02*
X93192200Y-81199047D01*
X93192200Y-81199047D02*
X93144580Y-81151428D01*
X93144580Y-81151428D02*
X93049342Y-81103809D01*
X93049342Y-81103809D02*
X92763628Y-81103809D01*
X92763628Y-81103809D02*
X92668390Y-81151428D01*
X92668390Y-81151428D02*
X92620771Y-81199047D01*
X92620771Y-81199047D02*
X92573152Y-81294285D01*
X92573152Y-81294285D02*
X92573152Y-81484761D01*
X92573152Y-81484761D02*
X92620771Y-81579999D01*
X93239819Y-82818095D02*
X92239819Y-82818095D01*
X92620771Y-82818095D02*
X92573152Y-82913333D01*
X92573152Y-82913333D02*
X92573152Y-83103809D01*
X92573152Y-83103809D02*
X92620771Y-83199047D01*
X92620771Y-83199047D02*
X92668390Y-83246666D01*
X92668390Y-83246666D02*
X92763628Y-83294285D01*
X92763628Y-83294285D02*
X93049342Y-83294285D01*
X93049342Y-83294285D02*
X93144580Y-83246666D01*
X93144580Y-83246666D02*
X93192200Y-83199047D01*
X93192200Y-83199047D02*
X93239819Y-83103809D01*
X93239819Y-83103809D02*
X93239819Y-82913333D01*
X93239819Y-82913333D02*
X93192200Y-82818095D01*
X92573152Y-83627619D02*
X93239819Y-83865714D01*
X92573152Y-84103809D02*
X93239819Y-83865714D01*
X93239819Y-83865714D02*
X93477914Y-83770476D01*
X93477914Y-83770476D02*
X93525533Y-83722857D01*
X93525533Y-83722857D02*
X93573152Y-83627619D01*
X93239819Y-85246667D02*
X92239819Y-85246667D01*
X92620771Y-85246667D02*
X92573152Y-85341905D01*
X92573152Y-85341905D02*
X92573152Y-85532381D01*
X92573152Y-85532381D02*
X92620771Y-85627619D01*
X92620771Y-85627619D02*
X92668390Y-85675238D01*
X92668390Y-85675238D02*
X92763628Y-85722857D01*
X92763628Y-85722857D02*
X93049342Y-85722857D01*
X93049342Y-85722857D02*
X93144580Y-85675238D01*
X93144580Y-85675238D02*
X93192200Y-85627619D01*
X93192200Y-85627619D02*
X93239819Y-85532381D01*
X93239819Y-85532381D02*
X93239819Y-85341905D01*
X93239819Y-85341905D02*
X93192200Y-85246667D01*
X93192200Y-86532381D02*
X93239819Y-86437143D01*
X93239819Y-86437143D02*
X93239819Y-86246667D01*
X93239819Y-86246667D02*
X93192200Y-86151429D01*
X93192200Y-86151429D02*
X93096961Y-86103810D01*
X93096961Y-86103810D02*
X92716009Y-86103810D01*
X92716009Y-86103810D02*
X92620771Y-86151429D01*
X92620771Y-86151429D02*
X92573152Y-86246667D01*
X92573152Y-86246667D02*
X92573152Y-86437143D01*
X92573152Y-86437143D02*
X92620771Y-86532381D01*
X92620771Y-86532381D02*
X92716009Y-86580000D01*
X92716009Y-86580000D02*
X92811247Y-86580000D01*
X92811247Y-86580000D02*
X92906485Y-86103810D01*
X93239819Y-87437143D02*
X92716009Y-87437143D01*
X92716009Y-87437143D02*
X92620771Y-87389524D01*
X92620771Y-87389524D02*
X92573152Y-87294286D01*
X92573152Y-87294286D02*
X92573152Y-87103810D01*
X92573152Y-87103810D02*
X92620771Y-87008572D01*
X93192200Y-87437143D02*
X93239819Y-87341905D01*
X93239819Y-87341905D02*
X93239819Y-87103810D01*
X93239819Y-87103810D02*
X93192200Y-87008572D01*
X93192200Y-87008572D02*
X93096961Y-86960953D01*
X93096961Y-86960953D02*
X93001723Y-86960953D01*
X93001723Y-86960953D02*
X92906485Y-87008572D01*
X92906485Y-87008572D02*
X92858866Y-87103810D01*
X92858866Y-87103810D02*
X92858866Y-87341905D01*
X92858866Y-87341905D02*
X92811247Y-87437143D01*
X93239819Y-87913334D02*
X92239819Y-87913334D01*
X92858866Y-88008572D02*
X93239819Y-88294286D01*
X92573152Y-88294286D02*
X92954104Y-87913334D01*
X93192200Y-89103810D02*
X93239819Y-89008572D01*
X93239819Y-89008572D02*
X93239819Y-88818096D01*
X93239819Y-88818096D02*
X93192200Y-88722858D01*
X93192200Y-88722858D02*
X93096961Y-88675239D01*
X93096961Y-88675239D02*
X92716009Y-88675239D01*
X92716009Y-88675239D02*
X92620771Y-88722858D01*
X92620771Y-88722858D02*
X92573152Y-88818096D01*
X92573152Y-88818096D02*
X92573152Y-89008572D01*
X92573152Y-89008572D02*
X92620771Y-89103810D01*
X92620771Y-89103810D02*
X92716009Y-89151429D01*
X92716009Y-89151429D02*
X92811247Y-89151429D01*
X92811247Y-89151429D02*
X92906485Y-88675239D01*
X93239819Y-89580001D02*
X92573152Y-89580001D01*
X92763628Y-89580001D02*
X92668390Y-89627620D01*
X92668390Y-89627620D02*
X92620771Y-89675239D01*
X92620771Y-89675239D02*
X92573152Y-89770477D01*
X92573152Y-89770477D02*
X92573152Y-89865715D01*
X72254104Y-65441660D02*
X72254104Y-65917850D01*
X72539819Y-65346422D02*
X71539819Y-65679755D01*
X71539819Y-65679755D02*
X72539819Y-66013088D01*
X72539819Y-66346422D02*
X71873152Y-66346422D01*
X71539819Y-66346422D02*
X71587438Y-66298803D01*
X71587438Y-66298803D02*
X71635057Y-66346422D01*
X71635057Y-66346422D02*
X71587438Y-66394041D01*
X71587438Y-66394041D02*
X71539819Y-66346422D01*
X71539819Y-66346422D02*
X71635057Y-66346422D01*
X72539819Y-66822612D02*
X71873152Y-66822612D01*
X72063628Y-66822612D02*
X71968390Y-66870231D01*
X71968390Y-66870231D02*
X71920771Y-66917850D01*
X71920771Y-66917850D02*
X71873152Y-67013088D01*
X71873152Y-67013088D02*
X71873152Y-67108326D01*
X72492200Y-68155946D02*
X72539819Y-68298803D01*
X72539819Y-68298803D02*
X72539819Y-68536898D01*
X72539819Y-68536898D02*
X72492200Y-68632136D01*
X72492200Y-68632136D02*
X72444580Y-68679755D01*
X72444580Y-68679755D02*
X72349342Y-68727374D01*
X72349342Y-68727374D02*
X72254104Y-68727374D01*
X72254104Y-68727374D02*
X72158866Y-68679755D01*
X72158866Y-68679755D02*
X72111247Y-68632136D01*
X72111247Y-68632136D02*
X72063628Y-68536898D01*
X72063628Y-68536898D02*
X72016009Y-68346422D01*
X72016009Y-68346422D02*
X71968390Y-68251184D01*
X71968390Y-68251184D02*
X71920771Y-68203565D01*
X71920771Y-68203565D02*
X71825533Y-68155946D01*
X71825533Y-68155946D02*
X71730295Y-68155946D01*
X71730295Y-68155946D02*
X71635057Y-68203565D01*
X71635057Y-68203565D02*
X71587438Y-68251184D01*
X71587438Y-68251184D02*
X71539819Y-68346422D01*
X71539819Y-68346422D02*
X71539819Y-68584517D01*
X71539819Y-68584517D02*
X71587438Y-68727374D01*
X72492200Y-69584517D02*
X72539819Y-69489279D01*
X72539819Y-69489279D02*
X72539819Y-69298803D01*
X72539819Y-69298803D02*
X72492200Y-69203565D01*
X72492200Y-69203565D02*
X72444580Y-69155946D01*
X72444580Y-69155946D02*
X72349342Y-69108327D01*
X72349342Y-69108327D02*
X72063628Y-69108327D01*
X72063628Y-69108327D02*
X71968390Y-69155946D01*
X71968390Y-69155946D02*
X71920771Y-69203565D01*
X71920771Y-69203565D02*
X71873152Y-69298803D01*
X71873152Y-69298803D02*
X71873152Y-69489279D01*
X71873152Y-69489279D02*
X71920771Y-69584517D01*
X72539819Y-70441660D02*
X72016009Y-70441660D01*
X72016009Y-70441660D02*
X71920771Y-70394041D01*
X71920771Y-70394041D02*
X71873152Y-70298803D01*
X71873152Y-70298803D02*
X71873152Y-70108327D01*
X71873152Y-70108327D02*
X71920771Y-70013089D01*
X72492200Y-70441660D02*
X72539819Y-70346422D01*
X72539819Y-70346422D02*
X72539819Y-70108327D01*
X72539819Y-70108327D02*
X72492200Y-70013089D01*
X72492200Y-70013089D02*
X72396961Y-69965470D01*
X72396961Y-69965470D02*
X72301723Y-69965470D01*
X72301723Y-69965470D02*
X72206485Y-70013089D01*
X72206485Y-70013089D02*
X72158866Y-70108327D01*
X72158866Y-70108327D02*
X72158866Y-70346422D01*
X72158866Y-70346422D02*
X72111247Y-70441660D01*
X72539819Y-71060708D02*
X72492200Y-70965470D01*
X72492200Y-70965470D02*
X72396961Y-70917851D01*
X72396961Y-70917851D02*
X71539819Y-70917851D01*
X72492200Y-71822613D02*
X72539819Y-71727375D01*
X72539819Y-71727375D02*
X72539819Y-71536899D01*
X72539819Y-71536899D02*
X72492200Y-71441661D01*
X72492200Y-71441661D02*
X72396961Y-71394042D01*
X72396961Y-71394042D02*
X72016009Y-71394042D01*
X72016009Y-71394042D02*
X71920771Y-71441661D01*
X71920771Y-71441661D02*
X71873152Y-71536899D01*
X71873152Y-71536899D02*
X71873152Y-71727375D01*
X71873152Y-71727375D02*
X71920771Y-71822613D01*
X71920771Y-71822613D02*
X72016009Y-71870232D01*
X72016009Y-71870232D02*
X72111247Y-71870232D01*
X72111247Y-71870232D02*
X72206485Y-71394042D01*
X72492200Y-72251185D02*
X72539819Y-72346423D01*
X72539819Y-72346423D02*
X72539819Y-72536899D01*
X72539819Y-72536899D02*
X72492200Y-72632137D01*
X72492200Y-72632137D02*
X72396961Y-72679756D01*
X72396961Y-72679756D02*
X72349342Y-72679756D01*
X72349342Y-72679756D02*
X72254104Y-72632137D01*
X72254104Y-72632137D02*
X72206485Y-72536899D01*
X72206485Y-72536899D02*
X72206485Y-72394042D01*
X72206485Y-72394042D02*
X72158866Y-72298804D01*
X72158866Y-72298804D02*
X72063628Y-72251185D01*
X72063628Y-72251185D02*
X72016009Y-72251185D01*
X72016009Y-72251185D02*
X71920771Y-72298804D01*
X71920771Y-72298804D02*
X71873152Y-72394042D01*
X71873152Y-72394042D02*
X71873152Y-72536899D01*
X71873152Y-72536899D02*
X71920771Y-72632137D01*
X71873152Y-73774995D02*
X72539819Y-74013090D01*
X72539819Y-74013090D02*
X71873152Y-74251185D01*
X71539819Y-74536900D02*
X71539819Y-75155947D01*
X71539819Y-75155947D02*
X71920771Y-74822614D01*
X71920771Y-74822614D02*
X71920771Y-74965471D01*
X71920771Y-74965471D02*
X71968390Y-75060709D01*
X71968390Y-75060709D02*
X72016009Y-75108328D01*
X72016009Y-75108328D02*
X72111247Y-75155947D01*
X72111247Y-75155947D02*
X72349342Y-75155947D01*
X72349342Y-75155947D02*
X72444580Y-75108328D01*
X72444580Y-75108328D02*
X72492200Y-75060709D01*
X72492200Y-75060709D02*
X72539819Y-74965471D01*
X72539819Y-74965471D02*
X72539819Y-74679757D01*
X72539819Y-74679757D02*
X72492200Y-74584519D01*
X72492200Y-74584519D02*
X72444580Y-74536900D01*
X73245001Y-65441660D02*
X73197382Y-65489279D01*
X73197382Y-65489279D02*
X73149763Y-65584517D01*
X73149763Y-65584517D02*
X73149763Y-65822612D01*
X73149763Y-65822612D02*
X73197382Y-65917850D01*
X73197382Y-65917850D02*
X73245001Y-65965469D01*
X73245001Y-65965469D02*
X73340239Y-66013088D01*
X73340239Y-66013088D02*
X73435477Y-66013088D01*
X73435477Y-66013088D02*
X73578334Y-65965469D01*
X73578334Y-65965469D02*
X74149763Y-65394041D01*
X74149763Y-65394041D02*
X74149763Y-66013088D01*
X73149763Y-66632136D02*
X73149763Y-66727374D01*
X73149763Y-66727374D02*
X73197382Y-66822612D01*
X73197382Y-66822612D02*
X73245001Y-66870231D01*
X73245001Y-66870231D02*
X73340239Y-66917850D01*
X73340239Y-66917850D02*
X73530715Y-66965469D01*
X73530715Y-66965469D02*
X73768810Y-66965469D01*
X73768810Y-66965469D02*
X73959286Y-66917850D01*
X73959286Y-66917850D02*
X74054524Y-66870231D01*
X74054524Y-66870231D02*
X74102144Y-66822612D01*
X74102144Y-66822612D02*
X74149763Y-66727374D01*
X74149763Y-66727374D02*
X74149763Y-66632136D01*
X74149763Y-66632136D02*
X74102144Y-66536898D01*
X74102144Y-66536898D02*
X74054524Y-66489279D01*
X74054524Y-66489279D02*
X73959286Y-66441660D01*
X73959286Y-66441660D02*
X73768810Y-66394041D01*
X73768810Y-66394041D02*
X73530715Y-66394041D01*
X73530715Y-66394041D02*
X73340239Y-66441660D01*
X73340239Y-66441660D02*
X73245001Y-66489279D01*
X73245001Y-66489279D02*
X73197382Y-66536898D01*
X73197382Y-66536898D02*
X73149763Y-66632136D01*
X73245001Y-67346422D02*
X73197382Y-67394041D01*
X73197382Y-67394041D02*
X73149763Y-67489279D01*
X73149763Y-67489279D02*
X73149763Y-67727374D01*
X73149763Y-67727374D02*
X73197382Y-67822612D01*
X73197382Y-67822612D02*
X73245001Y-67870231D01*
X73245001Y-67870231D02*
X73340239Y-67917850D01*
X73340239Y-67917850D02*
X73435477Y-67917850D01*
X73435477Y-67917850D02*
X73578334Y-67870231D01*
X73578334Y-67870231D02*
X74149763Y-67298803D01*
X74149763Y-67298803D02*
X74149763Y-67917850D01*
X73149763Y-68822612D02*
X73149763Y-68346422D01*
X73149763Y-68346422D02*
X73625953Y-68298803D01*
X73625953Y-68298803D02*
X73578334Y-68346422D01*
X73578334Y-68346422D02*
X73530715Y-68441660D01*
X73530715Y-68441660D02*
X73530715Y-68679755D01*
X73530715Y-68679755D02*
X73578334Y-68774993D01*
X73578334Y-68774993D02*
X73625953Y-68822612D01*
X73625953Y-68822612D02*
X73721191Y-68870231D01*
X73721191Y-68870231D02*
X73959286Y-68870231D01*
X73959286Y-68870231D02*
X74054524Y-68822612D01*
X74054524Y-68822612D02*
X74102144Y-68774993D01*
X74102144Y-68774993D02*
X74149763Y-68679755D01*
X74149763Y-68679755D02*
X74149763Y-68441660D01*
X74149763Y-68441660D02*
X74102144Y-68346422D01*
X74102144Y-68346422D02*
X74054524Y-68298803D01*
X73768810Y-69298803D02*
X73768810Y-70060708D01*
X74149763Y-71060707D02*
X74149763Y-70489279D01*
X74149763Y-70774993D02*
X73149763Y-70774993D01*
X73149763Y-70774993D02*
X73292620Y-70679755D01*
X73292620Y-70679755D02*
X73387858Y-70584517D01*
X73387858Y-70584517D02*
X73435477Y-70489279D01*
X73245001Y-71441660D02*
X73197382Y-71489279D01*
X73197382Y-71489279D02*
X73149763Y-71584517D01*
X73149763Y-71584517D02*
X73149763Y-71822612D01*
X73149763Y-71822612D02*
X73197382Y-71917850D01*
X73197382Y-71917850D02*
X73245001Y-71965469D01*
X73245001Y-71965469D02*
X73340239Y-72013088D01*
X73340239Y-72013088D02*
X73435477Y-72013088D01*
X73435477Y-72013088D02*
X73578334Y-71965469D01*
X73578334Y-71965469D02*
X74149763Y-71394041D01*
X74149763Y-71394041D02*
X74149763Y-72013088D01*
X73768810Y-72441660D02*
X73768810Y-73203565D01*
X73149763Y-73870231D02*
X73149763Y-73965469D01*
X73149763Y-73965469D02*
X73197382Y-74060707D01*
X73197382Y-74060707D02*
X73245001Y-74108326D01*
X73245001Y-74108326D02*
X73340239Y-74155945D01*
X73340239Y-74155945D02*
X73530715Y-74203564D01*
X73530715Y-74203564D02*
X73768810Y-74203564D01*
X73768810Y-74203564D02*
X73959286Y-74155945D01*
X73959286Y-74155945D02*
X74054524Y-74108326D01*
X74054524Y-74108326D02*
X74102144Y-74060707D01*
X74102144Y-74060707D02*
X74149763Y-73965469D01*
X74149763Y-73965469D02*
X74149763Y-73870231D01*
X74149763Y-73870231D02*
X74102144Y-73774993D01*
X74102144Y-73774993D02*
X74054524Y-73727374D01*
X74054524Y-73727374D02*
X73959286Y-73679755D01*
X73959286Y-73679755D02*
X73768810Y-73632136D01*
X73768810Y-73632136D02*
X73530715Y-73632136D01*
X73530715Y-73632136D02*
X73340239Y-73679755D01*
X73340239Y-73679755D02*
X73245001Y-73727374D01*
X73245001Y-73727374D02*
X73197382Y-73774993D01*
X73197382Y-73774993D02*
X73149763Y-73870231D01*
X74149763Y-75155945D02*
X74149763Y-74584517D01*
X74149763Y-74870231D02*
X73149763Y-74870231D01*
X73149763Y-74870231D02*
X73292620Y-74774993D01*
X73292620Y-74774993D02*
X73387858Y-74679755D01*
X73387858Y-74679755D02*
X73435477Y-74584517D01*
X75759707Y-66013088D02*
X75759707Y-65441660D01*
X75759707Y-65727374D02*
X74759707Y-65727374D01*
X74759707Y-65727374D02*
X74902564Y-65632136D01*
X74902564Y-65632136D02*
X74997802Y-65536898D01*
X74997802Y-65536898D02*
X75045421Y-65441660D01*
X74854945Y-66394041D02*
X74807326Y-66441660D01*
X74807326Y-66441660D02*
X74759707Y-66536898D01*
X74759707Y-66536898D02*
X74759707Y-66774993D01*
X74759707Y-66774993D02*
X74807326Y-66870231D01*
X74807326Y-66870231D02*
X74854945Y-66917850D01*
X74854945Y-66917850D02*
X74950183Y-66965469D01*
X74950183Y-66965469D02*
X75045421Y-66965469D01*
X75045421Y-66965469D02*
X75188278Y-66917850D01*
X75188278Y-66917850D02*
X75759707Y-66346422D01*
X75759707Y-66346422D02*
X75759707Y-66965469D01*
X74759707Y-67251184D02*
X75759707Y-67584517D01*
X75759707Y-67584517D02*
X74759707Y-67917850D01*
X75712088Y-68298803D02*
X75759707Y-68298803D01*
X75759707Y-68298803D02*
X75854945Y-68251184D01*
X75854945Y-68251184D02*
X75902564Y-68203565D01*
X74759707Y-69489279D02*
X75569230Y-69489279D01*
X75569230Y-69489279D02*
X75664468Y-69536898D01*
X75664468Y-69536898D02*
X75712088Y-69584517D01*
X75712088Y-69584517D02*
X75759707Y-69679755D01*
X75759707Y-69679755D02*
X75759707Y-69870231D01*
X75759707Y-69870231D02*
X75712088Y-69965469D01*
X75712088Y-69965469D02*
X75664468Y-70013088D01*
X75664468Y-70013088D02*
X75569230Y-70060707D01*
X75569230Y-70060707D02*
X74759707Y-70060707D01*
X75712088Y-70489279D02*
X75759707Y-70632136D01*
X75759707Y-70632136D02*
X75759707Y-70870231D01*
X75759707Y-70870231D02*
X75712088Y-70965469D01*
X75712088Y-70965469D02*
X75664468Y-71013088D01*
X75664468Y-71013088D02*
X75569230Y-71060707D01*
X75569230Y-71060707D02*
X75473992Y-71060707D01*
X75473992Y-71060707D02*
X75378754Y-71013088D01*
X75378754Y-71013088D02*
X75331135Y-70965469D01*
X75331135Y-70965469D02*
X75283516Y-70870231D01*
X75283516Y-70870231D02*
X75235897Y-70679755D01*
X75235897Y-70679755D02*
X75188278Y-70584517D01*
X75188278Y-70584517D02*
X75140659Y-70536898D01*
X75140659Y-70536898D02*
X75045421Y-70489279D01*
X75045421Y-70489279D02*
X74950183Y-70489279D01*
X74950183Y-70489279D02*
X74854945Y-70536898D01*
X74854945Y-70536898D02*
X74807326Y-70584517D01*
X74807326Y-70584517D02*
X74759707Y-70679755D01*
X74759707Y-70679755D02*
X74759707Y-70917850D01*
X74759707Y-70917850D02*
X74807326Y-71060707D01*
X75235897Y-71822612D02*
X75283516Y-71965469D01*
X75283516Y-71965469D02*
X75331135Y-72013088D01*
X75331135Y-72013088D02*
X75426373Y-72060707D01*
X75426373Y-72060707D02*
X75569230Y-72060707D01*
X75569230Y-72060707D02*
X75664468Y-72013088D01*
X75664468Y-72013088D02*
X75712088Y-71965469D01*
X75712088Y-71965469D02*
X75759707Y-71870231D01*
X75759707Y-71870231D02*
X75759707Y-71489279D01*
X75759707Y-71489279D02*
X74759707Y-71489279D01*
X74759707Y-71489279D02*
X74759707Y-71822612D01*
X74759707Y-71822612D02*
X74807326Y-71917850D01*
X74807326Y-71917850D02*
X74854945Y-71965469D01*
X74854945Y-71965469D02*
X74950183Y-72013088D01*
X74950183Y-72013088D02*
X75045421Y-72013088D01*
X75045421Y-72013088D02*
X75140659Y-71965469D01*
X75140659Y-71965469D02*
X75188278Y-71917850D01*
X75188278Y-71917850D02*
X75235897Y-71822612D01*
X75235897Y-71822612D02*
X75235897Y-71489279D01*
X75759707Y-73251184D02*
X74759707Y-73251184D01*
X75140659Y-73251184D02*
X75093040Y-73346422D01*
X75093040Y-73346422D02*
X75093040Y-73536898D01*
X75093040Y-73536898D02*
X75140659Y-73632136D01*
X75140659Y-73632136D02*
X75188278Y-73679755D01*
X75188278Y-73679755D02*
X75283516Y-73727374D01*
X75283516Y-73727374D02*
X75569230Y-73727374D01*
X75569230Y-73727374D02*
X75664468Y-73679755D01*
X75664468Y-73679755D02*
X75712088Y-73632136D01*
X75712088Y-73632136D02*
X75759707Y-73536898D01*
X75759707Y-73536898D02*
X75759707Y-73346422D01*
X75759707Y-73346422D02*
X75712088Y-73251184D01*
X75759707Y-74584517D02*
X75235897Y-74584517D01*
X75235897Y-74584517D02*
X75140659Y-74536898D01*
X75140659Y-74536898D02*
X75093040Y-74441660D01*
X75093040Y-74441660D02*
X75093040Y-74251184D01*
X75093040Y-74251184D02*
X75140659Y-74155946D01*
X75712088Y-74584517D02*
X75759707Y-74489279D01*
X75759707Y-74489279D02*
X75759707Y-74251184D01*
X75759707Y-74251184D02*
X75712088Y-74155946D01*
X75712088Y-74155946D02*
X75616849Y-74108327D01*
X75616849Y-74108327D02*
X75521611Y-74108327D01*
X75521611Y-74108327D02*
X75426373Y-74155946D01*
X75426373Y-74155946D02*
X75378754Y-74251184D01*
X75378754Y-74251184D02*
X75378754Y-74489279D01*
X75378754Y-74489279D02*
X75331135Y-74584517D01*
X75712088Y-75489279D02*
X75759707Y-75394041D01*
X75759707Y-75394041D02*
X75759707Y-75203565D01*
X75759707Y-75203565D02*
X75712088Y-75108327D01*
X75712088Y-75108327D02*
X75664468Y-75060708D01*
X75664468Y-75060708D02*
X75569230Y-75013089D01*
X75569230Y-75013089D02*
X75283516Y-75013089D01*
X75283516Y-75013089D02*
X75188278Y-75060708D01*
X75188278Y-75060708D02*
X75140659Y-75108327D01*
X75140659Y-75108327D02*
X75093040Y-75203565D01*
X75093040Y-75203565D02*
X75093040Y-75394041D01*
X75093040Y-75394041D02*
X75140659Y-75489279D01*
X75759707Y-75917851D02*
X74759707Y-75917851D01*
X75378754Y-76013089D02*
X75759707Y-76298803D01*
X75093040Y-76298803D02*
X75473992Y-75917851D01*
X75093040Y-77155946D02*
X75759707Y-77155946D01*
X75093040Y-76727375D02*
X75616849Y-76727375D01*
X75616849Y-76727375D02*
X75712088Y-76774994D01*
X75712088Y-76774994D02*
X75759707Y-76870232D01*
X75759707Y-76870232D02*
X75759707Y-77013089D01*
X75759707Y-77013089D02*
X75712088Y-77108327D01*
X75712088Y-77108327D02*
X75664468Y-77155946D01*
X75093040Y-77632137D02*
X76093040Y-77632137D01*
X75140659Y-77632137D02*
X75093040Y-77727375D01*
X75093040Y-77727375D02*
X75093040Y-77917851D01*
X75093040Y-77917851D02*
X75140659Y-78013089D01*
X75140659Y-78013089D02*
X75188278Y-78060708D01*
X75188278Y-78060708D02*
X75283516Y-78108327D01*
X75283516Y-78108327D02*
X75569230Y-78108327D01*
X75569230Y-78108327D02*
X75664468Y-78060708D01*
X75664468Y-78060708D02*
X75712088Y-78013089D01*
X75712088Y-78013089D02*
X75759707Y-77917851D01*
X75759707Y-77917851D02*
X75759707Y-77727375D01*
X75759707Y-77727375D02*
X75712088Y-77632137D01*
X77322032Y-65441660D02*
X77369651Y-65584517D01*
X77369651Y-65584517D02*
X77369651Y-65822612D01*
X77369651Y-65822612D02*
X77322032Y-65917850D01*
X77322032Y-65917850D02*
X77274412Y-65965469D01*
X77274412Y-65965469D02*
X77179174Y-66013088D01*
X77179174Y-66013088D02*
X77083936Y-66013088D01*
X77083936Y-66013088D02*
X76988698Y-65965469D01*
X76988698Y-65965469D02*
X76941079Y-65917850D01*
X76941079Y-65917850D02*
X76893460Y-65822612D01*
X76893460Y-65822612D02*
X76845841Y-65632136D01*
X76845841Y-65632136D02*
X76798222Y-65536898D01*
X76798222Y-65536898D02*
X76750603Y-65489279D01*
X76750603Y-65489279D02*
X76655365Y-65441660D01*
X76655365Y-65441660D02*
X76560127Y-65441660D01*
X76560127Y-65441660D02*
X76464889Y-65489279D01*
X76464889Y-65489279D02*
X76417270Y-65536898D01*
X76417270Y-65536898D02*
X76369651Y-65632136D01*
X76369651Y-65632136D02*
X76369651Y-65870231D01*
X76369651Y-65870231D02*
X76417270Y-66013088D01*
X77322032Y-66822612D02*
X77369651Y-66727374D01*
X77369651Y-66727374D02*
X77369651Y-66536898D01*
X77369651Y-66536898D02*
X77322032Y-66441660D01*
X77322032Y-66441660D02*
X77226793Y-66394041D01*
X77226793Y-66394041D02*
X76845841Y-66394041D01*
X76845841Y-66394041D02*
X76750603Y-66441660D01*
X76750603Y-66441660D02*
X76702984Y-66536898D01*
X76702984Y-66536898D02*
X76702984Y-66727374D01*
X76702984Y-66727374D02*
X76750603Y-66822612D01*
X76750603Y-66822612D02*
X76845841Y-66870231D01*
X76845841Y-66870231D02*
X76941079Y-66870231D01*
X76941079Y-66870231D02*
X77036317Y-66394041D01*
X76702984Y-67298803D02*
X77369651Y-67298803D01*
X76798222Y-67298803D02*
X76750603Y-67346422D01*
X76750603Y-67346422D02*
X76702984Y-67441660D01*
X76702984Y-67441660D02*
X76702984Y-67584517D01*
X76702984Y-67584517D02*
X76750603Y-67679755D01*
X76750603Y-67679755D02*
X76845841Y-67727374D01*
X76845841Y-67727374D02*
X77369651Y-67727374D01*
X77322032Y-68155946D02*
X77369651Y-68251184D01*
X77369651Y-68251184D02*
X77369651Y-68441660D01*
X77369651Y-68441660D02*
X77322032Y-68536898D01*
X77322032Y-68536898D02*
X77226793Y-68584517D01*
X77226793Y-68584517D02*
X77179174Y-68584517D01*
X77179174Y-68584517D02*
X77083936Y-68536898D01*
X77083936Y-68536898D02*
X77036317Y-68441660D01*
X77036317Y-68441660D02*
X77036317Y-68298803D01*
X77036317Y-68298803D02*
X76988698Y-68203565D01*
X76988698Y-68203565D02*
X76893460Y-68155946D01*
X76893460Y-68155946D02*
X76845841Y-68155946D01*
X76845841Y-68155946D02*
X76750603Y-68203565D01*
X76750603Y-68203565D02*
X76702984Y-68298803D01*
X76702984Y-68298803D02*
X76702984Y-68441660D01*
X76702984Y-68441660D02*
X76750603Y-68536898D01*
X77369651Y-69155946D02*
X77322032Y-69060708D01*
X77322032Y-69060708D02*
X77274412Y-69013089D01*
X77274412Y-69013089D02*
X77179174Y-68965470D01*
X77179174Y-68965470D02*
X76893460Y-68965470D01*
X76893460Y-68965470D02*
X76798222Y-69013089D01*
X76798222Y-69013089D02*
X76750603Y-69060708D01*
X76750603Y-69060708D02*
X76702984Y-69155946D01*
X76702984Y-69155946D02*
X76702984Y-69298803D01*
X76702984Y-69298803D02*
X76750603Y-69394041D01*
X76750603Y-69394041D02*
X76798222Y-69441660D01*
X76798222Y-69441660D02*
X76893460Y-69489279D01*
X76893460Y-69489279D02*
X77179174Y-69489279D01*
X77179174Y-69489279D02*
X77274412Y-69441660D01*
X77274412Y-69441660D02*
X77322032Y-69394041D01*
X77322032Y-69394041D02*
X77369651Y-69298803D01*
X77369651Y-69298803D02*
X77369651Y-69155946D01*
X77369651Y-69917851D02*
X76702984Y-69917851D01*
X76893460Y-69917851D02*
X76798222Y-69965470D01*
X76798222Y-69965470D02*
X76750603Y-70013089D01*
X76750603Y-70013089D02*
X76702984Y-70108327D01*
X76702984Y-70108327D02*
X76702984Y-70203565D01*
X77274412Y-70536899D02*
X77322032Y-70584518D01*
X77322032Y-70584518D02*
X77369651Y-70536899D01*
X77369651Y-70536899D02*
X77322032Y-70489280D01*
X77322032Y-70489280D02*
X77274412Y-70536899D01*
X77274412Y-70536899D02*
X77369651Y-70536899D01*
X76750603Y-70536899D02*
X76798222Y-70584518D01*
X76798222Y-70584518D02*
X76845841Y-70536899D01*
X76845841Y-70536899D02*
X76798222Y-70489280D01*
X76798222Y-70489280D02*
X76750603Y-70536899D01*
X76750603Y-70536899D02*
X76845841Y-70536899D01*
X76369651Y-71965470D02*
X76369651Y-72060708D01*
X76369651Y-72060708D02*
X76417270Y-72155946D01*
X76417270Y-72155946D02*
X76464889Y-72203565D01*
X76464889Y-72203565D02*
X76560127Y-72251184D01*
X76560127Y-72251184D02*
X76750603Y-72298803D01*
X76750603Y-72298803D02*
X76988698Y-72298803D01*
X76988698Y-72298803D02*
X77179174Y-72251184D01*
X77179174Y-72251184D02*
X77274412Y-72203565D01*
X77274412Y-72203565D02*
X77322032Y-72155946D01*
X77322032Y-72155946D02*
X77369651Y-72060708D01*
X77369651Y-72060708D02*
X77369651Y-71965470D01*
X77369651Y-71965470D02*
X77322032Y-71870232D01*
X77322032Y-71870232D02*
X77274412Y-71822613D01*
X77274412Y-71822613D02*
X77179174Y-71774994D01*
X77179174Y-71774994D02*
X76988698Y-71727375D01*
X76988698Y-71727375D02*
X76750603Y-71727375D01*
X76750603Y-71727375D02*
X76560127Y-71774994D01*
X76560127Y-71774994D02*
X76464889Y-71822613D01*
X76464889Y-71822613D02*
X76417270Y-71870232D01*
X76417270Y-71870232D02*
X76369651Y-71965470D01*
X77274412Y-72727375D02*
X77322032Y-72774994D01*
X77322032Y-72774994D02*
X77369651Y-72727375D01*
X77369651Y-72727375D02*
X77322032Y-72679756D01*
X77322032Y-72679756D02*
X77274412Y-72727375D01*
X77274412Y-72727375D02*
X77369651Y-72727375D01*
X76369651Y-73679755D02*
X76369651Y-73203565D01*
X76369651Y-73203565D02*
X76845841Y-73155946D01*
X76845841Y-73155946D02*
X76798222Y-73203565D01*
X76798222Y-73203565D02*
X76750603Y-73298803D01*
X76750603Y-73298803D02*
X76750603Y-73536898D01*
X76750603Y-73536898D02*
X76798222Y-73632136D01*
X76798222Y-73632136D02*
X76845841Y-73679755D01*
X76845841Y-73679755D02*
X76941079Y-73727374D01*
X76941079Y-73727374D02*
X77179174Y-73727374D01*
X77179174Y-73727374D02*
X77274412Y-73679755D01*
X77274412Y-73679755D02*
X77322032Y-73632136D01*
X77322032Y-73632136D02*
X77369651Y-73536898D01*
X77369651Y-73536898D02*
X77369651Y-73298803D01*
X77369651Y-73298803D02*
X77322032Y-73203565D01*
X77322032Y-73203565D02*
X77274412Y-73155946D01*
X76988698Y-74155946D02*
X76988698Y-74917851D01*
X76702984Y-75822612D02*
X77369651Y-75822612D01*
X76322032Y-75584517D02*
X77036317Y-75346422D01*
X77036317Y-75346422D02*
X77036317Y-75965469D01*
X77274412Y-76346422D02*
X77322032Y-76394041D01*
X77322032Y-76394041D02*
X77369651Y-76346422D01*
X77369651Y-76346422D02*
X77322032Y-76298803D01*
X77322032Y-76298803D02*
X77274412Y-76346422D01*
X77274412Y-76346422D02*
X77369651Y-76346422D01*
X76369651Y-77298802D02*
X76369651Y-76822612D01*
X76369651Y-76822612D02*
X76845841Y-76774993D01*
X76845841Y-76774993D02*
X76798222Y-76822612D01*
X76798222Y-76822612D02*
X76750603Y-76917850D01*
X76750603Y-76917850D02*
X76750603Y-77155945D01*
X76750603Y-77155945D02*
X76798222Y-77251183D01*
X76798222Y-77251183D02*
X76845841Y-77298802D01*
X76845841Y-77298802D02*
X76941079Y-77346421D01*
X76941079Y-77346421D02*
X77179174Y-77346421D01*
X77179174Y-77346421D02*
X77274412Y-77298802D01*
X77274412Y-77298802D02*
X77322032Y-77251183D01*
X77322032Y-77251183D02*
X77369651Y-77155945D01*
X77369651Y-77155945D02*
X77369651Y-76917850D01*
X77369651Y-76917850D02*
X77322032Y-76822612D01*
X77322032Y-76822612D02*
X77274412Y-76774993D01*
X76369651Y-77632136D02*
X77369651Y-77965469D01*
X77369651Y-77965469D02*
X76369651Y-78298802D01*
X77083936Y-79346422D02*
X77083936Y-79822612D01*
X77369651Y-79251184D02*
X76369651Y-79584517D01*
X76369651Y-79584517D02*
X77369651Y-79917850D01*
X76702984Y-80251184D02*
X77369651Y-80251184D01*
X76798222Y-80251184D02*
X76750603Y-80298803D01*
X76750603Y-80298803D02*
X76702984Y-80394041D01*
X76702984Y-80394041D02*
X76702984Y-80536898D01*
X76702984Y-80536898D02*
X76750603Y-80632136D01*
X76750603Y-80632136D02*
X76845841Y-80679755D01*
X76845841Y-80679755D02*
X77369651Y-80679755D01*
X77369651Y-81584517D02*
X76845841Y-81584517D01*
X76845841Y-81584517D02*
X76750603Y-81536898D01*
X76750603Y-81536898D02*
X76702984Y-81441660D01*
X76702984Y-81441660D02*
X76702984Y-81251184D01*
X76702984Y-81251184D02*
X76750603Y-81155946D01*
X77322032Y-81584517D02*
X77369651Y-81489279D01*
X77369651Y-81489279D02*
X77369651Y-81251184D01*
X77369651Y-81251184D02*
X77322032Y-81155946D01*
X77322032Y-81155946D02*
X77226793Y-81108327D01*
X77226793Y-81108327D02*
X77131555Y-81108327D01*
X77131555Y-81108327D02*
X77036317Y-81155946D01*
X77036317Y-81155946D02*
X76988698Y-81251184D01*
X76988698Y-81251184D02*
X76988698Y-81489279D01*
X76988698Y-81489279D02*
X76941079Y-81584517D01*
X77369651Y-82203565D02*
X77322032Y-82108327D01*
X77322032Y-82108327D02*
X77226793Y-82060708D01*
X77226793Y-82060708D02*
X76369651Y-82060708D01*
X77369651Y-82727375D02*
X77322032Y-82632137D01*
X77322032Y-82632137D02*
X77274412Y-82584518D01*
X77274412Y-82584518D02*
X77179174Y-82536899D01*
X77179174Y-82536899D02*
X76893460Y-82536899D01*
X76893460Y-82536899D02*
X76798222Y-82584518D01*
X76798222Y-82584518D02*
X76750603Y-82632137D01*
X76750603Y-82632137D02*
X76702984Y-82727375D01*
X76702984Y-82727375D02*
X76702984Y-82870232D01*
X76702984Y-82870232D02*
X76750603Y-82965470D01*
X76750603Y-82965470D02*
X76798222Y-83013089D01*
X76798222Y-83013089D02*
X76893460Y-83060708D01*
X76893460Y-83060708D02*
X77179174Y-83060708D01*
X77179174Y-83060708D02*
X77274412Y-83013089D01*
X77274412Y-83013089D02*
X77322032Y-82965470D01*
X77322032Y-82965470D02*
X77369651Y-82870232D01*
X77369651Y-82870232D02*
X77369651Y-82727375D01*
X76702984Y-83917851D02*
X77512508Y-83917851D01*
X77512508Y-83917851D02*
X77607746Y-83870232D01*
X77607746Y-83870232D02*
X77655365Y-83822613D01*
X77655365Y-83822613D02*
X77702984Y-83727375D01*
X77702984Y-83727375D02*
X77702984Y-83584518D01*
X77702984Y-83584518D02*
X77655365Y-83489280D01*
X77322032Y-83917851D02*
X77369651Y-83822613D01*
X77369651Y-83822613D02*
X77369651Y-83632137D01*
X77369651Y-83632137D02*
X77322032Y-83536899D01*
X77322032Y-83536899D02*
X77274412Y-83489280D01*
X77274412Y-83489280D02*
X77179174Y-83441661D01*
X77179174Y-83441661D02*
X76893460Y-83441661D01*
X76893460Y-83441661D02*
X76798222Y-83489280D01*
X76798222Y-83489280D02*
X76750603Y-83536899D01*
X76750603Y-83536899D02*
X76702984Y-83632137D01*
X76702984Y-83632137D02*
X76702984Y-83822613D01*
X76702984Y-83822613D02*
X76750603Y-83917851D01*
X78979595Y-65965469D02*
X78979595Y-65489279D01*
X78979595Y-65489279D02*
X77979595Y-65489279D01*
X78455785Y-66298803D02*
X78455785Y-66632136D01*
X78979595Y-66774993D02*
X78979595Y-66298803D01*
X78979595Y-66298803D02*
X77979595Y-66298803D01*
X77979595Y-66298803D02*
X77979595Y-66774993D01*
X78979595Y-67203565D02*
X77979595Y-67203565D01*
X77979595Y-67203565D02*
X77979595Y-67441660D01*
X77979595Y-67441660D02*
X78027214Y-67584517D01*
X78027214Y-67584517D02*
X78122452Y-67679755D01*
X78122452Y-67679755D02*
X78217690Y-67727374D01*
X78217690Y-67727374D02*
X78408166Y-67774993D01*
X78408166Y-67774993D02*
X78551023Y-67774993D01*
X78551023Y-67774993D02*
X78741499Y-67727374D01*
X78741499Y-67727374D02*
X78836737Y-67679755D01*
X78836737Y-67679755D02*
X78931976Y-67584517D01*
X78931976Y-67584517D02*
X78979595Y-67441660D01*
X78979595Y-67441660D02*
X78979595Y-67203565D01*
X78931976Y-68155946D02*
X78979595Y-68251184D01*
X78979595Y-68251184D02*
X78979595Y-68441660D01*
X78979595Y-68441660D02*
X78931976Y-68536898D01*
X78931976Y-68536898D02*
X78836737Y-68584517D01*
X78836737Y-68584517D02*
X78789118Y-68584517D01*
X78789118Y-68584517D02*
X78693880Y-68536898D01*
X78693880Y-68536898D02*
X78646261Y-68441660D01*
X78646261Y-68441660D02*
X78646261Y-68298803D01*
X78646261Y-68298803D02*
X78598642Y-68203565D01*
X78598642Y-68203565D02*
X78503404Y-68155946D01*
X78503404Y-68155946D02*
X78455785Y-68155946D01*
X78455785Y-68155946D02*
X78360547Y-68203565D01*
X78360547Y-68203565D02*
X78312928Y-68298803D01*
X78312928Y-68298803D02*
X78312928Y-68441660D01*
X78312928Y-68441660D02*
X78360547Y-68536898D01*
X78884356Y-69013089D02*
X78931976Y-69060708D01*
X78931976Y-69060708D02*
X78979595Y-69013089D01*
X78979595Y-69013089D02*
X78931976Y-68965470D01*
X78931976Y-68965470D02*
X78884356Y-69013089D01*
X78884356Y-69013089D02*
X78979595Y-69013089D01*
X78360547Y-69013089D02*
X78408166Y-69060708D01*
X78408166Y-69060708D02*
X78455785Y-69013089D01*
X78455785Y-69013089D02*
X78408166Y-68965470D01*
X78408166Y-68965470D02*
X78360547Y-69013089D01*
X78360547Y-69013089D02*
X78455785Y-69013089D01*
X78979595Y-70774993D02*
X78979595Y-70203565D01*
X78979595Y-70489279D02*
X77979595Y-70489279D01*
X77979595Y-70489279D02*
X78122452Y-70394041D01*
X78122452Y-70394041D02*
X78217690Y-70298803D01*
X78217690Y-70298803D02*
X78265309Y-70203565D01*
X78074833Y-71155946D02*
X78027214Y-71203565D01*
X78027214Y-71203565D02*
X77979595Y-71298803D01*
X77979595Y-71298803D02*
X77979595Y-71536898D01*
X77979595Y-71536898D02*
X78027214Y-71632136D01*
X78027214Y-71632136D02*
X78074833Y-71679755D01*
X78074833Y-71679755D02*
X78170071Y-71727374D01*
X78170071Y-71727374D02*
X78265309Y-71727374D01*
X78265309Y-71727374D02*
X78408166Y-71679755D01*
X78408166Y-71679755D02*
X78979595Y-71108327D01*
X78979595Y-71108327D02*
X78979595Y-71727374D01*
X77979595Y-72013089D02*
X78979595Y-72346422D01*
X78979595Y-72346422D02*
X77979595Y-72679755D01*
X79312928Y-73251184D02*
X77884356Y-73251184D01*
X77979595Y-74441660D02*
X77979595Y-73965470D01*
X77979595Y-73965470D02*
X78455785Y-73917851D01*
X78455785Y-73917851D02*
X78408166Y-73965470D01*
X78408166Y-73965470D02*
X78360547Y-74060708D01*
X78360547Y-74060708D02*
X78360547Y-74298803D01*
X78360547Y-74298803D02*
X78408166Y-74394041D01*
X78408166Y-74394041D02*
X78455785Y-74441660D01*
X78455785Y-74441660D02*
X78551023Y-74489279D01*
X78551023Y-74489279D02*
X78789118Y-74489279D01*
X78789118Y-74489279D02*
X78884356Y-74441660D01*
X78884356Y-74441660D02*
X78931976Y-74394041D01*
X78931976Y-74394041D02*
X78979595Y-74298803D01*
X78979595Y-74298803D02*
X78979595Y-74060708D01*
X78979595Y-74060708D02*
X78931976Y-73965470D01*
X78931976Y-73965470D02*
X78884356Y-73917851D01*
X77979595Y-74774994D02*
X78979595Y-75108327D01*
X78979595Y-75108327D02*
X77979595Y-75441660D01*
X79312928Y-76013089D02*
X77884356Y-76013089D01*
X77979595Y-76727375D02*
X78789118Y-76727375D01*
X78789118Y-76727375D02*
X78884356Y-76774994D01*
X78884356Y-76774994D02*
X78931976Y-76822613D01*
X78931976Y-76822613D02*
X78979595Y-76917851D01*
X78979595Y-76917851D02*
X78979595Y-77108327D01*
X78979595Y-77108327D02*
X78931976Y-77203565D01*
X78931976Y-77203565D02*
X78884356Y-77251184D01*
X78884356Y-77251184D02*
X78789118Y-77298803D01*
X78789118Y-77298803D02*
X77979595Y-77298803D01*
X78931976Y-77727375D02*
X78979595Y-77870232D01*
X78979595Y-77870232D02*
X78979595Y-78108327D01*
X78979595Y-78108327D02*
X78931976Y-78203565D01*
X78931976Y-78203565D02*
X78884356Y-78251184D01*
X78884356Y-78251184D02*
X78789118Y-78298803D01*
X78789118Y-78298803D02*
X78693880Y-78298803D01*
X78693880Y-78298803D02*
X78598642Y-78251184D01*
X78598642Y-78251184D02*
X78551023Y-78203565D01*
X78551023Y-78203565D02*
X78503404Y-78108327D01*
X78503404Y-78108327D02*
X78455785Y-77917851D01*
X78455785Y-77917851D02*
X78408166Y-77822613D01*
X78408166Y-77822613D02*
X78360547Y-77774994D01*
X78360547Y-77774994D02*
X78265309Y-77727375D01*
X78265309Y-77727375D02*
X78170071Y-77727375D01*
X78170071Y-77727375D02*
X78074833Y-77774994D01*
X78074833Y-77774994D02*
X78027214Y-77822613D01*
X78027214Y-77822613D02*
X77979595Y-77917851D01*
X77979595Y-77917851D02*
X77979595Y-78155946D01*
X77979595Y-78155946D02*
X78027214Y-78298803D01*
X78455785Y-79060708D02*
X78503404Y-79203565D01*
X78503404Y-79203565D02*
X78551023Y-79251184D01*
X78551023Y-79251184D02*
X78646261Y-79298803D01*
X78646261Y-79298803D02*
X78789118Y-79298803D01*
X78789118Y-79298803D02*
X78884356Y-79251184D01*
X78884356Y-79251184D02*
X78931976Y-79203565D01*
X78931976Y-79203565D02*
X78979595Y-79108327D01*
X78979595Y-79108327D02*
X78979595Y-78727375D01*
X78979595Y-78727375D02*
X77979595Y-78727375D01*
X77979595Y-78727375D02*
X77979595Y-79060708D01*
X77979595Y-79060708D02*
X78027214Y-79155946D01*
X78027214Y-79155946D02*
X78074833Y-79203565D01*
X78074833Y-79203565D02*
X78170071Y-79251184D01*
X78170071Y-79251184D02*
X78265309Y-79251184D01*
X78265309Y-79251184D02*
X78360547Y-79203565D01*
X78360547Y-79203565D02*
X78408166Y-79155946D01*
X78408166Y-79155946D02*
X78455785Y-79060708D01*
X78455785Y-79060708D02*
X78455785Y-78727375D01*
X79312928Y-79965470D02*
X77884356Y-79965470D01*
X78979595Y-80679756D02*
X77979595Y-80679756D01*
X77979595Y-80679756D02*
X78693880Y-81013089D01*
X78693880Y-81013089D02*
X77979595Y-81346422D01*
X77979595Y-81346422D02*
X78979595Y-81346422D01*
X77979595Y-81822613D02*
X78789118Y-81822613D01*
X78789118Y-81822613D02*
X78884356Y-81870232D01*
X78884356Y-81870232D02*
X78931976Y-81917851D01*
X78931976Y-81917851D02*
X78979595Y-82013089D01*
X78979595Y-82013089D02*
X78979595Y-82203565D01*
X78979595Y-82203565D02*
X78931976Y-82298803D01*
X78931976Y-82298803D02*
X78884356Y-82346422D01*
X78884356Y-82346422D02*
X78789118Y-82394041D01*
X78789118Y-82394041D02*
X77979595Y-82394041D01*
X77979595Y-82774994D02*
X78979595Y-83441660D01*
X77979595Y-83441660D02*
X78979595Y-82774994D01*
X79312928Y-84060708D02*
X77884356Y-84060708D01*
X77979595Y-84679756D02*
X77979595Y-85298803D01*
X77979595Y-85298803D02*
X78360547Y-84965470D01*
X78360547Y-84965470D02*
X78360547Y-85108327D01*
X78360547Y-85108327D02*
X78408166Y-85203565D01*
X78408166Y-85203565D02*
X78455785Y-85251184D01*
X78455785Y-85251184D02*
X78551023Y-85298803D01*
X78551023Y-85298803D02*
X78789118Y-85298803D01*
X78789118Y-85298803D02*
X78884356Y-85251184D01*
X78884356Y-85251184D02*
X78931976Y-85203565D01*
X78931976Y-85203565D02*
X78979595Y-85108327D01*
X78979595Y-85108327D02*
X78979595Y-84822613D01*
X78979595Y-84822613D02*
X78931976Y-84727375D01*
X78931976Y-84727375D02*
X78884356Y-84679756D01*
X77979595Y-85584518D02*
X78979595Y-85917851D01*
X78979595Y-85917851D02*
X77979595Y-86251184D01*
X77979595Y-86489280D02*
X77979595Y-87108327D01*
X77979595Y-87108327D02*
X78360547Y-86774994D01*
X78360547Y-86774994D02*
X78360547Y-86917851D01*
X78360547Y-86917851D02*
X78408166Y-87013089D01*
X78408166Y-87013089D02*
X78455785Y-87060708D01*
X78455785Y-87060708D02*
X78551023Y-87108327D01*
X78551023Y-87108327D02*
X78789118Y-87108327D01*
X78789118Y-87108327D02*
X78884356Y-87060708D01*
X78884356Y-87060708D02*
X78931976Y-87013089D01*
X78931976Y-87013089D02*
X78979595Y-86917851D01*
X78979595Y-86917851D02*
X78979595Y-86632137D01*
X78979595Y-86632137D02*
X78931976Y-86536899D01*
X78931976Y-86536899D02*
X78884356Y-86489280D01*
X79312928Y-87774994D02*
X77884356Y-87774994D01*
X78931976Y-88441661D02*
X78979595Y-88584518D01*
X78979595Y-88584518D02*
X78979595Y-88822613D01*
X78979595Y-88822613D02*
X78931976Y-88917851D01*
X78931976Y-88917851D02*
X78884356Y-88965470D01*
X78884356Y-88965470D02*
X78789118Y-89013089D01*
X78789118Y-89013089D02*
X78693880Y-89013089D01*
X78693880Y-89013089D02*
X78598642Y-88965470D01*
X78598642Y-88965470D02*
X78551023Y-88917851D01*
X78551023Y-88917851D02*
X78503404Y-88822613D01*
X78503404Y-88822613D02*
X78455785Y-88632137D01*
X78455785Y-88632137D02*
X78408166Y-88536899D01*
X78408166Y-88536899D02*
X78360547Y-88489280D01*
X78360547Y-88489280D02*
X78265309Y-88441661D01*
X78265309Y-88441661D02*
X78170071Y-88441661D01*
X78170071Y-88441661D02*
X78074833Y-88489280D01*
X78074833Y-88489280D02*
X78027214Y-88536899D01*
X78027214Y-88536899D02*
X77979595Y-88632137D01*
X77979595Y-88632137D02*
X77979595Y-88870232D01*
X77979595Y-88870232D02*
X78027214Y-89013089D01*
X78503404Y-89632137D02*
X78979595Y-89632137D01*
X77979595Y-89298804D02*
X78503404Y-89632137D01*
X78503404Y-89632137D02*
X77979595Y-89965470D01*
X78931976Y-90251185D02*
X78979595Y-90394042D01*
X78979595Y-90394042D02*
X78979595Y-90632137D01*
X78979595Y-90632137D02*
X78931976Y-90727375D01*
X78931976Y-90727375D02*
X78884356Y-90774994D01*
X78884356Y-90774994D02*
X78789118Y-90822613D01*
X78789118Y-90822613D02*
X78693880Y-90822613D01*
X78693880Y-90822613D02*
X78598642Y-90774994D01*
X78598642Y-90774994D02*
X78551023Y-90727375D01*
X78551023Y-90727375D02*
X78503404Y-90632137D01*
X78503404Y-90632137D02*
X78455785Y-90441661D01*
X78455785Y-90441661D02*
X78408166Y-90346423D01*
X78408166Y-90346423D02*
X78360547Y-90298804D01*
X78360547Y-90298804D02*
X78265309Y-90251185D01*
X78265309Y-90251185D02*
X78170071Y-90251185D01*
X78170071Y-90251185D02*
X78074833Y-90298804D01*
X78074833Y-90298804D02*
X78027214Y-90346423D01*
X78027214Y-90346423D02*
X77979595Y-90441661D01*
X77979595Y-90441661D02*
X77979595Y-90679756D01*
X77979595Y-90679756D02*
X78027214Y-90822613D01*
X80589539Y-65489279D02*
X79589539Y-65489279D01*
X79589539Y-65489279D02*
X79589539Y-65870231D01*
X79589539Y-65870231D02*
X79637158Y-65965469D01*
X79637158Y-65965469D02*
X79684777Y-66013088D01*
X79684777Y-66013088D02*
X79780015Y-66060707D01*
X79780015Y-66060707D02*
X79922872Y-66060707D01*
X79922872Y-66060707D02*
X80018110Y-66013088D01*
X80018110Y-66013088D02*
X80065729Y-65965469D01*
X80065729Y-65965469D02*
X80113348Y-65870231D01*
X80113348Y-65870231D02*
X80113348Y-65489279D01*
X80589539Y-66489279D02*
X79922872Y-66489279D01*
X80113348Y-66489279D02*
X80018110Y-66536898D01*
X80018110Y-66536898D02*
X79970491Y-66584517D01*
X79970491Y-66584517D02*
X79922872Y-66679755D01*
X79922872Y-66679755D02*
X79922872Y-66774993D01*
X80589539Y-67251184D02*
X80541920Y-67155946D01*
X80541920Y-67155946D02*
X80494300Y-67108327D01*
X80494300Y-67108327D02*
X80399062Y-67060708D01*
X80399062Y-67060708D02*
X80113348Y-67060708D01*
X80113348Y-67060708D02*
X80018110Y-67108327D01*
X80018110Y-67108327D02*
X79970491Y-67155946D01*
X79970491Y-67155946D02*
X79922872Y-67251184D01*
X79922872Y-67251184D02*
X79922872Y-67394041D01*
X79922872Y-67394041D02*
X79970491Y-67489279D01*
X79970491Y-67489279D02*
X80018110Y-67536898D01*
X80018110Y-67536898D02*
X80113348Y-67584517D01*
X80113348Y-67584517D02*
X80399062Y-67584517D01*
X80399062Y-67584517D02*
X80494300Y-67536898D01*
X80494300Y-67536898D02*
X80541920Y-67489279D01*
X80541920Y-67489279D02*
X80589539Y-67394041D01*
X80589539Y-67394041D02*
X80589539Y-67251184D01*
X79922872Y-68441660D02*
X80732396Y-68441660D01*
X80732396Y-68441660D02*
X80827634Y-68394041D01*
X80827634Y-68394041D02*
X80875253Y-68346422D01*
X80875253Y-68346422D02*
X80922872Y-68251184D01*
X80922872Y-68251184D02*
X80922872Y-68108327D01*
X80922872Y-68108327D02*
X80875253Y-68013089D01*
X80541920Y-68441660D02*
X80589539Y-68346422D01*
X80589539Y-68346422D02*
X80589539Y-68155946D01*
X80589539Y-68155946D02*
X80541920Y-68060708D01*
X80541920Y-68060708D02*
X80494300Y-68013089D01*
X80494300Y-68013089D02*
X80399062Y-67965470D01*
X80399062Y-67965470D02*
X80113348Y-67965470D01*
X80113348Y-67965470D02*
X80018110Y-68013089D01*
X80018110Y-68013089D02*
X79970491Y-68060708D01*
X79970491Y-68060708D02*
X79922872Y-68155946D01*
X79922872Y-68155946D02*
X79922872Y-68346422D01*
X79922872Y-68346422D02*
X79970491Y-68441660D01*
X80494300Y-68917851D02*
X80541920Y-68965470D01*
X80541920Y-68965470D02*
X80589539Y-68917851D01*
X80589539Y-68917851D02*
X80541920Y-68870232D01*
X80541920Y-68870232D02*
X80494300Y-68917851D01*
X80494300Y-68917851D02*
X80589539Y-68917851D01*
X79970491Y-68917851D02*
X80018110Y-68965470D01*
X80018110Y-68965470D02*
X80065729Y-68917851D01*
X80065729Y-68917851D02*
X80018110Y-68870232D01*
X80018110Y-68870232D02*
X79970491Y-68917851D01*
X79970491Y-68917851D02*
X80065729Y-68917851D01*
X79589539Y-70155946D02*
X80399062Y-70155946D01*
X80399062Y-70155946D02*
X80494300Y-70203565D01*
X80494300Y-70203565D02*
X80541920Y-70251184D01*
X80541920Y-70251184D02*
X80589539Y-70346422D01*
X80589539Y-70346422D02*
X80589539Y-70536898D01*
X80589539Y-70536898D02*
X80541920Y-70632136D01*
X80541920Y-70632136D02*
X80494300Y-70679755D01*
X80494300Y-70679755D02*
X80399062Y-70727374D01*
X80399062Y-70727374D02*
X79589539Y-70727374D01*
X80541920Y-71155946D02*
X80589539Y-71298803D01*
X80589539Y-71298803D02*
X80589539Y-71536898D01*
X80589539Y-71536898D02*
X80541920Y-71632136D01*
X80541920Y-71632136D02*
X80494300Y-71679755D01*
X80494300Y-71679755D02*
X80399062Y-71727374D01*
X80399062Y-71727374D02*
X80303824Y-71727374D01*
X80303824Y-71727374D02*
X80208586Y-71679755D01*
X80208586Y-71679755D02*
X80160967Y-71632136D01*
X80160967Y-71632136D02*
X80113348Y-71536898D01*
X80113348Y-71536898D02*
X80065729Y-71346422D01*
X80065729Y-71346422D02*
X80018110Y-71251184D01*
X80018110Y-71251184D02*
X79970491Y-71203565D01*
X79970491Y-71203565D02*
X79875253Y-71155946D01*
X79875253Y-71155946D02*
X79780015Y-71155946D01*
X79780015Y-71155946D02*
X79684777Y-71203565D01*
X79684777Y-71203565D02*
X79637158Y-71251184D01*
X79637158Y-71251184D02*
X79589539Y-71346422D01*
X79589539Y-71346422D02*
X79589539Y-71584517D01*
X79589539Y-71584517D02*
X79637158Y-71727374D01*
X80065729Y-72489279D02*
X80113348Y-72632136D01*
X80113348Y-72632136D02*
X80160967Y-72679755D01*
X80160967Y-72679755D02*
X80256205Y-72727374D01*
X80256205Y-72727374D02*
X80399062Y-72727374D01*
X80399062Y-72727374D02*
X80494300Y-72679755D01*
X80494300Y-72679755D02*
X80541920Y-72632136D01*
X80541920Y-72632136D02*
X80589539Y-72536898D01*
X80589539Y-72536898D02*
X80589539Y-72155946D01*
X80589539Y-72155946D02*
X79589539Y-72155946D01*
X79589539Y-72155946D02*
X79589539Y-72489279D01*
X79589539Y-72489279D02*
X79637158Y-72584517D01*
X79637158Y-72584517D02*
X79684777Y-72632136D01*
X79684777Y-72632136D02*
X79780015Y-72679755D01*
X79780015Y-72679755D02*
X79875253Y-72679755D01*
X79875253Y-72679755D02*
X79970491Y-72632136D01*
X79970491Y-72632136D02*
X80018110Y-72584517D01*
X80018110Y-72584517D02*
X80065729Y-72489279D01*
X80065729Y-72489279D02*
X80065729Y-72155946D01*
X79541920Y-73870231D02*
X80827634Y-73013089D01*
X79589539Y-74203565D02*
X80399062Y-74203565D01*
X80399062Y-74203565D02*
X80494300Y-74251184D01*
X80494300Y-74251184D02*
X80541920Y-74298803D01*
X80541920Y-74298803D02*
X80589539Y-74394041D01*
X80589539Y-74394041D02*
X80589539Y-74584517D01*
X80589539Y-74584517D02*
X80541920Y-74679755D01*
X80541920Y-74679755D02*
X80494300Y-74727374D01*
X80494300Y-74727374D02*
X80399062Y-74774993D01*
X80399062Y-74774993D02*
X79589539Y-74774993D01*
X80303824Y-75203565D02*
X80303824Y-75679755D01*
X80589539Y-75108327D02*
X79589539Y-75441660D01*
X79589539Y-75441660D02*
X80589539Y-75774993D01*
X80589539Y-76679755D02*
X80113348Y-76346422D01*
X80589539Y-76108327D02*
X79589539Y-76108327D01*
X79589539Y-76108327D02*
X79589539Y-76489279D01*
X79589539Y-76489279D02*
X79637158Y-76584517D01*
X79637158Y-76584517D02*
X79684777Y-76632136D01*
X79684777Y-76632136D02*
X79780015Y-76679755D01*
X79780015Y-76679755D02*
X79922872Y-76679755D01*
X79922872Y-76679755D02*
X80018110Y-76632136D01*
X80018110Y-76632136D02*
X80065729Y-76584517D01*
X80065729Y-76584517D02*
X80113348Y-76489279D01*
X80113348Y-76489279D02*
X80113348Y-76108327D01*
X79589539Y-76965470D02*
X79589539Y-77536898D01*
X80589539Y-77251184D02*
X79589539Y-77251184D01*
X82199483Y-66013088D02*
X82199483Y-65441660D01*
X82199483Y-65727374D02*
X81199483Y-65727374D01*
X81199483Y-65727374D02*
X81342340Y-65632136D01*
X81342340Y-65632136D02*
X81437578Y-65536898D01*
X81437578Y-65536898D02*
X81485197Y-65441660D01*
X81294721Y-66394041D02*
X81247102Y-66441660D01*
X81247102Y-66441660D02*
X81199483Y-66536898D01*
X81199483Y-66536898D02*
X81199483Y-66774993D01*
X81199483Y-66774993D02*
X81247102Y-66870231D01*
X81247102Y-66870231D02*
X81294721Y-66917850D01*
X81294721Y-66917850D02*
X81389959Y-66965469D01*
X81389959Y-66965469D02*
X81485197Y-66965469D01*
X81485197Y-66965469D02*
X81628054Y-66917850D01*
X81628054Y-66917850D02*
X82199483Y-66346422D01*
X82199483Y-66346422D02*
X82199483Y-66965469D01*
X81199483Y-67251184D02*
X82199483Y-67584517D01*
X82199483Y-67584517D02*
X81199483Y-67917850D01*
X81532816Y-69013089D02*
X82199483Y-69013089D01*
X81628054Y-69013089D02*
X81580435Y-69060708D01*
X81580435Y-69060708D02*
X81532816Y-69155946D01*
X81532816Y-69155946D02*
X81532816Y-69298803D01*
X81532816Y-69298803D02*
X81580435Y-69394041D01*
X81580435Y-69394041D02*
X81675673Y-69441660D01*
X81675673Y-69441660D02*
X82199483Y-69441660D01*
X82199483Y-70060708D02*
X82151864Y-69965470D01*
X82151864Y-69965470D02*
X82104244Y-69917851D01*
X82104244Y-69917851D02*
X82009006Y-69870232D01*
X82009006Y-69870232D02*
X81723292Y-69870232D01*
X81723292Y-69870232D02*
X81628054Y-69917851D01*
X81628054Y-69917851D02*
X81580435Y-69965470D01*
X81580435Y-69965470D02*
X81532816Y-70060708D01*
X81532816Y-70060708D02*
X81532816Y-70203565D01*
X81532816Y-70203565D02*
X81580435Y-70298803D01*
X81580435Y-70298803D02*
X81628054Y-70346422D01*
X81628054Y-70346422D02*
X81723292Y-70394041D01*
X81723292Y-70394041D02*
X82009006Y-70394041D01*
X82009006Y-70394041D02*
X82104244Y-70346422D01*
X82104244Y-70346422D02*
X82151864Y-70298803D01*
X82151864Y-70298803D02*
X82199483Y-70203565D01*
X82199483Y-70203565D02*
X82199483Y-70060708D01*
X82199483Y-70822613D02*
X81532816Y-70822613D01*
X81628054Y-70822613D02*
X81580435Y-70870232D01*
X81580435Y-70870232D02*
X81532816Y-70965470D01*
X81532816Y-70965470D02*
X81532816Y-71108327D01*
X81532816Y-71108327D02*
X81580435Y-71203565D01*
X81580435Y-71203565D02*
X81675673Y-71251184D01*
X81675673Y-71251184D02*
X82199483Y-71251184D01*
X81675673Y-71251184D02*
X81580435Y-71298803D01*
X81580435Y-71298803D02*
X81532816Y-71394041D01*
X81532816Y-71394041D02*
X81532816Y-71536898D01*
X81532816Y-71536898D02*
X81580435Y-71632137D01*
X81580435Y-71632137D02*
X81675673Y-71679756D01*
X81675673Y-71679756D02*
X82199483Y-71679756D01*
X82104244Y-72155946D02*
X82151864Y-72203565D01*
X82151864Y-72203565D02*
X82199483Y-72155946D01*
X82199483Y-72155946D02*
X82151864Y-72108327D01*
X82151864Y-72108327D02*
X82104244Y-72155946D01*
X82104244Y-72155946D02*
X82199483Y-72155946D01*
X81532816Y-73394041D02*
X81818530Y-74155946D01*
X81818530Y-74155946D02*
X82104244Y-73394041D01*
X81294721Y-74584517D02*
X81247102Y-74632136D01*
X81247102Y-74632136D02*
X81199483Y-74727374D01*
X81199483Y-74727374D02*
X81199483Y-74965469D01*
X81199483Y-74965469D02*
X81247102Y-75060707D01*
X81247102Y-75060707D02*
X81294721Y-75108326D01*
X81294721Y-75108326D02*
X81389959Y-75155945D01*
X81389959Y-75155945D02*
X81485197Y-75155945D01*
X81485197Y-75155945D02*
X81628054Y-75108326D01*
X81628054Y-75108326D02*
X82199483Y-74536898D01*
X82199483Y-74536898D02*
X82199483Y-75155945D01*
X81628054Y-75727374D02*
X81580435Y-75632136D01*
X81580435Y-75632136D02*
X81532816Y-75584517D01*
X81532816Y-75584517D02*
X81437578Y-75536898D01*
X81437578Y-75536898D02*
X81389959Y-75536898D01*
X81389959Y-75536898D02*
X81294721Y-75584517D01*
X81294721Y-75584517D02*
X81247102Y-75632136D01*
X81247102Y-75632136D02*
X81199483Y-75727374D01*
X81199483Y-75727374D02*
X81199483Y-75917850D01*
X81199483Y-75917850D02*
X81247102Y-76013088D01*
X81247102Y-76013088D02*
X81294721Y-76060707D01*
X81294721Y-76060707D02*
X81389959Y-76108326D01*
X81389959Y-76108326D02*
X81437578Y-76108326D01*
X81437578Y-76108326D02*
X81532816Y-76060707D01*
X81532816Y-76060707D02*
X81580435Y-76013088D01*
X81580435Y-76013088D02*
X81628054Y-75917850D01*
X81628054Y-75917850D02*
X81628054Y-75727374D01*
X81628054Y-75727374D02*
X81675673Y-75632136D01*
X81675673Y-75632136D02*
X81723292Y-75584517D01*
X81723292Y-75584517D02*
X81818530Y-75536898D01*
X81818530Y-75536898D02*
X82009006Y-75536898D01*
X82009006Y-75536898D02*
X82104244Y-75584517D01*
X82104244Y-75584517D02*
X82151864Y-75632136D01*
X82151864Y-75632136D02*
X82199483Y-75727374D01*
X82199483Y-75727374D02*
X82199483Y-75917850D01*
X82199483Y-75917850D02*
X82151864Y-76013088D01*
X82151864Y-76013088D02*
X82104244Y-76060707D01*
X82104244Y-76060707D02*
X82009006Y-76108326D01*
X82009006Y-76108326D02*
X81818530Y-76108326D01*
X81818530Y-76108326D02*
X81723292Y-76060707D01*
X81723292Y-76060707D02*
X81675673Y-76013088D01*
X81675673Y-76013088D02*
X81628054Y-75917850D01*
X81199483Y-76394041D02*
X82199483Y-76727374D01*
X82199483Y-76727374D02*
X81199483Y-77060707D01*
X81675673Y-78155946D02*
X81675673Y-78917851D01*
X81961387Y-78917851D02*
X81961387Y-78155946D01*
X81675673Y-80489279D02*
X81675673Y-80155946D01*
X82199483Y-80155946D02*
X81199483Y-80155946D01*
X81199483Y-80155946D02*
X81199483Y-80632136D01*
X81913768Y-80965470D02*
X81913768Y-81441660D01*
X82199483Y-80870232D02*
X81199483Y-81203565D01*
X81199483Y-81203565D02*
X82199483Y-81536898D01*
X81675673Y-82203565D02*
X81675673Y-81870232D01*
X82199483Y-81870232D02*
X81199483Y-81870232D01*
X81199483Y-81870232D02*
X81199483Y-82346422D01*
X81199483Y-82917851D02*
X81199483Y-83108327D01*
X81199483Y-83108327D02*
X81247102Y-83203565D01*
X81247102Y-83203565D02*
X81342340Y-83298803D01*
X81342340Y-83298803D02*
X81532816Y-83346422D01*
X81532816Y-83346422D02*
X81866149Y-83346422D01*
X81866149Y-83346422D02*
X82056625Y-83298803D01*
X82056625Y-83298803D02*
X82151864Y-83203565D01*
X82151864Y-83203565D02*
X82199483Y-83108327D01*
X82199483Y-83108327D02*
X82199483Y-82917851D01*
X82199483Y-82917851D02*
X82151864Y-82822613D01*
X82151864Y-82822613D02*
X82056625Y-82727375D01*
X82056625Y-82727375D02*
X81866149Y-82679756D01*
X81866149Y-82679756D02*
X81532816Y-82679756D01*
X81532816Y-82679756D02*
X81342340Y-82727375D01*
X81342340Y-82727375D02*
X81247102Y-82822613D01*
X81247102Y-82822613D02*
X81199483Y-82917851D01*
X83809427Y-65489279D02*
X82809427Y-65489279D01*
X83428474Y-65584517D02*
X83809427Y-65870231D01*
X83142760Y-65870231D02*
X83523712Y-65489279D01*
X83761808Y-66679755D02*
X83809427Y-66584517D01*
X83809427Y-66584517D02*
X83809427Y-66394041D01*
X83809427Y-66394041D02*
X83761808Y-66298803D01*
X83761808Y-66298803D02*
X83666569Y-66251184D01*
X83666569Y-66251184D02*
X83285617Y-66251184D01*
X83285617Y-66251184D02*
X83190379Y-66298803D01*
X83190379Y-66298803D02*
X83142760Y-66394041D01*
X83142760Y-66394041D02*
X83142760Y-66584517D01*
X83142760Y-66584517D02*
X83190379Y-66679755D01*
X83190379Y-66679755D02*
X83285617Y-66727374D01*
X83285617Y-66727374D02*
X83380855Y-66727374D01*
X83380855Y-66727374D02*
X83476093Y-66251184D01*
X83142760Y-67060708D02*
X83809427Y-67298803D01*
X83809427Y-67298803D02*
X83142760Y-67536898D01*
X83809427Y-67917851D02*
X83142760Y-67917851D01*
X82809427Y-67917851D02*
X82857046Y-67870232D01*
X82857046Y-67870232D02*
X82904665Y-67917851D01*
X82904665Y-67917851D02*
X82857046Y-67965470D01*
X82857046Y-67965470D02*
X82809427Y-67917851D01*
X82809427Y-67917851D02*
X82904665Y-67917851D01*
X83142760Y-68394041D02*
X83809427Y-68394041D01*
X83237998Y-68394041D02*
X83190379Y-68441660D01*
X83190379Y-68441660D02*
X83142760Y-68536898D01*
X83142760Y-68536898D02*
X83142760Y-68679755D01*
X83142760Y-68679755D02*
X83190379Y-68774993D01*
X83190379Y-68774993D02*
X83285617Y-68822612D01*
X83285617Y-68822612D02*
X83809427Y-68822612D01*
X83333236Y-69917850D02*
X83285617Y-69870231D01*
X83285617Y-69870231D02*
X83237998Y-69774993D01*
X83237998Y-69774993D02*
X83237998Y-69679755D01*
X83237998Y-69679755D02*
X83285617Y-69584517D01*
X83285617Y-69584517D02*
X83333236Y-69536898D01*
X83333236Y-69536898D02*
X83428474Y-69489279D01*
X83428474Y-69489279D02*
X83523712Y-69489279D01*
X83523712Y-69489279D02*
X83618950Y-69536898D01*
X83618950Y-69536898D02*
X83666569Y-69584517D01*
X83666569Y-69584517D02*
X83714188Y-69679755D01*
X83714188Y-69679755D02*
X83714188Y-69774993D01*
X83714188Y-69774993D02*
X83666569Y-69870231D01*
X83666569Y-69870231D02*
X83618950Y-69917850D01*
X83237998Y-69917850D02*
X83618950Y-69917850D01*
X83618950Y-69917850D02*
X83666569Y-69965469D01*
X83666569Y-69965469D02*
X83666569Y-70013088D01*
X83666569Y-70013088D02*
X83618950Y-70108327D01*
X83618950Y-70108327D02*
X83523712Y-70155946D01*
X83523712Y-70155946D02*
X83285617Y-70155946D01*
X83285617Y-70155946D02*
X83142760Y-70060708D01*
X83142760Y-70060708D02*
X83047522Y-69917850D01*
X83047522Y-69917850D02*
X82999903Y-69727374D01*
X82999903Y-69727374D02*
X83047522Y-69536898D01*
X83047522Y-69536898D02*
X83142760Y-69394041D01*
X83142760Y-69394041D02*
X83285617Y-69298803D01*
X83285617Y-69298803D02*
X83476093Y-69251184D01*
X83476093Y-69251184D02*
X83666569Y-69298803D01*
X83666569Y-69298803D02*
X83809427Y-69394041D01*
X83809427Y-69394041D02*
X83904665Y-69536898D01*
X83904665Y-69536898D02*
X83952284Y-69727374D01*
X83952284Y-69727374D02*
X83904665Y-69917850D01*
X83904665Y-69917850D02*
X83809427Y-70060708D01*
X83809427Y-70584517D02*
X82809427Y-70584517D01*
X83190379Y-70584517D02*
X83142760Y-70679755D01*
X83142760Y-70679755D02*
X83142760Y-70870231D01*
X83142760Y-70870231D02*
X83190379Y-70965469D01*
X83190379Y-70965469D02*
X83237998Y-71013088D01*
X83237998Y-71013088D02*
X83333236Y-71060707D01*
X83333236Y-71060707D02*
X83618950Y-71060707D01*
X83618950Y-71060707D02*
X83714188Y-71013088D01*
X83714188Y-71013088D02*
X83761808Y-70965469D01*
X83761808Y-70965469D02*
X83809427Y-70870231D01*
X83809427Y-70870231D02*
X83809427Y-70679755D01*
X83809427Y-70679755D02*
X83761808Y-70584517D01*
X83761808Y-71870231D02*
X83809427Y-71774993D01*
X83809427Y-71774993D02*
X83809427Y-71584517D01*
X83809427Y-71584517D02*
X83761808Y-71489279D01*
X83761808Y-71489279D02*
X83666569Y-71441660D01*
X83666569Y-71441660D02*
X83285617Y-71441660D01*
X83285617Y-71441660D02*
X83190379Y-71489279D01*
X83190379Y-71489279D02*
X83142760Y-71584517D01*
X83142760Y-71584517D02*
X83142760Y-71774993D01*
X83142760Y-71774993D02*
X83190379Y-71870231D01*
X83190379Y-71870231D02*
X83285617Y-71917850D01*
X83285617Y-71917850D02*
X83380855Y-71917850D01*
X83380855Y-71917850D02*
X83476093Y-71441660D01*
X83809427Y-72774993D02*
X83285617Y-72774993D01*
X83285617Y-72774993D02*
X83190379Y-72727374D01*
X83190379Y-72727374D02*
X83142760Y-72632136D01*
X83142760Y-72632136D02*
X83142760Y-72441660D01*
X83142760Y-72441660D02*
X83190379Y-72346422D01*
X83761808Y-72774993D02*
X83809427Y-72679755D01*
X83809427Y-72679755D02*
X83809427Y-72441660D01*
X83809427Y-72441660D02*
X83761808Y-72346422D01*
X83761808Y-72346422D02*
X83666569Y-72298803D01*
X83666569Y-72298803D02*
X83571331Y-72298803D01*
X83571331Y-72298803D02*
X83476093Y-72346422D01*
X83476093Y-72346422D02*
X83428474Y-72441660D01*
X83428474Y-72441660D02*
X83428474Y-72679755D01*
X83428474Y-72679755D02*
X83380855Y-72774993D01*
X83809427Y-73251184D02*
X82809427Y-73251184D01*
X83428474Y-73346422D02*
X83809427Y-73632136D01*
X83142760Y-73632136D02*
X83523712Y-73251184D01*
X83761808Y-74441660D02*
X83809427Y-74346422D01*
X83809427Y-74346422D02*
X83809427Y-74155946D01*
X83809427Y-74155946D02*
X83761808Y-74060708D01*
X83761808Y-74060708D02*
X83666569Y-74013089D01*
X83666569Y-74013089D02*
X83285617Y-74013089D01*
X83285617Y-74013089D02*
X83190379Y-74060708D01*
X83190379Y-74060708D02*
X83142760Y-74155946D01*
X83142760Y-74155946D02*
X83142760Y-74346422D01*
X83142760Y-74346422D02*
X83190379Y-74441660D01*
X83190379Y-74441660D02*
X83285617Y-74489279D01*
X83285617Y-74489279D02*
X83380855Y-74489279D01*
X83380855Y-74489279D02*
X83476093Y-74013089D01*
X83809427Y-74917851D02*
X83142760Y-74917851D01*
X83333236Y-74917851D02*
X83237998Y-74965470D01*
X83237998Y-74965470D02*
X83190379Y-75013089D01*
X83190379Y-75013089D02*
X83142760Y-75108327D01*
X83142760Y-75108327D02*
X83142760Y-75203565D01*
X83714188Y-75536899D02*
X83761808Y-75584518D01*
X83761808Y-75584518D02*
X83809427Y-75536899D01*
X83809427Y-75536899D02*
X83761808Y-75489280D01*
X83761808Y-75489280D02*
X83714188Y-75536899D01*
X83714188Y-75536899D02*
X83809427Y-75536899D01*
X83761808Y-76441660D02*
X83809427Y-76346422D01*
X83809427Y-76346422D02*
X83809427Y-76155946D01*
X83809427Y-76155946D02*
X83761808Y-76060708D01*
X83761808Y-76060708D02*
X83714188Y-76013089D01*
X83714188Y-76013089D02*
X83618950Y-75965470D01*
X83618950Y-75965470D02*
X83333236Y-75965470D01*
X83333236Y-75965470D02*
X83237998Y-76013089D01*
X83237998Y-76013089D02*
X83190379Y-76060708D01*
X83190379Y-76060708D02*
X83142760Y-76155946D01*
X83142760Y-76155946D02*
X83142760Y-76346422D01*
X83142760Y-76346422D02*
X83190379Y-76441660D01*
X83809427Y-77298803D02*
X83285617Y-77298803D01*
X83285617Y-77298803D02*
X83190379Y-77251184D01*
X83190379Y-77251184D02*
X83142760Y-77155946D01*
X83142760Y-77155946D02*
X83142760Y-76965470D01*
X83142760Y-76965470D02*
X83190379Y-76870232D01*
X83761808Y-77298803D02*
X83809427Y-77203565D01*
X83809427Y-77203565D02*
X83809427Y-76965470D01*
X83809427Y-76965470D02*
X83761808Y-76870232D01*
X83761808Y-76870232D02*
X83666569Y-76822613D01*
X83666569Y-76822613D02*
X83571331Y-76822613D01*
X83571331Y-76822613D02*
X83476093Y-76870232D01*
X83476093Y-76870232D02*
X83428474Y-76965470D01*
X83428474Y-76965470D02*
X83428474Y-77203565D01*
X83428474Y-77203565D02*
X83380855Y-77298803D01*
%LPC*%
D11*
%TO.C,J5*%
X52880000Y-76930000D03*
D12*
X52880000Y-77930000D03*
X52880000Y-78930000D03*
%TD*%
D13*
%TO.C,J3*%
X91860000Y-92910000D03*
D14*
X87680000Y-92910000D03*
D13*
X91860000Y-101550000D03*
D14*
X87680000Y-101550000D03*
D15*
X88210000Y-94340000D03*
X88210000Y-100120000D03*
%TD*%
D12*
%TO.C,J4*%
X52210000Y-59040000D03*
D11*
X52210000Y-60040000D03*
%TD*%
D16*
%TO.C,H3*%
X90000000Y-110000000D03*
D17*
X90000000Y-110000000D03*
%TD*%
D18*
%TO.C,J2*%
X56200000Y-103100000D03*
D19*
X56200000Y-102100000D03*
X56200000Y-101100000D03*
X56200000Y-100100000D03*
%TD*%
D16*
%TO.C,H2*%
X90000000Y-55000000D03*
D17*
X90000000Y-55000000D03*
%TD*%
D16*
%TO.C,H4*%
X55000000Y-110000000D03*
D17*
X55000000Y-110000000D03*
%TD*%
D16*
%TO.C,H1*%
X55000000Y-55000000D03*
D17*
X55000000Y-55000000D03*
%TD*%
%LPD*%
M02*
