%TF.GenerationSoftware,KiCad,Pcbnew,9.0.3*%
%TF.CreationDate,2025-12-02T23:18:34-08:00*%
%TF.ProjectId,AS 3,41532033-2e6b-4696-9361-645f70636258,V3*%
%TF.SameCoordinates,Original*%
%TF.FileFunction,Copper,L2,Inr*%
%TF.FilePolarity,Positive*%
%FSLAX46Y46*%
G04 Gerber Fmt 4.6, Leading zero omitted, Abs format (unit mm)*
G04 Created by KiCad (PCBNEW 9.0.3) date 2025-12-02 23:18:34*
%MOMM*%
%LPD*%
G01*
G04 APERTURE LIST*
%TA.AperFunction,ComponentPad*%
%ADD10C,3.600000*%
%TD*%
%TA.AperFunction,ComponentPad*%
%ADD11C,0.500000*%
%TD*%
%TA.AperFunction,HeatsinkPad*%
%ADD12C,0.450000*%
%TD*%
%TA.AperFunction,ComponentPad*%
%ADD13R,0.840000X0.840000*%
%TD*%
%TA.AperFunction,ComponentPad*%
%ADD14C,0.840000*%
%TD*%
%TA.AperFunction,HeatsinkPad*%
%ADD15O,2.100000X1.000000*%
%TD*%
%TA.AperFunction,HeatsinkPad*%
%ADD16O,1.600000X1.000000*%
%TD*%
%TA.AperFunction,ViaPad*%
%ADD17C,0.600000*%
%TD*%
%TA.AperFunction,ViaPad*%
%ADD18C,0.500000*%
%TD*%
G04 APERTURE END LIST*
D10*
%TO.N,GND*%
%TO.C,H3*%
X90000000Y-110000000D03*
%TD*%
D11*
%TO.N,+5VMUX*%
%TO.C,U6*%
X67625000Y-78175000D03*
%TO.N,+5VBus*%
X68325000Y-78175000D03*
%TO.N,+5V*%
X68325000Y-77375000D03*
%TO.N,+5VMUX*%
X67625000Y-77375000D03*
%TD*%
D12*
%TO.N,GND*%
%TO.C,U1*%
X74575000Y-104450000D03*
X75275000Y-106550000D03*
X75275000Y-105150000D03*
X74575000Y-107250000D03*
X74575000Y-105850000D03*
X73875000Y-106550000D03*
X73875000Y-105150000D03*
X73175000Y-107250000D03*
X73175000Y-105850000D03*
X73175000Y-104450000D03*
X72475000Y-106550000D03*
X72475000Y-105150000D03*
%TD*%
D13*
%TO.N,GND*%
%TO.C,J2*%
X56200000Y-103100000D03*
D14*
%TO.N,/TXD0*%
X56200000Y-102100000D03*
%TO.N,/RXD0*%
X56200000Y-101100000D03*
%TO.N,+3.3V*%
X56200000Y-100100000D03*
%TD*%
D10*
%TO.N,GND*%
%TO.C,H2*%
X90000000Y-55000000D03*
%TD*%
%TO.N,GND*%
%TO.C,H4*%
X55000000Y-110000000D03*
%TD*%
D15*
%TO.N,GND*%
%TO.C,J3*%
X87680000Y-101550000D03*
D16*
X91860000Y-101550000D03*
D15*
X87680000Y-92910000D03*
D16*
X91860000Y-92910000D03*
%TD*%
D10*
%TO.N,GND*%
%TO.C,H1*%
X55000000Y-55000000D03*
%TD*%
D17*
%TO.N,+12V*%
X66130000Y-62690000D03*
X64540000Y-64150000D03*
X63440000Y-63090000D03*
X61800000Y-63050000D03*
X61330000Y-56210000D03*
X62130000Y-55080000D03*
X63190000Y-54760000D03*
X63200000Y-53820000D03*
X63170000Y-52830000D03*
X62170000Y-52830000D03*
%TO.N,GND*%
X85340000Y-103510000D03*
X59410000Y-56160000D03*
X59410000Y-51520000D03*
X79110000Y-93860000D03*
%TO.N,+3.3V*%
X85210000Y-110630000D03*
X85190000Y-111480000D03*
%TO.N,GND*%
X80020000Y-58700000D03*
X63250000Y-84730000D03*
X70330000Y-89390000D03*
%TO.N,+3.3V*%
X56200000Y-98725000D03*
%TO.N,GND*%
X64150000Y-90980000D03*
X84630000Y-93480000D03*
X69050000Y-83000000D03*
D18*
X80360000Y-62150000D03*
X79825000Y-61900000D03*
D17*
X77400000Y-62975000D03*
X77400000Y-61650000D03*
X77425000Y-62275000D03*
X78125000Y-62264999D03*
X79075001Y-62264999D03*
X64162500Y-77762500D03*
X90230000Y-79360000D03*
X77500000Y-100000000D03*
X75000000Y-102500000D03*
X77500000Y-102500000D03*
X67500000Y-110000000D03*
X71000000Y-83100000D03*
X67500000Y-105000000D03*
X65300000Y-81125000D03*
X54610000Y-96040000D03*
X83800000Y-84600000D03*
X70000000Y-107500000D03*
X79650000Y-53800000D03*
X69610000Y-78140000D03*
X72500000Y-110000000D03*
X64470000Y-86160000D03*
X77500000Y-112500000D03*
X77500000Y-105000000D03*
X84360000Y-113860000D03*
X83800000Y-87380000D03*
X62875000Y-78500000D03*
X60875000Y-67150000D03*
X70000000Y-112500000D03*
X67500000Y-102500000D03*
X70000000Y-102500000D03*
X51820000Y-72410000D03*
X70000000Y-110000000D03*
X72225000Y-78375000D03*
X67500000Y-107500000D03*
X54425000Y-82450000D03*
X70000000Y-100000000D03*
X62400000Y-113600000D03*
X75000000Y-110000000D03*
X77500000Y-107500000D03*
X82680000Y-61710000D03*
X67500000Y-100000000D03*
X64370000Y-72410000D03*
X65175000Y-73300000D03*
X65325000Y-83275000D03*
X75000000Y-100000000D03*
X57800000Y-58125000D03*
X87865000Y-103210000D03*
X90250000Y-60550000D03*
X71350000Y-71725000D03*
X85825000Y-53800000D03*
X66537500Y-78987500D03*
X66200000Y-67525000D03*
X54430000Y-85170000D03*
X54475000Y-87700000D03*
X73375000Y-61350000D03*
X54525000Y-93000000D03*
X67200000Y-71925000D03*
X72500000Y-112500000D03*
X90220000Y-71325000D03*
X70000000Y-105000000D03*
X54550000Y-90375000D03*
X67500000Y-112500000D03*
X72500000Y-102500000D03*
X82530000Y-63250000D03*
X84050000Y-95875000D03*
X75000000Y-112500000D03*
X80000000Y-113625000D03*
X84525000Y-51150000D03*
X84075000Y-99575000D03*
X87975000Y-91225000D03*
X82950000Y-113925000D03*
X73400000Y-63875000D03*
X78375000Y-53800000D03*
X56200000Y-104060000D03*
X82620000Y-51870000D03*
X86080000Y-113880000D03*
X84200000Y-108170000D03*
X72500000Y-100000000D03*
X81610000Y-62090000D03*
X80675000Y-59500000D03*
X67025000Y-87475000D03*
X54700000Y-64175000D03*
X82250000Y-113600000D03*
X82500000Y-62450000D03*
X65325000Y-85475000D03*
X69300000Y-72200000D03*
X57750000Y-72075000D03*
X81590000Y-63630000D03*
X64750000Y-113625000D03*
X64925000Y-80250000D03*
X90240000Y-68580000D03*
X77500000Y-110000000D03*
%TO.N,+5V*%
X60825000Y-85150000D03*
%TO.N,+3.3V*%
X71630000Y-85550000D03*
X70225000Y-86100000D03*
X70275000Y-87800000D03*
X84520000Y-54500000D03*
X82275000Y-112305000D03*
X84520000Y-52725000D03*
X83640000Y-112110000D03*
X85850000Y-58110000D03*
X58053750Y-95140000D03*
X85275000Y-58800000D03*
X84710000Y-60625000D03*
X84720000Y-59375000D03*
X59828750Y-94040000D03*
X67450000Y-89275000D03*
X72530000Y-86060000D03*
%TO.N,/BOOT*%
X62125000Y-97025000D03*
X86825000Y-67300000D03*
%TO.N,/SDA*%
X82080000Y-53230000D03*
X67100000Y-94525000D03*
%TO.N,/SCL*%
X83700000Y-58100000D03*
X68150000Y-94600000D03*
%TO.N,+12VA*%
X76075000Y-61350000D03*
X60900000Y-82450000D03*
X78170000Y-58710000D03*
X76340000Y-58720000D03*
X72550000Y-56900000D03*
%TO.N,/PG*%
X84785000Y-63190000D03*
X65800000Y-90300000D03*
%TO.N,+5VBus*%
X72195000Y-80230000D03*
X85575000Y-99680000D03*
X69825000Y-80200000D03*
X68575000Y-79350000D03*
X85535000Y-94780000D03*
X60800000Y-87700000D03*
X79670000Y-85970000D03*
X79760000Y-88680000D03*
%TO.N,+5VMUX*%
X60700000Y-90350000D03*
X63110000Y-71330000D03*
X67200000Y-83270000D03*
X67139999Y-76090001D03*
X63250000Y-75590000D03*
X66075000Y-87200000D03*
X67225000Y-81080000D03*
X63970000Y-75860000D03*
X67225000Y-85475000D03*
X63110000Y-73270000D03*
%TD*%
%TA.AperFunction,Conductor*%
%TO.N,GND*%
G36*
X90002702Y-50200617D02*
G01*
X90412917Y-50218528D01*
X90423654Y-50219468D01*
X90828057Y-50272708D01*
X90838695Y-50274583D01*
X91236925Y-50362869D01*
X91247365Y-50365667D01*
X91636363Y-50488317D01*
X91646524Y-50492015D01*
X92023363Y-50648108D01*
X92033155Y-50652674D01*
X92394965Y-50841020D01*
X92404305Y-50846413D01*
X92689636Y-51028189D01*
X92748309Y-51065568D01*
X92757170Y-51071772D01*
X93080766Y-51320076D01*
X93089053Y-51327030D01*
X93389767Y-51602583D01*
X93397416Y-51610232D01*
X93672969Y-51910946D01*
X93679923Y-51919233D01*
X93928227Y-52242829D01*
X93934431Y-52251690D01*
X93994403Y-52345827D01*
X94087209Y-52491503D01*
X94153578Y-52595680D01*
X94158983Y-52605042D01*
X94180385Y-52646153D01*
X94347322Y-52966838D01*
X94351894Y-52976642D01*
X94507983Y-53353473D01*
X94511683Y-53363639D01*
X94634331Y-53752630D01*
X94637131Y-53763078D01*
X94725414Y-54161296D01*
X94727292Y-54171950D01*
X94780529Y-54576326D01*
X94781472Y-54587102D01*
X94799382Y-54997297D01*
X94799500Y-55002706D01*
X94799500Y-109997293D01*
X94799382Y-110002702D01*
X94781472Y-110412897D01*
X94780529Y-110423673D01*
X94727292Y-110828049D01*
X94725414Y-110838703D01*
X94637131Y-111236921D01*
X94634331Y-111247369D01*
X94511683Y-111636360D01*
X94507983Y-111646526D01*
X94351894Y-112023357D01*
X94347322Y-112033161D01*
X94158987Y-112394951D01*
X94153578Y-112404319D01*
X93934431Y-112748309D01*
X93928227Y-112757170D01*
X93679923Y-113080766D01*
X93672969Y-113089053D01*
X93397416Y-113389767D01*
X93389767Y-113397416D01*
X93089053Y-113672969D01*
X93080766Y-113679923D01*
X92757170Y-113928227D01*
X92748309Y-113934431D01*
X92404319Y-114153578D01*
X92394951Y-114158987D01*
X92033161Y-114347322D01*
X92023357Y-114351894D01*
X91646526Y-114507983D01*
X91636360Y-114511683D01*
X91247369Y-114634331D01*
X91236921Y-114637131D01*
X90838703Y-114725414D01*
X90828049Y-114727292D01*
X90423673Y-114780529D01*
X90412897Y-114781472D01*
X90002703Y-114799382D01*
X89997294Y-114799500D01*
X55002706Y-114799500D01*
X54997297Y-114799382D01*
X54587102Y-114781472D01*
X54576326Y-114780529D01*
X54171950Y-114727292D01*
X54161296Y-114725414D01*
X53763078Y-114637131D01*
X53752630Y-114634331D01*
X53363639Y-114511683D01*
X53353473Y-114507983D01*
X52976642Y-114351894D01*
X52966838Y-114347322D01*
X52847126Y-114285004D01*
X52605042Y-114158983D01*
X52595686Y-114153582D01*
X52423685Y-114044004D01*
X52251690Y-113934431D01*
X52242829Y-113928227D01*
X51919233Y-113679923D01*
X51910946Y-113672969D01*
X51610232Y-113397416D01*
X51602583Y-113389767D01*
X51327030Y-113089053D01*
X51320076Y-113080766D01*
X51071772Y-112757170D01*
X51065568Y-112748309D01*
X51024716Y-112684185D01*
X50846413Y-112404305D01*
X50841020Y-112394965D01*
X50753142Y-112226153D01*
X81474500Y-112226153D01*
X81474500Y-112383846D01*
X81505261Y-112538489D01*
X81505264Y-112538501D01*
X81565602Y-112684172D01*
X81565609Y-112684185D01*
X81653210Y-112815288D01*
X81653213Y-112815292D01*
X81764707Y-112926786D01*
X81764711Y-112926789D01*
X81895814Y-113014390D01*
X81895827Y-113014397D01*
X82041498Y-113074735D01*
X82041503Y-113074737D01*
X82196153Y-113105499D01*
X82196156Y-113105500D01*
X82196158Y-113105500D01*
X82353844Y-113105500D01*
X82353845Y-113105499D01*
X82508497Y-113074737D01*
X82654179Y-113014394D01*
X82785289Y-112926789D01*
X82896789Y-112815289D01*
X82939587Y-112751237D01*
X82993197Y-112706434D01*
X83062522Y-112697726D01*
X83125550Y-112727880D01*
X83129436Y-112731563D01*
X83129711Y-112731789D01*
X83260814Y-112819390D01*
X83260827Y-112819397D01*
X83406498Y-112879735D01*
X83406503Y-112879737D01*
X83561153Y-112910499D01*
X83561156Y-112910500D01*
X83561158Y-112910500D01*
X83718844Y-112910500D01*
X83718845Y-112910499D01*
X83873497Y-112879737D01*
X84019179Y-112819394D01*
X84150289Y-112731789D01*
X84261789Y-112620289D01*
X84349394Y-112489179D01*
X84409737Y-112343497D01*
X84440500Y-112188842D01*
X84440500Y-112161941D01*
X84460185Y-112094902D01*
X84512989Y-112049147D01*
X84582147Y-112039203D01*
X84645703Y-112068228D01*
X84652181Y-112074260D01*
X84679707Y-112101786D01*
X84679711Y-112101789D01*
X84810814Y-112189390D01*
X84810827Y-112189397D01*
X84956498Y-112249735D01*
X84956503Y-112249737D01*
X85095186Y-112277323D01*
X85111153Y-112280499D01*
X85111156Y-112280500D01*
X85111158Y-112280500D01*
X85268844Y-112280500D01*
X85268845Y-112280499D01*
X85423497Y-112249737D01*
X85569179Y-112189394D01*
X85700289Y-112101789D01*
X85811789Y-111990289D01*
X85899394Y-111859179D01*
X85959737Y-111713497D01*
X85990500Y-111558842D01*
X85990500Y-111401158D01*
X85990500Y-111401155D01*
X85990499Y-111401153D01*
X85959738Y-111246510D01*
X85959737Y-111246503D01*
X85908977Y-111123958D01*
X85901509Y-111054490D01*
X85917444Y-111015037D01*
X85916525Y-111014546D01*
X85919390Y-111009184D01*
X85919394Y-111009179D01*
X85979737Y-110863497D01*
X86010500Y-110708842D01*
X86010500Y-110551158D01*
X86010500Y-110551155D01*
X86010499Y-110551153D01*
X85985141Y-110423673D01*
X85979737Y-110396503D01*
X85979735Y-110396498D01*
X85919397Y-110250827D01*
X85919390Y-110250814D01*
X85831789Y-110119711D01*
X85831786Y-110119707D01*
X85720292Y-110008213D01*
X85720288Y-110008210D01*
X85589185Y-109920609D01*
X85589172Y-109920602D01*
X85443501Y-109860264D01*
X85443489Y-109860261D01*
X85288845Y-109829500D01*
X85288842Y-109829500D01*
X85131158Y-109829500D01*
X85131155Y-109829500D01*
X84976510Y-109860261D01*
X84976498Y-109860264D01*
X84830827Y-109920602D01*
X84830814Y-109920609D01*
X84699711Y-110008210D01*
X84699707Y-110008213D01*
X84588213Y-110119707D01*
X84588210Y-110119711D01*
X84500609Y-110250814D01*
X84500602Y-110250827D01*
X84440264Y-110396498D01*
X84440261Y-110396510D01*
X84409500Y-110551153D01*
X84409500Y-110708846D01*
X84440261Y-110863489D01*
X84440264Y-110863501D01*
X84491021Y-110986040D01*
X84498490Y-111055509D01*
X84482562Y-111094963D01*
X84483476Y-111095452D01*
X84480604Y-111100823D01*
X84420264Y-111246498D01*
X84420261Y-111246510D01*
X84389500Y-111401153D01*
X84389500Y-111428059D01*
X84369815Y-111495098D01*
X84317011Y-111540853D01*
X84247853Y-111550797D01*
X84184297Y-111521772D01*
X84177819Y-111515740D01*
X84150292Y-111488213D01*
X84150288Y-111488210D01*
X84019185Y-111400609D01*
X84019172Y-111400602D01*
X83873501Y-111340264D01*
X83873489Y-111340261D01*
X83718845Y-111309500D01*
X83718842Y-111309500D01*
X83561158Y-111309500D01*
X83561155Y-111309500D01*
X83406510Y-111340261D01*
X83406498Y-111340264D01*
X83260827Y-111400602D01*
X83260814Y-111400609D01*
X83129711Y-111488210D01*
X83129707Y-111488213D01*
X83018213Y-111599707D01*
X82975413Y-111663762D01*
X82921800Y-111708566D01*
X82852475Y-111717273D01*
X82789448Y-111687118D01*
X82785564Y-111683436D01*
X82785288Y-111683210D01*
X82654185Y-111595609D01*
X82654172Y-111595602D01*
X82508501Y-111535264D01*
X82508489Y-111535261D01*
X82353845Y-111504500D01*
X82353842Y-111504500D01*
X82196158Y-111504500D01*
X82196155Y-111504500D01*
X82041510Y-111535261D01*
X82041498Y-111535264D01*
X81895827Y-111595602D01*
X81895814Y-111595609D01*
X81764711Y-111683210D01*
X81764707Y-111683213D01*
X81653213Y-111794707D01*
X81653210Y-111794711D01*
X81565609Y-111925814D01*
X81565602Y-111925827D01*
X81505264Y-112071498D01*
X81505261Y-112071510D01*
X81474500Y-112226153D01*
X50753142Y-112226153D01*
X50652674Y-112033155D01*
X50648105Y-112023357D01*
X50634407Y-111990288D01*
X50492015Y-111646524D01*
X50488316Y-111636360D01*
X50476759Y-111599707D01*
X50365667Y-111247365D01*
X50362868Y-111236921D01*
X50332696Y-111100823D01*
X50274583Y-110838695D01*
X50272707Y-110828049D01*
X50257014Y-110708846D01*
X50219468Y-110423654D01*
X50218528Y-110412917D01*
X50200618Y-110002702D01*
X50200500Y-109997293D01*
X50200500Y-100009334D01*
X55279500Y-100009334D01*
X55279500Y-100190665D01*
X55314872Y-100368492D01*
X55314874Y-100368500D01*
X55384261Y-100536017D01*
X55387136Y-100541395D01*
X55384705Y-100542694D01*
X55401866Y-100598289D01*
X55385326Y-100657637D01*
X55387136Y-100658605D01*
X55384261Y-100663982D01*
X55314874Y-100831499D01*
X55314872Y-100831507D01*
X55279500Y-101009334D01*
X55279500Y-101190665D01*
X55314872Y-101368492D01*
X55314874Y-101368500D01*
X55384261Y-101536017D01*
X55387136Y-101541395D01*
X55384705Y-101542694D01*
X55401866Y-101598289D01*
X55385326Y-101657637D01*
X55387136Y-101658605D01*
X55384261Y-101663982D01*
X55314874Y-101831499D01*
X55314872Y-101831507D01*
X55279500Y-102009334D01*
X55279500Y-102190665D01*
X55314872Y-102368492D01*
X55314874Y-102368500D01*
X55384261Y-102536017D01*
X55384266Y-102536026D01*
X55485000Y-102686784D01*
X55485003Y-102686788D01*
X55613211Y-102814996D01*
X55613215Y-102814999D01*
X55763973Y-102915733D01*
X55763979Y-102915736D01*
X55763980Y-102915737D01*
X55931500Y-102985126D01*
X56109334Y-103020499D01*
X56109338Y-103020500D01*
X56109339Y-103020500D01*
X56290662Y-103020500D01*
X56290663Y-103020499D01*
X56468500Y-102985126D01*
X56636020Y-102915737D01*
X56786785Y-102814999D01*
X56914999Y-102686785D01*
X57015737Y-102536020D01*
X57085126Y-102368500D01*
X57120500Y-102190661D01*
X57120500Y-102009339D01*
X57085126Y-101831500D01*
X57015737Y-101663980D01*
X57012868Y-101658613D01*
X57015388Y-101657265D01*
X56998141Y-101602269D01*
X57014564Y-101542294D01*
X57012868Y-101541387D01*
X57015734Y-101536023D01*
X57015737Y-101536020D01*
X57085126Y-101368500D01*
X57120500Y-101190661D01*
X57120500Y-101009339D01*
X57085126Y-100831500D01*
X57015737Y-100663980D01*
X57012868Y-100658613D01*
X57015388Y-100657265D01*
X56998141Y-100602269D01*
X57014564Y-100542294D01*
X57012868Y-100541387D01*
X57015734Y-100536023D01*
X57015737Y-100536020D01*
X57085126Y-100368500D01*
X57120500Y-100190661D01*
X57120500Y-100009339D01*
X57085126Y-99831500D01*
X57015737Y-99663980D01*
X57015736Y-99663979D01*
X57015733Y-99663973D01*
X57015725Y-99663961D01*
X57015724Y-99663959D01*
X57015722Y-99663957D01*
X56973758Y-99601153D01*
X84774500Y-99601153D01*
X84774500Y-99758846D01*
X84805261Y-99913489D01*
X84805264Y-99913501D01*
X84865602Y-100059172D01*
X84865609Y-100059185D01*
X84953210Y-100190288D01*
X84953213Y-100190292D01*
X85064707Y-100301786D01*
X85064711Y-100301789D01*
X85195814Y-100389390D01*
X85195827Y-100389397D01*
X85341498Y-100449735D01*
X85341503Y-100449737D01*
X85496153Y-100480499D01*
X85496156Y-100480500D01*
X85496158Y-100480500D01*
X85653844Y-100480500D01*
X85653845Y-100480499D01*
X85808497Y-100449737D01*
X85954179Y-100389394D01*
X86085289Y-100301789D01*
X86196789Y-100190289D01*
X86284394Y-100059179D01*
X86284397Y-100059172D01*
X86289221Y-100047525D01*
X87659500Y-100047525D01*
X87659500Y-100192475D01*
X87688790Y-100301786D01*
X87697017Y-100332488D01*
X87769488Y-100458011D01*
X87769490Y-100458013D01*
X87769491Y-100458015D01*
X87871985Y-100560509D01*
X87871986Y-100560510D01*
X87871988Y-100560511D01*
X87997511Y-100632982D01*
X87997512Y-100632982D01*
X87997515Y-100632984D01*
X88137525Y-100670500D01*
X88137528Y-100670500D01*
X88282472Y-100670500D01*
X88282475Y-100670500D01*
X88422485Y-100632984D01*
X88548015Y-100560509D01*
X88650509Y-100458015D01*
X88722984Y-100332485D01*
X88760500Y-100192475D01*
X88760500Y-100047525D01*
X88722984Y-99907515D01*
X88650509Y-99781985D01*
X88548015Y-99679491D01*
X88548013Y-99679490D01*
X88548011Y-99679488D01*
X88422488Y-99607017D01*
X88422489Y-99607017D01*
X88400623Y-99601158D01*
X88282475Y-99569500D01*
X88137525Y-99569500D01*
X88019377Y-99601158D01*
X87997511Y-99607017D01*
X87871988Y-99679488D01*
X87871982Y-99679493D01*
X87769493Y-99781982D01*
X87769488Y-99781988D01*
X87697017Y-99907511D01*
X87697016Y-99907515D01*
X87659500Y-100047525D01*
X86289221Y-100047525D01*
X86312243Y-99991946D01*
X86344735Y-99913501D01*
X86344737Y-99913497D01*
X86375500Y-99758842D01*
X86375500Y-99601158D01*
X86375500Y-99601155D01*
X86375499Y-99601153D01*
X86344738Y-99446510D01*
X86344737Y-99446503D01*
X86284585Y-99301281D01*
X86284397Y-99300827D01*
X86284390Y-99300814D01*
X86196789Y-99169711D01*
X86196786Y-99169707D01*
X86085292Y-99058213D01*
X86085288Y-99058210D01*
X85954185Y-98970609D01*
X85954172Y-98970602D01*
X85808501Y-98910264D01*
X85808489Y-98910261D01*
X85653845Y-98879500D01*
X85653842Y-98879500D01*
X85496158Y-98879500D01*
X85496155Y-98879500D01*
X85341510Y-98910261D01*
X85341498Y-98910264D01*
X85195827Y-98970602D01*
X85195814Y-98970609D01*
X85064711Y-99058210D01*
X85064707Y-99058213D01*
X84953213Y-99169707D01*
X84953210Y-99169711D01*
X84865609Y-99300814D01*
X84865602Y-99300827D01*
X84805264Y-99446498D01*
X84805261Y-99446510D01*
X84774500Y-99601153D01*
X56973758Y-99601153D01*
X56914999Y-99513215D01*
X56914996Y-99513211D01*
X56817112Y-99415327D01*
X56783627Y-99354004D01*
X56788611Y-99284312D01*
X56817115Y-99239962D01*
X56821789Y-99235289D01*
X56909394Y-99104179D01*
X56969737Y-98958497D01*
X57000500Y-98803842D01*
X57000500Y-98646158D01*
X57000500Y-98646155D01*
X57000499Y-98646153D01*
X56969738Y-98491510D01*
X56969737Y-98491503D01*
X56969735Y-98491498D01*
X56909397Y-98345827D01*
X56909390Y-98345814D01*
X56821789Y-98214711D01*
X56821786Y-98214707D01*
X56710292Y-98103213D01*
X56710288Y-98103210D01*
X56579185Y-98015609D01*
X56579172Y-98015602D01*
X56433501Y-97955264D01*
X56433489Y-97955261D01*
X56278845Y-97924500D01*
X56278842Y-97924500D01*
X56121158Y-97924500D01*
X56121155Y-97924500D01*
X55966510Y-97955261D01*
X55966498Y-97955264D01*
X55820827Y-98015602D01*
X55820814Y-98015609D01*
X55689711Y-98103210D01*
X55689707Y-98103213D01*
X55578213Y-98214707D01*
X55578210Y-98214711D01*
X55490609Y-98345814D01*
X55490602Y-98345827D01*
X55430264Y-98491498D01*
X55430261Y-98491510D01*
X55399500Y-98646153D01*
X55399500Y-98803846D01*
X55430261Y-98958489D01*
X55430264Y-98958501D01*
X55490602Y-99104172D01*
X55490609Y-99104185D01*
X55578210Y-99235288D01*
X55578211Y-99235290D01*
X55582882Y-99239960D01*
X55616371Y-99301281D01*
X55611390Y-99370973D01*
X55582888Y-99415327D01*
X55485000Y-99513215D01*
X55384266Y-99663973D01*
X55384261Y-99663982D01*
X55314874Y-99831499D01*
X55314872Y-99831507D01*
X55279500Y-100009334D01*
X50200500Y-100009334D01*
X50200500Y-96946153D01*
X61324500Y-96946153D01*
X61324500Y-97103846D01*
X61355261Y-97258489D01*
X61355264Y-97258501D01*
X61415602Y-97404172D01*
X61415609Y-97404185D01*
X61503210Y-97535288D01*
X61503213Y-97535292D01*
X61614707Y-97646786D01*
X61614711Y-97646789D01*
X61745814Y-97734390D01*
X61745827Y-97734397D01*
X61891498Y-97794735D01*
X61891503Y-97794737D01*
X62046153Y-97825499D01*
X62046156Y-97825500D01*
X62046158Y-97825500D01*
X62203844Y-97825500D01*
X62203845Y-97825499D01*
X62358497Y-97794737D01*
X62504179Y-97734394D01*
X62635289Y-97646789D01*
X62746789Y-97535289D01*
X62834394Y-97404179D01*
X62894737Y-97258497D01*
X62925500Y-97103842D01*
X62925500Y-96946158D01*
X62925500Y-96946155D01*
X62925499Y-96946153D01*
X62894738Y-96791510D01*
X62894737Y-96791503D01*
X62894735Y-96791498D01*
X62834397Y-96645827D01*
X62834390Y-96645814D01*
X62746789Y-96514711D01*
X62746786Y-96514707D01*
X62635292Y-96403213D01*
X62635288Y-96403210D01*
X62504185Y-96315609D01*
X62504172Y-96315602D01*
X62358501Y-96255264D01*
X62358489Y-96255261D01*
X62203845Y-96224500D01*
X62203842Y-96224500D01*
X62046158Y-96224500D01*
X62046155Y-96224500D01*
X61891510Y-96255261D01*
X61891498Y-96255264D01*
X61745827Y-96315602D01*
X61745814Y-96315609D01*
X61614711Y-96403210D01*
X61614707Y-96403213D01*
X61503213Y-96514707D01*
X61503210Y-96514711D01*
X61415609Y-96645814D01*
X61415602Y-96645827D01*
X61355264Y-96791498D01*
X61355261Y-96791510D01*
X61324500Y-96946153D01*
X50200500Y-96946153D01*
X50200500Y-95061153D01*
X57253250Y-95061153D01*
X57253250Y-95218846D01*
X57284011Y-95373489D01*
X57284014Y-95373501D01*
X57344352Y-95519172D01*
X57344359Y-95519185D01*
X57431960Y-95650288D01*
X57431963Y-95650292D01*
X57543457Y-95761786D01*
X57543461Y-95761789D01*
X57674564Y-95849390D01*
X57674577Y-95849397D01*
X57820248Y-95909735D01*
X57820253Y-95909737D01*
X57974903Y-95940499D01*
X57974906Y-95940500D01*
X57974908Y-95940500D01*
X58132594Y-95940500D01*
X58132595Y-95940499D01*
X58287247Y-95909737D01*
X58432929Y-95849394D01*
X58564039Y-95761789D01*
X58675539Y-95650289D01*
X58763144Y-95519179D01*
X58823487Y-95373497D01*
X58854250Y-95218842D01*
X58854250Y-95061158D01*
X58854250Y-95061155D01*
X58854249Y-95061153D01*
X58844770Y-95013501D01*
X58823487Y-94906503D01*
X58822524Y-94904179D01*
X58763147Y-94760827D01*
X58763140Y-94760814D01*
X58675539Y-94629711D01*
X58675536Y-94629707D01*
X58564042Y-94518213D01*
X58564038Y-94518210D01*
X58432935Y-94430609D01*
X58432922Y-94430602D01*
X58287251Y-94370264D01*
X58287239Y-94370261D01*
X58132595Y-94339500D01*
X58132592Y-94339500D01*
X57974908Y-94339500D01*
X57974905Y-94339500D01*
X57820260Y-94370261D01*
X57820248Y-94370264D01*
X57674577Y-94430602D01*
X57674564Y-94430609D01*
X57543461Y-94518210D01*
X57543457Y-94518213D01*
X57431963Y-94629707D01*
X57431960Y-94629711D01*
X57344359Y-94760814D01*
X57344352Y-94760827D01*
X57284014Y-94906498D01*
X57284011Y-94906510D01*
X57253250Y-95061153D01*
X50200500Y-95061153D01*
X50200500Y-93961153D01*
X59028250Y-93961153D01*
X59028250Y-94118846D01*
X59059011Y-94273489D01*
X59059014Y-94273501D01*
X59119352Y-94419172D01*
X59119359Y-94419185D01*
X59206960Y-94550288D01*
X59206963Y-94550292D01*
X59318457Y-94661786D01*
X59318461Y-94661789D01*
X59449564Y-94749390D01*
X59449577Y-94749397D01*
X59595248Y-94809735D01*
X59595253Y-94809737D01*
X59714662Y-94833489D01*
X59749903Y-94840499D01*
X59749906Y-94840500D01*
X59749908Y-94840500D01*
X59907594Y-94840500D01*
X59907595Y-94840499D01*
X60062247Y-94809737D01*
X60180342Y-94760821D01*
X60207922Y-94749397D01*
X60207922Y-94749396D01*
X60207929Y-94749394D01*
X60339039Y-94661789D01*
X60450539Y-94550289D01*
X60520121Y-94446153D01*
X66299500Y-94446153D01*
X66299500Y-94603846D01*
X66330261Y-94758489D01*
X66330264Y-94758501D01*
X66390602Y-94904172D01*
X66390609Y-94904185D01*
X66478210Y-95035288D01*
X66478213Y-95035292D01*
X66589707Y-95146786D01*
X66589711Y-95146789D01*
X66720814Y-95234390D01*
X66720827Y-95234397D01*
X66866498Y-95294735D01*
X66866503Y-95294737D01*
X67021153Y-95325499D01*
X67021156Y-95325500D01*
X67021158Y-95325500D01*
X67178844Y-95325500D01*
X67178845Y-95325499D01*
X67333497Y-95294737D01*
X67479179Y-95234394D01*
X67499984Y-95220491D01*
X67566658Y-95199612D01*
X67634038Y-95218094D01*
X67637767Y-95220490D01*
X67770814Y-95309390D01*
X67770827Y-95309397D01*
X67916498Y-95369735D01*
X67916503Y-95369737D01*
X68071153Y-95400499D01*
X68071156Y-95400500D01*
X68071158Y-95400500D01*
X68228844Y-95400500D01*
X68228845Y-95400499D01*
X68383497Y-95369737D01*
X68529179Y-95309394D01*
X68660289Y-95221789D01*
X68771789Y-95110289D01*
X68859394Y-94979179D01*
X68919737Y-94833497D01*
X68946062Y-94701153D01*
X84734500Y-94701153D01*
X84734500Y-94858846D01*
X84765261Y-95013489D01*
X84765264Y-95013501D01*
X84825602Y-95159172D01*
X84825609Y-95159185D01*
X84913210Y-95290288D01*
X84913213Y-95290292D01*
X85024707Y-95401786D01*
X85024711Y-95401789D01*
X85155814Y-95489390D01*
X85155827Y-95489397D01*
X85227743Y-95519185D01*
X85301503Y-95549737D01*
X85456153Y-95580499D01*
X85456156Y-95580500D01*
X85456158Y-95580500D01*
X85613844Y-95580500D01*
X85613845Y-95580499D01*
X85768497Y-95549737D01*
X85914179Y-95489394D01*
X86045289Y-95401789D01*
X86156789Y-95290289D01*
X86244394Y-95159179D01*
X86304737Y-95013497D01*
X86335500Y-94858842D01*
X86335500Y-94701158D01*
X86335500Y-94701155D01*
X86335499Y-94701153D01*
X86330897Y-94678017D01*
X86304737Y-94546503D01*
X86263171Y-94446153D01*
X86244397Y-94400827D01*
X86244390Y-94400814D01*
X86195930Y-94328289D01*
X86156789Y-94269711D01*
X86156786Y-94269707D01*
X86154604Y-94267525D01*
X87659500Y-94267525D01*
X87659500Y-94412475D01*
X87697016Y-94552485D01*
X87697017Y-94552488D01*
X87769488Y-94678011D01*
X87769490Y-94678013D01*
X87769491Y-94678015D01*
X87871985Y-94780509D01*
X87871986Y-94780510D01*
X87871988Y-94780511D01*
X87997511Y-94852982D01*
X87997512Y-94852982D01*
X87997515Y-94852984D01*
X88137525Y-94890500D01*
X88137528Y-94890500D01*
X88282472Y-94890500D01*
X88282475Y-94890500D01*
X88422485Y-94852984D01*
X88548015Y-94780509D01*
X88650509Y-94678015D01*
X88722984Y-94552485D01*
X88760500Y-94412475D01*
X88760500Y-94267525D01*
X88722984Y-94127515D01*
X88701155Y-94089707D01*
X88650511Y-94001988D01*
X88650506Y-94001982D01*
X88548017Y-93899493D01*
X88548011Y-93899488D01*
X88422488Y-93827017D01*
X88422489Y-93827017D01*
X88411006Y-93823940D01*
X88282475Y-93789500D01*
X88137525Y-93789500D01*
X88008993Y-93823940D01*
X87997511Y-93827017D01*
X87871988Y-93899488D01*
X87871982Y-93899493D01*
X87769493Y-94001982D01*
X87769488Y-94001988D01*
X87697017Y-94127511D01*
X87697016Y-94127515D01*
X87659500Y-94267525D01*
X86154604Y-94267525D01*
X86045292Y-94158213D01*
X86045288Y-94158210D01*
X85914185Y-94070609D01*
X85914172Y-94070602D01*
X85768501Y-94010264D01*
X85768489Y-94010261D01*
X85613845Y-93979500D01*
X85613842Y-93979500D01*
X85456158Y-93979500D01*
X85456155Y-93979500D01*
X85301510Y-94010261D01*
X85301498Y-94010264D01*
X85155827Y-94070602D01*
X85155814Y-94070609D01*
X85024711Y-94158210D01*
X85024707Y-94158213D01*
X84913213Y-94269707D01*
X84913210Y-94269711D01*
X84825609Y-94400814D01*
X84825602Y-94400827D01*
X84765264Y-94546498D01*
X84765261Y-94546510D01*
X84734500Y-94701153D01*
X68946062Y-94701153D01*
X68950500Y-94678842D01*
X68950500Y-94521158D01*
X68950500Y-94521155D01*
X68950499Y-94521153D01*
X68935580Y-94446153D01*
X68919737Y-94366503D01*
X68908552Y-94339500D01*
X68859397Y-94220827D01*
X68859390Y-94220814D01*
X68771789Y-94089711D01*
X68771786Y-94089707D01*
X68660292Y-93978213D01*
X68660288Y-93978210D01*
X68529185Y-93890609D01*
X68529172Y-93890602D01*
X68383501Y-93830264D01*
X68383489Y-93830261D01*
X68228845Y-93799500D01*
X68228842Y-93799500D01*
X68071158Y-93799500D01*
X68071155Y-93799500D01*
X67916510Y-93830261D01*
X67916498Y-93830264D01*
X67770827Y-93890602D01*
X67770818Y-93890607D01*
X67750011Y-93904510D01*
X67683333Y-93925386D01*
X67615953Y-93906900D01*
X67612231Y-93904508D01*
X67479185Y-93815609D01*
X67479172Y-93815602D01*
X67333501Y-93755264D01*
X67333489Y-93755261D01*
X67178845Y-93724500D01*
X67178842Y-93724500D01*
X67021158Y-93724500D01*
X67021155Y-93724500D01*
X66866510Y-93755261D01*
X66866498Y-93755264D01*
X66720827Y-93815602D01*
X66720814Y-93815609D01*
X66589711Y-93903210D01*
X66589707Y-93903213D01*
X66478213Y-94014707D01*
X66478210Y-94014711D01*
X66390609Y-94145814D01*
X66390602Y-94145827D01*
X66330264Y-94291498D01*
X66330261Y-94291510D01*
X66299500Y-94446153D01*
X60520121Y-94446153D01*
X60538144Y-94419179D01*
X60545751Y-94400814D01*
X60549148Y-94392614D01*
X60598485Y-94273501D01*
X60598487Y-94273497D01*
X60629250Y-94118842D01*
X60629250Y-93961158D01*
X60629250Y-93961155D01*
X60629249Y-93961153D01*
X60617982Y-93904510D01*
X60598487Y-93806503D01*
X60591444Y-93789500D01*
X60538147Y-93660827D01*
X60538140Y-93660814D01*
X60450539Y-93529711D01*
X60450536Y-93529707D01*
X60339042Y-93418213D01*
X60339038Y-93418210D01*
X60207935Y-93330609D01*
X60207922Y-93330602D01*
X60062251Y-93270264D01*
X60062239Y-93270261D01*
X59907595Y-93239500D01*
X59907592Y-93239500D01*
X59749908Y-93239500D01*
X59749905Y-93239500D01*
X59595260Y-93270261D01*
X59595248Y-93270264D01*
X59449577Y-93330602D01*
X59449564Y-93330609D01*
X59318461Y-93418210D01*
X59318457Y-93418213D01*
X59206963Y-93529707D01*
X59206960Y-93529711D01*
X59119359Y-93660814D01*
X59119352Y-93660827D01*
X59059014Y-93806498D01*
X59059011Y-93806510D01*
X59028250Y-93961153D01*
X50200500Y-93961153D01*
X50200500Y-90271153D01*
X59899500Y-90271153D01*
X59899500Y-90428846D01*
X59930261Y-90583489D01*
X59930264Y-90583501D01*
X59990602Y-90729172D01*
X59990609Y-90729185D01*
X60078210Y-90860288D01*
X60078213Y-90860292D01*
X60189707Y-90971786D01*
X60189711Y-90971789D01*
X60320814Y-91059390D01*
X60320827Y-91059397D01*
X60420060Y-91100500D01*
X60466503Y-91119737D01*
X60621153Y-91150499D01*
X60621156Y-91150500D01*
X60621158Y-91150500D01*
X60778844Y-91150500D01*
X60778845Y-91150499D01*
X60933497Y-91119737D01*
X61079179Y-91059394D01*
X61210289Y-90971789D01*
X61321789Y-90860289D01*
X61409394Y-90729179D01*
X61469737Y-90583497D01*
X61500500Y-90428842D01*
X61500500Y-90271158D01*
X61500500Y-90271155D01*
X61494155Y-90239258D01*
X61494155Y-90239257D01*
X61490554Y-90221153D01*
X64999500Y-90221153D01*
X64999500Y-90378846D01*
X65030261Y-90533489D01*
X65030264Y-90533501D01*
X65090602Y-90679172D01*
X65090609Y-90679185D01*
X65178210Y-90810288D01*
X65178213Y-90810292D01*
X65289707Y-90921786D01*
X65289711Y-90921789D01*
X65420814Y-91009390D01*
X65420827Y-91009397D01*
X65566498Y-91069735D01*
X65566503Y-91069737D01*
X65721153Y-91100499D01*
X65721156Y-91100500D01*
X65721158Y-91100500D01*
X65878844Y-91100500D01*
X65878845Y-91100499D01*
X66033497Y-91069737D01*
X66179179Y-91009394D01*
X66310289Y-90921789D01*
X66421789Y-90810289D01*
X66509394Y-90679179D01*
X66569737Y-90533497D01*
X66600500Y-90378842D01*
X66600500Y-90221158D01*
X66600500Y-90221155D01*
X66600499Y-90221153D01*
X66579684Y-90116510D01*
X66569737Y-90066503D01*
X66560721Y-90044737D01*
X66509397Y-89920827D01*
X66509390Y-89920814D01*
X66421789Y-89789711D01*
X66421786Y-89789707D01*
X66310292Y-89678213D01*
X66310288Y-89678210D01*
X66179185Y-89590609D01*
X66179172Y-89590602D01*
X66033501Y-89530264D01*
X66033489Y-89530261D01*
X65878845Y-89499500D01*
X65878842Y-89499500D01*
X65721158Y-89499500D01*
X65721155Y-89499500D01*
X65566510Y-89530261D01*
X65566498Y-89530264D01*
X65420827Y-89590602D01*
X65420814Y-89590609D01*
X65289711Y-89678210D01*
X65289707Y-89678213D01*
X65178213Y-89789707D01*
X65178210Y-89789711D01*
X65090609Y-89920814D01*
X65090602Y-89920827D01*
X65030264Y-90066498D01*
X65030261Y-90066510D01*
X64999500Y-90221153D01*
X61490554Y-90221153D01*
X61469738Y-90116510D01*
X61469737Y-90116503D01*
X61452753Y-90075499D01*
X61409397Y-89970827D01*
X61409390Y-89970814D01*
X61321789Y-89839711D01*
X61321786Y-89839707D01*
X61210292Y-89728213D01*
X61210288Y-89728210D01*
X61079185Y-89640609D01*
X61079172Y-89640602D01*
X60933501Y-89580264D01*
X60933489Y-89580261D01*
X60778845Y-89549500D01*
X60778842Y-89549500D01*
X60621158Y-89549500D01*
X60621155Y-89549500D01*
X60466510Y-89580261D01*
X60466498Y-89580264D01*
X60320827Y-89640602D01*
X60320814Y-89640609D01*
X60189711Y-89728210D01*
X60189707Y-89728213D01*
X60078213Y-89839707D01*
X60078210Y-89839711D01*
X59990609Y-89970814D01*
X59990602Y-89970827D01*
X59930264Y-90116498D01*
X59930261Y-90116510D01*
X59899500Y-90271153D01*
X50200500Y-90271153D01*
X50200500Y-89196153D01*
X66649500Y-89196153D01*
X66649500Y-89353846D01*
X66680261Y-89508489D01*
X66680264Y-89508501D01*
X66740602Y-89654172D01*
X66740609Y-89654185D01*
X66828210Y-89785288D01*
X66828213Y-89785292D01*
X66939707Y-89896786D01*
X66939711Y-89896789D01*
X67070814Y-89984390D01*
X67070827Y-89984397D01*
X67216498Y-90044735D01*
X67216503Y-90044737D01*
X67325963Y-90066510D01*
X67371153Y-90075499D01*
X67371156Y-90075500D01*
X67371158Y-90075500D01*
X67528844Y-90075500D01*
X67528845Y-90075499D01*
X67683497Y-90044737D01*
X67829179Y-89984394D01*
X67960289Y-89896789D01*
X68071789Y-89785289D01*
X68159394Y-89654179D01*
X68219737Y-89508497D01*
X68250500Y-89353842D01*
X68250500Y-89196158D01*
X68250500Y-89196155D01*
X68250499Y-89196153D01*
X68223253Y-89059179D01*
X68219737Y-89041503D01*
X68219735Y-89041498D01*
X68159397Y-88895827D01*
X68159390Y-88895814D01*
X68071789Y-88764711D01*
X68071786Y-88764707D01*
X67960292Y-88653213D01*
X67960288Y-88653210D01*
X67882380Y-88601153D01*
X78959500Y-88601153D01*
X78959500Y-88758846D01*
X78990261Y-88913489D01*
X78990264Y-88913501D01*
X79050602Y-89059172D01*
X79050609Y-89059185D01*
X79138210Y-89190288D01*
X79138213Y-89190292D01*
X79249707Y-89301786D01*
X79249711Y-89301789D01*
X79380814Y-89389390D01*
X79380827Y-89389397D01*
X79526498Y-89449735D01*
X79526503Y-89449737D01*
X79681153Y-89480499D01*
X79681156Y-89480500D01*
X79681158Y-89480500D01*
X79838844Y-89480500D01*
X79838845Y-89480499D01*
X79993497Y-89449737D01*
X80139179Y-89389394D01*
X80270289Y-89301789D01*
X80381789Y-89190289D01*
X80469394Y-89059179D01*
X80529737Y-88913497D01*
X80560500Y-88758842D01*
X80560500Y-88601158D01*
X80560500Y-88601155D01*
X80560499Y-88601153D01*
X80554250Y-88569737D01*
X80529737Y-88446503D01*
X80514366Y-88409394D01*
X80469397Y-88300827D01*
X80469390Y-88300814D01*
X80381789Y-88169711D01*
X80381786Y-88169707D01*
X80270292Y-88058213D01*
X80270288Y-88058210D01*
X80139185Y-87970609D01*
X80139172Y-87970602D01*
X79993501Y-87910264D01*
X79993489Y-87910261D01*
X79838845Y-87879500D01*
X79838842Y-87879500D01*
X79681158Y-87879500D01*
X79681155Y-87879500D01*
X79526510Y-87910261D01*
X79526498Y-87910264D01*
X79380827Y-87970602D01*
X79380814Y-87970609D01*
X79249711Y-88058210D01*
X79249707Y-88058213D01*
X79138213Y-88169707D01*
X79138210Y-88169711D01*
X79050609Y-88300814D01*
X79050602Y-88300827D01*
X78990264Y-88446498D01*
X78990261Y-88446510D01*
X78959500Y-88601153D01*
X67882380Y-88601153D01*
X67829185Y-88565609D01*
X67829172Y-88565602D01*
X67683501Y-88505264D01*
X67683489Y-88505261D01*
X67528845Y-88474500D01*
X67528842Y-88474500D01*
X67371158Y-88474500D01*
X67371155Y-88474500D01*
X67216510Y-88505261D01*
X67216498Y-88505264D01*
X67070827Y-88565602D01*
X67070814Y-88565609D01*
X66939711Y-88653210D01*
X66939707Y-88653213D01*
X66828213Y-88764707D01*
X66828210Y-88764711D01*
X66740609Y-88895814D01*
X66740602Y-88895827D01*
X66680264Y-89041498D01*
X66680261Y-89041510D01*
X66649500Y-89196153D01*
X50200500Y-89196153D01*
X50200500Y-87621153D01*
X59999500Y-87621153D01*
X59999500Y-87778846D01*
X60030261Y-87933489D01*
X60030264Y-87933501D01*
X60090602Y-88079172D01*
X60090609Y-88079185D01*
X60178210Y-88210288D01*
X60178213Y-88210292D01*
X60289707Y-88321786D01*
X60289711Y-88321789D01*
X60420814Y-88409390D01*
X60420827Y-88409397D01*
X60566498Y-88469735D01*
X60566503Y-88469737D01*
X60721153Y-88500499D01*
X60721156Y-88500500D01*
X60721158Y-88500500D01*
X60878844Y-88500500D01*
X60878845Y-88500499D01*
X61033497Y-88469737D01*
X61179179Y-88409394D01*
X61310289Y-88321789D01*
X61421789Y-88210289D01*
X61509394Y-88079179D01*
X61569737Y-87933497D01*
X61600500Y-87778842D01*
X61600500Y-87621158D01*
X61600500Y-87621155D01*
X61600499Y-87621153D01*
X61569738Y-87466510D01*
X61569737Y-87466503D01*
X61550812Y-87420814D01*
X61509397Y-87320827D01*
X61509390Y-87320814D01*
X61421790Y-87189712D01*
X61421784Y-87189705D01*
X61353232Y-87121153D01*
X65274500Y-87121153D01*
X65274500Y-87278846D01*
X65305261Y-87433489D01*
X65305264Y-87433501D01*
X65365602Y-87579172D01*
X65365609Y-87579185D01*
X65453210Y-87710288D01*
X65453213Y-87710292D01*
X65564707Y-87821786D01*
X65564711Y-87821789D01*
X65695814Y-87909390D01*
X65695827Y-87909397D01*
X65841498Y-87969735D01*
X65841503Y-87969737D01*
X65996153Y-88000499D01*
X65996156Y-88000500D01*
X65996158Y-88000500D01*
X66153844Y-88000500D01*
X66153845Y-88000499D01*
X66308497Y-87969737D01*
X66454179Y-87909394D01*
X66585289Y-87821789D01*
X66696789Y-87710289D01*
X66784394Y-87579179D01*
X66844737Y-87433497D01*
X66875500Y-87278842D01*
X66875500Y-87121158D01*
X66875500Y-87121155D01*
X66875499Y-87121153D01*
X66856100Y-87023628D01*
X66844737Y-86966503D01*
X66835445Y-86944070D01*
X66784397Y-86820827D01*
X66784390Y-86820814D01*
X66696789Y-86689711D01*
X66696786Y-86689707D01*
X66585292Y-86578213D01*
X66585288Y-86578210D01*
X66454185Y-86490609D01*
X66454172Y-86490602D01*
X66308501Y-86430264D01*
X66308489Y-86430261D01*
X66153845Y-86399500D01*
X66153842Y-86399500D01*
X65996158Y-86399500D01*
X65996155Y-86399500D01*
X65841510Y-86430261D01*
X65841498Y-86430264D01*
X65695827Y-86490602D01*
X65695814Y-86490609D01*
X65564711Y-86578210D01*
X65564707Y-86578213D01*
X65453213Y-86689707D01*
X65453210Y-86689711D01*
X65365609Y-86820814D01*
X65365602Y-86820827D01*
X65305264Y-86966498D01*
X65305261Y-86966510D01*
X65274500Y-87121153D01*
X61353232Y-87121153D01*
X61310292Y-87078213D01*
X61310288Y-87078210D01*
X61179185Y-86990609D01*
X61179172Y-86990602D01*
X61033501Y-86930264D01*
X61033489Y-86930261D01*
X60878845Y-86899500D01*
X60878842Y-86899500D01*
X60721158Y-86899500D01*
X60721155Y-86899500D01*
X60566510Y-86930261D01*
X60566498Y-86930264D01*
X60420827Y-86990602D01*
X60420814Y-86990609D01*
X60289711Y-87078210D01*
X60289707Y-87078213D01*
X60178213Y-87189707D01*
X60178210Y-87189711D01*
X60090609Y-87320814D01*
X60090602Y-87320827D01*
X60030264Y-87466498D01*
X60030261Y-87466510D01*
X59999500Y-87621153D01*
X50200500Y-87621153D01*
X50200500Y-85071153D01*
X60024500Y-85071153D01*
X60024500Y-85228846D01*
X60055261Y-85383489D01*
X60055264Y-85383501D01*
X60115602Y-85529172D01*
X60115609Y-85529185D01*
X60203210Y-85660288D01*
X60203213Y-85660292D01*
X60314707Y-85771786D01*
X60314711Y-85771789D01*
X60445814Y-85859390D01*
X60445827Y-85859397D01*
X60591498Y-85919735D01*
X60591503Y-85919737D01*
X60724400Y-85946172D01*
X60746153Y-85950499D01*
X60746156Y-85950500D01*
X60746158Y-85950500D01*
X60903844Y-85950500D01*
X60903845Y-85950499D01*
X61058497Y-85919737D01*
X61204179Y-85859394D01*
X61335289Y-85771789D01*
X61446789Y-85660289D01*
X61534394Y-85529179D01*
X61589495Y-85396153D01*
X66424500Y-85396153D01*
X66424500Y-85553846D01*
X66455261Y-85708489D01*
X66455264Y-85708501D01*
X66515602Y-85854172D01*
X66515609Y-85854185D01*
X66603210Y-85985288D01*
X66603213Y-85985292D01*
X66714707Y-86096786D01*
X66714711Y-86096789D01*
X66845814Y-86184390D01*
X66845827Y-86184397D01*
X66973198Y-86237155D01*
X66991503Y-86244737D01*
X67146153Y-86275499D01*
X67146156Y-86275500D01*
X67146158Y-86275500D01*
X67303844Y-86275500D01*
X67303845Y-86275499D01*
X67458497Y-86244737D01*
X67604179Y-86184394D01*
X67735289Y-86096789D01*
X67810925Y-86021153D01*
X69424500Y-86021153D01*
X69424500Y-86178846D01*
X69455261Y-86333489D01*
X69455264Y-86333501D01*
X69515602Y-86479172D01*
X69515609Y-86479185D01*
X69603210Y-86610288D01*
X69603213Y-86610292D01*
X69714707Y-86721786D01*
X69714711Y-86721789D01*
X69845814Y-86809390D01*
X69845827Y-86809397D01*
X69933698Y-86845794D01*
X69988102Y-86889635D01*
X70010167Y-86955929D01*
X69992888Y-87023628D01*
X69941751Y-87071239D01*
X69933699Y-87074916D01*
X69895824Y-87090604D01*
X69895814Y-87090609D01*
X69764711Y-87178210D01*
X69764707Y-87178213D01*
X69653213Y-87289707D01*
X69653210Y-87289711D01*
X69565609Y-87420814D01*
X69565602Y-87420827D01*
X69505264Y-87566498D01*
X69505261Y-87566510D01*
X69474500Y-87721153D01*
X69474500Y-87878846D01*
X69505261Y-88033489D01*
X69505264Y-88033501D01*
X69565602Y-88179172D01*
X69565609Y-88179185D01*
X69653210Y-88310288D01*
X69653213Y-88310292D01*
X69764707Y-88421786D01*
X69764711Y-88421789D01*
X69895814Y-88509390D01*
X69895827Y-88509397D01*
X70031520Y-88565602D01*
X70041503Y-88569737D01*
X70196153Y-88600499D01*
X70196156Y-88600500D01*
X70196158Y-88600500D01*
X70353844Y-88600500D01*
X70353845Y-88600499D01*
X70508497Y-88569737D01*
X70654179Y-88509394D01*
X70654186Y-88509388D01*
X70654190Y-88509387D01*
X70680262Y-88491966D01*
X70680266Y-88491964D01*
X70748309Y-88446498D01*
X70785289Y-88421789D01*
X70896789Y-88310289D01*
X70984394Y-88179179D01*
X71044737Y-88033497D01*
X71075500Y-87878842D01*
X71075500Y-87721158D01*
X71075500Y-87721155D01*
X71075499Y-87721153D01*
X71073338Y-87710288D01*
X71044737Y-87566503D01*
X71003314Y-87466498D01*
X70984397Y-87420827D01*
X70984390Y-87420814D01*
X70896789Y-87289711D01*
X70896786Y-87289707D01*
X70785292Y-87178213D01*
X70785288Y-87178210D01*
X70654185Y-87090609D01*
X70654175Y-87090604D01*
X70566300Y-87054205D01*
X70511897Y-87010364D01*
X70489832Y-86944070D01*
X70507111Y-86876370D01*
X70558249Y-86828760D01*
X70566288Y-86825088D01*
X70604179Y-86809394D01*
X70735289Y-86721789D01*
X70846789Y-86610289D01*
X70934394Y-86479179D01*
X70994737Y-86333497D01*
X71001586Y-86299063D01*
X71033970Y-86237155D01*
X71094685Y-86202580D01*
X71164455Y-86206319D01*
X71192095Y-86220154D01*
X71250821Y-86259394D01*
X71250823Y-86259395D01*
X71250827Y-86259397D01*
X71333163Y-86293501D01*
X71396503Y-86319737D01*
X71544482Y-86349172D01*
X71551153Y-86350499D01*
X71551156Y-86350500D01*
X71701020Y-86350500D01*
X71768059Y-86370185D01*
X71813814Y-86422989D01*
X71815582Y-86427050D01*
X71820604Y-86439175D01*
X71820609Y-86439185D01*
X71908210Y-86570288D01*
X71908213Y-86570292D01*
X72019707Y-86681786D01*
X72019711Y-86681789D01*
X72150814Y-86769390D01*
X72150827Y-86769397D01*
X72294144Y-86828760D01*
X72296503Y-86829737D01*
X72451153Y-86860499D01*
X72451156Y-86860500D01*
X72451158Y-86860500D01*
X72608844Y-86860500D01*
X72608845Y-86860499D01*
X72763497Y-86829737D01*
X72909179Y-86769394D01*
X73040289Y-86681789D01*
X73151789Y-86570289D01*
X73239394Y-86439179D01*
X73299737Y-86293497D01*
X73330500Y-86138842D01*
X73330500Y-85981158D01*
X73330500Y-85981155D01*
X73330499Y-85981153D01*
X73316199Y-85909257D01*
X73312598Y-85891153D01*
X78869500Y-85891153D01*
X78869500Y-86048846D01*
X78900261Y-86203489D01*
X78900264Y-86203501D01*
X78960602Y-86349172D01*
X78960609Y-86349185D01*
X79048210Y-86480288D01*
X79048213Y-86480292D01*
X79159707Y-86591786D01*
X79159711Y-86591789D01*
X79290814Y-86679390D01*
X79290827Y-86679397D01*
X79393165Y-86721786D01*
X79436503Y-86739737D01*
X79585578Y-86769390D01*
X79591153Y-86770499D01*
X79591156Y-86770500D01*
X79591158Y-86770500D01*
X79748844Y-86770500D01*
X79748845Y-86770499D01*
X79903497Y-86739737D01*
X80049179Y-86679394D01*
X80180289Y-86591789D01*
X80291789Y-86480289D01*
X80379394Y-86349179D01*
X80439737Y-86203497D01*
X80470500Y-86048842D01*
X80470500Y-85891158D01*
X80470500Y-85891155D01*
X80470499Y-85891153D01*
X80464181Y-85859390D01*
X80439737Y-85736503D01*
X80433241Y-85720821D01*
X80379397Y-85590827D01*
X80379390Y-85590814D01*
X80291789Y-85459711D01*
X80291786Y-85459707D01*
X80180292Y-85348213D01*
X80180288Y-85348210D01*
X80049185Y-85260609D01*
X80049172Y-85260602D01*
X79903501Y-85200264D01*
X79903489Y-85200261D01*
X79748845Y-85169500D01*
X79748842Y-85169500D01*
X79591158Y-85169500D01*
X79591155Y-85169500D01*
X79436510Y-85200261D01*
X79436498Y-85200264D01*
X79290827Y-85260602D01*
X79290814Y-85260609D01*
X79159711Y-85348210D01*
X79159707Y-85348213D01*
X79048213Y-85459707D01*
X79048210Y-85459711D01*
X78960609Y-85590814D01*
X78960602Y-85590827D01*
X78900264Y-85736498D01*
X78900261Y-85736510D01*
X78869500Y-85891153D01*
X73312598Y-85891153D01*
X73299738Y-85826508D01*
X73299737Y-85826507D01*
X73299737Y-85826503D01*
X73255965Y-85720827D01*
X73239397Y-85680827D01*
X73239390Y-85680814D01*
X73151789Y-85549711D01*
X73151786Y-85549707D01*
X73040292Y-85438213D01*
X73040288Y-85438210D01*
X72909185Y-85350609D01*
X72909172Y-85350602D01*
X72763501Y-85290264D01*
X72763489Y-85290261D01*
X72608845Y-85259500D01*
X72608842Y-85259500D01*
X72458980Y-85259500D01*
X72391941Y-85239815D01*
X72346186Y-85187011D01*
X72344418Y-85182950D01*
X72339395Y-85170824D01*
X72339394Y-85170821D01*
X72339392Y-85170818D01*
X72339390Y-85170814D01*
X72251789Y-85039711D01*
X72251786Y-85039707D01*
X72140292Y-84928213D01*
X72140288Y-84928210D01*
X72009185Y-84840609D01*
X72009172Y-84840602D01*
X71863501Y-84780264D01*
X71863489Y-84780261D01*
X71708845Y-84749500D01*
X71708842Y-84749500D01*
X71551158Y-84749500D01*
X71551155Y-84749500D01*
X71396510Y-84780261D01*
X71396498Y-84780264D01*
X71250827Y-84840602D01*
X71250814Y-84840609D01*
X71119711Y-84928210D01*
X71119707Y-84928213D01*
X71008213Y-85039707D01*
X71008210Y-85039711D01*
X70920609Y-85170814D01*
X70920602Y-85170827D01*
X70860264Y-85316498D01*
X70860261Y-85316507D01*
X70853413Y-85350936D01*
X70821027Y-85412847D01*
X70760310Y-85447420D01*
X70690541Y-85443679D01*
X70662905Y-85429845D01*
X70604185Y-85390609D01*
X70604172Y-85390602D01*
X70458501Y-85330264D01*
X70458489Y-85330261D01*
X70303845Y-85299500D01*
X70303842Y-85299500D01*
X70146158Y-85299500D01*
X70146155Y-85299500D01*
X69991510Y-85330261D01*
X69991498Y-85330264D01*
X69845827Y-85390602D01*
X69845814Y-85390609D01*
X69714711Y-85478210D01*
X69714707Y-85478213D01*
X69603213Y-85589707D01*
X69603210Y-85589711D01*
X69515609Y-85720814D01*
X69515602Y-85720827D01*
X69455264Y-85866498D01*
X69455261Y-85866510D01*
X69424500Y-86021153D01*
X67810925Y-86021153D01*
X67846789Y-85985289D01*
X67934394Y-85854179D01*
X67994737Y-85708497D01*
X68025500Y-85553842D01*
X68025500Y-85396158D01*
X68025500Y-85396155D01*
X68025499Y-85396153D01*
X68019476Y-85365873D01*
X67994737Y-85241503D01*
X67989493Y-85228842D01*
X67934397Y-85095827D01*
X67934390Y-85095814D01*
X67846789Y-84964711D01*
X67846786Y-84964707D01*
X67735292Y-84853213D01*
X67735288Y-84853210D01*
X67604185Y-84765609D01*
X67604172Y-84765602D01*
X67458501Y-84705264D01*
X67458489Y-84705261D01*
X67303845Y-84674500D01*
X67303842Y-84674500D01*
X67146158Y-84674500D01*
X67146155Y-84674500D01*
X66991510Y-84705261D01*
X66991498Y-84705264D01*
X66845827Y-84765602D01*
X66845814Y-84765609D01*
X66714711Y-84853210D01*
X66714707Y-84853213D01*
X66603213Y-84964707D01*
X66603210Y-84964711D01*
X66515609Y-85095814D01*
X66515602Y-85095827D01*
X66455264Y-85241498D01*
X66455261Y-85241510D01*
X66424500Y-85396153D01*
X61589495Y-85396153D01*
X61594737Y-85383497D01*
X61625500Y-85228842D01*
X61625500Y-85071158D01*
X61625500Y-85071155D01*
X61625499Y-85071153D01*
X61597066Y-84928211D01*
X61594737Y-84916503D01*
X61568521Y-84853211D01*
X61534397Y-84770827D01*
X61534390Y-84770814D01*
X61446789Y-84639711D01*
X61446786Y-84639707D01*
X61335292Y-84528213D01*
X61335288Y-84528210D01*
X61204185Y-84440609D01*
X61204172Y-84440602D01*
X61058501Y-84380264D01*
X61058489Y-84380261D01*
X60903845Y-84349500D01*
X60903842Y-84349500D01*
X60746158Y-84349500D01*
X60746155Y-84349500D01*
X60591510Y-84380261D01*
X60591498Y-84380264D01*
X60445827Y-84440602D01*
X60445814Y-84440609D01*
X60314711Y-84528210D01*
X60314707Y-84528213D01*
X60203213Y-84639707D01*
X60203210Y-84639711D01*
X60115609Y-84770814D01*
X60115602Y-84770827D01*
X60055264Y-84916498D01*
X60055261Y-84916510D01*
X60024500Y-85071153D01*
X50200500Y-85071153D01*
X50200500Y-82371153D01*
X60099500Y-82371153D01*
X60099500Y-82528846D01*
X60130261Y-82683489D01*
X60130264Y-82683501D01*
X60190602Y-82829172D01*
X60190609Y-82829185D01*
X60278210Y-82960288D01*
X60278213Y-82960292D01*
X60389707Y-83071786D01*
X60389711Y-83071789D01*
X60520814Y-83159390D01*
X60520827Y-83159397D01*
X60666498Y-83219735D01*
X60666503Y-83219737D01*
X60821153Y-83250499D01*
X60821156Y-83250500D01*
X60821158Y-83250500D01*
X60978844Y-83250500D01*
X60978845Y-83250499D01*
X61133497Y-83219737D01*
X61202505Y-83191153D01*
X66399500Y-83191153D01*
X66399500Y-83348846D01*
X66430261Y-83503489D01*
X66430264Y-83503501D01*
X66490602Y-83649172D01*
X66490609Y-83649185D01*
X66578210Y-83780288D01*
X66578213Y-83780292D01*
X66689707Y-83891786D01*
X66689711Y-83891789D01*
X66820814Y-83979390D01*
X66820827Y-83979397D01*
X66966498Y-84039735D01*
X66966503Y-84039737D01*
X67121153Y-84070499D01*
X67121156Y-84070500D01*
X67121158Y-84070500D01*
X67278844Y-84070500D01*
X67278845Y-84070499D01*
X67433497Y-84039737D01*
X67579179Y-83979394D01*
X67710289Y-83891789D01*
X67821789Y-83780289D01*
X67909394Y-83649179D01*
X67969737Y-83503497D01*
X68000500Y-83348842D01*
X68000500Y-83191158D01*
X68000500Y-83191155D01*
X68000499Y-83191153D01*
X67978780Y-83081964D01*
X67969737Y-83036503D01*
X67938170Y-82960292D01*
X67909397Y-82890827D01*
X67909390Y-82890814D01*
X67821789Y-82759711D01*
X67821786Y-82759707D01*
X67710292Y-82648213D01*
X67710288Y-82648210D01*
X67579185Y-82560609D01*
X67579172Y-82560602D01*
X67433501Y-82500264D01*
X67433489Y-82500261D01*
X67278845Y-82469500D01*
X67278842Y-82469500D01*
X67121158Y-82469500D01*
X67121155Y-82469500D01*
X66966510Y-82500261D01*
X66966498Y-82500264D01*
X66820827Y-82560602D01*
X66820814Y-82560609D01*
X66689711Y-82648210D01*
X66689707Y-82648213D01*
X66578213Y-82759707D01*
X66578210Y-82759711D01*
X66490609Y-82890814D01*
X66490602Y-82890827D01*
X66430264Y-83036498D01*
X66430261Y-83036510D01*
X66399500Y-83191153D01*
X61202505Y-83191153D01*
X61279179Y-83159394D01*
X61279185Y-83159390D01*
X61395062Y-83081964D01*
X61395062Y-83081963D01*
X61410289Y-83071789D01*
X61521789Y-82960289D01*
X61609394Y-82829179D01*
X61669737Y-82683497D01*
X61700500Y-82528842D01*
X61700500Y-82371158D01*
X61700500Y-82371155D01*
X61700499Y-82371153D01*
X61669738Y-82216510D01*
X61669737Y-82216503D01*
X61669735Y-82216498D01*
X61609397Y-82070827D01*
X61609390Y-82070814D01*
X61521789Y-81939711D01*
X61521786Y-81939707D01*
X61410292Y-81828213D01*
X61410288Y-81828210D01*
X61279185Y-81740609D01*
X61279172Y-81740602D01*
X61133501Y-81680264D01*
X61133489Y-81680261D01*
X60978845Y-81649500D01*
X60978842Y-81649500D01*
X60821158Y-81649500D01*
X60821155Y-81649500D01*
X60666510Y-81680261D01*
X60666498Y-81680264D01*
X60520827Y-81740602D01*
X60520814Y-81740609D01*
X60389711Y-81828210D01*
X60389707Y-81828213D01*
X60278213Y-81939707D01*
X60278210Y-81939711D01*
X60190609Y-82070814D01*
X60190602Y-82070827D01*
X60130264Y-82216498D01*
X60130261Y-82216510D01*
X60099500Y-82371153D01*
X50200500Y-82371153D01*
X50200500Y-81001153D01*
X66424500Y-81001153D01*
X66424500Y-81158846D01*
X66455261Y-81313489D01*
X66455264Y-81313501D01*
X66515602Y-81459172D01*
X66515609Y-81459185D01*
X66603210Y-81590288D01*
X66603213Y-81590292D01*
X66714707Y-81701786D01*
X66714711Y-81701789D01*
X66845814Y-81789390D01*
X66845827Y-81789397D01*
X66939534Y-81828211D01*
X66991503Y-81849737D01*
X67146153Y-81880499D01*
X67146156Y-81880500D01*
X67146158Y-81880500D01*
X67303844Y-81880500D01*
X67303845Y-81880499D01*
X67458497Y-81849737D01*
X67604179Y-81789394D01*
X67735289Y-81701789D01*
X67846789Y-81590289D01*
X67934394Y-81459179D01*
X67994737Y-81313497D01*
X68025500Y-81158842D01*
X68025500Y-81001158D01*
X68025500Y-81001155D01*
X68025499Y-81001153D01*
X68019250Y-80969737D01*
X67994737Y-80846503D01*
X67984499Y-80821786D01*
X67934397Y-80700827D01*
X67934390Y-80700814D01*
X67846789Y-80569711D01*
X67846786Y-80569707D01*
X67735292Y-80458213D01*
X67735288Y-80458210D01*
X67604185Y-80370609D01*
X67604172Y-80370602D01*
X67458501Y-80310264D01*
X67458489Y-80310261D01*
X67303845Y-80279500D01*
X67303842Y-80279500D01*
X67146158Y-80279500D01*
X67146155Y-80279500D01*
X66991510Y-80310261D01*
X66991498Y-80310264D01*
X66845827Y-80370602D01*
X66845814Y-80370609D01*
X66714711Y-80458210D01*
X66714707Y-80458213D01*
X66603213Y-80569707D01*
X66603210Y-80569711D01*
X66515609Y-80700814D01*
X66515602Y-80700827D01*
X66455264Y-80846498D01*
X66455261Y-80846510D01*
X66424500Y-81001153D01*
X50200500Y-81001153D01*
X50200500Y-75511153D01*
X62449500Y-75511153D01*
X62449500Y-75668846D01*
X62480261Y-75823489D01*
X62480264Y-75823501D01*
X62540602Y-75969172D01*
X62540609Y-75969185D01*
X62628210Y-76100288D01*
X62628213Y-76100292D01*
X62739707Y-76211786D01*
X62739711Y-76211789D01*
X62870814Y-76299390D01*
X62870827Y-76299397D01*
X63016498Y-76359735D01*
X63016503Y-76359737D01*
X63138144Y-76383933D01*
X63171153Y-76390499D01*
X63171156Y-76390500D01*
X63317060Y-76390500D01*
X63384099Y-76410185D01*
X63404736Y-76426814D01*
X63447095Y-76469173D01*
X63459712Y-76481790D01*
X63590814Y-76569390D01*
X63590827Y-76569397D01*
X63735161Y-76629181D01*
X63736503Y-76629737D01*
X63855173Y-76653342D01*
X63891153Y-76660499D01*
X63891156Y-76660500D01*
X63891158Y-76660500D01*
X64048844Y-76660500D01*
X64048845Y-76660499D01*
X64203497Y-76629737D01*
X64349179Y-76569394D01*
X64480289Y-76481789D01*
X64591789Y-76370289D01*
X64679394Y-76239179D01*
X64739737Y-76093497D01*
X64756116Y-76011154D01*
X66339499Y-76011154D01*
X66339499Y-76168847D01*
X66370260Y-76323490D01*
X66370263Y-76323502D01*
X66430601Y-76469173D01*
X66430608Y-76469186D01*
X66518209Y-76600289D01*
X66518212Y-76600293D01*
X66629706Y-76711787D01*
X66629710Y-76711790D01*
X66760813Y-76799391D01*
X66760826Y-76799398D01*
X66894017Y-76854567D01*
X66948421Y-76898408D01*
X66970486Y-76964702D01*
X66961126Y-77016580D01*
X66903343Y-77156082D01*
X66903340Y-77156092D01*
X66874500Y-77301079D01*
X66874500Y-77301082D01*
X66874500Y-77448918D01*
X66874500Y-77448920D01*
X66874499Y-77448920D01*
X66903340Y-77593907D01*
X66903343Y-77593917D01*
X66958694Y-77727548D01*
X66966163Y-77797018D01*
X66958694Y-77822452D01*
X66903343Y-77956082D01*
X66903340Y-77956092D01*
X66874500Y-78101079D01*
X66874500Y-78101082D01*
X66874500Y-78248918D01*
X66874500Y-78248920D01*
X66874499Y-78248920D01*
X66903340Y-78393907D01*
X66903343Y-78393917D01*
X66959912Y-78530488D01*
X66959919Y-78530501D01*
X67042048Y-78653415D01*
X67042051Y-78653419D01*
X67146580Y-78757948D01*
X67146584Y-78757951D01*
X67269498Y-78840080D01*
X67269511Y-78840087D01*
X67406082Y-78896656D01*
X67406087Y-78896658D01*
X67406091Y-78896658D01*
X67406092Y-78896659D01*
X67551079Y-78925500D01*
X67698800Y-78925500D01*
X67765839Y-78945185D01*
X67811594Y-78997989D01*
X67821538Y-79067147D01*
X67813361Y-79096952D01*
X67805264Y-79116498D01*
X67805261Y-79116510D01*
X67774500Y-79271153D01*
X67774500Y-79428846D01*
X67805261Y-79583489D01*
X67805264Y-79583501D01*
X67865602Y-79729172D01*
X67865609Y-79729185D01*
X67953210Y-79860288D01*
X67953213Y-79860292D01*
X68064707Y-79971786D01*
X68064711Y-79971789D01*
X68195814Y-80059390D01*
X68195827Y-80059397D01*
X68341498Y-80119735D01*
X68341503Y-80119737D01*
X68496153Y-80150499D01*
X68496156Y-80150500D01*
X68496158Y-80150500D01*
X68653844Y-80150500D01*
X68653845Y-80150499D01*
X68808497Y-80119737D01*
X68853050Y-80101282D01*
X68922515Y-80093814D01*
X68984995Y-80125088D01*
X69020648Y-80185177D01*
X69024500Y-80215844D01*
X69024500Y-80278846D01*
X69055261Y-80433489D01*
X69055264Y-80433501D01*
X69115602Y-80579172D01*
X69115609Y-80579185D01*
X69203210Y-80710288D01*
X69203213Y-80710292D01*
X69314707Y-80821786D01*
X69314711Y-80821789D01*
X69445814Y-80909390D01*
X69445827Y-80909397D01*
X69591498Y-80969735D01*
X69591503Y-80969737D01*
X69742312Y-80999735D01*
X69746153Y-81000499D01*
X69746156Y-81000500D01*
X69746158Y-81000500D01*
X69903844Y-81000500D01*
X69903845Y-81000499D01*
X70058497Y-80969737D01*
X70204179Y-80909394D01*
X70335289Y-80821789D01*
X70446789Y-80710289D01*
X70534394Y-80579179D01*
X70594737Y-80433497D01*
X70625500Y-80278842D01*
X70625500Y-80151153D01*
X71394500Y-80151153D01*
X71394500Y-80308846D01*
X71425261Y-80463489D01*
X71425264Y-80463501D01*
X71485602Y-80609172D01*
X71485609Y-80609185D01*
X71573210Y-80740288D01*
X71573213Y-80740292D01*
X71684707Y-80851786D01*
X71684711Y-80851789D01*
X71815814Y-80939390D01*
X71815827Y-80939397D01*
X71889078Y-80969738D01*
X71961503Y-80999737D01*
X72116153Y-81030499D01*
X72116156Y-81030500D01*
X72116158Y-81030500D01*
X72273844Y-81030500D01*
X72273845Y-81030499D01*
X72428497Y-80999737D01*
X72574179Y-80939394D01*
X72705289Y-80851789D01*
X72816789Y-80740289D01*
X72904394Y-80609179D01*
X72964737Y-80463497D01*
X72995500Y-80308842D01*
X72995500Y-80151158D01*
X72995500Y-80151155D01*
X72995499Y-80151153D01*
X72989250Y-80119737D01*
X72964737Y-79996503D01*
X72908316Y-79860289D01*
X72904397Y-79850827D01*
X72904390Y-79850814D01*
X72816789Y-79719711D01*
X72816786Y-79719707D01*
X72705292Y-79608213D01*
X72705288Y-79608210D01*
X72574185Y-79520609D01*
X72574172Y-79520602D01*
X72428501Y-79460264D01*
X72428489Y-79460261D01*
X72273845Y-79429500D01*
X72273842Y-79429500D01*
X72116158Y-79429500D01*
X72116155Y-79429500D01*
X71961510Y-79460261D01*
X71961498Y-79460264D01*
X71815827Y-79520602D01*
X71815814Y-79520609D01*
X71684711Y-79608210D01*
X71684707Y-79608213D01*
X71573213Y-79719707D01*
X71573210Y-79719711D01*
X71485609Y-79850814D01*
X71485602Y-79850827D01*
X71425264Y-79996498D01*
X71425261Y-79996510D01*
X71394500Y-80151153D01*
X70625500Y-80151153D01*
X70625500Y-80121158D01*
X70625500Y-80121155D01*
X70625499Y-80121153D01*
X70613213Y-80059390D01*
X70594737Y-79966503D01*
X70594735Y-79966498D01*
X70534397Y-79820827D01*
X70534390Y-79820814D01*
X70446789Y-79689711D01*
X70446786Y-79689707D01*
X70335292Y-79578213D01*
X70335288Y-79578210D01*
X70204185Y-79490609D01*
X70204172Y-79490602D01*
X70058501Y-79430264D01*
X70058489Y-79430261D01*
X69903845Y-79399500D01*
X69903842Y-79399500D01*
X69746158Y-79399500D01*
X69746155Y-79399500D01*
X69591510Y-79430261D01*
X69591498Y-79430264D01*
X69546952Y-79448716D01*
X69477483Y-79456185D01*
X69415004Y-79424909D01*
X69379352Y-79364820D01*
X69375500Y-79334155D01*
X69375500Y-79271155D01*
X69375499Y-79271153D01*
X69344738Y-79116510D01*
X69344737Y-79116503D01*
X69324293Y-79067147D01*
X69284397Y-78970827D01*
X69284390Y-78970814D01*
X69196789Y-78839711D01*
X69196786Y-78839707D01*
X69085292Y-78728213D01*
X69030713Y-78691744D01*
X68985909Y-78638131D01*
X68977202Y-78568806D01*
X68988184Y-78536302D01*
X68987753Y-78536124D01*
X69046656Y-78393917D01*
X69046658Y-78393913D01*
X69075500Y-78248918D01*
X69075500Y-78101082D01*
X69075500Y-78101079D01*
X69046659Y-77956092D01*
X69046658Y-77956091D01*
X69046658Y-77956087D01*
X68991304Y-77822452D01*
X68983836Y-77752983D01*
X68991305Y-77727547D01*
X69046658Y-77593913D01*
X69075500Y-77448918D01*
X69075500Y-77301082D01*
X69075500Y-77301079D01*
X69046659Y-77156092D01*
X69046658Y-77156091D01*
X69046658Y-77156087D01*
X69046656Y-77156082D01*
X68990087Y-77019511D01*
X68990080Y-77019498D01*
X68907951Y-76896584D01*
X68907948Y-76896580D01*
X68803419Y-76792051D01*
X68803415Y-76792048D01*
X68680501Y-76709919D01*
X68680488Y-76709912D01*
X68543917Y-76653343D01*
X68543907Y-76653340D01*
X68398920Y-76624500D01*
X68398918Y-76624500D01*
X68251082Y-76624500D01*
X68251080Y-76624500D01*
X68106093Y-76653340D01*
X68106085Y-76653342D01*
X68022452Y-76687984D01*
X67991946Y-76691263D01*
X67961747Y-76696713D01*
X67955675Y-76695163D01*
X67952982Y-76695453D01*
X67927552Y-76687986D01*
X67891418Y-76673019D01*
X67837017Y-76629181D01*
X67814951Y-76562887D01*
X67832229Y-76495187D01*
X67835771Y-76489566D01*
X67840967Y-76481790D01*
X67849393Y-76469180D01*
X67909736Y-76323498D01*
X67940499Y-76168843D01*
X67940499Y-76011159D01*
X67940499Y-76011156D01*
X67940498Y-76011154D01*
X67932150Y-75969185D01*
X67909736Y-75856504D01*
X67878525Y-75781153D01*
X67849396Y-75710828D01*
X67849389Y-75710815D01*
X67761788Y-75579712D01*
X67761785Y-75579708D01*
X67650291Y-75468214D01*
X67650287Y-75468211D01*
X67519184Y-75380610D01*
X67519171Y-75380603D01*
X67373500Y-75320265D01*
X67373488Y-75320262D01*
X67218844Y-75289501D01*
X67218841Y-75289501D01*
X67061157Y-75289501D01*
X67061154Y-75289501D01*
X66906509Y-75320262D01*
X66906497Y-75320265D01*
X66760826Y-75380603D01*
X66760813Y-75380610D01*
X66629710Y-75468211D01*
X66629706Y-75468214D01*
X66518212Y-75579708D01*
X66518209Y-75579712D01*
X66430608Y-75710815D01*
X66430601Y-75710828D01*
X66370263Y-75856499D01*
X66370260Y-75856511D01*
X66339499Y-76011154D01*
X64756116Y-76011154D01*
X64770500Y-75938842D01*
X64770500Y-75781158D01*
X64770500Y-75781155D01*
X64770499Y-75781153D01*
X64756508Y-75710815D01*
X64739737Y-75626503D01*
X64691958Y-75511153D01*
X64679397Y-75480827D01*
X64679390Y-75480814D01*
X64591789Y-75349711D01*
X64591786Y-75349707D01*
X64480292Y-75238213D01*
X64480288Y-75238210D01*
X64349185Y-75150609D01*
X64349172Y-75150602D01*
X64203501Y-75090264D01*
X64203489Y-75090261D01*
X64048845Y-75059500D01*
X64048842Y-75059500D01*
X63902940Y-75059500D01*
X63835901Y-75039815D01*
X63815263Y-75023185D01*
X63760289Y-74968211D01*
X63760288Y-74968210D01*
X63760287Y-74968209D01*
X63629185Y-74880609D01*
X63629172Y-74880602D01*
X63483501Y-74820264D01*
X63483489Y-74820261D01*
X63328845Y-74789500D01*
X63328842Y-74789500D01*
X63171158Y-74789500D01*
X63171155Y-74789500D01*
X63016510Y-74820261D01*
X63016498Y-74820264D01*
X62870827Y-74880602D01*
X62870814Y-74880609D01*
X62739711Y-74968210D01*
X62739707Y-74968213D01*
X62628213Y-75079707D01*
X62628210Y-75079711D01*
X62540609Y-75210814D01*
X62540602Y-75210827D01*
X62480264Y-75356498D01*
X62480261Y-75356510D01*
X62449500Y-75511153D01*
X50200500Y-75511153D01*
X50200500Y-73191153D01*
X62309500Y-73191153D01*
X62309500Y-73348846D01*
X62340261Y-73503489D01*
X62340264Y-73503501D01*
X62400602Y-73649172D01*
X62400609Y-73649185D01*
X62488210Y-73780288D01*
X62488213Y-73780292D01*
X62599707Y-73891786D01*
X62599711Y-73891789D01*
X62730814Y-73979390D01*
X62730827Y-73979397D01*
X62876498Y-74039735D01*
X62876503Y-74039737D01*
X63031153Y-74070499D01*
X63031156Y-74070500D01*
X63031158Y-74070500D01*
X63188844Y-74070500D01*
X63188845Y-74070499D01*
X63343497Y-74039737D01*
X63489179Y-73979394D01*
X63620289Y-73891789D01*
X63731789Y-73780289D01*
X63819394Y-73649179D01*
X63879737Y-73503497D01*
X63910500Y-73348842D01*
X63910500Y-73191158D01*
X63910500Y-73191155D01*
X63910499Y-73191153D01*
X63879738Y-73036510D01*
X63879737Y-73036503D01*
X63879735Y-73036498D01*
X63819397Y-72890827D01*
X63819390Y-72890814D01*
X63731789Y-72759711D01*
X63731786Y-72759707D01*
X63620292Y-72648213D01*
X63620288Y-72648210D01*
X63489185Y-72560609D01*
X63489172Y-72560602D01*
X63343501Y-72500264D01*
X63343489Y-72500261D01*
X63188845Y-72469500D01*
X63188842Y-72469500D01*
X63031158Y-72469500D01*
X63031155Y-72469500D01*
X62876510Y-72500261D01*
X62876498Y-72500264D01*
X62730827Y-72560602D01*
X62730814Y-72560609D01*
X62599711Y-72648210D01*
X62599707Y-72648213D01*
X62488213Y-72759707D01*
X62488210Y-72759711D01*
X62400609Y-72890814D01*
X62400602Y-72890827D01*
X62340264Y-73036498D01*
X62340261Y-73036510D01*
X62309500Y-73191153D01*
X50200500Y-73191153D01*
X50200500Y-71251153D01*
X62309500Y-71251153D01*
X62309500Y-71408846D01*
X62340261Y-71563489D01*
X62340264Y-71563501D01*
X62400602Y-71709172D01*
X62400609Y-71709185D01*
X62488210Y-71840288D01*
X62488213Y-71840292D01*
X62599707Y-71951786D01*
X62599711Y-71951789D01*
X62730814Y-72039390D01*
X62730827Y-72039397D01*
X62876498Y-72099735D01*
X62876503Y-72099737D01*
X63031153Y-72130499D01*
X63031156Y-72130500D01*
X63031158Y-72130500D01*
X63188844Y-72130500D01*
X63188845Y-72130499D01*
X63343497Y-72099737D01*
X63489179Y-72039394D01*
X63620289Y-71951789D01*
X63731789Y-71840289D01*
X63819394Y-71709179D01*
X63879737Y-71563497D01*
X63910500Y-71408842D01*
X63910500Y-71251158D01*
X63910500Y-71251155D01*
X63910499Y-71251153D01*
X63879738Y-71096510D01*
X63879737Y-71096503D01*
X63879735Y-71096498D01*
X63819397Y-70950827D01*
X63819390Y-70950814D01*
X63731789Y-70819711D01*
X63731786Y-70819707D01*
X63620292Y-70708213D01*
X63620288Y-70708210D01*
X63489185Y-70620609D01*
X63489172Y-70620602D01*
X63343501Y-70560264D01*
X63343489Y-70560261D01*
X63188845Y-70529500D01*
X63188842Y-70529500D01*
X63031158Y-70529500D01*
X63031155Y-70529500D01*
X62876510Y-70560261D01*
X62876498Y-70560264D01*
X62730827Y-70620602D01*
X62730814Y-70620609D01*
X62599711Y-70708210D01*
X62599707Y-70708213D01*
X62488213Y-70819707D01*
X62488210Y-70819711D01*
X62400609Y-70950814D01*
X62400602Y-70950827D01*
X62340264Y-71096498D01*
X62340261Y-71096510D01*
X62309500Y-71251153D01*
X50200500Y-71251153D01*
X50200500Y-67221153D01*
X86024500Y-67221153D01*
X86024500Y-67378846D01*
X86055261Y-67533489D01*
X86055264Y-67533501D01*
X86115602Y-67679172D01*
X86115609Y-67679185D01*
X86203210Y-67810288D01*
X86203213Y-67810292D01*
X86314707Y-67921786D01*
X86314711Y-67921789D01*
X86445814Y-68009390D01*
X86445827Y-68009397D01*
X86591498Y-68069735D01*
X86591503Y-68069737D01*
X86746153Y-68100499D01*
X86746156Y-68100500D01*
X86746158Y-68100500D01*
X86903844Y-68100500D01*
X86903845Y-68100499D01*
X87058497Y-68069737D01*
X87204179Y-68009394D01*
X87335289Y-67921789D01*
X87446789Y-67810289D01*
X87534394Y-67679179D01*
X87594737Y-67533497D01*
X87625500Y-67378842D01*
X87625500Y-67221158D01*
X87625500Y-67221155D01*
X87625499Y-67221153D01*
X87594738Y-67066510D01*
X87594737Y-67066503D01*
X87594735Y-67066498D01*
X87534397Y-66920827D01*
X87534390Y-66920814D01*
X87446789Y-66789711D01*
X87446786Y-66789707D01*
X87335292Y-66678213D01*
X87335288Y-66678210D01*
X87204185Y-66590609D01*
X87204172Y-66590602D01*
X87058501Y-66530264D01*
X87058489Y-66530261D01*
X86903845Y-66499500D01*
X86903842Y-66499500D01*
X86746158Y-66499500D01*
X86746155Y-66499500D01*
X86591510Y-66530261D01*
X86591498Y-66530264D01*
X86445827Y-66590602D01*
X86445814Y-66590609D01*
X86314711Y-66678210D01*
X86314707Y-66678213D01*
X86203213Y-66789707D01*
X86203210Y-66789711D01*
X86115609Y-66920814D01*
X86115602Y-66920827D01*
X86055264Y-67066498D01*
X86055261Y-67066510D01*
X86024500Y-67221153D01*
X50200500Y-67221153D01*
X50200500Y-62971153D01*
X60999500Y-62971153D01*
X60999500Y-63128846D01*
X61030261Y-63283489D01*
X61030264Y-63283501D01*
X61090602Y-63429172D01*
X61090609Y-63429185D01*
X61178210Y-63560288D01*
X61178213Y-63560292D01*
X61289707Y-63671786D01*
X61289711Y-63671789D01*
X61420814Y-63759390D01*
X61420827Y-63759397D01*
X61566498Y-63819735D01*
X61566503Y-63819737D01*
X61721153Y-63850499D01*
X61721156Y-63850500D01*
X61721158Y-63850500D01*
X61878844Y-63850500D01*
X61878845Y-63850499D01*
X62033497Y-63819737D01*
X62151592Y-63770821D01*
X62179172Y-63759397D01*
X62179172Y-63759396D01*
X62179179Y-63759394D01*
X62310289Y-63671789D01*
X62421789Y-63560289D01*
X62501759Y-63440606D01*
X62506838Y-63433005D01*
X62560450Y-63388199D01*
X62629775Y-63379492D01*
X62692802Y-63409646D01*
X62724500Y-63454440D01*
X62730603Y-63469173D01*
X62730609Y-63469185D01*
X62818210Y-63600288D01*
X62818213Y-63600292D01*
X62929707Y-63711786D01*
X62929711Y-63711789D01*
X63060814Y-63799390D01*
X63060827Y-63799397D01*
X63206498Y-63859735D01*
X63206503Y-63859737D01*
X63307311Y-63879789D01*
X63361153Y-63890499D01*
X63361156Y-63890500D01*
X63361158Y-63890500D01*
X63518843Y-63890500D01*
X63534321Y-63887420D01*
X63603993Y-63873562D01*
X63673582Y-63879789D01*
X63728760Y-63922651D01*
X63752005Y-63988540D01*
X63749801Y-64019369D01*
X63739500Y-64071158D01*
X63739500Y-64228846D01*
X63770261Y-64383489D01*
X63770264Y-64383501D01*
X63830602Y-64529172D01*
X63830609Y-64529185D01*
X63918210Y-64660288D01*
X63918213Y-64660292D01*
X64029707Y-64771786D01*
X64029711Y-64771789D01*
X64160814Y-64859390D01*
X64160827Y-64859397D01*
X64306498Y-64919735D01*
X64306503Y-64919737D01*
X64461153Y-64950499D01*
X64461156Y-64950500D01*
X64461158Y-64950500D01*
X64618844Y-64950500D01*
X64618845Y-64950499D01*
X64773497Y-64919737D01*
X64919179Y-64859394D01*
X65050289Y-64771789D01*
X65161789Y-64660289D01*
X65249394Y-64529179D01*
X65309737Y-64383497D01*
X65340500Y-64228842D01*
X65340500Y-64071158D01*
X65340500Y-64071155D01*
X65340499Y-64071153D01*
X65309738Y-63916510D01*
X65309737Y-63916503D01*
X65294530Y-63879789D01*
X65249397Y-63770827D01*
X65249390Y-63770814D01*
X65161789Y-63639711D01*
X65161786Y-63639707D01*
X65050292Y-63528213D01*
X65050288Y-63528210D01*
X64919185Y-63440609D01*
X64919172Y-63440602D01*
X64773501Y-63380264D01*
X64773489Y-63380261D01*
X64618845Y-63349500D01*
X64618842Y-63349500D01*
X64461158Y-63349500D01*
X64461155Y-63349500D01*
X64376007Y-63366437D01*
X64306416Y-63360210D01*
X64251238Y-63317347D01*
X64227994Y-63251457D01*
X64230199Y-63220628D01*
X64240500Y-63168844D01*
X64240500Y-63011155D01*
X64240499Y-63011153D01*
X64209738Y-62856510D01*
X64209737Y-62856503D01*
X64209735Y-62856498D01*
X64149397Y-62710827D01*
X64149390Y-62710814D01*
X64124763Y-62673957D01*
X64082798Y-62611153D01*
X65329500Y-62611153D01*
X65329500Y-62768846D01*
X65360261Y-62923489D01*
X65360264Y-62923501D01*
X65420602Y-63069172D01*
X65420609Y-63069185D01*
X65508210Y-63200288D01*
X65508213Y-63200292D01*
X65619707Y-63311786D01*
X65619711Y-63311789D01*
X65750814Y-63399390D01*
X65750827Y-63399397D01*
X65883715Y-63454440D01*
X65896503Y-63459737D01*
X66051153Y-63490499D01*
X66051156Y-63490500D01*
X66051158Y-63490500D01*
X66208844Y-63490500D01*
X66208845Y-63490499D01*
X66363497Y-63459737D01*
X66509179Y-63399394D01*
X66640289Y-63311789D01*
X66751789Y-63200289D01*
X66811348Y-63111153D01*
X83984500Y-63111153D01*
X83984500Y-63268846D01*
X84015261Y-63423489D01*
X84015264Y-63423501D01*
X84075602Y-63569172D01*
X84075609Y-63569185D01*
X84163210Y-63700288D01*
X84163213Y-63700292D01*
X84274707Y-63811786D01*
X84274711Y-63811789D01*
X84405814Y-63899390D01*
X84405827Y-63899397D01*
X84551498Y-63959735D01*
X84551503Y-63959737D01*
X84706153Y-63990499D01*
X84706156Y-63990500D01*
X84706158Y-63990500D01*
X84863844Y-63990500D01*
X84863845Y-63990499D01*
X85018497Y-63959737D01*
X85164179Y-63899394D01*
X85295289Y-63811789D01*
X85406789Y-63700289D01*
X85494394Y-63569179D01*
X85554737Y-63423497D01*
X85585500Y-63268842D01*
X85585500Y-63111158D01*
X85585500Y-63111155D01*
X85585499Y-63111153D01*
X85574849Y-63057611D01*
X85554737Y-62956503D01*
X85513314Y-62856498D01*
X85494397Y-62810827D01*
X85494390Y-62810814D01*
X85406789Y-62679711D01*
X85406786Y-62679707D01*
X85295292Y-62568213D01*
X85295288Y-62568210D01*
X85164185Y-62480609D01*
X85164172Y-62480602D01*
X85018501Y-62420264D01*
X85018489Y-62420261D01*
X84863845Y-62389500D01*
X84863842Y-62389500D01*
X84706158Y-62389500D01*
X84706155Y-62389500D01*
X84551510Y-62420261D01*
X84551498Y-62420264D01*
X84405827Y-62480602D01*
X84405814Y-62480609D01*
X84274711Y-62568210D01*
X84274707Y-62568213D01*
X84163213Y-62679707D01*
X84163210Y-62679711D01*
X84075609Y-62810814D01*
X84075602Y-62810827D01*
X84015264Y-62956498D01*
X84015261Y-62956510D01*
X83984500Y-63111153D01*
X66811348Y-63111153D01*
X66839394Y-63069179D01*
X66899737Y-62923497D01*
X66930500Y-62768842D01*
X66930500Y-62611158D01*
X66930500Y-62611155D01*
X66930499Y-62611153D01*
X66904531Y-62480606D01*
X66899737Y-62456503D01*
X66888018Y-62428210D01*
X66839397Y-62310827D01*
X66839390Y-62310814D01*
X66751789Y-62179711D01*
X66751786Y-62179707D01*
X66640292Y-62068213D01*
X66640288Y-62068210D01*
X66509185Y-61980609D01*
X66509172Y-61980602D01*
X66363501Y-61920264D01*
X66363489Y-61920261D01*
X66208845Y-61889500D01*
X66208842Y-61889500D01*
X66051158Y-61889500D01*
X66051155Y-61889500D01*
X65896510Y-61920261D01*
X65896498Y-61920264D01*
X65750827Y-61980602D01*
X65750814Y-61980609D01*
X65619711Y-62068210D01*
X65619707Y-62068213D01*
X65508213Y-62179707D01*
X65508210Y-62179711D01*
X65420609Y-62310814D01*
X65420602Y-62310827D01*
X65360264Y-62456498D01*
X65360261Y-62456510D01*
X65329500Y-62611153D01*
X64082798Y-62611153D01*
X64061789Y-62579711D01*
X64061786Y-62579707D01*
X63950292Y-62468213D01*
X63950288Y-62468210D01*
X63819185Y-62380609D01*
X63819172Y-62380602D01*
X63673501Y-62320264D01*
X63673489Y-62320261D01*
X63518845Y-62289500D01*
X63518842Y-62289500D01*
X63361158Y-62289500D01*
X63361155Y-62289500D01*
X63206510Y-62320261D01*
X63206498Y-62320264D01*
X63060827Y-62380602D01*
X63060814Y-62380609D01*
X62929711Y-62468210D01*
X62929707Y-62468213D01*
X62818213Y-62579707D01*
X62818210Y-62579711D01*
X62733161Y-62706995D01*
X62679548Y-62751800D01*
X62610223Y-62760507D01*
X62547196Y-62730352D01*
X62515498Y-62685557D01*
X62509395Y-62670823D01*
X62509390Y-62670814D01*
X62421789Y-62539711D01*
X62421786Y-62539707D01*
X62310292Y-62428213D01*
X62310288Y-62428210D01*
X62179185Y-62340609D01*
X62179172Y-62340602D01*
X62033501Y-62280264D01*
X62033489Y-62280261D01*
X61878845Y-62249500D01*
X61878842Y-62249500D01*
X61721158Y-62249500D01*
X61721155Y-62249500D01*
X61566510Y-62280261D01*
X61566498Y-62280264D01*
X61420827Y-62340602D01*
X61420814Y-62340609D01*
X61289711Y-62428210D01*
X61289707Y-62428213D01*
X61178213Y-62539707D01*
X61178210Y-62539711D01*
X61090609Y-62670814D01*
X61090602Y-62670827D01*
X61030264Y-62816498D01*
X61030261Y-62816510D01*
X60999500Y-62971153D01*
X50200500Y-62971153D01*
X50200500Y-61271153D01*
X75274500Y-61271153D01*
X75274500Y-61428846D01*
X75305261Y-61583489D01*
X75305264Y-61583501D01*
X75365602Y-61729172D01*
X75365609Y-61729185D01*
X75453210Y-61860288D01*
X75453213Y-61860292D01*
X75564707Y-61971786D01*
X75564711Y-61971789D01*
X75695814Y-62059390D01*
X75695827Y-62059397D01*
X75841498Y-62119735D01*
X75841503Y-62119737D01*
X75996153Y-62150499D01*
X75996156Y-62150500D01*
X75996158Y-62150500D01*
X76153844Y-62150500D01*
X76153845Y-62150499D01*
X76308497Y-62119737D01*
X76454179Y-62059394D01*
X76585289Y-61971789D01*
X76696789Y-61860289D01*
X76784394Y-61729179D01*
X76844737Y-61583497D01*
X76875500Y-61428842D01*
X76875500Y-61271158D01*
X76875500Y-61271155D01*
X76875499Y-61271153D01*
X76848474Y-61135292D01*
X76844737Y-61116503D01*
X76798214Y-61004185D01*
X76784397Y-60970827D01*
X76784390Y-60970814D01*
X76696789Y-60839711D01*
X76696786Y-60839707D01*
X76585292Y-60728213D01*
X76585288Y-60728210D01*
X76454185Y-60640609D01*
X76454172Y-60640602D01*
X76308501Y-60580264D01*
X76308489Y-60580261D01*
X76153845Y-60549500D01*
X76153842Y-60549500D01*
X75996158Y-60549500D01*
X75996155Y-60549500D01*
X75841510Y-60580261D01*
X75841498Y-60580264D01*
X75695827Y-60640602D01*
X75695814Y-60640609D01*
X75564711Y-60728210D01*
X75564707Y-60728213D01*
X75453213Y-60839707D01*
X75453210Y-60839711D01*
X75365609Y-60970814D01*
X75365602Y-60970827D01*
X75305264Y-61116498D01*
X75305261Y-61116510D01*
X75274500Y-61271153D01*
X50200500Y-61271153D01*
X50200500Y-58641153D01*
X75539500Y-58641153D01*
X75539500Y-58798846D01*
X75570261Y-58953489D01*
X75570264Y-58953501D01*
X75630602Y-59099172D01*
X75630609Y-59099185D01*
X75718210Y-59230288D01*
X75718213Y-59230292D01*
X75829707Y-59341786D01*
X75829711Y-59341789D01*
X75960814Y-59429390D01*
X75960827Y-59429397D01*
X76082363Y-59479738D01*
X76106503Y-59489737D01*
X76261153Y-59520499D01*
X76261156Y-59520500D01*
X76261158Y-59520500D01*
X76418844Y-59520500D01*
X76418845Y-59520499D01*
X76573497Y-59489737D01*
X76719179Y-59429394D01*
X76850289Y-59341789D01*
X76961789Y-59230289D01*
X77049394Y-59099179D01*
X77109737Y-58953497D01*
X77134377Y-58829623D01*
X77166761Y-58767713D01*
X77227477Y-58733139D01*
X77297247Y-58736878D01*
X77353919Y-58777744D01*
X77377611Y-58829623D01*
X77400261Y-58943491D01*
X77400264Y-58943501D01*
X77460602Y-59089172D01*
X77460609Y-59089185D01*
X77548210Y-59220288D01*
X77548213Y-59220292D01*
X77659707Y-59331786D01*
X77659711Y-59331789D01*
X77790814Y-59419390D01*
X77790827Y-59419397D01*
X77936498Y-59479735D01*
X77936503Y-59479737D01*
X78085578Y-59509390D01*
X78091153Y-59510499D01*
X78091156Y-59510500D01*
X78091158Y-59510500D01*
X78248844Y-59510500D01*
X78248845Y-59510499D01*
X78403497Y-59479737D01*
X78516166Y-59433067D01*
X78549172Y-59419397D01*
X78549172Y-59419396D01*
X78549179Y-59419394D01*
X78680289Y-59331789D01*
X78791789Y-59220289D01*
X78879394Y-59089179D01*
X78939737Y-58943497D01*
X78970500Y-58788842D01*
X78970500Y-58631158D01*
X78970500Y-58631155D01*
X78970499Y-58631153D01*
X78957639Y-58566503D01*
X78939737Y-58476503D01*
X78916673Y-58420821D01*
X78879397Y-58330827D01*
X78879390Y-58330814D01*
X78791789Y-58199711D01*
X78791786Y-58199707D01*
X78680292Y-58088213D01*
X78680288Y-58088210D01*
X78579931Y-58021153D01*
X82899500Y-58021153D01*
X82899500Y-58178846D01*
X82930261Y-58333489D01*
X82930264Y-58333501D01*
X82990602Y-58479172D01*
X82990609Y-58479185D01*
X83078210Y-58610288D01*
X83078213Y-58610292D01*
X83189707Y-58721786D01*
X83189711Y-58721789D01*
X83320814Y-58809390D01*
X83320827Y-58809397D01*
X83454369Y-58864711D01*
X83466503Y-58869737D01*
X83621153Y-58900499D01*
X83621156Y-58900500D01*
X83621158Y-58900500D01*
X83778844Y-58900500D01*
X83846913Y-58886960D01*
X83916505Y-58893187D01*
X83971682Y-58936050D01*
X83994927Y-59001939D01*
X83985667Y-59056028D01*
X83950263Y-59141503D01*
X83950261Y-59141510D01*
X83919500Y-59296153D01*
X83919500Y-59453846D01*
X83950261Y-59608489D01*
X83950264Y-59608501D01*
X84010602Y-59754172D01*
X84010609Y-59754185D01*
X84098210Y-59885288D01*
X84098213Y-59885292D01*
X84120240Y-59907319D01*
X84153725Y-59968642D01*
X84148741Y-60038334D01*
X84120240Y-60082681D01*
X84088213Y-60114707D01*
X84088210Y-60114711D01*
X84000609Y-60245814D01*
X84000602Y-60245827D01*
X83940264Y-60391498D01*
X83940261Y-60391510D01*
X83909500Y-60546153D01*
X83909500Y-60703846D01*
X83940261Y-60858489D01*
X83940264Y-60858501D01*
X84000602Y-61004172D01*
X84000609Y-61004185D01*
X84088210Y-61135288D01*
X84088213Y-61135292D01*
X84199707Y-61246786D01*
X84199711Y-61246789D01*
X84330814Y-61334390D01*
X84330827Y-61334397D01*
X84476498Y-61394735D01*
X84476503Y-61394737D01*
X84631153Y-61425499D01*
X84631156Y-61425500D01*
X84631158Y-61425500D01*
X84788844Y-61425500D01*
X84788845Y-61425499D01*
X84943497Y-61394737D01*
X85089179Y-61334394D01*
X85220289Y-61246789D01*
X85331789Y-61135289D01*
X85419394Y-61004179D01*
X85479737Y-60858497D01*
X85510500Y-60703842D01*
X85510500Y-60546158D01*
X85510500Y-60546155D01*
X85510499Y-60546153D01*
X85479738Y-60391510D01*
X85479737Y-60391503D01*
X85479735Y-60391498D01*
X85419397Y-60245827D01*
X85419390Y-60245814D01*
X85331790Y-60114712D01*
X85331785Y-60114707D01*
X85309758Y-60092680D01*
X85276274Y-60031360D01*
X85281257Y-59961669D01*
X85309760Y-59917318D01*
X85341786Y-59885292D01*
X85341789Y-59885289D01*
X85429394Y-59754179D01*
X85485576Y-59618543D01*
X85529416Y-59564139D01*
X85552685Y-59551434D01*
X85654172Y-59509397D01*
X85654172Y-59509396D01*
X85654179Y-59509394D01*
X85785289Y-59421789D01*
X85896789Y-59310289D01*
X85984394Y-59179179D01*
X86044737Y-59033497D01*
X86061657Y-58948432D01*
X86094041Y-58886523D01*
X86135822Y-58858064D01*
X86229172Y-58819397D01*
X86229172Y-58819396D01*
X86229179Y-58819394D01*
X86360289Y-58731789D01*
X86471789Y-58620289D01*
X86559394Y-58489179D01*
X86560503Y-58486503D01*
X86573067Y-58456166D01*
X86619737Y-58343497D01*
X86650500Y-58188842D01*
X86650500Y-58031158D01*
X86650500Y-58031155D01*
X86650499Y-58031153D01*
X86648510Y-58021153D01*
X86619737Y-57876503D01*
X86615593Y-57866498D01*
X86559397Y-57730827D01*
X86559390Y-57730814D01*
X86471789Y-57599711D01*
X86471786Y-57599707D01*
X86360292Y-57488213D01*
X86360288Y-57488210D01*
X86229185Y-57400609D01*
X86229172Y-57400602D01*
X86083501Y-57340264D01*
X86083489Y-57340261D01*
X85928845Y-57309500D01*
X85928842Y-57309500D01*
X85771158Y-57309500D01*
X85771155Y-57309500D01*
X85616510Y-57340261D01*
X85616498Y-57340264D01*
X85470827Y-57400602D01*
X85470814Y-57400609D01*
X85339711Y-57488210D01*
X85339707Y-57488213D01*
X85228213Y-57599707D01*
X85228210Y-57599711D01*
X85140609Y-57730814D01*
X85140602Y-57730827D01*
X85080264Y-57876498D01*
X85080261Y-57876507D01*
X85063341Y-57961568D01*
X85030955Y-58023479D01*
X84989177Y-58051936D01*
X84895824Y-58090604D01*
X84895814Y-58090609D01*
X84764711Y-58178210D01*
X84764707Y-58178213D01*
X84712181Y-58230740D01*
X84650858Y-58264225D01*
X84581166Y-58259241D01*
X84525233Y-58217369D01*
X84500816Y-58151905D01*
X84500500Y-58143059D01*
X84500500Y-58021155D01*
X84500499Y-58021153D01*
X84498400Y-58010602D01*
X84469737Y-57866503D01*
X84413539Y-57730827D01*
X84409397Y-57720827D01*
X84409390Y-57720814D01*
X84321789Y-57589711D01*
X84321786Y-57589707D01*
X84210292Y-57478213D01*
X84210288Y-57478210D01*
X84079185Y-57390609D01*
X84079172Y-57390602D01*
X83933501Y-57330264D01*
X83933489Y-57330261D01*
X83778845Y-57299500D01*
X83778842Y-57299500D01*
X83621158Y-57299500D01*
X83621155Y-57299500D01*
X83466510Y-57330261D01*
X83466498Y-57330264D01*
X83320827Y-57390602D01*
X83320814Y-57390609D01*
X83189711Y-57478210D01*
X83189707Y-57478213D01*
X83078213Y-57589707D01*
X83078210Y-57589711D01*
X82990609Y-57720814D01*
X82990602Y-57720827D01*
X82930264Y-57866498D01*
X82930261Y-57866510D01*
X82899500Y-58021153D01*
X78579931Y-58021153D01*
X78549185Y-58000609D01*
X78549172Y-58000602D01*
X78403501Y-57940264D01*
X78403489Y-57940261D01*
X78248845Y-57909500D01*
X78248842Y-57909500D01*
X78091158Y-57909500D01*
X78091155Y-57909500D01*
X77936510Y-57940261D01*
X77936498Y-57940264D01*
X77790827Y-58000602D01*
X77790814Y-58000609D01*
X77659711Y-58088210D01*
X77659707Y-58088213D01*
X77548213Y-58199707D01*
X77548210Y-58199711D01*
X77460609Y-58330814D01*
X77460602Y-58330827D01*
X77400264Y-58476498D01*
X77400261Y-58476508D01*
X77375622Y-58600376D01*
X77343237Y-58662287D01*
X77282521Y-58696861D01*
X77212751Y-58693120D01*
X77156080Y-58652254D01*
X77132388Y-58600375D01*
X77109738Y-58486510D01*
X77109737Y-58486503D01*
X77106703Y-58479179D01*
X77049397Y-58340827D01*
X77049390Y-58340814D01*
X76961789Y-58209711D01*
X76961786Y-58209707D01*
X76850292Y-58098213D01*
X76850288Y-58098210D01*
X76719185Y-58010609D01*
X76719172Y-58010602D01*
X76573501Y-57950264D01*
X76573489Y-57950261D01*
X76418845Y-57919500D01*
X76418842Y-57919500D01*
X76261158Y-57919500D01*
X76261155Y-57919500D01*
X76106510Y-57950261D01*
X76106498Y-57950264D01*
X75960827Y-58010602D01*
X75960814Y-58010609D01*
X75829711Y-58098210D01*
X75829707Y-58098213D01*
X75718213Y-58209707D01*
X75718210Y-58209711D01*
X75630609Y-58340814D01*
X75630602Y-58340827D01*
X75570264Y-58486498D01*
X75570261Y-58486510D01*
X75539500Y-58641153D01*
X50200500Y-58641153D01*
X50200500Y-56131153D01*
X60529500Y-56131153D01*
X60529500Y-56288846D01*
X60560261Y-56443489D01*
X60560264Y-56443501D01*
X60620602Y-56589172D01*
X60620609Y-56589185D01*
X60708210Y-56720288D01*
X60708213Y-56720292D01*
X60819707Y-56831786D01*
X60819711Y-56831789D01*
X60950814Y-56919390D01*
X60950827Y-56919397D01*
X61094342Y-56978842D01*
X61096503Y-56979737D01*
X61251153Y-57010499D01*
X61251156Y-57010500D01*
X61251158Y-57010500D01*
X61408844Y-57010500D01*
X61408845Y-57010499D01*
X61563497Y-56979737D01*
X61709179Y-56919394D01*
X61840289Y-56831789D01*
X61850925Y-56821153D01*
X71749500Y-56821153D01*
X71749500Y-56978846D01*
X71780261Y-57133489D01*
X71780264Y-57133501D01*
X71840602Y-57279172D01*
X71840609Y-57279185D01*
X71928210Y-57410288D01*
X71928213Y-57410292D01*
X72039707Y-57521786D01*
X72039711Y-57521789D01*
X72170814Y-57609390D01*
X72170827Y-57609397D01*
X72316498Y-57669735D01*
X72316503Y-57669737D01*
X72471153Y-57700499D01*
X72471156Y-57700500D01*
X72471158Y-57700500D01*
X72628844Y-57700500D01*
X72628845Y-57700499D01*
X72783497Y-57669737D01*
X72929179Y-57609394D01*
X73060289Y-57521789D01*
X73171789Y-57410289D01*
X73259394Y-57279179D01*
X73319737Y-57133497D01*
X73350500Y-56978842D01*
X73350500Y-56821158D01*
X73350500Y-56821155D01*
X73350499Y-56821153D01*
X73330436Y-56720289D01*
X73319737Y-56666503D01*
X73287706Y-56589172D01*
X73259397Y-56520827D01*
X73259390Y-56520814D01*
X73171789Y-56389711D01*
X73171786Y-56389707D01*
X73060292Y-56278213D01*
X73060288Y-56278210D01*
X72929185Y-56190609D01*
X72929172Y-56190602D01*
X72783501Y-56130264D01*
X72783489Y-56130261D01*
X72628845Y-56099500D01*
X72628842Y-56099500D01*
X72471158Y-56099500D01*
X72471155Y-56099500D01*
X72316510Y-56130261D01*
X72316498Y-56130264D01*
X72170827Y-56190602D01*
X72170814Y-56190609D01*
X72039711Y-56278210D01*
X72039707Y-56278213D01*
X71928213Y-56389707D01*
X71928210Y-56389711D01*
X71840609Y-56520814D01*
X71840602Y-56520827D01*
X71780264Y-56666498D01*
X71780261Y-56666510D01*
X71749500Y-56821153D01*
X61850925Y-56821153D01*
X61944694Y-56727385D01*
X61951786Y-56720292D01*
X61951789Y-56720289D01*
X62039394Y-56589179D01*
X62099737Y-56443497D01*
X62130500Y-56288842D01*
X62130500Y-56131158D01*
X62130500Y-56131155D01*
X62130499Y-56131153D01*
X62109712Y-56026647D01*
X62115939Y-55957056D01*
X62158802Y-55901878D01*
X62207138Y-55880839D01*
X62208842Y-55880500D01*
X62363497Y-55849737D01*
X62509179Y-55789394D01*
X62640289Y-55701789D01*
X62751789Y-55590289D01*
X62771316Y-55561063D01*
X62824926Y-55516258D01*
X62894251Y-55507549D01*
X62921868Y-55515391D01*
X62956503Y-55529737D01*
X63111153Y-55560499D01*
X63111156Y-55560500D01*
X63111158Y-55560500D01*
X63268844Y-55560500D01*
X63268845Y-55560499D01*
X63423497Y-55529737D01*
X63569179Y-55469394D01*
X63700289Y-55381789D01*
X63811789Y-55270289D01*
X63899394Y-55139179D01*
X63959737Y-54993497D01*
X63990500Y-54838842D01*
X63990500Y-54681158D01*
X63990500Y-54681155D01*
X63990499Y-54681153D01*
X63971791Y-54587102D01*
X63959737Y-54526503D01*
X63931450Y-54458211D01*
X63899397Y-54380827D01*
X63899391Y-54380816D01*
X63889740Y-54366372D01*
X63868863Y-54299695D01*
X63887348Y-54232315D01*
X63889723Y-54228618D01*
X63909394Y-54199179D01*
X63969737Y-54053497D01*
X64000500Y-53898842D01*
X64000500Y-53741158D01*
X64000500Y-53741155D01*
X64000499Y-53741153D01*
X63985355Y-53665019D01*
X63969737Y-53586503D01*
X63969735Y-53586498D01*
X63909397Y-53440827D01*
X63909390Y-53440814D01*
X63863036Y-53371441D01*
X63842158Y-53304764D01*
X63853918Y-53249798D01*
X63857868Y-53241394D01*
X63879394Y-53209179D01*
X63903429Y-53151153D01*
X81279500Y-53151153D01*
X81279500Y-53308846D01*
X81310261Y-53463489D01*
X81310264Y-53463501D01*
X81370602Y-53609172D01*
X81370609Y-53609185D01*
X81458210Y-53740288D01*
X81458213Y-53740292D01*
X81569707Y-53851786D01*
X81569711Y-53851789D01*
X81700814Y-53939390D01*
X81700827Y-53939397D01*
X81822288Y-53989707D01*
X81846503Y-53999737D01*
X82001153Y-54030499D01*
X82001156Y-54030500D01*
X82001158Y-54030500D01*
X82158844Y-54030500D01*
X82158845Y-54030499D01*
X82313497Y-53999737D01*
X82459179Y-53939394D01*
X82590289Y-53851789D01*
X82701789Y-53740289D01*
X82789394Y-53609179D01*
X82849737Y-53463497D01*
X82880500Y-53308842D01*
X82880500Y-53151158D01*
X82880500Y-53151155D01*
X82880499Y-53151153D01*
X82849737Y-52996503D01*
X82839440Y-52971644D01*
X82789397Y-52850827D01*
X82789390Y-52850814D01*
X82701788Y-52719710D01*
X82701787Y-52719708D01*
X82628232Y-52646153D01*
X83719500Y-52646153D01*
X83719500Y-52803846D01*
X83750261Y-52958489D01*
X83750264Y-52958501D01*
X83810602Y-53104172D01*
X83810609Y-53104185D01*
X83898210Y-53235288D01*
X83898213Y-53235292D01*
X84009707Y-53346786D01*
X84009711Y-53346789D01*
X84140814Y-53434390D01*
X84140827Y-53434397D01*
X84292130Y-53497068D01*
X84291349Y-53498952D01*
X84341985Y-53532140D01*
X84370440Y-53595953D01*
X84359878Y-53665019D01*
X84313652Y-53717412D01*
X84291889Y-53727350D01*
X84292130Y-53727932D01*
X84140827Y-53790602D01*
X84140814Y-53790609D01*
X84009711Y-53878210D01*
X84009707Y-53878213D01*
X83898213Y-53989707D01*
X83898210Y-53989711D01*
X83810609Y-54120814D01*
X83810602Y-54120827D01*
X83750264Y-54266498D01*
X83750261Y-54266510D01*
X83719500Y-54421153D01*
X83719500Y-54578846D01*
X83750261Y-54733489D01*
X83750264Y-54733501D01*
X83810602Y-54879172D01*
X83810609Y-54879185D01*
X83898210Y-55010288D01*
X83898213Y-55010292D01*
X84009707Y-55121786D01*
X84009711Y-55121789D01*
X84140814Y-55209390D01*
X84140827Y-55209397D01*
X84271088Y-55263352D01*
X84286503Y-55269737D01*
X84441153Y-55300499D01*
X84441156Y-55300500D01*
X84441158Y-55300500D01*
X84598844Y-55300500D01*
X84598845Y-55300499D01*
X84753497Y-55269737D01*
X84899179Y-55209394D01*
X85030289Y-55121789D01*
X85141789Y-55010289D01*
X85229394Y-54879179D01*
X85289737Y-54733497D01*
X85320500Y-54578842D01*
X85320500Y-54421158D01*
X85320500Y-54421155D01*
X85320499Y-54421153D01*
X85310445Y-54370609D01*
X85289737Y-54266503D01*
X85261848Y-54199172D01*
X85229397Y-54120827D01*
X85229390Y-54120814D01*
X85141789Y-53989711D01*
X85141786Y-53989707D01*
X85030292Y-53878213D01*
X85030288Y-53878210D01*
X84899185Y-53790609D01*
X84899172Y-53790602D01*
X84747870Y-53727932D01*
X84748651Y-53726044D01*
X84698021Y-53692869D01*
X84669561Y-53629059D01*
X84680116Y-53559991D01*
X84726337Y-53507595D01*
X84748111Y-53497650D01*
X84747870Y-53497068D01*
X84899172Y-53434397D01*
X84899172Y-53434396D01*
X84899179Y-53434394D01*
X85030289Y-53346789D01*
X85141789Y-53235289D01*
X85229394Y-53104179D01*
X85289737Y-52958497D01*
X85320500Y-52803842D01*
X85320500Y-52646158D01*
X85320500Y-52646155D01*
X85320499Y-52646153D01*
X85310459Y-52595680D01*
X85289737Y-52491503D01*
X85289735Y-52491498D01*
X85229397Y-52345827D01*
X85229390Y-52345814D01*
X85141789Y-52214711D01*
X85141786Y-52214707D01*
X85030292Y-52103213D01*
X85030288Y-52103210D01*
X84899185Y-52015609D01*
X84899172Y-52015602D01*
X84753501Y-51955264D01*
X84753489Y-51955261D01*
X84598845Y-51924500D01*
X84598842Y-51924500D01*
X84441158Y-51924500D01*
X84441155Y-51924500D01*
X84286510Y-51955261D01*
X84286498Y-51955264D01*
X84140827Y-52015602D01*
X84140814Y-52015609D01*
X84009711Y-52103210D01*
X84009707Y-52103213D01*
X83898213Y-52214707D01*
X83898210Y-52214711D01*
X83810609Y-52345814D01*
X83810602Y-52345827D01*
X83750264Y-52491498D01*
X83750261Y-52491510D01*
X83719500Y-52646153D01*
X82628232Y-52646153D01*
X82590292Y-52608213D01*
X82590288Y-52608210D01*
X82459185Y-52520609D01*
X82459172Y-52520602D01*
X82313501Y-52460264D01*
X82313489Y-52460261D01*
X82158845Y-52429500D01*
X82158842Y-52429500D01*
X82001158Y-52429500D01*
X82001155Y-52429500D01*
X81846510Y-52460261D01*
X81846498Y-52460264D01*
X81700827Y-52520602D01*
X81700814Y-52520609D01*
X81569711Y-52608210D01*
X81569707Y-52608213D01*
X81458213Y-52719707D01*
X81458210Y-52719711D01*
X81370609Y-52850814D01*
X81370602Y-52850827D01*
X81310264Y-52996498D01*
X81310261Y-52996510D01*
X81279500Y-53151153D01*
X63903429Y-53151153D01*
X63939737Y-53063497D01*
X63970500Y-52908842D01*
X63970500Y-52751158D01*
X63970500Y-52751155D01*
X63970499Y-52751153D01*
X63964245Y-52719711D01*
X63939737Y-52596503D01*
X63896243Y-52491498D01*
X63879397Y-52450827D01*
X63879390Y-52450814D01*
X63791789Y-52319711D01*
X63791786Y-52319707D01*
X63680292Y-52208213D01*
X63680288Y-52208210D01*
X63549185Y-52120609D01*
X63549172Y-52120602D01*
X63403501Y-52060264D01*
X63403489Y-52060261D01*
X63248845Y-52029500D01*
X63248842Y-52029500D01*
X63091158Y-52029500D01*
X63091155Y-52029500D01*
X62936510Y-52060261D01*
X62936498Y-52060264D01*
X62790827Y-52120602D01*
X62790814Y-52120609D01*
X62738891Y-52155304D01*
X62672214Y-52176182D01*
X62604833Y-52157698D01*
X62601109Y-52155304D01*
X62549185Y-52120609D01*
X62549172Y-52120602D01*
X62403501Y-52060264D01*
X62403489Y-52060261D01*
X62248845Y-52029500D01*
X62248842Y-52029500D01*
X62091158Y-52029500D01*
X62091155Y-52029500D01*
X61936510Y-52060261D01*
X61936498Y-52060264D01*
X61790827Y-52120602D01*
X61790814Y-52120609D01*
X61659711Y-52208210D01*
X61659707Y-52208213D01*
X61548213Y-52319707D01*
X61548210Y-52319711D01*
X61460609Y-52450814D01*
X61460602Y-52450827D01*
X61400264Y-52596498D01*
X61400261Y-52596510D01*
X61369500Y-52751153D01*
X61369500Y-52908846D01*
X61400261Y-53063489D01*
X61400264Y-53063501D01*
X61460602Y-53209172D01*
X61460609Y-53209185D01*
X61548210Y-53340288D01*
X61548213Y-53340292D01*
X61659707Y-53451786D01*
X61659711Y-53451789D01*
X61790814Y-53539390D01*
X61790827Y-53539397D01*
X61936498Y-53599735D01*
X61936503Y-53599737D01*
X62083914Y-53629059D01*
X62091153Y-53630499D01*
X62091156Y-53630500D01*
X62091158Y-53630500D01*
X62248838Y-53630500D01*
X62248842Y-53630500D01*
X62251298Y-53630011D01*
X62252613Y-53630128D01*
X62254907Y-53629903D01*
X62254949Y-53630337D01*
X62320887Y-53636231D01*
X62376070Y-53679088D01*
X62399322Y-53744975D01*
X62399500Y-53751626D01*
X62399500Y-53898846D01*
X62430261Y-54053489D01*
X62430264Y-54053501D01*
X62463385Y-54133462D01*
X62470854Y-54202931D01*
X62439579Y-54265410D01*
X62379490Y-54301062D01*
X62324633Y-54302531D01*
X62208846Y-54279500D01*
X62208842Y-54279500D01*
X62051158Y-54279500D01*
X62051155Y-54279500D01*
X61896510Y-54310261D01*
X61896498Y-54310264D01*
X61750827Y-54370602D01*
X61750814Y-54370609D01*
X61619711Y-54458210D01*
X61619707Y-54458213D01*
X61508213Y-54569707D01*
X61508210Y-54569711D01*
X61420609Y-54700814D01*
X61420602Y-54700827D01*
X61360264Y-54846498D01*
X61360261Y-54846510D01*
X61329500Y-55001153D01*
X61329500Y-55158840D01*
X61350288Y-55263352D01*
X61344060Y-55332944D01*
X61301196Y-55388121D01*
X61252862Y-55409160D01*
X61096508Y-55440261D01*
X61096498Y-55440264D01*
X60950827Y-55500602D01*
X60950814Y-55500609D01*
X60819711Y-55588210D01*
X60819707Y-55588213D01*
X60708213Y-55699707D01*
X60708210Y-55699711D01*
X60620609Y-55830814D01*
X60620602Y-55830827D01*
X60560264Y-55976498D01*
X60560261Y-55976510D01*
X60529500Y-56131153D01*
X50200500Y-56131153D01*
X50200500Y-55002706D01*
X50200618Y-54997297D01*
X50205775Y-54879179D01*
X50218528Y-54587080D01*
X50219468Y-54576347D01*
X50272709Y-54171938D01*
X50274582Y-54161308D01*
X50362870Y-53763068D01*
X50365668Y-53752630D01*
X50368082Y-53744975D01*
X50488319Y-53363629D01*
X50492016Y-53353473D01*
X50497476Y-53340292D01*
X50648111Y-52976627D01*
X50652669Y-52966853D01*
X50841025Y-52605024D01*
X50846407Y-52595703D01*
X51065574Y-52251680D01*
X51071765Y-52242837D01*
X51320083Y-51919224D01*
X51327021Y-51910955D01*
X51602594Y-51610220D01*
X51610220Y-51602594D01*
X51910955Y-51327021D01*
X51919224Y-51320083D01*
X52242837Y-51071765D01*
X52251680Y-51065574D01*
X52595703Y-50846407D01*
X52605024Y-50841025D01*
X52966853Y-50652669D01*
X52976627Y-50648111D01*
X53353482Y-50492012D01*
X53363629Y-50488319D01*
X53752639Y-50365665D01*
X53763068Y-50362870D01*
X54161308Y-50274582D01*
X54171938Y-50272709D01*
X54576347Y-50219468D01*
X54587080Y-50218528D01*
X54997297Y-50200617D01*
X55002706Y-50200500D01*
X55039882Y-50200500D01*
X89960118Y-50200500D01*
X89997294Y-50200500D01*
X90002702Y-50200617D01*
G37*
%TD.AperFunction*%
%TD*%
M02*
